<svg xmlns="http://www.w3.org/2000/svg" viewBox="0 0 368 216"><path fill="#153b4b" d="M175.87639.1379c-13.3871.80087-21.61708 1.8687-30.0074 3.87086-13.52069 3.23016-20.06727 7.1811-21.69723 13.10752-.16033.5873-.2672 1.04113-.24049 1.04113.05344 0 .7749-.6674 1.62997-1.49495 1.817-1.76191 3.92795-2.66956 6.73362-2.88312 1.57653-.13348 2.0575-.0801 3.36682.5339 6.17249 2.85643 13.60085 12.33336 17.84945 22.77132 4.54252 11.21214 5.31742 19.06063 2.6988 27.38965-2.77896 8.80954-8.52392 15.99064-22.25838 27.84347-7.45509 6.40694-12.7458 11.21214-15.60491 14.20204-2.59191 2.74965-6.27938 7.2345-7.37493 8.9964l-.6413 1.04114-1.06882-.56061c-1.33604-.66739-2.64536-2.16234-3.12633-3.55051-.4008-1.1746-.53441-4.96537-.18704-5.31242.1336-.10678.88178.08009 1.6834.42713.82835.34704 1.62997.69409 1.84373.77417.53442.24026-.2672-1.60173-1.52308-3.49712-1.12227-1.70851-1.17571-1.30808.85506-5.73954l.98867-2.16234 1.76357.66739c.96195.37373 2.24454.85425 2.8324 1.12121 1.06883.42713 1.06883.42713.85506-.18687-.24048-.77417-1.92389-4.08442-2.48503-4.8319-.37409-.5339-.24048-.77417 1.97734-3.5772 1.30931-1.65513 2.56519-3.0166 2.80568-3.0166.61457 0 1.4162.48052 3.28665 1.89538 1.52308 1.1746 1.60324 1.2013 1.60324.56061 0-.98773-.82834-3.5505-1.5498-4.8319l-.6413-1.12121 1.87045-2.61617 1.87045-2.58946 1.2826.16017c1.87045.24026 4.43564.93434 5.69152 1.54834l1.06883.50722-.18705-.74748c-.29393-1.2013-1.52308-2.85642-3.3401-4.56494l-1.6834-1.57504.98867-2.21573c.56113-1.2013 1.09555-2.4293 1.17571-2.69625.1336-.40044.53442-.48052 2.64535-.48052 1.33604.0267 3.39354.18687 4.56925.40043 1.149.21357 2.13766.32035 2.21782.26696.05344-.08009-.6413-.85426-1.5498-1.73522-1.22915-1.1746-2.3247-1.89538-4.115-2.72294l-2.4583-1.09452v-4.59164l3.28665-1.04112c1.817-.5873 3.79434-1.2013 4.3822-1.36148l1.09555-.34704-1.9239-.88095c-2.43158-1.12122-4.86317-1.76191-6.73362-1.76191h-1.46964l-1.25587-2.29582c-.66802-1.28139-1.17572-2.4293-1.09555-2.56277.1336-.21357 5.7984-2.9899 7.64213-3.73738.69474-.29365.66801-.29365-.48098-.614-2.77895-.74748-9.11177-.85426-11.27615-.18687-.37409.13348-.7749-.10678-1.4162-.82756l-.88178-1.01443 2.37814-2.24243c2.11094-1.97547 4.67613-5.17894 4.67613-5.87303 0-.16017-.9085.18687-2.00405.74748-2.72552 1.36147-7.24132 2.82973-9.88668 3.17677-3.55385.48052-3.4737.53391-2.35142-1.01443 1.57652-2.16234 3.07288-5.71285 2.61863-6.16667-.08016-.08009-1.06883.5873-2.1911 1.46825-3.36681 2.64286-6.97411 4.05773-9.29881 3.6306l-.98867-.18687 1.60324-1.33478c3.25993-2.72295 5.34415-5.3658 6.92067-8.78284 1.5498-3.36364 2.27127-7.1811 1.5498-8.30232-.18704-.29365-.42753 0-1.01538 1.12122-1.7903 3.5505-5.05022 7.12771-8.52392 9.37014-1.84373 1.1746-8.7644 4.88529-9.11177 4.88529-.10688 0 .56114-.69409 1.49636-1.54835 3.28665-3.0433 4.59597-5.81963 4.46237-9.6104l-.08017-2.4026-1.12227 1.92208c-2.13766 3.6573-6.1992 7.1811-13.73446 11.87953-2.00405 1.25469-3.68746 2.24242-3.71418 2.21573-.02672-.0534.08016-.6674.21377-1.38817.16032-.72078.24048-1.65513.21376-2.08226-.10688-.74747-.29392-.614-3.95467 2.88313-3.98139 3.81746-5.58463 4.88528-9.4057 6.27345-1.57652.56061-2.08421.96104-4.43564 3.47043-1.46964 1.54834-3.39353 3.73738-4.27532 4.8319-1.52308 1.94877-1.65668 2.05555-2.99272 2.21573-.88178.13347-1.6834.42712-2.11094.82756-.72146.66739-1.09555.74747-5.932 1.1479-1.79029.16018-2.37815.0801-3.71418-.40043-2.13766-.80086-2.51175-.77417-3.79435.40044-1.65668 1.46825-3.12632 3.84416-4.03483 6.54041-.74818 2.13565-.80162 2.61617-.69474 5.17894.10688 3.06999.40081 3.89755 1.9239 5.63276 1.0421 1.1746 1.38947 1.228 1.38947.26696 0-.93435.72146-2.61617 1.44292-3.41703.34737-.34705 1.09555-.77417 1.71013-.93435.96195-.26695 1.2826-.21356 2.5652.42713 1.89716.93435 2.13765.90765 1.87044-.05339-.32065-1.06782 0-1.7886 1.17572-2.66956 1.0421-.77417 1.60324-.96104 1.60324-.48052 0 .13348.58786.69409 1.30932 1.2547 1.1757.90764 1.36275.96104 1.76356.5606.26721-.21356.7749-1.04112 1.149-1.8153.69474-1.52164.96194-1.62843 2.27126-.96104.82834.42713.88178.42713 1.60324-.24026.40081-.37373 1.04211-.80086 1.4162-.90765.74818-.21356 4.2486-.21356 4.46237 0 .08016.08009-.32065.6674-.93523 1.2547-.7749.82756-1.9239 1.46825-4.16844 2.4293-5.13038 2.10894-7.96278 3.71068-11.81056 6.6205-4.91662 3.71068-5.5312 3.89754-12.34498 3.79076l-5.05022-.08008-1.89717.93434c-1.4162.69408-2.3247 1.41486-3.7409 2.9899-2.48504 2.74965-4.115 3.28356-6.41298 2.10895-.61458-.29365-1.149-.50721-1.20244-.45382-.21376.21356 1.20244 1.65512 2.3247 2.29582 2.45831 1.44156 4.43565.88095 7.02756-2.00217 2.5652-2.85643 4.06155-3.6039 7.18788-3.47042 8.68424.37373 10.02028 0 15.95228-4.53825 1.149-.88095 2.85912-2.02886 3.79434-2.58947 1.68341-.98774 7.93606-3.6573 8.1231-3.47042.18705.18687-3.82106 5.9798-4.67612 6.75397-.66802.5873-1.12227.77418-1.89717.74748-1.81701-.08009-1.84373-.08009-1.20244.98774l.58786.98773-1.12227.72078c-1.25588.85426-2.27126.77417-3.66074-.18687-1.06883-.74747-1.06883-.29365 0 1.57504 1.60324 2.77634 4.40892 4.48486 7.90934 4.8052 1.92389.18687 4.72957-.13347 4.72957-.50721 0-.16018-.32065-.72078-.69474-1.228-1.76357-2.32251-1.52308-4.11112 1.01539-7.10102 2.08421-2.456 4.67612-4.45816 7.80245-6.0065l2.35143-1.2013 6.1992-.18687c3.42026-.10678 6.70691-.32035 7.32149-.50722 5.18382-1.52164 10.79518-6.86076 10.8219-10.27779 0-1.38817.05344-1.41486 2.24454-.77417 3.52714 1.06782 5.18382 3.20347 5.18382 6.70059 0 1.7352-.1336 2.24243-1.17571 4.35137-2.00406 4.11112-3.7409 5.79294-13.09316 12.81388-7.82918 5.87302-10.50125 8.06206-14.32232 11.79943-3.68746 3.6039-5.61135 5.92642-8.31015 10.01084-2.35142 3.55051-3.66074 6.24676-5.2907 10.8384-1.65669 4.72511-2.08422 7.55484-2.11094 13.53465-.05344 9.39684 1.84373 16.01734 6.62674 23.17175 1.65669 2.50938 6.49314 7.68832 8.60408 9.29006l.96195.72078-.85507 1.33477c-1.65668 2.66956-2.43158 4.1912-5.58463 10.8651-7.13444 15.10969-11.54336 20.76915-17.82273 22.9048-2.03078.66738-4.06155.64069-9.64619-.18688-4.2486-.64069-6.14577-.48052-7.9895.6674-.82834.5072-1.81701.90764-2.3247.90764-3.07289 0-6.97412 4.05773-7.66886 7.95528l-.18704 1.12121 1.65669-1.46825c2.56519-2.29582 4.22187-2.9899 7.13443-2.9899 1.73685-.0267 2.61863-.16018 3.31337-.50722 1.38948-.77417 1.65669-.42713.40081.45382-1.62996 1.12122-2.77895 2.90982-3.4737 5.36581-.32064 1.1746-.5344 2.18904-.48096 2.24243s.7749-.50722 1.62996-1.28139c.85506-.74747 2.21782-1.70851 3.01944-2.10895 1.33604-.66739 1.65669-.72078 3.50042-.5339 1.89717.16016 2.16438.13347 3.95467-.72079 1.79029-.82756 2.1911-.90765 6.19921-1.12121 5.932-.29365 7.74901-.6674 10.47453-2.05556 1.09555-.53391 1.49636-.93435 1.62996-1.49495.34737-1.60174.5077-1.92208 1.46965-3.44373 1.60324-2.4293 4.03483-4.67172 9.43242-8.67606 6.51986-4.8586 8.04294-6.13998 13.9215-11.93292 3.63402-3.6039 5.23726-4.99207 6.25265-5.4192 4.94334-2.13564 10.50125-2.08225 16.03244.13348l1.71013.69409-.74818 4.1912c-1.6834 9.10319-4.32876 16.95168-7.32148 21.57002-1.12227 1.7619-3.31337 3.92424-4.72957 4.67172-1.5498.80087-5.61136.85426-10.5547.10678-2.40486-.34704-4.72956-.5606-5.47774-.45382-1.68341.18687-3.28665 1.01443-4.35548 2.21573-.48098.5606-1.38948 1.1479-2.1911 1.41486-1.95062.6674-3.3401 1.70852-4.7563 3.6306-1.09555 1.44156-2.64535 5.09885-2.29798 5.4459.05344.05339.80162-.53392 1.62997-1.33478 2.56519-2.4026 3.55385-2.85643 6.68018-3.0433 2.40487-.16017 2.80568-.26695 3.58058-.90765.58786-.50721 1.46964-.82756 2.67207-1.04112 3.58058-.6407 3.84779-.34704 1.25588 1.41486-2.37815 1.60174-4.06155 3.23017-4.70285 4.45816-.5077.98774-1.17572 3.36364-.98867 3.55143.02672.02578.69474-.53483 1.44292-1.309 1.12227-1.12121 1.76357-1.49495 3.44698-2.00217 1.76356-.53391 2.40486-.5873 4.75629-.42713L92 212.44772l1.6834-1.01443c2.75223-1.70852 3.79434-2.08225 5.61135-2.08225 5.63808-.0267 8.57736-1.62843 11.83729-6.38024 4.86317-7.12772 14.48264-24.50653 16.56686-29.92573l.85506-2.24243 3.04616-.18687c4.16844-.21356 8.89801-1.25469 15.09722-3.23016 4.78301-1.54834 11.91745-5.20564 22.12477-11.34561 2.77896-1.68183 5.10366-2.9899 5.1571-2.93652.18705.18687-.72146 2.10895-1.65668 3.47043-.48098.72078-1.89718 2.58947-3.12633 4.1378-4.08827 5.12556-4.97006 6.83407-4.54252 8.83624.29392 1.28139 2.3247 3.36364 4.91661 5.01877 2.72552 1.7352 9.6729 5.25902 14.37576 7.31458 1.95061.82756 3.55386 1.60173 3.55386 1.65513 0 .26695-4.30204 3.6039-7.13444 5.49928-1.52308 1.04113-3.7409 2.34921-4.8899 2.88312-2.99272 1.38817-5.85184 1.52165-11.57007.45383-5.74496-1.04113-8.92473-.93435-11.43648.34704-.98867.50722-2.03078.93434-2.37815.93434-.93522 0-3.01944 1.06783-4.06155 2.02887-1.22915 1.1746-2.0575 2.50938-2.77895 4.48485-.9085 2.4293-.80163 2.64286.72146 1.36148 2.37814-1.97548 3.52713-2.4026 6.38625-2.4293 1.87045-.0267 2.93928-.18687 4.16844-.66739.9085-.32035 1.71012-.5606 1.76356-.48052.08017.08009-.56113.6407-1.38947 1.28139-.85507.6407-1.87045 1.65512-2.29799 2.24242-.80162 1.14791-1.5498 3.31025-1.5498 4.40477 0 .6407.10688.5873 1.65669-.72078 2.08421-1.7352 3.2332-2.10895 5.58463-1.89538 1.76357.16017 1.87045.13348 4.35548-1.2013 3.79435-2.02887 4.14172-2.08226 11.9709-2.10895 6.49313-.0267 6.9741-.0534 8.49719-.6674.88178-.34703 1.60324-.72077 1.60324-.82755 0-.10679-.42753-.40044-.9085-.6407-1.20244-.5873-1.57653-1.65512-.96195-2.61616.58785-.90765 4.78301-3.0166 13.76118-6.91415 3.68746-1.60174 6.76034-3.07 6.8405-3.25686.29394-.77417-.93522-3.07-2.4583-4.59164-1.20243-1.2013-2.4583-2.00217-5.82512-3.73738-3.39353-1.70851-8.87129-5.25902-10.23404-6.5671-.1336-.13349.82834-.77418 2.08421-1.41487 3.55386-1.842 7.64213-4.67173 10.10044-6.99424 1.87045-1.7619 2.27126-2.02886 2.59191-1.70852.21377.24026 1.73685 1.97548 3.39354 3.89756 4.06155 4.67172 8.79112 9.37014 11.35631 11.26552 6.3061 4.64503 10.71502 6.16668 22.17821 7.66163 6.19921.80087 8.52392 1.41487 10.47453 2.69625 2.8324 1.8687 4.5158 5.79294 4.5158 10.57145 0 2.56277-.05344 2.9365-.5344 3.31025-.58786.40043-2.99273.48052-6.33282.13347-2.45831-.24026-4.115.0801-5.55792 1.09452-.6413.45383-1.44292.85426-1.73685.85426-1.36275 0-3.66074 1.1746-4.80973 2.456-1.33603 1.52164-2.64535 4.1378-2.91256 5.9264l-.21376 1.2547 1.73684-1.60174c2.67208-2.45599 3.58058-2.85642 6.76035-2.88312 2.1911-.0267 2.966-.18686 4.35548-.77417.9085-.40043 1.71013-.66739 1.76357-.614s-.48097.82757-1.17571 1.73522c-1.25588 1.60173-2.40487 4.29798-2.40487 5.60606 0 .614.16032.53392 1.84373-.90764 2.6988-2.29582 3.25993-2.456 7.13444-2.24243 2.99272.16017 3.31337.13348 4.62269-.50722 1.76356-.82756 4.11499-2.74964 5.05022-4.11111.4008-.5873.9085-1.65513 1.12227-2.4026.21376-.74748.72146-2.18904 1.12227-3.17678.66802-1.60173.74818-2.05556.58785-3.81746-.18704-2.4293-1.46964-7.50146-3.04616-12.14648-.9085-2.72295-1.38948-3.71069-2.16438-4.51155-1.06883-1.09452-.69474-.96104-9.83323-3.39034-5.31743-1.41487-9.2721-3.68399-13.5207-7.76841-3.55385-3.41703-5.69151-6.70059-7.82917-12.013-1.20243-2.96321-3.92795-11.10536-3.76762-11.23884.05344-.08008.45425.56061.85506 1.38817 2.43159 4.75181 7.3482 11.4524 11.19599 15.18978 5.85184 5.71285 15.81867 11.87952 25.0106 15.53682 6.84052 2.69625 16.4867 5.3925 23.78146 6.6472 14.66969 2.45598 28.29726 1.09451 40.16127-4.08443 14.91017-6.48702 24.4762-17.05846 27.41548-30.27277.85506-3.89755.93522-11.95961.1336-15.69699-2.3247-10.73162-9.5393-20.55558-19.10533-26.05487-7.42836-4.27129-14.50935-6.11328-24.55635-6.35354-5.34415-.13348-11.67696.26695-14.58952.93434-.69474.16017-.66802.10678.2672-.88095.53442-.56061 1.84373-1.60174 2.88584-2.32252 1.04211-.69408 1.81701-1.33478 1.76357-1.41486-.24049-.21357-4.67613.5339-6.5733 1.12121-3.15305.96104-6.5733 2.9632-12.1045 7.12772-5.85184 4.40477-5.74495 4.37807-4.91661 1.1479.24049-.88095.80162-2.3492 1.25587-3.28355.48098-.90765.85507-1.73521.85507-1.842 0-.29364-2.00406 1.54835-3.25993 3.0433-2.64536 3.09669-4.03483 6.88746-4.03483 11.13205 0 4.69842 1.46964 8.22224 4.75629 11.50579 2.37814 2.3759 4.78301 3.71068 8.57736 4.8052 2.03077.5873 2.80567.6407 8.31014.6407 3.3401 0 6.06561.0267 6.0389.05339-.02673.0267-1.06884.69408-2.27127 1.49495-2.35143 1.54834-5.0235 3.6573-4.80973 3.84416.05344.0534 1.14899-.21357 2.4583-.5873 5.37087-1.65513 11.9709-2.58947 16.3531-2.32252 5.07693.26696 9.8065 1.62843 12.47858 3.5772 1.44292 1.04114 1.46964.56062.05344-1.62842-2.72552-4.2179-8.06966-8.30232-14.37576-11.02527-2.80567-1.228-12.07777-4.53824-12.2381-4.37807-.18704.18687 3.25994 4.32468 4.30204 5.17894l.98867.82756-4.16843.18687c-10.98223.50722-18.65108-3.06999-18.57092-8.67606.08017-6.24676 9.94012-11.07866 22.63247-11.05196 17.34176.0267 32.41225 8.4091 37.35559 20.76915 1.49636 3.68398 1.81701 5.57937 1.81701 10.03753 0 5.65946-.88178 8.9964-3.71418 13.8817-1.6834 2.9098-6.33282 7.63492-9.35226 9.50361-5.2907 3.28356-11.65024 4.93868-18.86484 4.93868-2.75224 0-2.77896 0-2.27126-.5606.29392-.32035 1.20243-.88096 2.00405-1.30809.82834-.40043 1.52308-.77417 1.52308-.85426 0-.05339-1.1757-.0267-2.61863.0534-1.79029.13347-3.4737.50721-5.47775 1.1479l-2.91256.96104-3.42025-.88095c-1.87046-.50721-3.44698-.93434-3.52714-.98773-.21377-.18687.93522-.90765 2.88584-1.8687 2.3247-1.1746 2.08421-1.30808-2.0575-1.30808-2.21782 0-3.50042.13348-4.80973.56061l-1.76357.53391-3.25993-1.38817c-1.79029-.74747-3.55386-1.46825-3.90123-1.60173-.6413-.24026-.61458-.26696.40081-.88096 1.0154-.5873 3.4737-1.44156 5.34415-1.86868l.82834-.18687-1.12227-.40044c-.61458-.21356-2.37814-.5339-3.92795-.72078-2.40486-.26695-3.0996-.24026-4.8899.16018l-2.0842.48052-2.27127-1.30809c-3.6073-2.10895-4.3822-2.64286-4.22188-2.90981.45425-.74748 7.02756-2.24243 7.77574-1.7886.1336.08008.24048.02669.24048-.13348 0-.16018-1.25587-.69409-2.75223-1.2013-2.5652-.88096-2.966-.93435-6.73363-.96104l-4.03483-.0267-2.27126-1.65512c-1.22916-.90765-2.64536-2.00217-3.0996-2.4026l-.85507-.72079 1.817-.614c1.0154-.32034 3.01945-.69408 4.46237-.82756l2.64535-.21356-1.38947-.6407c-2.5652-1.1479-5.47776-1.7886-8.14983-1.8153-1.38948-.02669-2.85912.0534-3.28665.18688-.66802.18687-1.12227-.10679-4.14171-2.61617-1.84373-1.52165-3.36682-2.90982-3.36682-3.0433 0-.34704 3.36682-1.1212 5.87857-1.36147l2.08421-.21356-2.21782-1.04113c-3.12632-1.46825-6.14577-2.18903-9.19193-2.18903h-2.48503l-3.36681-2.69626c-2.35143-1.86869-3.25993-2.77634-2.99273-2.90981 1.06883-.5873 4.56925-1.228 6.76035-1.228 1.33604 0 2.43159-.10678 2.43159-.18687.02672-.34704-4.5158-2.24243-6.35954-2.66955-1.79029-.42713-8.36359-.614-8.71096-.26696-.2672.26696-5.95872-3.0166-5.95872-3.47042 0-.37374 4.56924-2.34921 6.5733-2.82973 1.95061-.48052 1.97733-.48052 1.149-.82756-3.58059-1.38817-9.6462-1.49496-13.28021-.21357l-2.03078.72078-2.99272-.98774-2.99273-1.01443 1.33604-1.1746c.74818-.6674 2.37815-1.7619 3.58058-2.456l2.24454-1.25468-1.49636-.13348c-2.11094-.16018-6.25265.26695-8.39031.88095-.98867.29365-2.67208.93434-3.76763 1.44156-1.06883.53391-2.03077.93435-2.13766.90765s-1.36275-.21356-2.80567-.37374c-1.44292-.18687-2.80568-.42713-3.01945-.5606-.53441-.26696 2.03078-2.85643 4.97006-5.01877 1.12227-.82756 1.97734-1.54834 1.89717-1.62843-.18704-.18687-4.72957.74748-6.4397 1.33478-2.43158.82756-4.88989 2.13564-6.76034 3.6039l-1.6834 1.30808-3.23322.13348c-1.76356.08009-3.25993.13348-3.31337.10678-.24048-.13348 2.35143-3.6306 3.92795-5.28572 2.99272-3.20347 6.25265-5.17894 10.63485-6.35354 2.0575-.56061 3.01945-.6674 7.40165-.6674 5.71824 0 8.84456.50722 14.00166 2.29583 6.97412 2.3759 12.85268 5.92641 22.20494 13.45456 6.09233 4.88529 8.84456 6.96754 8.84456 6.72728 0-.08008-.72146-1.2013-1.57652-2.48269-1.89717-2.80303-4.59597-8.24892-5.55792-11.23883-1.0421-3.15007-1.57652-6.35354-1.57652-9.26336 0-5.49928 1.84373-8.72945 5.90528-10.35788 1.33604-.5339 2.0575-.614 5.87857-.614 4.83645 0 6.81378.32035 12.15793 2.00217 5.0235 1.57504 9.72635 3.52382 16.13933 6.6739 3.28665 1.62842 6.03888 2.9365 6.09233 2.9365.08016 0-.93523-1.25469-2.1911-2.82972-8.95145-10.97188-11.51664-13.72152-18.73124-20.07507-4.67613-4.11111-10.98222-9.42353-14.2956-12.013-15.39114-12.0931-40.90945-26.74896-69.74112-40.04335-2.61863-1.228-4.8899-2.32251-5.05022-2.45599-.34737-.29365 8.79112 2.85642 13.84134 4.7785 15.7118 6.0065 31.26326 14.22874 48.1775 25.41418 14.26886 9.45023 20.94905 15.0563 31.26325 26.16165 1.89718 2.05556 3.50042 3.684 3.55386 3.6306.02672-.05339-.34737-1.1746-.88178-2.50938s-1.22916-3.47042-1.57653-4.75181c-.50769-2.02886-.56113-2.56278-.29392-4.00434.4008-2.13564 1.4162-3.41703 3.55385-4.51155 1.5498-.77417 1.9239-.82756 5.34415-.93434 7.50853-.21357 13.44053 1.54834 27.76285 8.22223 7.16116 3.33695 9.11177 4.1912 9.21865 4.03103.05344-.05339-2.59191-2.56277-5.90528-5.57937-13.20004-11.9863-17.31504-18.0195-16.83407-24.55992.3741-4.88529 3.87451-8.78284 8.92473-9.90405 2.51175-.56061 8.22999-.24026 11.48992.6407 8.71096 2.4026 18.38387 7.8218 28.2171 15.91055 1.65668 1.36147 3.07288 2.4293 3.12632 2.3759s-.42753-.96104-1.09555-2.00216c-4.2486-6.83407-11.11582-13.241-20.57497-19.19412-7.58868-4.7518-21.85756-11.21213-32.97339-14.92282C252.75196 5.5571 217.58747-.18244 186.3242.00442c-4.97005.0267-9.6729.0801-10.4478.13348m41.06977 6.70059c8.65752 1.04113 27.65596 4.61833 36.95478 6.94085 13.81462 3.44372 31.74424 9.15657 41.79123 13.32108l3.25993 1.36148-3.2332.16017c-4.94334.26696-7.64214 1.12121-10.23405 3.20347l-1.20243.98773-8.17655-4.08442c-13.17332-6.5938-21.88428-10.1977-35.13777-14.57578-11.11583-3.65729-13.013-4.1645-27.76284-7.55484-1.20244-.26696.32064-.18687 3.7409.24026m-27.843.80087c17.1547 1.7619 35.3248 5.60606 52.5864 11.13205 4.59597 1.49495 17.55553 6.43363 24.26243 9.29005 4.6494 1.97547 15.36442 7.1811 15.89884 7.71502.10688.10678-.1336 1.1479-.53441 2.29582-.56114 1.70851-.69474 2.66955-.72146 5.04546 0 4.43146 1.14899 8.16884 3.84778 12.33335.72146 1.12121 1.149 1.92208.93523 1.7886-.18705-.10678-1.9239-1.28138-3.84779-2.58947-7.29476-4.96537-9.83323-6.5938-18.51747-11.87952-4.3822-2.66956-10.92878-6.43363-15.15066-8.78284-3.58058-1.94878-21.56363-10.94518-23.24704-11.61257-1.76357-.69409-.66802-.56061 3.63402.42713 12.45186 2.88312 23.08672 5.89972 37.08838 10.49135 5.69152 1.8687 10.50125 3.36364 10.66158 3.31025.6413-.21356-10.50125-6.16667-15.41787-8.22223-7.90934-3.33695-29.1256-10.38458-37.83656-12.57361-13.33365-3.31025-23.54097-5.12555-34.924-6.19337-6.68019-.614-19.98712-.82757-27.36204-.42713-6.14577.32035-13.97495 1.01443-15.28426 1.33478-.40081.08008-.6413.08008-.56114 0 .5077-.56061 13.3871-2.64286 20.20088-3.28356 3.8745-.34704 19.3191-.10678 24.28915.40044m1.92388 9.557c12.02434 2.90982 28.43087 9.1299 50.3686 19.03394 10.3142 4.67173 25.97255 12.54692 31.47702 15.88387 2.91256 1.7352 5.23727 3.20346 5.18473 3.23016-.05435.05339-1.44383-.0267-3.07379-.16017-5.90528-.53392-11.65024.29365-13.7879 1.97547l-.72146.5606-2.03078-1.65512c-8.898-7.2612-24.77012-17.59238-38.07705-24.80018-10.15388-5.49929-23.16688-11.15875-33.18715-14.469-1.49636-.50721-2.72552-.96104-2.72552-1.04112 0-.16018.16033-.10679 6.5733 1.44156m-22.87295 5.68616c11.03567 7.66163 17.74257 13.50796 26.42681 23.01158 9.05833 9.90405 16.83407 20.26193 23.48753 31.36729 3.31337 5.49928 7.29476 13.98847 8.31015 17.69915.10688.40044-.5077-.5606-1.33604-2.08225-6.76034-12.49352-16.4867-26.53539-26.40009-38.09457-11.38303-13.29439-21.83084-23.4921-36.23332-35.42501-1.20243-.98774 2.5652 1.30808 5.74496 3.52381m-14.00166.614c5.87856 5.9798 9.69962 13.34778 11.48991 22.10393.74818 3.76407 1.76357 12.86726 1.36276 12.44013-.29393-.34704-1.0421-2.85642-1.89717-6.5671-2.64535-11.18545-7.77574-21.99715-14.18871-29.92574-.93523-1.1746-1.84373-2.3225-1.97734-2.53607-.45425-.77418 2.80568 2.05555 5.21055 4.48485m20.17415 14.12195c9.1385 10.51806 14.05511 17.24534 19.50614 26.66887 2.35143 4.05773 7.3482 14.06856 9.83323 19.75472 1.17571 2.69625 2.1911 4.99207 2.27126 5.07216.05345.10678-1.25587-.18687-2.91256-.614-1.65668-.45383-3.07288-.80087-3.17976-.80087-.08017 0-.42754-.93434-.80163-2.05556-1.36275-4.29798-4.70285-12.27996-7.72229-18.36655-4.75629-9.6371-8.65752-16.2042-14.99033-25.2273-5.90529-8.4358-6.49314-9.31675-6.38626-9.31675.08016 0 2.03078 2.21573 4.3822 4.88528m23.99522.37374c18.1701 10.8384 38.34426 25.44087 52.6933 38.14796 1.79029 1.60174 3.28665 2.93652 3.28665 2.96321s-1.2826-.16017-2.88584-.45382c-1.57652-.26696-5.0235-.5873-7.64213-.6674-2.80568-.10678-4.91662-.32034-5.1571-.5072-.21377-.16018-2.16438-2.32252-4.32876-4.77851-4.40892-5.01877-14.83001-15.53682-19.9604-20.20855-1.87045-1.65512-6.78706-5.84633-10.9555-9.31675-7.2146-5.9798-8.7644-7.31458-8.1231-6.99424.16032.08009 1.5498.88096 3.07288 1.8153M85.58701 40.68846c-1.30931 2.21574-3.90122 3.71069-8.04294 4.67173-1.46964.32034-3.7409.82756-5.05022 1.1479-2.6988.614-4.67613 1.49496-6.5733 2.96321-1.71013 1.2814-1.33603.50722.88179-1.86868 2.08421-2.26913 3.82106-3.09669 9.24537-4.48486 4.64941-1.2013 7.05428-2.16234 8.92473-3.6039 1.38948-1.06782 1.62996-.5873.61457 1.1746m19.98712.90765c1.92389.42713 6.46641 2.77634 6.7069 3.44373.05344.21357-.2672.32035-1.01539.32035-1.4162 0-3.52713.40043-6.03888 1.1479l-1.97734.5873 1.62997.88096c2.61863 1.38817 5.31742 4.08442 6.51986 6.51372.9085 1.86869 1.0421 2.3759 1.14899 4.8052.16032 3.33695-.29393 5.4192-1.89717 8.62267-1.81701 3.73738-4.48909 6.88745-13.60086 16.12412-8.95145 9.0765-12.3717 13.00074-15.36442 17.69916l-1.71013 2.66956-2.5652.614c-4.03482.96103-4.19515.93434-5.61135-1.8687-.85506-1.7352-.9085-1.57503 1.73685-4.7785 4.48909-5.36581 9.08505-9.37015 20.70857-17.96612 7.24132-5.3658 9.43242-7.2612 11.67697-10.06422 4.11499-5.09886 5.1571-10.03754 3.0996-14.469-1.9239-4.11112-5.82512-6.70059-11.03566-7.36798l-1.7903-.21356 1.54981-.74748c.85506-.40043 2.80568-1.33477 4.35548-2.05555l2.80568-1.36148-.96195-.37374c-1.9239-.80086-7.26804-.74747-10.9555.08009-1.149.26696 2.1911-1.8153 3.63402-2.24243 1.73685-.5339 6.60002-.5339 8.95145 0m-31.15638 9.0498c.45425.29365.16032.96104-1.149 2.64286-.98866 1.2547-2.08421 1.86869-3.31337 1.86869-1.06883 0-3.07288-1.04113-3.07288-1.60173 0-.21357.40081-.77418.88178-1.2547.82835-.82756.88179-.85425 1.149-.34704 1.4162 2.64286 3.66074 2.18904 3.20648-.6407-.16032-.88094-.1336-.90764.88179-.90764.56113 0 1.20243.10678 1.4162.24026m14.08182.80087c1.06883.66739 2.24455 1.8153 2.24455 2.24242 0 .29366-.45426.16018-1.49636-.42713-.80163-.48052-1.97734-.96104-2.59192-1.1212-.61457-.16018-1.49636-.37375-1.95061-.48053l-.85506-.21356.98866-.34705c1.12227-.40043 2.64536-.24026 3.66074.34705M86.3352 55.5045c.50769.26696 1.57652 1.842 1.57652 2.29582 0 .13348-.48097-.21356-1.09555-.74748-.61458-.5606-1.49636-1.2013-1.95062-1.44156-.48097-.26695-.85506-.5339-.85506-.614 0-.18686 1.65669.16018 2.3247.50722m93.60274 6.6739c2.51175 6.24675 4.35548 13.45456 6.3061 24.42643.1336.72078.02671.80087-1.73686 1.38817-2.43158.80087-9.00488 4.13782-12.6389 6.43363-6.3061 3.95095-11.89073 8.24893-17.58225 13.53466l-3.07289 2.85642 1.46965-2.10895c5.21054-7.58154 13.17332-15.80377 22.47214-23.19844 3.82106-3.07 3.58057-2.4026 3.84778-10.03754.2672-7.07432-.56113-14.81603-2.00405-18.90046-1.30932-3.73737.88178.45383 2.93928 5.60607M47.00227 58.73466c-.48097.85425-2.67207 2.82973-3.4737 3.15007-.42753.16018-.96194.21357-1.1757.13348-.58786-.24026-.05345-1.57504 1.09554-2.80303.80162-.85426 1.06883-.96104 2.35143-.96104 1.30931 0 1.44292.05339 1.20243.48052m31.53047.05339c.56114.13347-.2672.29365-2.67207.45382-3.6073.26696-5.0235.26696-6.73363-.05339l-.98867-.18687.85507-.21356c1.06883-.24026 8.41703-.24026 9.5393 0m83.15493 10.14431c.05345 3.84416-1.06883 6.75398-4.30203 11.13205-3.58058 4.8319-7.3482 8.3824-21.48348 20.15515-10.60813 8.80954-13.94822 11.95961-19.7199 18.6335-1.4162 1.62843-2.61863 2.93652-2.67208 2.91022-.05344-.05379.48098-1.2284 1.17572-2.58987 3.20649-6.35354 7.53524-10.8651 20.2276-21.11619 7.42836-6.0065 10.4478-8.64936 14.1887-12.49352 3.23322-3.36364 6.3061-7.2078 8.23-10.38458 1.22915-2.00217 3.01944-6.51372 3.58057-8.94301.34737-1.52165.3741-1.60173.56114-.82756.08016.45382.18704 2.05555.21376 3.52381m3.07289 14.06856c-1.46964 1.76191-7.7223 8.00867-17.47536 17.4322-4.00811 3.87086-8.20327 8.08876-9.35226 9.39684-2.13766 2.4293-6.27937 7.8485-7.3482 9.55702-1.04211 1.70851-.53442.08008 1.25587-4.08442 1.60325-3.76408 6.33282-10.03754 10.5547-14.01518 1.44291-1.36147 5.47774-4.8052 8.95144-7.66162 3.44697-2.88312 8.09638-6.78068 10.28748-8.67606 2.1911-1.89539 4.08828-3.44373 4.16844-3.44373.10688 0-.3741.66739-1.04211 1.49495M72.14648 107.3206c1.44292.93435 2.3247 1.01443 4.54253.42713.85506-.24026 1.5498-.40043 1.60324-.34704.02672.0267-.21376.614-.53441 1.30808-.32065.69409-1.12227 2.82973-1.76357 4.72512l-1.20243 3.47042-1.7903.80087c-1.97733.88095-3.66073 1.01443-5.10365.42712-1.2826-.5339-3.25993-2.3492-3.25993-2.9899 0-.96104 1.73684-5.4459 3.15304-8.16884l1.4162-2.72295.80162 1.12122c.45426.614 1.4162 1.49495 2.13766 1.94877m249.78546-.37374c4.70285 1.54835 9.83323 4.8586 13.86806 8.91632 4.0081 4.00434 4.78301 5.63277.96195 1.94878-5.61136-5.4192-9.45915-8.03537-15.81868-10.70492-2.21782-.93435-1.65669-1.01444.98867-.16018M176.678 116.71743c2.11094 1.09452 3.20649 2.90982 2.85912 4.7785-.26721 1.52165-2.24454 3.33695-4.22188 3.89756-1.76357.50721-2.29798.40043-1.06883-.24026 1.6834-.88096 3.17977-3.15008 3.17977-4.8052 0-.96104-.72146-2.64286-1.46964-3.44373-.69474-.74748-.5077-.80087.72146-.18687m16.7539 1.2547c1.6834 1.2013 2.16438 3.47041 1.09555 5.20563-.80162 1.28138-2.67207 2.32251-4.5158 2.50938l-1.49636.16017 1.12227-.5339c1.4162-.6674 2.88583-2.40261 3.12632-3.6573.24049-1.28139-.32065-2.93651-1.36276-4.13781l-.88178-1.01443 1.0421.45382c.58786.24026 1.4162.69408 1.87046 1.01443m-126.04172 3.23015c1.4162.5873 3.3401.48052 5.23727-.29365.9085-.37373 1.71012-.64069 1.73684-.614.05345.0534-.02672 1.33478-.18704 2.88313-.1336 1.52164-.2672 3.49711-.2672 4.35137v1.60174l-1.71013 1.12121c-2.53847 1.70852-5.18383 1.86869-7.88262.50722l-1.22916-.614-.08016-3.49712c-.05344-1.92208.05344-4.53825.24049-5.79294l.32065-2.29582 1.4162 1.12122c.7749.614 1.87045 1.28138 2.40486 1.52164m94.40437.614c1.20243 1.09452 1.62996 2.85643 1.06883 4.35138-.40081 1.06782-1.95062 2.69625-3.15305 3.31025-1.52308.77417-1.60324.66739-.45425-.50722 2.56519-2.64286 2.53847-5.79293-.10689-8.03536l-1.22915-1.04113 1.6834.72078c.90851.40044 1.89718.93435 2.1911 1.2013m-66.18727 1.2547c-5.69152 6.96754-8.01622 12.70708-8.31015 20.3954l-.08016 1.8153-.56114-1.68182c-.45425-1.36147-.56113-2.4026-.53441-5.47259 0-3.39033.08016-4.00433.7749-5.9798 1.46964-4.1912 4.32876-7.66163 8.31015-10.11762 1.149-.69409 2.13766-1.28139 2.1911-1.28139s-.74818 1.04113-1.79029 2.32251m109.82223-.56061c.69474.74747 1.46964 2.48268 1.46964 3.31025 0 1.01443-1.14899 2.69625-2.21782 3.28355-1.22915.69409-3.44697 1.06782-4.08827.69409-.40081-.18687-.26721-.32035.58785-.56061 3.07289-.93435 4.83646-4.13781 3.58058-6.54041-.5077-.96104-.18704-1.06783.66802-.18687M145.94916 125.26c2.29798 1.30808 3.25993 3.41703 2.59191 5.63276-.37409 1.2547-1.71013 2.88312-2.85912 3.47043-1.14899.614-1.2826.50721-.45425-.37374.88179-.90765 1.62996-2.80303 1.62996-4.1645 0-1.228-.85506-2.85643-2.21782-4.298-1.30931-1.36147-.82834-1.46825 1.30932-.26695m37.83656.98774c.7749.45382 1.44292 1.12121 1.81701 1.86869 1.04211 2.05555.2405 4.00433-2.1911 5.31241-1.44292.77417-3.34009 1.2547-3.04616.77417.10688-.13347.34737-.26695.56114-.26695.69473 0 2.64535-2.18904 2.93928-3.31025.4008-1.52165.10688-2.64286-1.0154-3.97764-1.12226-1.28139-.80161-1.44156.93523-.40043m-16.08588.69408c1.36276.40043 3.15305 2.00217 3.55386 3.23016.66802 2.02887-1.12227 4.69842-3.82107 5.71285-.82834.32035-1.60324.56061-1.6834.56061-.10689 0 .48097-.5606 1.25587-1.25469 1.62997-1.46826 2.4583-3.23016 2.16438-4.69842-.21376-1.12121-1.25587-2.61616-2.3247-3.33694-.88179-.5873-.66802-.6407.85506-.21357m-33.85517 2.9632c.56113.74748.80162 1.41487.88178 2.58948.1336 1.94877-.53441 3.06999-2.59191 4.45816-1.6834 1.1479-2.29798 1.1746-.96195.08008.56114-.48052 1.2826-1.38817 1.62997-2.05555 1.01539-2.16235.66802-4.16451-1.12227-6.22007l-.96195-1.06782 1.17571.614c.6413.32034 1.52308 1.04112 1.95062 1.60173m82.19298 1.3081c1.25588 2.4026 1.0154 4.32467-.72146 5.89971-1.22915 1.12121-2.51175 1.46826-4.43564 1.2013-1.73685-.24026-2.0575-.614-.6413-.80087 2.88584-.40043 5.07694-2.80303 5.1571-5.68615.02673-.82756.08017-1.52165.10689-1.52165s.2672.40043.53441.90765m-107.09671 1.52164c-.32065.74747-.66802 2.10895-.74818 3.0433-.16033 1.97546.21376 2.9098 1.79029 4.45815 1.14899 1.09452 1.09555 1.2013-.26721.53391-3.4737-1.7619-3.98139-5.04546-1.2826-8.32901.48098-.56061.90851-1.04113.96195-1.04113s-.16032.614-.45425 1.33478m-33.34748 4.93868c.93522 3.71068.9085 3.73738-.88179 5.3658-1.97733 1.7886-3.82106 2.21574-6.54658 1.52165-1.1757-.29365-1.25587-.40043-2.21782-2.45599-.53441-1.1746-1.22915-2.9632-1.5498-3.97764-.58786-1.94877-1.0421-4.48485-.80162-4.48485.08016 0 .66802.21356 1.33603.45382 1.95062.6674 4.7563.5873 6.49314-.24026.82835-.37374 1.81701-.93434 2.1911-1.25469l.69474-.5873.24049 1.1746c.1336.6407.58786 2.66956 1.0421 4.48486m79.895-3.87086c3.95467 2.00217 3.28665 6.5938-1.25587 8.4358l-1.06883.42713 1.06883-.90765c.61458-.50722 1.33604-1.41487 1.62996-2.05556.98867-2.21573.48098-4.13781-1.5498-5.73955-1.33604-1.06782-.80162-1.12121 1.17571-.16017m-14.34903 2.69625c.48097.29365 1.14899 1.09452 1.46964 1.73521 1.36276 2.77634.21376 5.55268-2.6988 6.6472l-.7749.29365.88179-.90765c1.12227-1.1746 1.49636-2.13564 1.49636-3.92425 0-1.70851-.82835-3.41703-2.0575-4.1912l-.88178-.5873.82834.18687c.48097.10678 1.25587.42713 1.73685.74747m-42.88679 8.4091c.98867 2.02887 3.36682 4.16451 4.6227 4.16451.29392 0 .42752.13348.34736.26696-.29393.48052-2.4583.32035-3.79434-.29365-3.90123-1.76191-4.8899-5.71285-2.72552-10.70492l.61458-1.46826.16032 3.36364c.1336 2.69625.29393 3.6306.7749 4.67173m136.4628-2.61616c1.5231 1.28139 5.29072 4.59164 8.41704 7.39467 6.89395 6.13998 10.5547 9.10319 14.83001 11.9863 11.03566 7.47477 22.12477 12.0931 33.21388 13.80162 4.27531.64069 13.62757.88095 18.38386.42712 1.30932-.13347 2.3247-.16017 2.24455-.08008-.08017.08008-1.76357.45382-3.76763.85426-8.47047 1.7352-17.92961 1.06782-28.37742-1.92208-9.83323-2.82973-20.33448-8.35572-28.8584-15.21648-3.7409-2.9899-10.5814-9.6371-16.72718-16.2309-6.73362-7.2345-6.7069-7.28789.6413-1.01443m-43.42119-.80087c.66802 1.01443 2.61863 4.29799 4.35548 7.2879 1.73685 3.01659 3.23321 5.60606 3.3401 5.76623.34736.5873-2.80568-2.21573-4.32877-3.87085-1.95061-2.08226-3.12632-3.89756-4.27531-6.54042-.88179-1.97547-1.73685-4.85859-1.73685-5.71285.02672-.5339 1.06883.6674 2.64535 3.07m-9.88667.37374c.08016 1.09452.10688 2.05556.10688 2.08225-.02672.0267-1.5498.50722-3.39353 1.06783-1.84373.5606-4.3822 1.44156-5.61136 2.00216-3.31337 1.46826-3.25993 1.44157-2.93928.34705.16033-.53391.29393-1.73521.29393-2.66956v-1.73521l1.30932-.42713c.74818-.24026 2.80567-.82756 4.56924-1.28139 1.76357-.48052 3.66074-.96104 4.22188-1.12121.53441-.13348 1.0421-.26696 1.14899-.29365.10688 0 .24049.90765.29393 2.02886m-60.20182 5.01877c2.16438 4.29798 6.3061 7.2345 10.90206 7.74171 2.13766.24026 5.21054.0534 7.00083-.37374l.80162-.21356-.16032 2.08225c-.21377 2.48269-.85507 4.72512-1.76357 6.30015l-.66802 1.17461-2.59191.42713c-4.48908.74747-4.78301.77417-4.59597.32035.08017-.24026.21377-1.228.32065-2.18904.18705-1.70852.16033-1.8153-.72146-2.80303-.5077-.5873-2.21782-2.05556-3.79434-3.28356-4.94334-3.81746-6.60002-6.78067-6.5733-11.71935l.02672-2.4293.4008 1.46826c.21377.80086.85507 2.3759 1.4162 3.49712m-42.35237-.53391c.69474 1.41486 1.71013 3.25685 2.24454 4.08442l.96195 1.49495-.56114.88095c-.80162 1.30808-2.27126 2.61617-3.44697 3.12338l-1.04211.42713-1.62997-1.36147c-2.03077-1.70852-5.61135-5.84633-6.46642-7.47476-.2672-.53391-.21376-.5606 2.00406-.5606 2.59191 0 3.98139-.56061 5.55791-2.21574.5077-.53391.96195-.96104.98867-.98773.05344 0 .66802 1.1479 1.38948 2.58947m87.77762-.32035c-.18704 1.842-1.0421 4.29798-1.73685 5.07216-.24048.26695-1.60324 1.06782-2.99272 1.7886-1.4162.72078-3.42025 1.7886-4.43564 2.3759-2.00406 1.14791-2.45831 1.33478-1.95062.72078.61458-.77417 1.46965-3.73737 1.62997-5.79293l.16032-2.10895 4.5158-1.8687c2.48504-1.04112 4.6227-1.89538 4.7563-1.89538.16032 0 .16032.74748.05344 1.70852m41.31026 8.22223c1.36276 2.08226 3.0996 4.05773 6.65346 7.66163 2.64536 2.64286 4.56925 4.75181 4.2486 4.64503-2.51175-.77417-6.65346-3.52382-8.95145-5.9798-2.29798-2.4293-3.84778-5.17895-5.07694-8.99641-1.49636-4.67173-1.52308-5.28573 0-2.50939.69474 1.30809 2.11094 3.6306 3.12633 5.17894m-53.78884-4.11111c0 .96104-.85507 3.71068-1.57653 5.15224-.4008.77417-1.49636 2.21573-2.4583 3.17677-1.6567 1.68182-1.87046 1.7886-5.21055 2.90982-1.9239.614-3.52714 1.12121-3.55386 1.06782-.05344-.0267.24049-.98774.6413-2.13564.42753-1.33478.72146-2.93652.80162-4.45816l.10689-2.4026 4.43564-1.46826c2.43159-.80087 4.86317-1.65513 5.39759-1.89539 1.2826-.5606 1.4162-.5606 1.4162.0534m-51.94512 6.86076c1.36276 1.28138 1.81701 1.86868 1.38948 1.7352-2.11094-.614-4.46236-2.69624-5.61135-4.96537l-.58786-1.2013 1.36276 1.2547c.74818.66738 2.29798 2.10894 3.44697 3.17677m7.61541-.614c1.62997 3.25686 3.9814 4.93868 7.37493 5.28572 1.97733.18687 2.00405.21356 1.1757.5606-.48096.21357-1.73684.40044-2.80567.40044-1.6834.0267-2.1911-.08009-3.50041-.80087-.82835-.48052-1.87046-1.33478-2.29799-1.94877-1.2826-1.76191-2.00405-4.8052-1.44292-6.22007.1336-.37374.24049-.29365.5077.48052.18704.53391.6413 1.54834.98866 2.24243m-24.50291-.32035c.7749 1.01443 2.56519 2.93651 3.95467 4.29799 2.3247 2.24242 2.4583 2.45599 1.65668 2.29581-2.21782-.48052-5.63807-1.70851-8.44375-3.0166-2.99272-1.41486-3.04617-1.44155-2.37815-1.86868 1.30932-.85426 2.6988-2.26913 3.04617-3.12338.21376-.45383.45425-.74748.56113-.614.10689.10678.82835 1.04112 1.60325 2.02886m-7.90934 10.03753c-.29393 2.61617-1.04211 4.8853-2.4583 7.34128-1.149 2.02887-4.14172 6.19337-4.14172 5.79294 0-.80087 6.33281-15.0296 6.68018-15.0296.05344 0 .02672.85426-.08016 1.89538m38.15721 13.05413c-.5077 2.96321-1.817 6.91415-2.99272 9.15658-.45425.85426-.74818 1.28139-.69474.98774.08016-.32035.53442-2.72295 1.01539-5.33912.66802-3.65729 2.29798-10.70492 2.85912-12.44013.02672-.08008.10688 1.01443.16032 2.456.05344 1.54834-.08016 3.65729-.34737 5.17893"/></svg>