<svg xmlns="http://www.w3.org/2000/svg" viewBox="0 0 48 48">
<path fill="#76cc65" fill-rule="evenodd" d="M12.2006 1.27004C15.26541 1.11571 19.17285 1 24 1s8.73458.11572 11.7994.27004c6.021.3032 10.62734 4.90956 10.93053 10.93045C46.88428 15.26542 47 19.17286 47 24s-.11572 8.73458-.27007 11.79951c-.3032 6.02089-4.90953 10.62723-10.93052 10.93042C32.73458 46.88428 28.82714 47 24 47s-8.73458-.11572-11.7994-.27007c-6.021-.3032-10.62737-4.90953-10.93056-10.93052C1.11571 32.73458 1 28.82714 1 24s.11572-8.73458.27004-11.79951c.3032-6.0209 4.90956-10.62726 10.93055-10.93045m23.04384 8.41885c0-1.12912.9153-2.04445 2.04445-2.04445h1.02222c1.12915 0 2.04445.91533 2.04445 2.04445 0 1.12915-.9153 2.04444-2.04445 2.04444H37.2889c-1.12915 0-2.04445-.9153-2.04445-2.04444M24 15.82222c-4.51648 0-8.17778 3.6613-8.17778 8.17778S19.48352 32.17778 24 32.17778 32.17778 28.51648 32.17778 24 28.51648 15.82222 24 15.82222M11.73333 24c0-6.77468 5.492-12.26667 12.26667-12.26667 6.77468 0 12.26667 5.492 12.26667 12.26667 0 6.77468-5.492 12.26667-12.26667 12.26667-6.77468 0-12.26667-5.492-12.26667-12.26667"/>
</svg>