<svg xmlns="http://www.w3.org/2000/svg" viewBox="0 0 48 48">
<path fill="#76cc65" fill-rule="evenodd" d="M12.60996 1.7656C16.269 1.35774 20.0872 1 24 1s7.731.35774 11.38994.7656c5.69719.63501 10.2747 5.2086 10.8853 10.91595C46.66471 16.32168 47 20.11433 47 24c0 3.88564-.33529 7.67829-.72476 11.31839-.6106 5.7074-5.18811 10.28117-10.8853 10.91597C31.731 46.64222 27.9128 47 24 47c-3.9128 0-7.731-.35778-11.39004-.76564-5.69702-.6348-10.27457-5.20857-10.8852-10.91597C1.33533 31.67829 1 27.88564 1 24c0-3.88567.33532-7.67832.72477-11.31845C2.33539 6.9742 6.91294 2.4006 12.60996 1.7656m15.92857 8.20127c-.2453-1.05402-1.24203-1.75649-2.31714-1.63307-1.0751.12345-1.88671 1.03357-1.88671 2.11572V30.1331c0 2.9205-2.36754 5.28786-5.28803 5.28786s-5.28802-2.36737-5.28802-5.28786c0-2.92048 2.36753-5.28802 5.28802-5.28802 1.17617 0 2.12963-.95346 2.12963-2.12963s-.95346-2.12963-2.12963-2.12963c-5.2728 0-9.54728 4.27446-9.54728 9.54728 0 5.27287 4.27449 9.54712 9.54728 9.54712 5.27283 0 9.54728-4.27425 9.54728-9.54712V18.24465c2.0466 1.7356 4.67987 2.68892 7.7753 2.68892 1.17624 0 2.12963-.95346 2.12963-2.12963s-.9534-2.12963-2.12963-2.12963c-2.24933 0-3.92142-.69497-5.14948-1.79028-1.25287-1.11746-2.18384-2.77983-2.68122-4.91716"/>
</svg>