<svg xmlns="http://www.w3.org/2000/svg" viewBox="0 0 48 48">
<path fill="#76cc65" d="M47 16.77116c0 7.9195-3.4455 11.17172-8.10831 11.62258 1.62921.91734 2.98037 1.89511 3.7551 2.7574 2.99024 3.32871 1.86449 6.63372-3.44202 12.54078-4.38727 4.88372-7.81603 4.602-10.34666 1.78491C27.3526 43.80106 24.90722 38.81672 24 34.13306c-.90723 4.68366-3.3525 9.66789-4.85802 11.34377-2.53063 2.81698-5.95939 3.0988-10.3467-1.78501-5.30654-5.90696-6.43227-9.21208-3.442-12.54068.77468-.8624 2.12578-1.84017 3.75498-2.7574C4.44545 27.94288 1 24.69066 1 16.77116 1 6.39984 1.00428 1.5 6.25451 1.5 10.94124 1.5 21.73677 11.13127 24 19.29812 26.26322 11.13127 37.05875 1.5 41.74547 1.5 46.99574 1.5 47 6.39984 47 16.77116"/>
</svg>