<svg xmlns="http://www.w3.org/2000/svg" viewBox="0 0 48 48">
<path fill="#76cc65" fill-rule="evenodd" d="M7.51246 7.41687C10.8353 7.21644 16.22375 7 24 7s13.16471.21644 16.48757.41687c3.15169.19012 5.73327 2.49438 6.04773 5.69108C46.77705 15.56431 47 19.14577 47 24s-.22295 8.4357-.4647 10.89205c-.31446 3.19668-2.89604 5.501-6.04773 5.69111C37.16471 40.78356 31.77625 41 24 41s-13.16471-.21643-16.48755-.41684c-3.15172-.1901-5.73327-2.49443-6.0478-5.69111C1.22297 32.43569 1 28.85423 1 24s.22297-8.4357.46465-10.89205c.31453-3.1967 2.89608-5.50097 6.04781-5.69108m10.88308 9.32005c.74148-.45783 1.67567-.5507 2.6082-.19263 1.1408.43811 2.6676 1.11714 4.66518 2.17046 1.91027 1.00727 3.38717 1.90128 4.50497 2.64287.98606.65425 1.50811 1.63491 1.50811 2.64316 0 1.00834-.52205 1.9889-1.50811 2.64316-1.1178.74168-2.5947 1.63569-4.50497 2.64296-1.99758 1.05323-3.52438 1.73235-4.66518 2.17037-.93253.35816-1.86672.2652-2.6082-.19254-.73786-.4556-1.24504-1.24741-1.38588-2.21495-.18899-1.2986-.35009-3.00502-.35009-5.049s.1611-3.7504.3501-5.049c.14083-.96755.648-1.75926 1.38587-2.21486"/>
</svg>