<svg xmlns="http://www.w3.org/2000/svg" viewBox="0 0 48 48">
<path fill="#76cc65" fill-rule="evenodd" d="M36.84016 3.43514c-.21231-1.52102-1.55442-2.46185-2.98845-2.43456-5.47842.10405-9.93883.70809-13.01176 3.2553-3.0318 2.51318-4.59828 6.81082-4.66606 13.94512h-5.11134c-1.38112 0-2.69794.8804-2.90957 2.3709-.16181 1.13934-.24542 2.70602.00801 4.58044.21617 1.59876 1.63128 2.63708 3.1493 2.63708h4.86128v15.9411c0 1.5168 1.00507 2.90492 2.5648 3.10402.73231.09339 1.61486.16546 2.59559.16546 1.07622 0 2.10976-.08674 2.97145-.19264 1.61148-.19813 2.70595-1.61861 2.70595-3.20993v-15.808h6.76125c1.46985 0 2.8724-.97946 3.08577-2.5484.23857-1.7553.14327-3.35113-.02124-4.54064-.21299-1.54027-1.56495-2.49939-3.01471-2.49939h-6.80875c.01332-1.37941.08573-2.50995.25575-3.43963.18914-1.03461.49385-1.78935.94463-2.353.89297-1.11685 2.49354-1.64472 5.546-1.7918 1.46309-.0705 2.87606-1.0436 3.09166-2.63082.24417-1.79922.1538-3.38145-.00956-4.55061"/>
</svg>