<svg xmlns="http://www.w3.org/2000/svg" viewBox="0 0 368 216"><path fill="#153c4c" d="M287.30315 182.6629c1.65383-.362 2.86987-.45854 5.229-.38613 3.76975.1448 5.98295.67573 14.30071 3.42695l.65158.21404.6525.21147c2.9315.9438 5.75291 1.7683 6.60022 1.91544 2.01864.33787 7.9043.4344 10.2148.1448l1.53221-.16893-.80259.724c-2.04296 1.85828-6.42073 3.83723-10.16615 4.6095-4.28048.86881-7.85566.60334-15.71132-1.1584-9.19331-2.09962-12.06318-1.52041-21.69427 4.36816-8.07455 4.92324-12.98738 6.66085-18.89736 6.66085-4.62098.02413-8.19616-.8688-16.4896-4.00617-4.98578-1.8824-6.34776-2.19614-10.21478-2.19614-4.54802 0-5.71542.33787-12.5496 3.78896-7.70974 3.93376-11.11467 4.92323-16.56256 4.92323-4.71826 0-8.56097-1.13427-15.44379-4.56123-4.7669-2.38922-6.17751-2.79949-9.60677-2.96842-4.20752-.19307-5.78838.2172-12.0875 3.23389C158.91296 204.91399 155.09458 206 150.15742 206c-4.96147 0-8.43936-1.03774-16.58687-4.94737-7.24764-3.45109-8.46368-3.78896-13.42515-3.78896-3.52654.02414-4.0616.09654-6.88283.8688-5.49653 1.52042-7.199 1.81002-10.48232 1.83415-2.28616 0-3.52653-.12066-4.96147-.5068-3.9643-1.06187-4.4264-.55507 4.86419-5.1887 10.36071-5.16457 13.66836-6.27471 18.87304-6.27471 4.3048 0 7.58813.9412 14.10614 3.9579 8.3664 3.90962 10.09319 4.41642 14.7628 4.41642l.28335-.0007c4.19509-.0215 5.96502-.54807 12.4365-3.52279 4.83987-2.22028 7.63677-3.20976 10.43368-3.69243 5.61814-.98947 9.80134-.1448 18.43527 3.6683 4.96147 2.17201 6.34776 2.65468 9.02306 3.16149 2.60234.48267 4.96147.48267 7.61245 0 2.69963-.53094 4.66962-1.25495 8.75554-3.3063 6.49369-3.25802 9.7527-4.19922 14.71416-4.19922 3.52654 0 6.0316.5068 11.8443 2.31681 6.00726 1.88242 8.53664 2.34095 12.93873 2.36509 6.17752.04826 9.26627-.89294 18.38662-5.4783 7.24764-3.6683 8.85282-4.3199 12.01454-5.01978m-94.75434-88.52169c2.3348.53094 5.44789 2.09962 7.41788 3.7407 3.96431 3.23388 7.12603 9.12246 8.17183 15.10757.72963 4.27163.1216 11.31861-1.43493 16.24184-.87555 2.84776-3.81839 8.4226-8.14751 15.56611-5.01012 8.22953-6.46937 11.43929-7.41789 16.07292-.60802 2.94429-.41345 7.07111.41346 9.53273l.60802 1.76175 1.67815.55507c2.45641.82054 6.49368 1.39974 8.92578 1.3032l2.11592-.0724-2.26185 2.09962c-6.46937 6.03338-11.1633 7.45726-20.28365 6.10578-2.57802-.38614-5.05876-.5792-7.15036-.5792-3.81838 0-4.45073.2172-10.77417 3.47522-2.28617 1.20667-5.25332 2.53402-6.59097 2.99255-1.99052.69233-2.44005.8177-4.82555.82547l-.5634-.00003c-.29904-.0008-.62516-.00263-.98314-.0049-3.62381 0-4.23184-.0724-6.95578-.7964-1.26793-.35155-4.03687-1.2705-6.82725-2.26747l-.72744-.26152c-.60498-.21888-1.2049-.43943-1.78455-.65664-7.92862-2.96842-9.7527-3.45109-13.8386-3.64416-6.66394-.2896-11.91726 1.47215-21.8402 7.28832-12.3064 7.19179-19.7486 9.8706-27.5313 9.8706-6.10455 0-10.43368-1.2308-19.5297-5.59897-7.41789-3.57175-10.70121-4.5371-15.4438-4.5371-2.48073-.02413-2.57801-.04826-1.92135-.41026 1.43494-.77228 6.76122-2.36509 8.85282-2.63056 3.35629-.45853 6.8585.04827 12.6712 1.78588 6.93147 2.05135 8.26912 2.31682 13.27923 2.43749 3.98864.12066 4.93715.0724 7.199-.41027 5.90998-1.20668 10.87145-3.40283 20.1134-8.90527 8.75554-5.21283 11.45517-6.4919 16.22207-7.67445 4.5237-1.13428 8.80418-1.086 13.5954.12067 1.09444.26547 4.66962 1.56868 7.92862 2.87188 9.21763 3.69243 12.98738 4.70604 17.38947 4.70604 2.82122 0 5.6911-.6516 8.43936-1.88242 1.09444-.5068 2.2132-.91707 2.48074-.91707.41345.02414.43777-.12067.26753-1.56868-.07297-.6516-.13225-2.11771-.15733-3.63473l-.00816-.60771a88 88 0 0 1-.00476-.898l.0007-.36466c.01052-2.60289.141-3.66878.583-5.33084 1.67815-6.22644 5.30196-12.74249 10.84714-19.524.97283-1.18255 3.81838-4.3199 6.32344-6.95045 4.86418-5.14848 7.13414-7.7418 9.09876-10.49189l.2927-.41403a56 56 0 0 0 .4342-.6299c3.01579-4.4647 3.93998-7.09525 4.13455-11.77715.14593-3.64416-.14592-5.4783-1.289-7.86752-1.07013-2.24442-2.84556-4.0303-5.01012-5.0439-3.93999-1.83415-8.39072-.33787-10.43368 3.52349-.5837 1.086-.68098 1.59281-.68098 3.42696s.09728 2.31681.63234 3.28215c1.67814 2.99256 5.13172 3.06496 6.25048.16894.43778-1.13428.38913-2.00308-.24321-3.5235-.24321-.55506.04864-.55506 1.07012.0724 1.19173.72401 1.72679 1.85829 1.70247 3.78897 0 4.94737-4.93715 7.84339-9.50949 5.57484-5.13171-2.55815-6.9801-10.35328-3.8427-16.48319 1.7511-3.47522 6.00726-6.73324 10.2391-7.81925 2.33482-.60334 6.32345-.67574 8.63394-.12067m103.12074 70.83183c1.87271.5068 3.94 1.25495 11.99022 4.3923 4.40209 1.71348 5.86135 2.09962 9.09603 2.41335 3.08876.2896 5.86134.02414 10.53096-1.0136 6.54233-1.44802 9.31492-1.27908 16.31935.89293 4.69394 1.47215 7.41788 2.14789 8.46368 2.14789.4621 0 .85123.09653.85123.2172 0 .53093-3.08875.89294-9.31491 1.06187-7.17468.2172-6.95579.19307-13.717 2.12375-6.29913 1.81001-7.73406 2.00308-13.3522 1.85828-5.32628-.1448-6.90714-.41027-13.54676-2.24442-6.34776-1.7376-7.75837-2.00308-11.23627-2.14788-5.8127-.26547-8.85282.62747-16.90304 4.8991-9.33924 4.99564-13.1333 6.08165-20.04045 5.81618-3.94-.1448-5.9343-.5068-10.28775-1.83415-1.55654-.48267-4.37777-1.3032-6.25048-1.81001-3.33197-.89294-3.5995-.91707-7.80702-.9412-5.78838 0-6.8585.2896-14.54392 4.15096-7.17467 3.59589-10.14183 4.56123-13.9359 4.56123-2.23752 0-6.54232-.89294-7.2233-1.52041-.12161-.09654.34049-.362 1.0458-.60334 1.50789-.48267 5.20467-2.55815 7.17467-4.0303.80259-.5792 2.94283-2.26855 4.7669-3.74069 8.3664-6.78151 12.86577-8.95353 19.1649-9.26727 3.69677-.19306 5.54516.19307 12.57391 2.58229 8.90972 3.05763 9.91338 3.27518 15.82188 3.28198l.69819.00012c4.5887-.00161 5.04137-.0414 7.3874-.69982 4.47506-1.2308 7.49085-2.67881 14.71417-6.97458 1.7511-1.06187 4.0616-2.29268 5.13172-2.75122 1.72678-.69987 2.62666-.9412 5.59381-1.448 1.21605-.2172 4.86419.12066 6.83418.62746M186.93067 69.2837c1.14309 3.90963 1.72679 5.38177 2.72395 6.87805 1.21604 1.83415 2.89419 3.30629 4.83986 4.19923 1.5079.69987 1.8484.77227 3.62382.6516 1.55654-.0724 2.28617-.26546 3.38061-.84467 4.20752-2.24441 5.13172-9.2914 1.53222-11.70475-1.11876-.74814-2.16456-.60333-3.04012.362-.55938.65161-.5837 1.03775-.14592 2.22029.26753.6516-.36482.45853-1.19173-.33787-.60802-.62747-.72963-.9412-.72963-1.97895 0-2.92015 2.91851-4.58536 6.42073-3.62002 1.3863.38613 3.3806 2.31681 4.28048 4.12682 2.77259 5.57484.09729 13.15276-5.61813 16.00052-5.03444 2.48575-10.77418 1.49627-15.12762-2.60642-2.5537-2.41335-4.15888-5.16457-6.17752-10.54634-2.06728-5.4783-4.62098-9.48447-7.61245-11.82542-1.6295-1.27907-4.83986-2.84775-7.07739-3.42696-2.26185-.60333-7.17467-.5792-9.43652.02414-3.79407 1.0136-7.53949 3.64416-10.28776 7.21592-1.77542 2.34095-4.13455 7.24005-4.96146 10.28087-.89988 3.40282-1.14309 10.42567-.48642 14.79384.77827 5.21283 1.60518 7.89165 5.13171 16.62798 5.76406 14.31117 8.26912 24.97818 8.29344 35.37972v2.92015l2.99148.69987c4.28048.9412 5.95862 1.1584 9.1933 1.1584 1.58087 0 2.8942.07241 2.8942.12068 0 .0724-.8026 1.25494-1.7511 2.60641-.97285 1.37561-2.06729 3.0167-2.48074 3.6683-.72963 1.18254-.77827 1.18254-2.38346 1.3756-.74289.07168-2.24306.0782-3.79483.04167l-.66615-.01823c-1.8847-.05874-3.69684-.17628-4.17295-.31303-.48641-.1448-.60802.04826-1.31333 2.31681-.43777 1.37561-1.31333 3.54763-1.92135 4.8267-1.33765 2.72709-1.5079 2.53402 2.38345 2.77536 2.23753.1448 4.28048-.09654 6.78554-.79641.53506-.1448.53506-.1448-.07296 2.19615-.3405 1.3032-.72963 3.62002-.9242 5.16457l-.29185 2.77535-1.67814.31374c-2.82123.53093-6.80986.67574-9.67973.33787-4.0616-.45854-8.00159-1.56868-13.9359-3.93376-8.6096-3.42696-11.5038-4.1027-16.58687-3.86137-5.30196.26547-9.38788 1.68935-16.2707 5.69551-2.14025 1.25494-5.49653 3.20976-7.41789 4.34403-6.25048 3.64416-10.1175 5.3335-14.8844 6.54018-2.48469.61638-3.076.6929-7.27053.69936l-.75538.00051c-5.95863-.02413-7.3206-.24133-13.78997-2.24441-2.04296-.62747-5.03443-1.47215-6.63962-1.90655-5.90998-1.52041-6.2748-1.54454-15.83292-1.47214l-8.8285.04826-2.40777-.6516c-1.33765-.38614-3.30765-1.06187-4.35345-1.52041l-1.92135-.8688 4.47505-.16894c3.38061-.12067 5.18036-.31374 7.41788-.7964 1.60519-.36201 3.79407-.84468 4.83987-1.06188 5.8127-1.25494 13.08466-.74814 21.88884 1.56868 7.61245 1.97894 10.82281 2.36508 15.39515 1.85827 7.9043-.8688 13.69268-3.28215 25.53697-10.64287 7.75838-4.8267 12.03886-6.85392 16.65984-7.91579 1.97-.45853 3.16172-.55507 7.22332-.55507l4.83986-.02413.97284-1.39975c2.6753-3.88549 4.81554-10.4498 5.52085-16.96585 1.02148-9.5086.48642-15.32477-2.65098-28.13966-1.89703-7.67446-2.45642-10.76355-2.94283-16.07292-.94852-10.42567.85123-19.69294 5.37492-27.5122 5.66678-9.82233 15.03034-16.41077 25.14784-17.68985 13.57108-1.71348 25.70723 6.68498 29.7445 20.61001m-2.28616 94.16893c-1.89704 1.76175-1.67815 6.32298.34049 7.28832 1.53222.724 2.57802-.5068 2.86987-3.35456.19456-2.05134-.31618-3.71655-1.33765-4.1751-.89988-.41026-1.19173-.362-1.87271.24134M237.49389 12.6665c2.94283.724 6.83418 2.60642 9.36356 4.51297 10.36071 7.77099 16.70847 24.68857 16.07613 42.8611-.43778 12.83902-3.08876 22.85443-9.24195 34.67984-5.54518 10.66701-6.80986 14.89038-6.80986 22.70963-.02432 5.64724.9242 10.66701 2.7969 15.08344 2.45642 5.7679 8.488 12.45289 15.49244 17.20719l2.23752 1.52041-2.11592 1.35148c-8.17183 5.21283-12.7928 6.92631-21.08625 7.91579l-2.74826.31373 1.1674.53094c2.5537 1.18254 5.42357 1.66521 9.80134 1.68934 3.50221 0 4.40209-.0724 6.2748-.5792 3.23468-.89294 6.46937-2.31682 11.18763-4.94737 9.80133-5.50244 14.95737-7.36072 20.47822-7.33658 3.30765 0 5.54517.45853 10.84713 2.22028 5.83703 1.95481 8.5853 2.46162 13.32788 2.50988 2.14024.02414 3.91566.04827 3.91566.0724 0 .2172-5.44788 2.99256-7.29627 3.71656-4.88851 1.93068-8.92579 2.29269-16.1491 1.47215-5.98295-.69987-9.80134-.69987-12.37936-.04827-2.0916.53094-3.18604 1.03774-8.87714 4.07856-9.02306 4.85084-15.24922 6.54018-21.4997 5.86444-4.59665-.48267-6.90714-1.20667-16.80576-5.21283-4.1832-1.68935-7.02875-2.31682-9.33924-2.07549-.99716.12067-3.86703.94121-7.12603 2.05135-6.26817 2.11936-8.52534 2.65549-11.86937 2.67886l-.48566-.00004c-3.23469 0-5.30197-.41027-9.19332-1.78588-1.58086-.55507-3.11308-1.0136-3.40493-1.03774-.51074 0-.53506-.09653-.36481-1.76174.1216-1.39975 1.53222-6.58845 1.77543-6.58845.02432 0 1.36197-.2896 2.99147-.6516 4.1832-.91708 10.06887-1.08601 16.07614-.48268 3.16172.31374 5.4722.38614 7.92862.2896 5.05875-.2172 4.8885-.04826 2.77259-2.65468-4.13456-5.0439-6.44505-10.49807-7.95295-18.67933-.4621-2.50988-.55938-4.00616-.55938-8.73633-.02432-5.81617.14593-7.43312 1.1674-11.51168.85124-3.42696 1.7268-5.6955 3.67247-9.6534.49367-1.00175.96837-1.92442 1.47833-2.85532l.23807-.43055c1.68677-3.0224 3.82877-6.271 8.25518-12.69051 2.40777-3.47523 5.05875-7.45725 5.90998-8.857 3.21037-5.30937 5.64246-10.8118 7.3206-16.60385 2.82123-9.77407 2.50506-18.12426-.99715-26.16071-2.40778-5.55071-6.93147-9.74994-11.33356-10.57048-8.22047-1.52041-16.48959 4.15096-18.8244 12.91142-.5837 2.14789-.5837 6.15405 0 8.37433 1.07012 4.1027 3.50222 7.45725 6.59097 8.97766 1.55654.79641 2.04296.89294 3.64814.89294 3.23469 0 5.76406-1.81 6.1532-4.41643.3405-2.24441-1.02148-4.19923-2.94283-4.19923-.77827 0-1.11877.16894-1.65383.7964-.38913.45855-.65666 1.08602-.65666 1.54455 0 .77227-.02432.77227-.51074.33787-1.60518-1.448-1.07012-4.48883 1.0458-5.88857.87555-.55507 1.33765-.67574 2.74826-.69987 1.41062 0 1.92136.12066 3.06444.74813 3.04012 1.66522 4.69394 5.52658 3.86703 9.05007-2.16456 9.09833-14.27639 11.80128-22.6671 5.01977-2.26185-1.83415-3.98864-4.05443-5.42358-6.97459-1.92135-3.88549-2.40777-6.17817-2.38345-11.39101 0-3.8131.07297-4.6095.65667-6.78151 1.60518-5.91271 3.76974-9.77407 7.85566-13.87677 4.66962-4.73017 9.02306-7.09525 15.17626-8.25366 2.40777-.45853 6.59097-.2896 9.33924.41027M38.18386 156.8642c6.66394-.41027 10.84714.6516 22.0834 5.5507 7.0774 3.0891 12.79282 5.1163 15.78429 5.59897 1.7511.2896 1.84839.33787 1.289.62748-.34048.16893-1.43493.48267-2.4564.724-5.83703 1.30321-14.83577.48267-23.2265-2.12375-5.3506-1.6652-7.63677-2.22028-10.53096-2.55815-.41551-.05154-.80672-.09458-1.18906-.12765l-.3259-.02586a19.8 19.8 0 0 0-.64742-.0362l-.32583-.00995c-2.40252-.05213-5.15144.35755-12.08002 1.5994-4.93715.89294-11.11467.33787-15.4438-1.3756-.45988-.18137-.98409-.41947-1.51163-.67923L9.2077 163.83c-1.51052-.77165-2.92258-1.64987-2.78697-1.80125.07296-.04827 1.19172.02413 2.52937.1448 4.7669.45853 11.23627-.55507 18.92169-2.92016 6.29912-1.93068 7.4422-2.19615 10.31207-2.38921m302.62534-.1448c.99368.17065 3.35368.72868 5.79412 1.36971l.6666.17666c.44444.11884.88768.2395 1.32198.36017 6.17751 1.68935 8.75553 2.12375 11.35787 1.93068l1.77543-.1448-.63234.5068c-3.45358 2.7271-9.169 3.5959-16.7328 2.53402-4.57234-.62747-8.46369-.67574-11.3822-.12066-1.19173.2172-4.03727.98947-6.37208 1.7376-5.30197 1.71349-6.98011 2.00309-10.55529 1.85829-2.28617-.12067-3.30764-.2896-5.25332-.9412l-.44628-.1496c-2.13687-.72657-2.85224-1.131-1.98581-1.15362.89987 0 5.37492-1.20667 7.34492-2.00308.79096-.30324 2.44556-1.0152 4.13887-1.75583l.5979-.26196a710 710 0 0 0 1.17321-.51623c4.5237-2.02721 7.0774-2.92015 9.84998-3.42695 2.60234-.45854 6.6153-.45854 9.33924 0M76.48933 22.0303c5.13171 2.48575 7.46652 6.29885 7.22331 11.82542-.1216 2.99255-.80259 4.70603-2.65098 6.66085-3.7211 3.95789-10.1175 4.0303-11.86861.16893-.26753-.5792-.48642-1.39974-.48642-1.81001-.02432-1.23081 1.14308-2.63055 2.18888-2.65469.51074 0 .53506.0724.29185.69987-.38913 1.01361.19457 2.09962 1.41062 2.67882 1.19172.5792 2.2132.4344 3.81838-.5792 3.30765-2.07548 3.67246-6.95045.77827-10.1602-5.13171-5.64725-15.73564-3.5959-20.6971 4.00615-1.55655 2.36509-2.14025 4.29577-2.28618 7.409-.14592 3.37868.29186 5.57483 1.79975 8.71219 2.01864 4.2475 4.4021 6.95044 11.16331 12.69422 4.5237 3.83723 9.14467 8.47086 11.30923 11.36688 4.6453 6.1299 7.51517 13.00796 8.63393 20.65828.4621 3.16149.51074 4.4647.41346 8.7846-.21889 7.55378-1.11876 12.06674-4.7669 23.81976-3.84271 12.35636-4.47505 15.66264-4.49938 22.9751 0 3.40282.09729 5.3335.29186 5.52657.14592.1448 1.6295.62747 3.30764 1.06187 2.94283.77228 3.23469.7964 8.0259.7964 4.01296-.02412 5.42358-.12066 7.22333-.53093 1.21604-.26547 2.2132-.4344 2.2132-.33787 0 .1448-5.15604 3.11322-7.05307 4.05443-5.08307 2.48575-10.48232 3.57176-15.37083 3.08909-4.74258-.48267-8.51232-1.68935-15.687-4.99564-12.50096-5.7679-18.97032-7.21591-28.06635-6.3471-8.43936.82053-13.1333.41026-17.00033-1.52042-1.07012-.53093-1.97-1.086-2.01864-1.2308s1.09444-.24134 3.04012-.26547c3.74542 0 5.98295-.4344 11.30923-2.14789 4.8885-1.54454 7.70973-2.07548 11.23627-2.07548 3.11308-.02413 5.90999.4344 9.80133 1.59281 1.41062.41027 2.6753.74814 2.79691.74814.14593 0 .31617-.60334.41346-1.32734.31617-2.41335 1.43493-7.09525 2.60234-10.83594.19132-.61139.38394-1.20732.58288-1.80011l.20122-.5922c1.25615-3.65103 2.81594-7.33832 5.85551-13.94608 4.57234-9.89473 5.90999-14.21463 6.1532-20.0308.21888-5.79205-.68099-10.03954-3.259-15.20411-1.67815-3.3787-3.38062-5.74378-7.7827-10.73941-7.12604-8.133-9.60677-11.89782-11.35788-17.20719-1.14308-3.57176-1.41061-5.4059-1.41061-9.7982.02432-4.4647.29185-6.08164 1.67814-9.46033 3.45357-8.5674 11.45516-14.72144 20.13773-15.44545 4.3048-.362 7.02875.0724 10.36072 1.71348m111.48714 129.62105c-1.60518 1.83415-2.3348 4.29576-1.70246 5.81617.9242 2.22029 3.1374.77228 4.35344-2.84775.4621-1.39974.38914-2.26855-.26753-3.28216-.55938-.84467-1.45925-.724-2.38345.31374m-59.65924-9.77407c.38913-.38614.68099-.26547.53506.19307-.07296.24133-.31617 1.25494-.53506 2.22028-.21889.98947-.77827 2.75122-1.21605 3.90963l-.8269 2.14788-1.60519.4344c-4.0616 1.13428-6.29912 1.35148-13.20627 1.35148-6.88282 0-11.94157-.38614-18.11909-1.37561-1.04895-.17474-2.58963-.4906-4.20846-.8497l-.57393-.12837c-3.35897-.75746-6.84301-1.64935-6.84301-1.82142 0-.09653.72962-.24133 1.60518-.31373s3.74542-.60334 6.37208-1.18254c7.83134-1.68935 9.63109-1.76175 15.90589-.724 4.54801.77226 10.09319.55506 14.20342-.50681 2.6753-.69987 7.9043-2.77536 8.51233-3.35456m87.94448-.24133.55939 1.71347c.31617.94121 1.02148 2.72709 1.55653 3.9579.53507 1.25494.99716 2.29268.99716 2.29268 0 .02414-1.02148-.04826-2.23752-.16893-1.24037-.1448-4.01296-.16894-6.20184-.09654-4.28048.12067-6.63961.55507-10.74985 1.93068-1.28901.41027-2.40777.724-2.45641.6516-.07297-.04826.99715-1.93067 2.3348-4.15095l2.45642-4.05443 1.65382-.55507c.9242-.31374 2.6753-.77228 3.89135-1.01361 1.3863-.2896 3.35629-.48267 5.20468-.48267zm109.4442-121.48806c8.05022 2.07548 12.7928 10.03954 10.99305 18.438-.80259 3.76482-3.3806 7.45725-6.1532 8.80872-.96472.47865-1.56066.59135-3.16053.6024l-.54467.00064c-1.85546-.0049-2.04872-.07813-2.9344-.77197-1.41062-1.13428-1.92136-1.93068-2.06729-3.20976-.17024-1.3756.38914-2.55815 1.45926-3.11322 1.09444-.55507 1.21605-.48267 1.09444.724-.1216.96535-.04864 1.15841.55938 1.64109 2.11592 1.6652 5.30197-.5068 6.3964-4.36817 1.24038-4.29576-.7053-8.90526-4.57233-10.78768-1.97-.96534-3.64814-1.2308-6.0559-.98947-5.64247.60334-10.99307 5.96098-13.86294 13.87677-2.0916 5.74377-2.04296 13.5389.1216 20.22387 1.87272 5.7679 3.79407 9.3638 10.19048 18.84827.22317.33006.44806.66425.67323 1.00033l.4503.67398c.14494.21755.28961.43526.43362.65252l.4297.64982c1.85022 2.80488 3.52546 5.43217 4.19066 6.55608 6.05591 10.4498 8.58529 22.1787 7.24764 33.54557-.8026 6.63672-1.87271 11.14968-4.32913 18.10013-.63234 1.81001-1.11876 3.33042-1.0458 3.37869.04865.0724 2.04296-.02413 4.42641-.16893 8.2448-.55508 10.09319-.38614 16.05182 1.448 6.49369 2.00309 9.24195 2.55816 12.428 2.5823h2.06727l-.63234.48266c-.99716.77227-4.32913 1.76175-6.93147 2.05135-2.38345.26547-6.08023.0724-9.92294-.53094-2.94283-.48267-7.68541-.31373-11.99022.41027-5.15603.84467-8.26911.98947-12.64688.62747-6.22616-.5068-10.5796-1.64108-17.99749-4.65776-1.89703-.77228-4.6453-1.71348-6.10455-2.09962-3.50222-.8688-6.32344-.77227-11.2606.4344-3.18603.77228-3.79406.84468-7.53948.84468-3.45357 0-4.42641-.09654-6.25048-.5792-2.2132-.57921-6.25048-2.38922-7.41789-3.3063l-.63234-.53093h2.04296c3.57518 0 8.51232-.74814 14.54392-2.14789 7.79947-1.81 10.4658-2.34663 12.96947-2.47569l.29998-.01358.30032-.01c.20076-.00556.40302-.00895.60933-.01061 2.84555-.02413 5.76406.5068 7.85566 1.39974.63234.26547 1.19172.45854 1.21605.41027.0637-.0747.23355-.38745.47215-.85975l.15111-.3019c.42336-.85276 1.00353-2.07377 1.58724-3.34148l.23554-.51371c.43081-.9436.85225-1.88905 1.2021-2.70588 5.71541-13.29756 6.68825-23.02336 3.33196-33.52144-1.14308-3.62002-2.26184-6.10577-5.86134-13.27342-3.89135-7.72272-4.93715-10.0878-6.29912-14.35944-3.33197-10.35327-3.42925-19.04133-.29185-28.019 2.16456-6.22644 4.32912-9.7982 8.51232-13.92503 1.55654-1.54454 3.67246-3.35455 4.71826-4.0303 2.31049-1.5204 5.83702-3.04081 8.41504-3.66828 2.48074-.60334 6.76122-.67574 8.8285-.12067M195.05385 141.08087c-1.31333.84468-2.74826 3.25803-2.74826 4.56124 0 2.34095 2.74826 1.086 4.11023-1.85828.5837-1.27908.63235-2.79949.07297-3.01669-.5837-.2172-.68099-.19307-1.43494.31373m48.98236-4.27162c.07296 3.78896 3.06443 7.28831 5.08307 5.9851 1.21605-.7964 1.1674-2.75122-.1216-5.35763-.43778-.89294-1.19173-2.02722-1.65383-2.50989-1.70246-1.78588-3.33196-.84467-3.30764 1.88242m-187.17388 2.87188c-.02433 1.35148.07296 1.81001.48641 2.38922.82692 1.086 1.87272 1.086 2.84555-.02414 1.60518-1.81 2.38345-5.52657 1.48358-7.24005-1.33765-2.55815-4.69394.84468-4.81554 4.87497m79.18895-4.29576c-.75395 1.448-.94852 5.28524-.3405 6.46778.8026 1.54454 2.5537 1.3032 3.45358-.45854 1.26468-2.46162 1.21604-5.52657-.12161-6.95045-1.02148-1.11014-2.0916-.7964-2.99147.9412m46.2584-2.72709c.08845.08776-1.8299 2.20513-3.7342 4.17976l-.3564.36804c-.59208.60884-1.17045 1.1905-1.67345 1.67865-1.65383 1.5928-1.8484 1.71348-3.91567 2.22028-4.30481 1.086-10.65257.91707-13.71701-.362-.76076-.31084-.82162-.35614-.82649-1.71445l-.00042-2.12278 3.45357-.41027c2.8942-.362 4.28048-.69987 8.0259-1.93068 4.25617-1.42388 6.34777-1.93068 8.80419-2.12375 1.0458-.09653 3.74542.0724 3.93999.2172M41.88065 79.66111c5.61814 1.49628 10.02023 6.25058 11.79565 12.71835.70531 2.60642.75395 8.08473.09729 11.12555-1.09444 5.06804-3.38061 10.5222-7.05307 16.84519-2.48074 4.2475-3.94 7.31245-4.59666 9.70166-.29185 1.11014-.51074 2.02722-.4621 2.07548.04865.02414 1.41062.26547 3.04012.48268 2.48074.362 7.36924 1.35147 7.58813 1.54454.02993.0198-.24714 1.20131-.59276 2.59633l-.13235.5313c-.47122 1.88157-1.00916 3.92678-1.07464 3.99175-.02432.04827-1.21604-.31373-2.62666-.7964-4.91283-1.66521-7.05307-2.00308-12.62256-1.97895-4.74258 0-5.18036.04827-9.26628.9412-6.8585 1.47215-11.35787 1.64109-15.15194.55508-1.55654-.45854-3.79406-1.49628-4.03727-1.88242-.07296-.12066 1.31333-.26546 3.23468-.33786 3.55086-.12067 4.03728-.24134 12.20911-2.55816 1.7511-.5068 3.67246-1.03774 4.25616-1.18254.97284-.24133 1.09445-.362 1.21605-1.20667.31617-2.00308 1.19173-5.01977 2.01864-6.90219 1.14308-2.63055 2.52937-4.6819 6.37208-9.5086 8.31776-10.3774 9.72837-13.27342 9.70405-20.00667 0-3.54763-.3405-4.99564-1.72678-7.36072-.94852-1.61694-3.23469-3.54762-4.7669-4.05443-5.13172-1.68934-10.04455 2.96842-7.85567 7.43312.75395 1.52041 1.77543 2.12375 3.40493 2.00308 1.5079-.1448 2.57802-1.11014 2.3105-2.12375-.19458-.74813.21888-.77227.75394-.02413 1.07012 1.52041.04864 4.1027-2.01864 5.14044-4.25616 2.09961-8.85282-1.25495-9.26627-6.82978-.36482-4.85084 2.45641-9.0018 7.29628-10.69115 2.01864-.69987 5.71542-.82054 7.95294-.24133m299.41498 52.75584c3.67246-.4344 8.65825.09653 13.10898 1.3756 4.57234 1.32735 7.95294 2.00309 10.84713 2.17202l2.74827.16894-.75395.45853c-1.19172.724-4.1832 1.68935-6.59097 2.14789-1.89703.362-2.94283.38613-6.83418.19306-8.02591-.38613-11.55244-.26546-15.20058.53094l-.61615.12965c-3.81164.79702-7.78268 1.53556-8.3826 1.53556-.31617 0-.41345-.09653-.29185-.31373.1216-.16894.63234-1.73762 1.14308-3.47523l.9242-3.13735 2.60234-.5792c2.26185-.50681 4.4264-.86881 7.29628-1.20668m-234.89155.96534c5.80698 1.82705 6.96296 2.03993 12.4074 2.05087l1.07208.0008c3.71233.00463 4.40263.06029 4.0316.31341-1.11877.84467-6.2748 3.16149-8.3664 3.76483-2.06729.62747-2.69963.69987-6.3721.69987-3.55085 0-4.52369-.0724-7.27195-.67574-5.98295-1.32734-8.58529-1.2308-15.90589.60334-2.18888.53094-4.0616.98947-4.11024.98947-.07296 0 .17025-1.1584.51074-2.60642 1.09444-4.6095.99716-4.3923 2.06728-4.6819.4621-.12505 1.95819-.53811 3.53261-.9749l.49868-.13842.2492-.06922c1.82407-.5068 4.28048-1.0136 5.49653-1.11014 4.03727-.362 6.3964 0 12.16046 1.83415m92.6141 3.66829c.31618.26547.55939.16894 1.41062-.60334 1.11876-.98947 1.92135-2.87188 1.77543-4.12683-.04864-.48267-.24321-.724-.60803-.77227-1.41061-.19307-3.67246 4.58537-2.57801 5.50244m12.28207-9.09833c1.99432 0 2.4321.33787 2.45642 1.85828 0 .96534.29185 3.42696.63234 5.38177l.1216.77227-3.69677-.02413c-2.04296 0-3.69679-.0724-3.69679-.16894s.51074-1.7376 1.14309-3.66829c.65666-1.93068 1.21605-3.6683 1.289-3.83722.04865-.2172.65667-.31374 1.75111-.31374m70.38478-18.55867c0 3.4511-1.45926 6.56432-4.47505 9.581-3.06444 3.06496-7.15036 5.50244-12.01454 7.19179-1.2647.4344-2.45642.84467-2.6753.91707-.3405.12067-.3405.16894 0 .362.8269.45854 4.79122 1.01361 7.27195 1.01361 3.45358 0 6.0316-.48267 10.94442-2.00308 6.08023-1.90654 8.43936-2.36508 12.18479-2.38921 2.7969-.02414 3.62382.0724 6.80986.82053 2.01863.48267 3.64814.94121 3.64814 1.03775 0 .62747-2.84555 6.7091-3.11308 6.68498-.19457-.02414-1.26469-.31374-2.38345-.62748-1.60518-.4344-2.74827-.55507-5.3506-.5792-3.84271-.02413-5.42357.26547-11.23628 2.12375-8.2448 2.63055-12.64688 2.82362-20.55118.89294-1.97-.48267-4.49938-1.0136-5.66678-1.18254l-2.0916-.31374-.7053-1.59281c-.681-1.44801-1.75111-4.8991-1.75111-5.5507 0-.1448 1.24036-.45854 2.77258-.69988 3.33197-.53093 7.6611-1.5928 10.99306-2.70295 8.77986-2.94429 15.00602-7.93992 16.63552-13.36996.43778-1.49628.75395-1.35148.75395.38613m30.23091 15.75918c-2.04295 0-4.1832 4.94737-3.06443 7.07112.94851 1.83415 2.65098 1.47214 4.11023-.84467.65667-1.08601.75395-1.47215.75395-3.06496 0-1.5928-.07296-1.93068-.60802-2.48575-.3405-.362-.87555-.67574-1.19173-.67574M175.01342 65.51888l.48641.62747c.82692.98947 2.2132 3.93376 3.55086 7.43312.68099 1.83414 1.60518 3.86136 2.01864 4.5371s.75395 1.32734.75395 1.47214c0 .67574-2.82123 4.29576-7.49085 9.581-5.49653 6.22644-7.51517 9.77407-8.75553 15.51784-.63235 2.82362-.63235 8.15713 0 11.10141.4621 2.19615 1.82407 6.56432 2.16456 6.90219.09728.09653 1.289-.09654 2.65098-.4344 3.55086-.89295 5.73974-1.01362 8.56097-.53095 2.43209.4344 3.55085.362 5.13171-.2896.75395-.31373 1.11877-.2896 3.45358.2172 1.4106.31374 2.62666.5792 2.6753.62748.26753.19306-3.50222 5.81617-4.23184 6.2747-.1216.0724-1.14309-.02413-2.26185-.2172-4.7669-.84467-8.63393-.362-15.15194 1.88242-4.23184 1.47214-8.56097 2.55815-10.19047 2.55815-.7053-.02413-.77827-.09653-.9242-1.20668-.29185-2.02721-1.65382-8.80872-2.06727-10.11193-.36482-1.20668-.3405-1.23081.26753-1.73762 1.53221-1.2308 1.5079-5.1887-.07297-6.6367-.65666-.60335-1.94567-.79642-2.23752-.33788-.26753.4344-.5837.26547-.75395-.4344-.09729-.362-.8026-2.26855-1.58086-4.19923-1.31333-3.25802-1.41062-3.64416-1.2647-4.92323.19458-1.64108 1.75112-6.54019 2.651-8.30193 1.89702-3.7407 6.15319-8.73633 11.43083-13.36996 7.36924-6.49191 9.55812-9.38793 10.72553-14.1905zm-52.82506-50.7045c.8269.2172 2.0916.724 2.82122 1.13428 1.65383.9412 3.96431 3.33042 4.79123 4.94737 2.9185 5.71964 2.50505 13.15276-1.0458 18.9448-1.67815 2.72708-3.67246 4.9715-8.34208 9.26726-5.83703 5.38177-8.00159 8.03646-10.09319 12.35636-1.53222 3.13735-2.06728 5.30937-2.2132 9.09833-.29185 6.58844 1.65382 12.88729 6.03159 19.78947 6.34776 9.943 7.95294 13.1769 9.43652 19.11374.97283 3.90962 1.55654 8.32605 1.55654 11.75301v2.60642l1.33765.16894c.72963.0724 1.70246.1448 2.14024.1448.77827 0 .8026.02413.94852 1.56867.09728.86881.17024 2.60642.17024 3.90963v2.31682l-2.89419.33787c-4.08591.4344-9.24195.19306-12.76849-.62748-.81604-.18536-2.62176-.7099-4.51415-1.28824l-.59943-.18409c-2.60087-.80257-5.18607-1.64962-5.4417-1.80982-.00553-.00549.00653-.07455.03304-.19556l.03854-.16942c.11269-.48219.34409-1.39019.6094-2.41037 1.11877-4.15097 1.36198-6.95045 1.02149-10.76355-.48642-5.57484-1.55654-8.857-4.93715-15.25237-2.1601-4.08595-2.96187-5.63886-3.57533-7.03716l-.10654-.24563c-.22763-.53084-.4378-1.05952-.6959-1.719-4.54801-11.68062-4.1832-24.59205.97284-33.44904 1.53221-2.63056 4.01295-5.88858 5.6911-7.48139 1.92135-1.81001 3.64813-2.94429 8.39072-5.5507 4.3048-2.36509 6.42072-3.71657 7.92862-5.0439 5.08307-4.51297 7.00443-11.24622 4.57233-16.19359-1.6295-3.28216-5.30196-4.41643-8.63393-2.63055-1.53222.82054-2.45641 1.97895-2.65098 3.30629-.09728.89294-.02432 1.11014.65667 1.78588.8269.82054 1.7511.98947 2.96715.53094.77827-.2896.8026-.1448.17025.89294-.85124 1.39974-3.04012 2.00308-4.79123 1.35147-1.02148-.38613-2.3348-1.68934-2.65098-2.70295-1.43493-4.29576 2.01864-9.5086 7.0774-10.66701 1.58085-.38614 4.96146-.31374 6.59096.09653M49.2742 123.27035c.34396.06206 1.57689.37235 2.8832.7143l.78606.20723c1.47679.39208 2.83832.7692 2.89739.81608.04864.02414-.43778 1.30321-1.0458 2.82362-.87556 2.17202-1.21605 2.77535-1.58086 2.75122-.99716-.0724-7.75838-1.95481-7.75838-2.17201 0-.31374 1.48358-3.18563 2.23752-4.3199.63235-.91707.72963-.98947 1.58087-.82054M28.115 122.13608c.31617 0 .21888.33786-.43778 1.68934-.4621.9412-1.02148 2.38922-1.26469 3.25802l-.41346 1.56868-4.13455.84467c-3.67246.77228-4.57234.84468-8.19616.86881-4.66962 0-6.1532-.2896-9.46084-1.88241C2.14024 127.4937 0 126.09397 0 125.70783c0-.09653.89987-.0724 1.97.04827 3.89134.48267 13.91157-.74814 22.15636-2.72709 1.97-.48267 3.76975-.8688 3.98864-.89293m37.1867-1.03775c-1.55654 0-3.69678 3.1615-3.94 5.81618-.09728 1.18254-.04863 1.5204.43778 2.12375.31618.41027.8026.67574 1.1674.67574 1.48359 0 3.62383-3.11323 3.84272-5.64724.09728-1.03775.02432-1.49628-.38914-2.12375-.3405-.55507-.72963-.84468-1.11876-.84468m176.2781-.67573c-1.43493.724-1.94567 3.62002-1.0458 6.1299.97284 2.70296 2.6753 3.71657 3.84271 2.24442.63234-.7964.68099-2.05135.14593-4.73016-.41346-2.14789-.9242-3.33043-1.65383-3.71656-.60802-.31374-.51074-.31374-1.289.0724m97.42965.53093c1.33765-.2172 3.55086-.2896 6.51801-.24133 4.7669.12067 5.27764.19307 12.11182 2.09961 2.60234.724 3.81839.91708 5.5695.94121 1.21604 0 2.21337.09653 2.21337.19307.02415.2896-2.6025 1.448-4.3293 1.88241-1.96999.5068-6.80985.55507-10.96873.09653s-7.4422.04827-13.4738 2.05135c-2.06728.67574-3.81839 1.23081-3.89135 1.23081-.17024 0 .85123-6.27471 1.09444-6.92631.14593-.38614 1.5079-.724 5.15604-1.32735m-242.51184-.21726.56027.00466c2.34106.02679 4.70531.1446 4.87114.30914.17025.19306-.5837 4.27163-1.07012 5.7679l-.24321.74814-4.15888.02414c-4.11024 0-6.25048.2896-9.84998 1.3032-.72962.19307-1.41061.31374-1.48357.24134-.17025-.16893 1.67814-6.49191 2.01863-6.92632.24321-.31373 3.0158-.98947 5.59382-1.35147.69536-.09324 2.18217-.12885 3.7619-.12073m38.38627 2.50995c-.26753 3.33042 1.55654 6.4195 3.40493 5.71964 1.82407-.69987 1.8484-5.71964 0-7.6986-1.3863-1.49627-3.18604-.45853-3.40493 1.97896m68.97416 1.06187c-.14593 1.42388.04864 2.63055.43778 2.63055.77827 0 1.79975-3.71656 1.43493-5.16457-.41345-1.64108-1.60518-.02413-1.87271 2.53402m-163.24209-2.36508c-1.07012.53093-1.7511 2.14788-1.58086 3.66829.04865.48267 1.43494.38613 1.87272-.12067.53506-.60334 1.24036-1.97894 1.24036-2.43748 0-.19307-.21889-.60334-.4621-.89294-.38913-.48267-.51073-.5068-1.07012-.2172m68.24454-8.9294c-.9242.362-1.36198 1.52041-1.33766 3.71656 0 2.53402.3405 3.8131 1.14309 4.1751.48642.2172.75395.19306 1.289-.16894 1.99432-1.3032 2.23753-6.25058.3405-7.57792-.68099-.45853-.65666-.45853-1.43493-.1448m204.22285.24134c-1.58086 1.56867-2.2132 5.30937-1.11876 6.75738.77827 1.06187 1.70246 1.06187 2.74826.02413 1.5079-1.49628 1.94568-4.6819.85123-6.29884-.72962-1.06188-1.70246-1.25495-2.48073-.48267M44.99372 115.6683c-1.33765.9412-2.3348 3.81309-1.41061 4.1027.48642.16893 2.26184-1.56869 2.74826-2.70296.38914-.82054.41346-1.086.14593-1.39974-.41346-.48267-.75395-.48267-1.48358 0m22.69143-4.15097c-1.1674 2.65469-.65667 5.52658.99716 5.52658.97284 0 1.65382-.60334 2.45641-2.22029.9242-1.88241 1.09444-3.9579.38914-5.0439-.97284-1.54454-2.77259-.74814-3.84271 1.73761m64.98553 1.90655c.72962 2.46162 1.97 3.33042 3.11308 2.19615.60802-.5792.63234-.77227.51074-2.19615-.17025-1.81001-.65667-3.08909-1.60519-4.19923-1.79975-2.09961-3.11308.60334-2.01863 4.19923m109.66307-7.09525c-.87555.60334-1.21605 1.03774-1.77543 2.31682-1.09444 2.38921-.89987 5.1887.41346 6.0575.5837.38614.68099.362 1.31333-.09653 1.21605-.84467 2.16456-3.13735 2.31049-5.43004.09728-1.56867.02432-2.12374-.31617-2.63055-.48642-.74814-1.07012-.82054-1.94568-.2172m-193.44868 2.58228c-.85123 1.27908-1.09444 2.75122-.51074 2.96843 1.02148.41026 2.5537-2.29269 1.94568-3.42696-.41346-.74814-.681-.6516-1.43494.45853m56.32728-5.0439c0 2.07548 1.36197 4.85084 2.5537 5.14044.29184.09653.75394-.04827 1.09443-.31374 1.21605-.98947.26754-5.1887-1.53221-6.58844-1.36198-1.06188-2.11592-.4344-2.11592 1.76174m207.60346-3.20975c-.72963.55507-1.0458 1.42387-1.0458 2.96842-.02432 3.83723 2.14024 6.32298 3.69678 4.27163 1.11876-1.52041.65666-5.35764-.85123-6.85392-.8026-.77227-1.19173-.8688-1.79975-.38613m2.94283-43.75405c.55938.04827 1.82407.1448 2.82123.2172 4.86418.362 10.16615 2.9443 13.98453 6.80565 5.03444 5.1163 7.58814 11.97022 7.58814 20.44108 0 6.90218-1.82407 14.31117-5.30197 21.62362-1.6295 3.40283-1.5079 3.42696-2.35913-.60334-.29185-1.448-.99716-3.98203-1.55654-5.6231l-.97284-2.99256.60803-2.29268c1.31333-4.8267 1.45925-10.4498.41345-14.43184-1.82407-6.80564-7.27195-11.97021-13.86293-13.17689-1.1674-.2172-2.06728-.24133-3.11308-.04827l-1.5079.24134-1.09444-2.29268c-1.14308-2.38922-2.84554-7.16765-2.62666-7.38486.07297-.0724 1.43494-.2172 3.04012-.33786 1.60518-.12067 3.38061-.19307 3.94-.1448m-161.90443 44.74352c-.94852.74814-1.3863 1.93068-1.3863 3.71656 0 2.36508 1.24037 3.47522 2.74827 2.43748 1.67814-1.18254 1.79975-4.48883.2432-6.1299-.65666-.69988-.72962-.69988-1.60517-.02414m137.99696-32.60436c.19456 1.0136 2.16456 6.15404 3.1374 8.15712l1.02148 2.07548-.65667 1.47215c-1.53222 3.47522-2.01864 7.48138-1.31333 10.98074 1.14308 5.6955 4.93715 10.1602 10.06887 11.89782.99715.33787 1.82406.69987 1.82406.77227 0 .09653-.65666.45854-1.45925.82054-4.3048 1.88241-8.87714.6516-12.96306-3.47523-2.3348-2.31681-3.47789-4.12682-4.49937-6.99871-2.96715-8.32606-1.53222-18.3656 3.52654-24.68858.97283-1.20667 1.24036-1.39974 1.31333-1.0136m-239.7071 31.27702c-.7053 0-1.289 3.76482-.63234 3.98203.63235.24133 1.45926-2.36509 1.07012-3.3787-.1216-.31373-.31617-.60333-.43777-.60333m18.09478.26547c-.02432 4.0303 2.50505 4.8267 3.7211 1.20667.53506-1.61694.36481-4.0303-.36481-4.9715-1.48358-2.00308-3.33197.0724-3.3563 3.76483m59.6106 1.086c1.02148 2.89602 3.33197 2.46162 3.259-.60333-.02432-1.25495-.77827-3.28216-1.5079-4.07857-1.5079-1.64107-2.7969 1.81002-1.7511 4.6819m115.30553-5.3335c-1.94567 3.8855.14593 6.37124 2.65098 3.13735 1.60518-2.09961 2.45641-5.14043 1.6295-5.93684-.99715-1.0136-3.0158.31374-4.28048 2.79949m-144.7825-3.3787c-.36481.69988-.3405 1.52042.14593 2.92016.41345 1.18254 2.04295 3.18563 2.60233 3.18563.55939 0 1.33766-1.01361 1.31334-1.71348 0-1.08601-1.09445-3.13736-2.11592-4.05443-1.09445-.9412-1.58087-1.0136-1.94568-.33787m55.40308 3.25803c0 .82054.55938 1.56868 1.14308 1.56868.55938 0 1.94568-1.27908 2.72395-2.50988.77827-1.18255.97283-2.7271.41345-3.25803-1.21604-1.20667-4.28048 1.78588-4.28048 4.19923m152.71112-2.92015c.89988 2.31681 2.11592 3.33042 3.21037 2.60642.48641-.31374.63234-.60334.63234-1.49628 0-1.52041-.7053-3.33042-1.67814-4.34403-2.06728-2.19615-3.45358-.12067-2.16457 3.23389m-179.19661-7.9882c-.55938.82055-.77827 4.3923-.3405 5.47831.3405.89294 1.14309.84468 1.89704-.1448.7053-.96534.87555-3.74069.31617-5.09217-.4621-1.13427-1.21605-1.2308-1.87271-.24133m-60.1943-1.3032c-.8026.7964-.24322 4.6095.92419 6.25058.36481.53093.7053.69987 1.36197.69987 1.14308 0 1.79975-1.08601 1.53222-2.60642-.24321-1.54454-1.14308-3.42696-1.97-4.1027-.87555-.74813-1.289-.7964-1.84839-.24133m92.93027 4.4647c-.21889.8688.48642 1.56867 1.36197 1.35147 1.97-.48267 4.40209-3.64416 3.57518-4.6095-.97284-1.18254-4.37777 1.06188-4.93715 3.25803m90.93596-6.10578c-1.72679 1.49628-3.0158 5.1163-2.14024 6.00924.65666.6516 1.65382.33787 2.72394-.84467 1.60518-1.83415 2.33481-4.65777 1.43494-5.5507-.5837-.5792-1.02148-.5068-2.01864.38613M96.6757 83.49834c-.51074 1.32734.48642 4.7543 1.45925 5.06803.55939.19307 1.45926-.60334 1.45926-1.3032 0-.67575-.99716-2.96843-1.55654-3.57177-.65666-.69987-1.14308-.74814-1.36197-.19306m206.6063-3.7407c-.94851 1.06188-.07296 4.34403 1.53222 5.59898.8026.62747 1.09444.6516 1.77543.16893 1.02148-.74814.1216-3.86136-1.6295-5.59897-.75395-.74814-1.09444-.77228-1.67815-.16894m-141.6451-7.14351v.98947l-.48641-.5792c-.8026-.96535-1.87272-1.20668-2.99148-.65161-1.36197.67574-1.94567 1.88241-1.77543 3.7407.14593 1.81 1.02148 3.20975 2.77259 4.34402l1.19172.77228-1.70246 1.68934-1.72679 1.68935-.77827-.45854c-1.43493-.8688-2.89419-2.79949-3.42925-4.5371-1.21604-3.93376-.04864-7.77099 2.91852-9.46033 2.9185-1.66521 6.03159-.362 6.00726 2.46162m7.68542 9.19486c0 .4344 1.07012.31374 1.94567-.2172 1.09445-.6516 2.18889-2.14788 2.0916-2.82362-.04864-.31374-.19456-.60334-.34049-.6516-.87555-.24134-3.69678 2.58228-3.69678 3.69242M64.32886 73.98974c-1.67814.362-.26753 4.6095 1.89703 5.71964.8026.4344 1.58086.2896 1.82407-.33787.38914-1.01361-1.33765-3.98203-2.82122-4.8991-.43778-.26547-.85124-.48267-.89988-.48267m65.66651 3.06495c-.36481 1.81001-.19456 2.55815.5837 2.43748.99716-.12066 2.01864-3.20975 1.60519-4.87496-.38914-1.54455-1.67815-.12067-2.18889 2.43748m-35.02214-2.53402c-.34049.6516-.14592 3.47523.31618 4.3199l.29185.55507.51074-.62747c.41345-.5068.4621-.84467.34049-2.05135-.07296-.77227-.29185-1.71348-.43778-2.07548-.38913-.7964-.63234-.84467-1.02148-.12067m161.66123-1.83414c-.60802 1.5928-.68099 3.76482-.09728 3.98202 1.31333.5068 3.16172-3.90962 2.40777-5.74377-.5837-1.37561-1.33765-.77227-2.3105 1.76175m41.90496-.94121c0 2.75122 1.92136 5.1163 2.82123 3.45109.41346-.74814.14593-2.29268-.65667-3.62003-1.21604-2.07548-2.16456-2.00308-2.16456.16894m-241.7014-3.06496c.5837 1.27908 2.5537 3.06496 3.28332 2.96843.43778-.0724.53506-.24134.51074-1.01361-.04864-1.11014-1.02148-2.53402-2.23753-3.25802-1.6295-.98948-2.3348-.38614-1.55654 1.3032m238.7829-8.20539c-.3405.33787-.12161 2.77536.34048 3.78896.55938 1.25495.9242 1.49628 1.45926 1.06188.4621-.38614.3405-1.85828-.31617-3.49936-.41346-1.0136-1.14309-1.68935-1.48358-1.35148M50.32 59.67857c0 1.81001 3.21036 4.6095 3.7211 3.28215.19457-.48267-.72963-1.93068-1.8484-2.89602-.9485-.84467-1.8727-1.03774-1.8727-.38613m92.56546-44.74352c3.9643-1.5204 8.43936.8688 8.75553 4.70603.1216 1.64108-.2432 2.65469-1.289 3.5235-.681.5792-2.48074.91707-2.48074.48267 0-.0724.26753-.48267.63234-.89294 1.53222-1.81002.19457-4.27163-2.31049-4.27163-1.82407 0-3.18604 1.32734-3.18604 3.11322 0 1.95481 2.16456 5.06803 4.45073 6.39538 1.58086.91707 4.40209 1.54454 9.65541 2.14788 7.83134.91707 11.01738 1.68934 15.00601 3.69243 7.83134 3.90962 12.57393 9.8706 14.59256 18.2932.60803 2.534 1.24037 7.43311 1.24037 9.53272v1.52042l-1.289-2.24442c-1.67815-2.89602-2.99148-4.65777-5.1074-6.85392-1.58086-1.61694-1.75111-1.90654-2.16457-3.64415-.89987-3.71656-3.08875-6.99872-5.73974-8.61567-.7053-.4344-1.26468-.724-1.26468-.62747 0 .0724.48641.69988 1.09444 1.37561.60802.67574 1.5079 2.00308 2.01863 2.9443.89988 1.7376 1.70247 4.24749 1.41062 4.53709-.07296.0724-.65667-.16894-1.28901-.55507-1.02148-.60334-1.19173-.8688-1.55654-2.19615-1.07012-3.78896-4.69394-7.16765-9.46084-8.7846-2.01864-.69987-4.83987-1.20667-9.77702-1.78587-2.45641-.26547-5.13171-.74814-6.00727-1.03775-8.2448-2.72708-12.86577-10.3774-10.04454-16.62798.85123-1.88241 2.45641-3.47522 4.11024-4.12683m82.91005 1.88241c-3.4779 1.15841-7.56381 3.78897-9.21763 5.93685-.60803.82054-.53506.77227 1.11876-.4344 6.63961-4.94737 15.32219-5.38178 22.0834-1.13428 4.74259 2.99255 8.56097 7.36072 12.45232 14.23877.75395 1.35147 1.33765 2.22028 1.26469 1.93068-.07296-.26547-.31617-1.35148-.5837-2.41335-1.09445-4.65777-3.28333-8.68807-6.54233-12.06676s-6.54233-5.35763-10.50665-6.39537c-3.42925-.91708-6.61529-.79641-10.06886.33786"/></svg>