<svg xmlns="http://www.w3.org/2000/svg" viewBox="0 0 368 216"><path fill="#153b4b" fill-rule="nonzero" d="M120.01862 211.27792c.64308.00259 1.3435.01063 2.05999.0247 4.67116.04923 5.94958.27078 11.21079 1.89547.63403.19952 1.96217.59953 3.33527 1.0129l.58933.17743c.29415.08857.5861.17654.86948.26205 1.77013.51695 3.39274 1.0339 3.614 1.10775.39829.16247-.27215.23632-1.5473.24149l-.38039-.00038c-1.45213-.0081-3.51945-.08949-5.66847-.22125l-.58772-.03717c-2.25762-.14712-4.55153-.34702-6.27213-.57349-7.17884-.96005-11.65332-1.08313-19.61888-.49233-1.22926.07385-2.1389.07385-2.04056-.02462.51628-.51695 8.53102-2.88014 11.33371-3.29862.20898-.04484 1.14296-.07153 2.40578-.07456Zm106.81695-2.70775c2.7781-.5908 4.99077-.61542 8.33433-.12308 2.99938.4431 8.97355 2.3878 13.20218 4.28329.25815.11487.52585.23112.79629.34611l.54249.22753c1.17452.486 2.31484.91566 2.86527 1.07567 1.35218.39386 2.01597 1.05851.8113.81235-.25111-.05803-.9272-.14645-1.64665-.22944l-.39444-.04451-.19615-.02145c-.93423-.07385-3.71234-.4431-6.19543-.81235-5.90042-.83697-13.20218-.8862-18.73382-.07385-1.99139.2954-3.7861.5908-3.98278.64003-.3442.09847-1.9914.32002-5.94959.78773-.45236.06794-2.36134.17756-4.3677.25217l-.52472.01862c-3.66318.12308-3.98278.09846-3.51567-.27079.27044-.22155.63921-.41848.78672-.41848.11801 0 1.22729-.40962 2.64811-.97679l.43491-.17462a123 123 0 0 0 .6785-.27635c1.89305-.78773 5.21203-2.01856 7.35093-2.75706 2.11432-.71389 4.08112-1.40315 4.35156-1.55085s1.49969-.46771 2.70436-.71388m9.34232-14.74535c6.71172.86158 11.1862 2.3632 21.02023 7.1142 11.82542 5.71105 14.89855 6.74495 25.91266 8.54196 2.16349.34464 4.79409.71389 5.80208.78773 1.00798.07386 2.1389.19694 2.48309.27079.9834.19693.24585.51695-2.55685 1.13236-1.35218.2954-3.26981.68927-4.2778.91082-2.90104.64003-9.66193.56618-13.15301-.12309-.9693-.1941-1.83363-.37927-2.69176-.58742l-.39598-.09781-.19006-.04823-.38195-.0995c-2.87731-.76257-6.09387-1.90982-13.25478-4.6073a124 124 0 0 0-.56513-.21283l-.57004-.21172c-1.61602-.5964-3.21384-1.15501-4.1364-1.46684l-.2965-.09948a33 33 0 0 0-.234-.07693c-10.10446-3.07708-11.85-3.42171-17.03745-3.44633-3.22064 0-4.86784.09847-6.19544.41849-3.22064.76311-8.67853 2.41242-14.06265 4.28329-11.1862 3.88942-19.07801 6.47416-21.31526 7.01573-6.5642 1.55084-9.02271 1.87086-14.70186 1.84624-5.13828-.02461-7.86722-.32001-13.1776-1.37853-.95718-.19693-1.79722-.37636-2.64694-.57329l-.42625-.10009c-2.21254-.52633-4.63067-1.20842-9.4406-2.64986-1.59291-.47695-3.27225-.9635-4.96955-1.44166l-1.02-.28573c-6.12628-1.70663-12.30789-3.25747-15.3503-3.81135-3.88443-.71388-9.539-.93543-12.9809-.49233-3.71235.46772-8.87521 1.72317-14.60353 3.5448-4.7941 1.55084-9.85862 2.92937-14.06266 3.84018-2.36017.51695-3.36816.5908-7.94098.56619-5.21203-.04924-7.2526-.27079-10.3749-1.13237-.93423-.27078-3.14688-.83696-4.917-1.25544-9.58818-2.31396-14.89856-2.88015-22.81495-2.41243-5.40871.32001-9.3669.39386-9.14564.17231.07375-.07384 1.27842-.41848 2.67977-.78773 9.57943-2.45663 13.2018-3.30943 16.42347-3.60883l.3439-.03.34835-.0265a33.7 33.7 0 0 1 .52302-.03272l.35134-.01759c.64731-.02937 1.31477-.04348 2.04675-.0507.3127-.00432.60309-.0075.87833-.0086l.32349-.00025c.52857.00144 1.00809.01272 1.49603.04144l.29424.01938c1.87575.13676 4.03924.54704 9.64463 1.64658 6.34295 1.25545 9.0473 1.52623 13.0055 1.37853 4.9416-.22155 10.57158-1.40315 16.32448-3.42171.95882-.32002 4.05654-1.42776 6.9084-2.41243 9.44067-3.32324 13.15302-4.1602 19.4222-4.38175 3.24524-.09847 4.7941-.02462 6.95758.32001 4.00737.64003 6.44129 1.13237 8.21141 1.67393.8359.27079 4.20405 1.28007 7.47386 2.2155 3.26982.96004 7.22801 2.11703 8.77687 2.58474 1.57344.46772 4.47448 1.20621 6.46587 1.64931 10.66992 2.3632 18.21753 2.46166 26.96982.39387 6.4167-1.52623 8.75228-2.2155 20.92189-6.17877 8.85062-2.90476 13.10384-4.11097 17.40622-4.8987 2.6552-.51695 5.94959-.46772 10.47324.09846m74.19773 10.5113c.56545-.04924 3.1223-.07386 5.67915-.02462 4.08112.04923 4.96618.1477 7.228.7385 2.8027.7385 6.36754 1.77239 8.01474 2.33857.56545.17232 1.86846.61542 2.90103.96005 1.03258.32002 1.86847.66465 1.86847.7385 0 .05744-1.76982.09998-4.24526.10448l-1.101-.00048a274 274 0 0 1-1.16878-.00554c-5.03994-.04923-7.47386-.19693-10.64534-.61541a472 472 0 0 0-.90652-.12593l-.60922-.08374c-1.317-.18035-2.59611-.35147-3.47329-.4689l-.37498-.05024a382 382 0 0 1-.43806-.05892c-.93423-.12309-3.98278-.22155-6.78548-.22155-4.96618-.02462-6.22002-.22155-4.52365-.76312 6.2446-1.9447 7.69512-2.3632 8.58019-2.46166m-.1737-15.52478.51789.01631c3.63859.09847 4.30238.19693 8.48184 1.28007 2.50768.64003 7.27718 2.06779 10.64534 3.20015 9.3669 3.12631 14.21016 4.35714 20.03683 5.07102 1.84387.22155 3.4419.49234 3.54024.5908.36878.36925-1.69637.76312-4.89242.96005-3.49108.19693-8.35893-.1477-12.71048-.93543a492 492 0 0 1-.53731-.08853l-.54451-.0902c-1.17805-.19555-2.31381-.386-2.80262-.4613-.63921-.09847-2.90104-.49233-5.03994-.8862-6.12168-1.1816-7.35093-1.30468-11.80083-1.30468-4.86784 0-7.30177.39387-14.77562 2.28934-9.12516 2.3249-11.38646 2.71756-17.13938 2.73327l-.69355.0002-.36002-.00102c-4.22863-.02462-5.7529-.22155-9.95695-1.30468-1.67179-.4431-4.622-1.52623-6.04793-2.19088l-.88506-.41848.76213-.17232c.41795-.07385.93424-.12308 1.1555-.09847 1.52428.22155 10.07988-.81234 13.12843-1.60008 4.22863-1.0585 8.03931-2.11702 14.4806-3.96327 3.49108-1.00928 8.8752-2.26473 11.23537-2.60936.38452-.06794 2.22564-.07338 4.20244-.0163m-69.4512-11.23348c5.2612 1.23083 11.40746 3.49556 17.23412 6.3757 1.69637.86158 4.20405 1.96933 5.55623 2.5109 1.3276.51695 2.85187 1.10774 3.34357 1.3293 1.77012.71388 6.61338 2.14164 8.62935 2.56012 1.13092.22155 2.11432.4431 2.1389.49233.22127.22155-.78672.64003-2.75352 1.1816-1.9914.51695-2.60602.56618-6.5888.4431-5.80208-.17232-8.94896-.83697-19.61888-4.1356-14.161-4.38175-19.96307-4.18481-36.41048 1.23084a792 792 0 0 0-.58995.19568l-.5788.19249c-2.7657.921-5.03488 1.69454-5.27254 1.8027-2.23724 1.05852-11.21079 4.16021-16.00487 5.56336-5.70374 1.67393-7.67055 1.94471-13.76764 1.94471-6.19544 0-9.80944-.51695-14.50519-2.04318-.54087-.18052-1.16642-.38566-1.80746-.59262l-.77224-.24777c-1.02775-.32764-2.02426-.6366-2.70609-.83353-1.27842-.39387-3.9582-1.23084-5.94958-1.84625-6.4167-2.01856-15.3165-4.50484-17.6275-4.87409-5.45788-.93543-7.8918-1.00928-12.1696-.4431-5.01536.68927-6.5888 1.05852-13.1776 3.2494-4.96618 1.62469-8.45726 2.75705-11.48122 3.66787-5.33496 1.60008-11.2108 2.41243-17.67666 2.46166-.38672.002-.74612.0035-1.08328.00406l-.64616-.00031c-3.30405-.00997-4.46201-.16476-9.62886-1.03765-7.07567-1.17191-9.35456-1.53693-11.76368-1.5847l-.32979-.0046c-.8288-.00679-1.69875.0207-2.80508.06307-4.00737.1477-7.35094.5908-13.59554 1.84625-6.68714 1.35391-10.76826 1.7724-17.20955 1.79701s-8.8998-.2954-13.03008-1.67393c-1.4751-.49233-2.99938-1.20621-2.70436-1.28006.04917-.02462.9834-.07385 2.06515-.1477 6.26919-.34464 13.8168-1.55085 20.25809-3.22478.41124-.10742.84036-.21809 1.27406-.32876l.65233-.1656c1.73983-.43944 3.44656-.85284 4.26905-1.03187 1.1309-.27078 3.4419-.81234 5.16286-1.25544 3.54025-.8862 9.68651-1.99395 12.5138-2.24012 3.49108-.2954 12.4892.61542 16.42282 1.64932 3.93361 1.05851 9.95695 1.42776 14.67728.93543 1.32227-.14236 2.48647-.2829 3.61169-.45457l.42035-.0659.42462-.07033.42375-.07413c4.23801-.76178 8.56468-2.15658 19.55715-6.00617 9.66193-3.37248 13.69388-4.1356 22.02822-4.1602 4.20404-.02463 5.99875.09846 7.99014.44309 3.7861.71388 10.0553 2.63398 13.8414 4.28329 1.4751.64003 7.30176 2.75706 10.05528 3.66787 10.42407 3.3971 20.8973 3.34786 30.97718-.1477 1.22926-.43079 3.76767-1.39699 6.34295-2.4032l.90839-.35598c2.26442-.89008 4.44103-1.76593 5.65582-2.28722 5.4333-2.31396 14.89855-5.09564 19.22553-5.6372 4.17946-.51695 12.75964-.12309 16.59491.76311m72.5751-2.73244c.6638.07385 2.40934.24617 3.90903.39387 4.22863.36924 8.7277 1.2062 13.03008 2.43704.98095.29724 3.74405 1.00159 6.55678 1.6927l.8035.19674c2.2719.55434 4.46821 1.07378 5.6698 1.33533 3.17148.68927 12.93175 1.7724 16.57034 1.84625.69397.01007 1.27274.03662 1.70937.0746l.26973.02694c.45482.05231.68838.12.6515.19386-.51628.81235-6.71172 2.954-10.00612 3.47094-4.81867.7385-13.84139.54157-18.48797-.41848-.6392-.1477-2.50767-.49233-4.13029-.81235-1.62261-.2954-3.7861-.76311-4.7695-1.00928-2.1389-.56618-7.9164-1.64931-10.84201-2.04318-5.48247-.76311-11.6779-.04923-21.16774 2.41243-5.08911 1.3293-8.67853 1.79701-12.39088 1.6247-2.82728-.12309-6.39211-.81235-7.62137-1.477-.51628-.2954.4917-.68927 2.70436-1.0339.90965-.1477 2.77811-.51695 4.17946-.81235s2.82728-.5908 3.19606-.66465c.93423-.19693 6.39212-1.797 7.59678-2.2401 1.78837-.65513 3.50863-1.26065 5.0949-1.7946l.85154-.284c2.51239-.82993 4.63387-1.45746 6.07566-1.78621 4.52365-1.00929 5.13828-1.10775 7.22801-1.1816 1.05716-.02462 1.9668-.12308 2.04056-.17232.04917-.07385.63921-.04923 1.27842.02462m-253.34909 1.40315c3.2944.8862 5.38413 1.52623 10.07988 3.02784 2.40934.78773 5.13828 1.57546 6.07251 1.79701 2.77811.61542 4.20405.8862 5.28579 1.0339 2.58143.2954 4.2778.68926 3.9582.8862-.1721.12308-1.40135.41848-2.72895.64003-3.51566.64003-9.58817.41848-16.07863-.5908-2.77811-.41848-6.2446-.93543-7.7443-1.13237-3.71234-.46771-11.87458-.39386-16.25072.1477-1.91764.24617-4.7695.61542-6.34295.78774-.59571.07574-1.31872.16605-2.0613.25832l-.89362.11086c-.88922.11018-1.7446.21593-2.38004.29546-1.54886.17232-4.5974.24617-8.11307.17232-5.13828-.09847-5.87583-.17232-8.08849-.81235-5.16286-1.42776-5.16286-1.50161-.51628-2.0678.88737-.10769 1.7105-.21419 2.51379-.3285l.47994-.06959c4.14496-.61253 7.99272-1.48507 17.78065-3.8852.43496-.10603.88448-.21324 1.3387-.31955l1.02575-.23681c2.1647-.49308 4.26879-.93104 5.25692-1.09294 5.18745-.78774 11.23537-.32002 17.40622 1.37853M164.97954.7814c3.1469 1.05851 4.37615 1.69854 8.01474 4.18482s7.35093 5.95722 11.65332 10.88054c3.83527 4.43099 4.67116 5.16949 6.85923 6.20339 1.7947.86158 4.64658 1.23083 5.5808.7385.63922-.34464 1.22926-2.3632 1.05717-3.61865-.3442-2.58474-1.35218-6.35108-2.23725-8.39426-.95881-2.16626-2.58143-4.92332-3.1223-5.24334-.34419-.19693-.3196-.64003.04917-.64003.1737 0 2.14103 1.127 4.20497 2.36939l.49633.29987c1.57209.95333 3.12156 1.92655 3.90348 2.47561 3.73693 2.60936 10.2028 8.8866 12.90715 12.50524.81131 1.08313 1.57345 1.94471 1.67179 1.87086s.27043-1.72316.34419-3.66787c.22127-4.65254.86048-6.8188 1.62261-5.58797.54087.85747 2.23861 2.98707 4.03038 5.13023l.4902.5839c1.96373 2.32934 3.9244 4.53868 4.50214 4.99409 1.67179 1.3293 3.73693 2.09241 4.9416 1.87086 1.00799-.19693 1.35218-.96005 1.54886-3.64326l.14751-1.87086 1.20467.68927c2.92562 1.67393 5.97417 4.67715 6.9084 6.8188.24585.56618.61463 1.00928.86048 1.00928.22126 0 1.49969-.24617 2.85187-.54157 1.7947-.39386 3.04854-.51695 4.7695-.4431 2.9502.12309 4.32697.7385 7.54761 3.37248 2.23724 1.84624 2.4831 1.99394 4.64658 2.48628s3.51566 1.10774 5.48247 2.5355c.71297.49234 1.10633.61542 1.8193.49234 3.14688-.49233 3.95819-.46772 5.77748.22155.9834.36925 2.72895 1.30468 3.90903 2.0924 1.94517 1.2909 2.1216 1.39418 3.70719 1.40244l.44769.00072c1.10632 0 2.43392.1477 2.92562.2954.50064.16709 2.57653.24557 5.86725.25048l.72361-.00007c.37098-.00059.7556-.00201 1.15343-.00425.43621-.0021.85165-.0035 1.24758-.00408l.76625-.00008c3.70496.00517 5.54433.0956 6.78763.3488 6.46587 1.25544 10.59616 3.54478 16.00487 8.93582 1.79471 1.79701 3.9582 4.20944 4.7941 5.39104 3.03172 4.2969 4.85828 6.97865 5.81781 8.56119l.16499.27573c.07778.13193.14858.25503.21263.36969l.88506 1.52623-4.84326-.17232c-1.01646-.02801-1.9834-.0454-2.80154-.04947l-.63417-.00031c-.9949.00462-1.66272.03535-1.75174.09902-.1721.09846-.61462.91081-.95881 1.797-.10751.27538-.21604.5398-.33049.80022l-.11661.25934-.12166.2582c-1.01711 2.10828-2.64814 4.2577-7.5689 10.22744-1.86847 2.28934-3.63859 4.57868-3.9582 5.12025-.29502.51695-.6638.91081-.8113.86158-.3196-.09847-.56546-2.75706-.61463-6.44955-.02458-1.87086-.14751-3.02784-.39336-3.49556-.22127-.36925-.44253-.8862-.51629-1.13236-.24585-.7385-.6392-.51695-1.40134.7385-.36878.64003-1.54886 2.48627-2.58144 4.06174-1.05716 1.57546-2.23724 3.54479-2.65518 4.35714-.8359 1.6493-1.18009 1.84624-1.40135.78773-.46712-2.28935-1.05716-4.1356-1.79471-5.68644-.81131-1.72316-.8359-1.72316-1.1555-1.08313-.95882 1.79701-5.2612 8.49273-5.40872 8.39426-.09834-.04923-.6392-1.30468-1.18008-2.78167-.56545-1.45238-1.27842-3.1017-1.59803-3.66788l-.56545-1.00928-.78673.83697c-1.1555 1.23083-3.36815 4.70177-3.54025 5.51412-.3196 1.5016-.73755.8862-2.82728-4.2833-.19668-.51694-.4917-.8862-.6392-.81234-.14752.09846-.56547.76311-.90966 1.477-.36877.71388-1.20467 2.11702-1.86846 3.10169-1.00799 1.52623-1.22926 1.74778-1.45052 1.37853-.14751-.24617-.71297-1.13237-1.25384-1.99395l-.95882-1.55084-2.38475 2.19087c-1.3276 1.20622-2.60601 2.56013-2.85186 3.00323l-.46712.78773h.78672c1.40135 0 4.4499.78773 6.14627 1.60008 1.20466.56618 2.26182 1.40315 4.17946 3.32324l2.55685 2.58475 3.49107-1.00928c1.91764-.54157 3.58942-.91082 3.68776-.81235.12293.12308.44254.24616.73756.2954.41794.07385.3196.22155-.59005.86158-.59004.4431-1.08174.93543-1.08174 1.10774 0 .17232.4917 1.37853 1.13091 2.70783.61463 1.30468 1.25384 2.70783 1.42594 3.12631.36877.98467.95882.61542 1.91763-1.15698.39336-.76311.93424-1.6247 1.20467-1.89548.27044-.2954.71297-1.08313 1.00799-1.74778.61462-1.35391 1.08174-1.55084 1.67178-.64003.22294.35247 1.12911 2.39276 2.0396 4.53118l.25968.61227c.90516 2.1427 1.75 4.23212 1.8556 4.67858.09834.39386.27044.71388.39336.71388.68838 0 3.58942-4.40637 5.33496-8.09887.39336-.81234.8113-1.477.93423-1.477.36878 0 1.77013 3.42172 2.36017 5.80953.95882 3.7171 1.03257 5.7849.41794 8.83736-.29502 1.45238-.54087 2.6832-.54087 2.73244 0 .07385.93424.22155 2.06515.32002 1.91763.1477 2.06514.22155 2.06514.76311 0 .68927-1.03257 3.81558-1.69637 5.07102-2.311 4.50484-7.76888 8.56658-12.58755 9.40355-1.25384.22155-2.33558.5908-2.8027.93543-5.06452 3.74172-8.2114 4.99717-15.3165 6.17877-1.84387.32001-3.614.64003-3.9336.71388-.93423.22155-.6638-.34463.51628-1.0339 1.54886-.91081 3.58942-3.02784 4.42532-4.57869.46711-.86158.76213-1.87086.83589-2.8063.1721-1.99394-.39336-3.05245-2.1389-3.98788-2.36017-1.25545-6.68714-1.37853-16.44741-.4431-3.09772.2954-3.58942.17232-2.90104-.78773 1.10633-1.60008 2.90104-3.12631 4.622-3.93866l1.84387-.8862-1.8193-.1477c-3.49107-.34463-10.6699.46772-17.23412 1.89548a74 74 0 0 1-1.20976.25869l-.45463.0915c-1.2565.24818-2.22517.39857-2.41673.3637-.46712-.07386-.44253-.17232.27043-1.15699.68839-.96004 3.71235-3.59402 5.48247-4.77562l.61463-.41848-.71297-.2954c-.93423-.36925-5.33496-.36925-7.7443 0-7.69512 1.13236-8.01472 1.23083-10.81742 3.2494-2.38475 1.72316-4.03195 3.29862-5.45789 5.24333l-1.05715 1.42776-.3442-1.15698c-.22126-.68926-.36877-2.3878-.36877-4.13559-.02459-3.52017.46712-5.16948 2.1389-7.06496.6638-.76312.90965-1.23083.73755-1.35392-.4917-.2954-5.01535.1477-6.83465.66465-3.4419.98466-5.55622 2.48628-9.68651 6.84342-3.54025 3.79095-5.72832 6.94188-8.01473 11.5698-.61463 1.25545-1.20467 2.26473-1.30301 2.26473-.27044 0-.46712-2.24011-.71297-8.54196-.12292-3.17554-.36877-6.27724-.54087-6.84342-1.10633-3.59402-3.22064-5.80952-5.55622-5.80952-3.09772 0-12.61214 5.7849-15.83279 9.60048-.8113.96005-1.54885 1.74778-1.6472 1.74778-.24585.02461-.02458-2.16626.36878-3.66788.46712-1.9447.9834-6.54801.9834-9.182 0-2.31395-.09834-3.00322-.78672-5.0464-.88506-2.60935-1.54886-3.54479-2.55684-3.52017-1.94222 0-6.61339 3.2494-8.26059 5.73567-1.7947 2.6586-2.21265 4.50484-2.21265 9.6251.02458 4.20943.04917 4.52945.86048 7.23728 1.08174 3.66787 3.54024 8.6158 6.51504 13.1945 2.04056 3.10169 2.99938 4.25867 6.93299 8.22194 4.20404 4.2833 9.09647 8.81275 11.89917 11.05286.6392.51695 3.34357 2.90476 6.02334 5.29257 5.45788 4.8987 6.12168 5.39104 6.95757 5.16949 1.3276-.34464 1.35218-.51695.24585-2.28935-1.25384-1.96933-2.6306-4.77562-2.43392-4.97255.07376-.07385.8113-.12309 1.6472-.12309s2.01597-.12308 2.60602-.27078c.95881-.22155 3.68776-.56618 15.16898-1.89548 10.32573-1.20621 18.68465-.5908 26.06017 1.89548 4.1303 1.40315 12.3417 3.8402 14.9723 4.43099 3.58942.81235 10.00612.93543 15.09523.27078 1.10767-.14412 1.9987-.2659 2.84906-.40393l.36247-.06027a44 44 0 0 0 .7223-.12919l.366-.07027c2.03034-.39879 4.39345-1.01027 9.39405-2.33956 10.10447-2.70783 15.34109-3.49556 23.2083-3.49556 8.0885.02462 11.99752.68926 24.5359 4.25867.93218.26566 1.88058.53131 2.8271.79246l.81044.22263c5.25937 1.4386 10.30066 2.6974 11.99856 2.99742 5.40872.93543 12.58755 1.7724 15.3165 1.79701.90964.02462-.04917.71388-2.28641 1.64931-3.54025 1.477-5.90042 1.84625-12.26795 1.84625-6.35761 0-9.25883-.3438-19.3937-2.35829l-1.13483-.22645c-4.25322-.86159-10.32573-1.84625-13.42345-2.19088-2.99937-.32002-11.30913-.2954-13.93973.02461-7.79346 1.00929-9.3669 1.37853-17.2833 3.9879-5.67915 1.89547-8.33433 2.56012-11.75166 2.9786-3.17147.36925-9.98154.34464-12.12044-.04923-3.51566-.64003-11.65332-2.8309-15.48859-4.18482-4.00736-1.37853-8.0639-2.46166-11.55498-3.05246-2.38475-.39387-10.6945-.1477-13.89056.41848-4.96618.8862-10.3749 2.73244-16.37365 5.56335-12.68286 5.96918-17.75461 8.01198-23.2407 8.78658l-.49262.06605-.48208.0581c-1.1296.12884-2.29578.21185-3.56572.27127-3.83527.19693-7.79347-.12309-10.81743-.81235-2.60602-.5908-9.24399-2.46166-9.5636-2.68321-.1475-.09847-.88506-.39387-1.67178-.64003-.78672-.24617-2.4585-.86158-3.73693-1.35392-1.62932-.63443-3.991-1.4831-6.36971-2.3033l-.79256-.272c-3.16488-1.08118-6.2187-2.0638-7.46584-2.37263-3.39274-.86158-7.7443-1.3293-12.21878-1.3293-6.19543 0-9.3669.41848-19.88931 2.73244-9.85862 2.14165-14.89855 2.6586-20.45478 2.04318-5.99875-.66465-8.7277-1.3293-16.4474-4.08635-10.15364-3.59403-15.43943-5.04641-22.0774-6.00646-6.12168-.8862-12.58755 0-22.83952 3.12631-4.2778 1.30468-7.71971 2.11703-10.5224 2.46166-3.2944.39387-8.70312.19694-10.32573-.39386-1.37677-.49233-1.40135-.91082-.04917-.91082 2.40933 0 11.94834-3.00322 13.12842-4.13559.76214-.76311.3442-1.6247-1.42593-2.88014-5.67915-4.06174-8.92438-7.33575-11.60415-11.7175-2.04056-3.37248-2.87646-5.9326-3.7861-11.96367-.19668-1.3293.39336-6.25262 1.08174-8.93583 1.1555-4.5787 3.14689-8.09887 6.68714-11.76674 4.47448-4.6033 8.89979-6.74495 14.77562-7.13882 9.2194-.64003 17.6029 3.20016 21.58569 9.9205.54087.8862.9834 1.72316.9834 1.84624-.02459.64003.51629.12308.73755-.71388 1.52428-5.68644 1.37677-9.25585-.54087-13.14527-2.01598-4.1602-7.00674-8.19733-13.4972-10.92977-4.99077-2.09241-8.97355-3.88943-9.48984-4.2833-.3196-.22154-1.1555-.83696-1.86846-1.32929-.71297-.51695-1.303-1.05851-1.303-1.23083 0-.19693.88505-.34463 2.55684-.4431l2.53226-.12308-3.31898-2.19088c-3.51567-2.31396-7.32635-5.85875-9.73569-8.98506-1.89305-2.5109-4.91701-9.10814-4.13029-9.10814.12293 0 .73755.39386 1.35218.8862 1.05716.86158 3.26981 1.89547 3.51566 1.6493.07376-.04923-.59004-1.13236-1.45052-2.36319-1.8193-2.60936-3.9582-6.84341-5.06452-10.01896-.46712-1.3293-1.00799-3.74172-1.35218-5.95721-.1475-1.02775-.28273-2.21858-.39682-3.42633l-.05112-.5581a102 102 0 0 1-.02438-.27894l-.04626-.55571c-.14108-1.7526-.22978-3.42128-.2385-4.5497l-.00006-.33786c.00576-.6908.05032-1.1062.14252-1.10005.51628.02461 1.22925.81234 1.7947 2.01856.39337.86158.86048 1.42776 1.40135 1.72316l.8359.41848-.1721-.7385c-.63921-2.92937-.86048-11.29902-.39336-15.06536.76214-6.32647 3.39274-14.05608 6.7609-19.8656l.66379-1.13236.1721 1.96932c.12292 1.08314.12292 2.33858.04916 2.78168-.22126 1.05852 0 1.84625.63922 2.24011.46711.2954.54087.19694 1.1309-1.1816 1.03258-2.33857 2.95022-5.98183 4.15489-7.82808 1.20466-1.797 4.1057-4.94793 5.45788-5.90798.8113-.56618.8359-.56618.8359-.04923 0 .2954-.29503 1.42776-.6638 2.51089-.36878 1.08313-.61463 2.01856-.54088 2.09241.07376.04923.9834-.41848 2.01598-1.0339 2.85187-1.72316 3.68776-2.11702 7.47386-3.39709 3.9582-1.35391 5.94958-1.67393 9.80944-1.69854 7.54761 0 16.22614 3.34785 20.82355 8.04963 5.925 6.05568 8.67853 14.00685 7.54761 21.71184-1.20466 8.34503-7.17884 15.06537-14.57894 16.37005-2.77811.49233-3.76151.46771-6.17085-.12309-2.67977-.68926-4.30239-1.60008-5.97417-3.4217-1.6472-1.7724-2.311-3.59403-2.1389-5.73567.1721-1.99395 1.74554-3.91404 1.77012-2.09242 0 .36925.36878.93544 1.00799 1.52623 3.71234 3.34786 8.21141 2.5109 10.17822-1.89548 1.67178-3.74172.86047-7.68038-2.26183-10.92977-2.01597-2.09241-4.54824-3.32324-7.49844-3.66787-2.95021-.32002-7.4247 1.23083-10.57158 3.69249-5.21204 4.08636-8.62936 11.79135-9.09648 20.4564-.1475 3.15092.12293 5.14487 1.4751 10.06819.76215 2.85553 3.71235 8.64043 5.58082 10.95439 3.9582 4.92332 6.81006 7.06497 15.8082 11.98829 6.19543 3.39709 8.77686 5.1941 12.09585 8.4435 5.11369 4.99716 8.65394 11.07747 11.0141 18.9794 1.52428 5.16948 2.06515 12.456 1.3276 18.58553-.46712 4.03713-2.65519 11.5452-4.32697 14.91767-3.39274 6.76956-7.03133 11.59442-12.1942 16.1731-1.37676 1.20622-2.48309 2.31397-2.48309 2.46167 0 .24616 4.47995 1.70675 9.3751 3.13451l.66972.19438c2.23841.64645 4.52444 1.27441 6.47635 1.76674 3.614.91082 5.7529 1.30469 7.62137 1.40315l2.60601.1477.8359-.98466c.83589-1.0339 2.87645-4.8987 2.87645-5.4895 0-.17232-.3442-.32002-.8359-.32002-.88506 0-3.24522-.39387-7.59678-1.23083l-.80478-.16066c-4.90922-.97697-8.796-1.69316-9.9389-1.83329-.66379-.07385-1.20466-.27078-1.20466-.41848 0-.12308.4917-.7385 1.13091-1.35391.61463-.5908 1.54886-1.7724 2.08973-2.63398.54088-.83696 1.008-1.57546 1.03258-1.6247.04917-.04923 1.57344.22155 3.39274.56619 6.88381 1.37853 9.73568 1.74778 12.71047 1.67393l2.90104-.07386.76214-1.9447c.78672-2.04318 1.49969-4.77563 2.26182-8.71428.41795-2.16627.41795-2.41243.04917-2.41243-.22126 0-1.62261.71388-3.1223 1.55084-1.4751.86158-2.8027 1.55085-2.9502 1.55085-.12293 0-.5163.27078-.86048.5908-.39336.34463-.59005.4431-.4917.19693.07375-.22155.78672-1.89548 1.54885-3.74172.16563-.38869.33561-.80137.50376-1.22083l.25008-.63213c.53548-1.37127 1.01888-2.72314 1.23755-3.46423.29503-1.05851.8359-2.68321 1.1555-3.61864 1.18009-3.17554 1.69637-5.46489 1.69637-7.63115-.02458-2.60936-.22126-4.25867-.63921-4.82485-.44253-.61542-2.06515-.19694-4.05654 1.08313-1.52427 1.00928-2.60601 1.30468-2.92562.81234-.54087-.8862 3.24523-8.025 6.02334-11.37287 1.30301-1.52623 2.21266-3.34785 2.72894-5.3418.54088-2.01856.5163-3.07708-.12292-5.14487-.76214-2.41243-1.18008-2.58474-6.2446-2.38781l-3.8107.17231.36878-.71388c.46712-.8862 3.24523-3.5694 4.91702-4.751.71296-.49233 2.08973-1.3293 3.02396-1.84625 4.49907-2.48627 7.2526-6.44955 6.81006-9.77279-.27043-2.01856-1.10633-3.98789-2.08973-4.84947-1.67178-1.45238-3.98278-2.53551-6.44128-3.00323-3.30734-.60634-3.48141-.63826-3.49058-.84924l-.0005-.03696c0-.12308.56545-.71388 1.27842-1.28006 2.36017-1.99394 5.55622-3.1017 12.41546-4.3079 6.78548-1.20622 7.49844-1.45238 8.8752-2.954 2.04057-2.26473 2.4831-4.65254 1.30301-6.99111-1.77012-3.49556-7.20342-7.705-11.6779-9.05891-.61463-.17232-1.08174-.39387-1.08174-.49234s.83589-.41848 1.86846-.7385c5.6054-1.6247 11.33371-1.74777 16.88994-.32001 1.74554.4431 3.83527.8862 4.67116.96005 1.40135.1477 1.54886.09846 2.6306-.71388 1.54886-1.1816 1.79471-1.7724 1.79471-4.2833 0-1.96932-.04917-2.2401-1.08174-4.25867-1.20467-2.3878-4.05653-5.51412-6.63797-7.28651-.78672-.51695-2.40933-1.6247-3.58942-2.41243-1.99139-1.35391-2.08973-1.477-1.54885-1.69855 1.22925-.49233 5.23661-.51694 7.74429-.07385 2.8027.49234 3.93361.83697 7.96556 2.38782 4.72033 1.82162 6.34295 2.58474 8.70311 4.08635 3.02397 1.94471 4.4499 2.11703 6.4167.81235 1.3276-.86158 1.94223-2.01856 2.26183-4.18482.36878-2.53551-.09834-4.35714-1.89305-7.65577-1.3276-2.43704-5.38413-7.48345-6.5888-8.19733-1.1309-.71388-.71296-.8862 1.62262-.68926 3.09772.24616 6.56421 1.00928 8.58019 1.89548 2.60601 1.10774 5.72832 2.85552 7.4001 4.11097.8359.64003 2.1389 1.50161 2.92562 1.94471s1.77013 1.08313 2.21266 1.40315c2.4585 1.87086 6.12168 2.60936 7.35093 1.52623 1.03258-.93543 1.52428-2.41243 1.52428-4.70177.02458-2.28935-.68839-6.20339-1.4997-8.32042-.71296-1.89548-3.02396-6.00645-3.9336-6.99111-.41795-.46772-.73755-.93543-.73755-1.08313 0-.39387.59004-.27079 3.14688.56618m22.42158 171.72544c-.51628 1.45238-2.53226 3.32324-4.30238 4.0125-1.22926.49234-1.9914.61542-3.98278.61542-2.70436-.02461-4.42532-.49233-7.47386-2.04317-.95882-.46772-2.16349-.93544-2.70436-1.0339l-.95882-.19693.36878.76311c.22126.41848.93423 1.23083 1.54886 1.82163 1.4751 1.35391 2.26182 1.477 7.8918 1.28006 4.4499-.1477 6.73631-.54156 8.85063-1.50161 1.303-.5908 1.49968-1.05851 1.49968-3.52018.02459-1.3293-.29502-1.40314-.73755-.19693m-29.98572-5.53844-.08181-.0003c-1.1555.04924-1.45052.22155-1.45052.86159 0 1.3293-1.45052 2.31396-3.88444 2.63397-.71297.09847-1.27842.27079-1.27842.39387s.4917.34463 1.10632.49233c1.79471.46772 3.56484 1.08313 5.06453 1.72316.76214.34464 1.52427.56618 1.72095.51695.63921-.27078.68838-2.56012.09834-4.65254-.52357-1.77786-.6045-1.95177-1.21863-1.96777zm20.42213-4.25897c-.68838 1.30468-2.60601 3.00323-4.2778 3.76634-.76214.34464-1.67178.46772-3.54025.46772-2.92562.02462-4.15487-.36925-6.71172-2.14165-2.06515-1.40314-3.04855-1.7724-3.614-1.35391-.36878.27078-.27044.49233.83589 2.01856 2.06514 2.8063 5.38413 4.33253 9.3915 4.33253 1.86846 0 2.31099-.09847 3.98277-.8862 2.55685-1.23083 4.05654-2.8063 4.4499-4.67716.14751-.76311.24585-1.69854.19668-2.0678-.07376-.5908-.14751-.54156-.71297.54157M93.535 158.033l-.9093 1.8209c-.4917.98467-1.62261 3.05246-2.53226 4.60331-.90965 1.52623-1.57345 2.85553-1.4997 2.92938.07376.07385.73756.04923 1.45053-.04924 1.20467-.1477 1.35218-.27078 1.84388-1.1816.27043-.56618.8113-2.11702 1.1555-3.47093.36877-1.35392.61462-2.954.56545-3.5448zm15.12016 8.39354c-.2435.46889-.28721.58053.11897.45468l.1739-.05809c.09798-.03437.21288-.07657.34634-.1258.36878-.1477.59005-.36926.51629-.51696-.27044-.41848-.88506-.2954-1.1555.24617m-5.87583-9.87126-.29502 1.89548c-.1721 1.05851-.41795 3.07708-.54087 4.50484-.14751 1.40314-.3196 2.8309-.41795 3.15092-.1475.51695-.07375.5908.63921.5908 1.18009 0 2.08974-.56618 3.614-2.2155 1.3276-1.45237 1.45053-1.92009.5163-1.92009-.27044 0-.4917-.12308-.4917-.24616 0-.1477-.27044-.66465-.61463-1.15698-.3196-.49234-.68838-1.3293-.76214-1.87087-.09834-.54156-.51629-1.37853-.90965-1.87086zm15.02147-3.29862c-.19667.41848-.54087 1.3539-.73755 2.11702-.76213 2.88015-1.52427 4.1356-3.34356 5.51412-.6638.51695-1.20467 1.13237-1.20467 1.35392 0 .64003 1.54886 2.88014 2.40933 3.52017.59004.46772 1.1555.56618 3.24523.61542 2.16349.04923 2.67977-.02462 3.66318-.51695 1.303-.66465 2.18807-2.14165 2.4585-4.11097.27044-1.9201-.02458-2.954-.95881-3.32325-.81131-.34463-3.44191-3.24939-3.93361-4.38175-.1721-.34463-.4917-.86158-.73756-1.10775-.44253-.41848-.46711-.41848-.86048.32002m29.72335 1.30468c-.41795.04923-.63921.81234-.73755 2.70782-.14751 2.53551-.68838 4.25868-1.69637 5.3418l-.61463.68927.51629.7385c1.1555 1.6247 4.40072 2.60936 5.97417 1.82163.86048-.4431 1.3276-2.58475 1.05715-4.87409-.27043-2.19088-.4917-2.58474-2.67977-4.70177-.9834-.96005-1.8193-1.72316-1.8193-1.72316m-20.01224 6.57263-.02459 1.20621c0 .64003-.07375 1.69855-.1721 2.3632l-.1475 1.15698 1.00798.09846c.56546.04924 1.77013.02462 2.67978-.04923 1.54885-.12308 1.6226-.17231.9834-.4431-.39336-.17231-1.18009-.8862-1.74554-1.60008-.56546-.7385-1.10633-1.30468-1.18009-1.30468-.07375 0-.44253-.32001-.78672-.71388zm6.5642-9.87126c-.24584 1.0339-.68837 2.56013-.93422 3.37248-.56546 1.7724-.56546 1.797-.24585 1.60008.12292-.07386.29502-.04924.36877.07384.07376.12309-.4917.54157-1.27842.93544-.76214.39386-1.40135.86158-1.40135 1.0339 0 .5908 1.4751 2.36319 2.75353 3.32324 1.89305 1.37852 4.4499 2.75706 5.11369 2.75706.71297 0 2.4585-1.23083 3.2944-2.3632.76214-1.00928 1.05716-1.9201 1.59803-4.82485.51628-2.70783.36877-3.3971-.68838-3.3971-1.13092 0-3.68776-1.2062-5.48247-2.60936-2.6552-2.01856-2.53227-2.04317-3.09772.09847m125.58052 2.24011c9.12106 3.3971 12.31712 4.35714 16.52116 4.92332 4.15488.54157 7.49845 1.10775 7.49845 1.28007 0 .07385-1.1555.41848-2.53227.71388-6.93298 1.55084-13.89056 1.50161-22.39699-.22155-1.303-.27078-6.93299-1.87086-9.80944-2.8063-3.58942-1.15697-9.98154-2.80629-12.3417-3.20015-1.37677-.22155-3.58942-.41849-4.89243-.41849-3.09772 0-12.61214.98467-15.02147 1.52623-.56546.12309-1.74554.36925-2.58144.56619-.86047.17231-2.82728.5908-4.37614.91081-2.70435.5908-3.36815.61542-2.85187.12308.44253-.39386 13.12843-5.98183 13.57096-5.98183.09834 0 .61463-.17232 1.18008-.41848.54087-.24617 1.05716-.46772 1.13092-.46772.04917-.02462.93423-.2954 1.91763-.61542 2.6306-.83696 5.33496-1.3539 8.26058-1.57546 7.2526-.51695 14.01349.91082 26.72397 5.66182m-151.7636-9.82202c-.27044 0-.41795.66464-.68839 2.73244-.24585 1.89548-.76213 3.5694-1.54886 4.8987-.8113 1.40315-.76213 1.69855.6638 4.65254 1.72096 3.56941 3.14689 4.35714 5.0891 2.8063 1.1555-.8862 2.92563-4.16021 2.90105-5.36642 0-.56619-.1721-.91082-.59005-1.1816-2.08973-1.30468-2.85186-1.94471-3.73692-3.15093-1.10633-1.45238-1.84389-3.34786-1.84389-4.6033 0-.41848-.12292-.78773-.24585-.78773m-86.49026 11.29902c-.22127.07385.44253.36925 1.49969.64003 2.55684.66465 4.79408 1.72316 6.4167 3.02784.9834.78773 1.37676.96005 1.37676.66465 0-.27078.12293-.36925.36878-.27078.3196.12308.34419.04923.1475-.34463-.41794-.76312-2.7781-2.73245-4.1057-3.3971-1.54886-.78773-4.05653-.91081-5.70373-.32001m319.70418-.81235c7.96556 2.09241 11.6779 2.73244 16.20155 2.90476 2.23725.07385 4.03196.17232 3.98279.22155s-1.72096.39387-3.68777.76311c-3.36815.64004-3.9336.66465-9.14564.54157-5.33496-.12308-9.48983-.64003-14.18558-1.72316-1.72096-.39387-5.2612-.98467-7.7443-1.28007-1.22925-.1477-3.614-.4431-5.31037-.66464-1.72096-.19694-4.20405-.39387-5.53164-.39387s-2.36017-.04923-2.28641-.12308c.41794-.41849 8.11307-2.11703 11.0141-2.43705 4.1303-.4431 9.12107.19694 16.69327 2.19088m-188.69037-2.46166c-.68839 0 .07375 1.50161 1.59802 3.1263 2.38476 2.56014 6.31837 3.9879 9.19482 3.32325 2.92562-.68927 4.96618-2.2155 6.19544-4.57869.73755-1.40314.19668-1.45238-1.30301-.07385-1.4997 1.37853-3.85986 2.33858-5.7529 2.33858-1.86847 0-5.03995-1.28006-8.21142-3.274-.76214-.46773-1.52427-.8616-1.72095-.8616M38.4648 155.29983c-.19668.12309-.86048.1477-1.4751.07385-.76214-.07385-1.13091-.02461-1.13091.17232 0 .17232.04917.2954.1475.2954.07376 0 1.22926.2954 2.58144.64003 1.3276.36925 2.53226.64003 2.67977.64003.61463 0 .1721-.68926-.8359-1.35391-1.1555-.76311-1.42593-.81235-1.9668-.46772m85.40852-15.31152c0 .1477-.24585.34463-.56546.41848-.4917.1477-.51629.27078-.36878 1.60008.29502 2.46166-.56545 5.29257-1.9668 6.57263-.61463.54157-.59004.61542.56546 2.31396 1.18008 1.74778 3.41732 3.8402 4.32697 4.08636 1.32759.32001 2.92562-.07385 3.83527-.96005 1.40134-1.37853 2.70435-5.7849 2.33558-7.8527-.14751-.7385-.29502-.8862-1.05716-1.0339-1.74554-.32001-3.22064-1.2062-4.79409-2.85552-.86047-.91081-1.74554-1.84625-1.94222-2.11703s-.34419-.34463-.36877-.17231m122.99907-2.48628c3.68776.66465 11.13704 2.92937 16.66868 5.07102 5.94958 2.33858 12.41546 4.4556 15.34108 5.02179 1.14468.2245 4.57778.34691 8.14048.3618l.89212.00147c3.5693-.00308 7.08832-.11415 8.3982-.33866 4.9416-.81234 8.38352-1.67393 15.61152-3.96327 9.48984-3.00323 13.20219-3.6925 19.49596-3.66788 4.86784.02462 6.95757.36925 13.62013 2.28935 7.0805 2.04318 9.8832 2.53551 14.77562 2.56013 2.06515 0 4.2778-.07385 4.91701-.17232l1.1555-.19693-.78672.66465c-.41795.34463-1.18008.83696-1.67178 1.05851-5.65457 2.46166-12.858 2.6586-24.26546.68927-5.53164-.96005-10.84202-1.08314-14.84938-.36925-3.68776.66464-9.48984 2.16626-14.45602 3.74172-7.86722 2.48628-16.4474 4.03712-22.32324 4.03712-2.43392 0-7.94097-.56618-9.93237-1.00928-3.66317-.78773-6.0971-1.40314-7.10508-1.72316-.63921-.19693-2.1389-.66465-3.34357-1.05851-1.22925-.36925-3.83527-1.30468-5.82666-2.09242-5.18745-2.01856-11.6779-4.06174-15.09523-4.751-2.60601-.51695-3.73693-.5908-9.17023-.61542-5.80207 0-6.4167.04924-9.76027.7385-2.21265.46772-5.50705 1.42776-8.65394 2.53551-12.44004 4.431-16.59492 5.39104-23.18372 5.39104-4.08112 0-7.47386-.61542-9.2194-1.64931-.44253-.25848-1.49354-.98774-2.60332-1.78278l-.44575-.32057a159 159 0 0 1-.66327-.4814c-2.40934-1.797-3.17147-2.56012-2.85187-2.88014.07376-.07385 1.1555.22155 2.43392.64003 3.41733 1.10775 5.85125 1.40315 9.90778 1.1816 5.90042-.2954 11.45665-1.52623 19.37304-4.28329 6.2668-2.1869 9.74857-3.34468 12.5437-4.05643l.45986-.1146c1.81688-.44265 3.3804-.70147 5.3123-.94922 1.20468-.17232 2.4831-.34464 2.85188-.39387 2.8027-.39387 9.2194 0 14.3085.8862m-212.29203 6.6711c-2.90104 1.79701-4.15487 3.59402-4.15487 6.0803 0 1.52623.6638 1.96933 2.92562 1.96933 2.28641 0 3.614-.41848 5.82666-1.87086 2.23724-1.477 3.1223-2.70783 3.1223-4.45561 0-1.57546-.51628-2.2155-2.2864-2.8309-1.94223-.68927-2.70437-.54157-5.4333 1.10774m-17.99627 7.50806c.5163.56619.93424.71388.93424.32002 0-.12308-.3196-.36925-.71297-.54157-.68838-.32001-.68838-.32001-.22127.22155m.02459-6.49878c.29502 1.20621 1.9668 4.28329 2.8027 5.16949.44253.46771 1.20467.96004 1.72095 1.08313 1.72096.41848 5.97417.86158 6.17085.64003.12293-.1477.29502-1.0339.39336-1.99395.14751-1.60008.12293-1.797-.44253-2.33857-.86047-.8862-3.24523-1.69855-6.12168-2.09242-1.40135-.19693-2.87645-.54156-3.31898-.76311-1.1555-.61542-1.40135-.54157-1.20467.2954m4.40073-27.17673c-3.24523.83696-7.0805 3.1263-9.09648 5.39103-2.48309 2.78168-4.54823 7.63115-4.84326 11.37288-.3196 3.79095.73756 8.68966 2.36017 11.05285 1.22925 1.79701 3.04855 3.49556 4.4499 4.1602.71296.34464 1.3276.54157 1.3276.39387s.19667-.12308.51628.02462c.51628.2954.73755-.07385.24585-.36925-.14751-.09847-.22127-.24617-.14751-.36925.04917-.09847 0-.34463-.14751-.56618-.22127-.2954-.24585-.27078-.12293.09847.09834.27078.04917.39386-.07375.32001-.41795-.24616-1.05716-2.88014-1.05716-4.3079 0-1.15698-.12293-1.55085-.73755-2.28935-1.40135-1.72316-2.33558-3.69249-2.6306-5.6372-.14752-1.00928-.24586-2.01856-.1721-2.19088.04917-.17232.71297.5908 1.49969 1.69855 1.42593 2.0924 2.67977 3.05246 4.32697 3.4217l.86048.17232-.1721-1.05851c-.3196-1.82163-.19668-4.5787.24585-6.15416.54087-1.89547 1.3276-3.10169 3.44191-5.31718.93423-.96005 1.54886-1.74778 1.35218-1.74778-.56546 0-3.71234 1.35391-4.7695 2.04318-1.20467.81234-3.2944 3.34786-4.08112 4.94794-.29502.64003-.73756 1.3293-.93424 1.55084-.3196.32002-.34419.24617-.19668-.66465.90965-5.0464 2.04056-6.86803 5.90042-9.42816 2.60602-1.69854 5.18745-2.65859 8.43268-3.1263 2.60601-.36926 6.49045-.09847 8.26058.56618.76214.2954 1.42593.49233 1.4751.41848.1721-.17232-2.67977-1.96933-4.22863-2.6586-.8113-.34463-2.28641-.8862-3.2944-1.15698-1.77012-.51694-6.88382-.8862-7.99014-.5908m31.2722 29.0722c-3.83527.39387-6.19544 1.28007-6.88382 2.58475-.3442.61542-.39336.61542 1.72095-.1477 2.1389-.76311 5.31038-1.57546 7.54762-1.9201.90965-.1477 1.77012-.39386 1.91763-.54156.31961-.2954-1.25383-.2954-4.30238.02462m89.3667-9.84663-.51628 1.23083c-1.18008 2.73244-1.59803 3.4217-2.58143 4.3079-.56546.51695-1.35218 1.00928-1.77013 1.08313-.44253.09847-.76213.24617-.76213.32002 0 .09846.76214.93543 1.72095 1.87086 2.99938 2.90476 5.2612 3.76634 6.51504 2.43704.54088-.56618.59005-.81234.44254-2.26472-.07376-.8862-.39336-2.31396-.68839-3.15093-.27043-.83696-.51628-1.94471-.51628-2.48628 0-.51695-.07376-1.30468-.14751-1.69854-.09834-.46772-.44253-.93543-.90965-1.20622zm-41.77002-1.72317c-.01078 1.30641.38043 3.97662.88117 6.5817l.12212.62323c.61967 3.10261 1.36335 5.94682 1.72566 6.06342.1475.04924.54087-.12308.88506-.39386.4917-.39387.68838-.98467 1.03257-3.02784.44253-2.68321.3442-3.66788-.44253-4.52946-.46712-.54157-.9834-.66465-.71297-.17232.09834.17232-.04917.09847-.34419-.19693-.63921-.61541-2.38475-4.0125-2.38475-4.70177-.02459-.24617-.1721-.81235-.36878-1.23083-.34419-.76312-.36877-.71388-.39336.98466m12.90716-2.92937c-.3196 0-.54087.71388-.36877 1.15698.24585.61541-.90965 3.32324-2.11432 4.92332-.63921.83696-1.13091 1.67393-1.13091 1.84624 0 .54157 1.99139 4.23406 3.09772 5.66182 1.45051 1.94472 2.04056 2.31396 3.19605 1.9201 2.43393-.81235 4.59741-5.39104 4.47449-9.4774-.04917-1.6247-.12293-1.89547-.51629-1.89547-.24585 0-.44253.12308-.44253.24616 0 .39387-.68838.32002-1.03257-.12308-.19669-.19693-.54088-.39387-.78673-.39387-.6638 0-3.04854-1.9447-3.66317-2.9786-.29502-.49234-.61463-.8862-.71297-.8862m34.68953 5.9326c-.24585 0 .12292 2.2155.54087 3.22477.46712 1.10775 2.8027 3.66788 3.83527 4.20944 1.35218.71389 3.31898 1.05852 4.69575.83697 2.6306-.41848 4.25321-1.52623 5.90041-3.96327.9834-1.50162.81131-1.99395-.27043-.71389-1.20467 1.40315-2.67978 2.14165-4.59741 2.28935-2.6306.22155-5.01535-.98467-8.18683-4.1602-.95881-.93544-1.8193-1.72317-1.91763-1.72317m-94.67709-4.38176c-.41794.34464-1.22925 1.6247-1.86846 3.00323-.63921 1.30468-1.84388 3.29862-2.65519 4.40637-1.42593 1.89548-2.01597 2.92938-1.69637 2.92938.07376 0 .73756-.27078 1.4751-.61542.73756-.32001 1.6472-.66465 1.9914-.76311 1.05716-.27078 3.02396-1.89548 4.32697-3.5448 1.20467-1.52622 3.54025-5.39103 3.36815-5.53873-.04917-.04923-1.00798-.17232-2.1389-.27078-1.89305-.17232-2.1389-.12309-2.8027.39386m-27.33859 1.05852c-.24585.1477-.76213.83696-1.10632 1.55084-.56546 1.08313-.63922 1.57547-.59005 3.12631l.07376 1.84625 3.614.02461c.3319.00231.63376.00419.90966.00504l.5184.00017c2.18782-.00691 2.4925-.12829 3.88232-.79294.90964-.4431 2.06514-1.1816 2.58143-1.6247l.88506-.78772-.63921-.51695c-1.18008-.93544-4.74492-2.60936-6.17085-2.85553-1.77013-.32002-3.39274-.32002-3.9582.02462m35.35333.68926c-1.13092 1.10775-3.36816 4.99717-3.24523 5.66182.07375.27078.46711-.12308 1.22925-1.20621.63921-.91082 2.06515-2.60936 3.17147-3.79096 1.10633-1.1816 2.01598-2.19088 2.01598-2.26473 0-.51695-2.08973.54157-3.17147 1.60008m-13.0055-4.82485c-.56546.04923-1.10633.4431-1.77013 1.25544-.41794.51695-2.01597 2.24012-3.58942 3.8402-1.57344 1.60007-2.85186 3.02784-2.85186 3.17554 0 .32001 3.58941 1.55084 4.62199 1.57546 1.00798.04923 2.26182-1.40315 3.85985-4.4556 1.40135-2.63398 1.52428-3.79096.56546-4.77563-.3442-.34463-.73755-.64003-.8359-.61541m79.95063-1.08313c0 .12308-.1721.36925-.39336.51695-.19669.17231-.3442.64003-.3442 1.0339.02459.51694-.34419 1.2062-1.18008 2.21549l-1.18008 1.477 1.1555 1.47699c1.54886 1.99394 2.33558 2.70783 3.83527 3.49556 1.37676.71388 2.72894.83696 4.4253.36925 1.94223-.51695 4.10571-3.5448 5.26121-7.28652.29502-.98466.54087-1.79701.54087-1.84624 0-.02462-1.42593-.04924-3.17147-.02462-3.36815 0-3.4419-.02462-7.27718-2.09241-.44253-.24617-.86048-.54157-.95882-.68927-.1721-.24616-.71296.81235-.71296 1.35392m-25.47013-5.73567c-1.27842 2.60936-1.303 4.23405-.09834 7.8527.9834 2.9786 1.52427 3.96327 2.60602 4.6033 2.11431 1.28006 4.35155-1.3293 4.9416-5.7849.27043-2.01856.24585-2.16626-.27044-2.90476-.3196-.4431-.88506-.86158-1.27842-.96005-1.03258-.27078-2.1389-1.20621-3.41733-2.90476-.61463-.83696-1.20467-1.60008-1.303-1.72316-.09835-.09847-.61463.71388-1.18009 1.82163m41.49959-.96005c-.39336 0-.54087.71388-.54087 2.26473 0 1.1816.19668 1.87086 1.03257 3.59402 1.8193 3.64326 3.90903 5.24334 6.85923 5.24334.86048 0 2.06515-.17232 2.70436-.36925 1.08174-.36925 3.58942-2.26473 3.58942-2.70783 0-.09846-.6638.02462-1.4751.2954-1.05716.34463-2.16349.49233-3.68776.49233-1.91764-.02461-2.38476-.12308-3.81069-.83696-1.05716-.54157-1.89305-1.1816-2.40933-1.87086-.73756-1.0339-2.04057-4.5787-2.04057-5.61259 0-.27078-.09834-.49233-.22126-.49233m-26.10934-1.55085c-.51629 0-1.18008.49233-2.65519 2.04318-1.10632 1.10775-1.99139 2.11703-1.99139 2.19088 0 .27078 1.05716 2.26473 1.6472 3.1263 1.1555 1.67394 2.36017 2.73245 3.71235 3.2494 1.9668.7385 2.6306.66465 3.88444-.41848 1.7947-1.55085 2.33558-2.73245 2.8027-6.30185.24585-1.72317.34418-3.20016.24585-3.29863-.09835-.09847-1.008.09847-2.01598.41848l-1.8193.5908-.76213-.56618c-.41795-.2954-1.03257-.5908-1.37677-.61541-.34419-.04924-.71296-.1477-.8113-.24617s-.4917-.17232-.86048-.17232m-61.70851-1.797c-1.59803.09846-2.72894 1.40314-4.72033 5.53873-1.37677 2.88014-1.37677 3.54479-.04917 4.43099.9834.64003 4.49906.64003 6.14626 0 3.2944-1.25545 3.36816-5.41566.12293-8.78813-.61463-.66465-1.30301-1.1816-1.4997-1.1816m6.56421-6.69573c-.27044.2954-1.35218 1.10775-2.40934 1.79702-3.31898 2.11702-3.17147 1.797-1.42593 3.00322 1.9914 1.35392 2.23724 1.64932 3.09772 3.81558.56545 1.477.68838 2.0678.56545 3.29862-.07375.81235-.02458 1.477.09835 1.477.12292 0 .24585.19693.24585.39386 0 .54157.19668.49234 1.1555-.32001.44252-.39387 1.25383-1.0339 1.7947-1.45238.9834-.7385 1.94222-2.09241 1.94222-2.70783 0-.19693-.41794-.02461-1.10632.4431-.59005.4431-1.40135.86158-1.77013.93543-.61463.17232-.68838.09847-.8359-.8862-.09833-.56618-.02458-1.89548.12293-2.92937.27044-1.72316.14751-6.15415-.19668-7.06497-.19668-.51695-.71296-.4431-1.27842.19693m68.83818 3.17555c-.1721.51694-.78672 1.52623-1.35218 2.28934-.95881 1.25545-1.00798 1.42776-.88506 2.63398.29502 2.56012 2.18807 4.8987 4.49907 5.56335 1.94222.54157 3.76151.61542 4.67116.1477 1.94222-1.00928 2.43392-2.31396.9834-2.60936-.44253-.09847-1.27842-.41848-1.8193-.68927-.90964-.46771-.9834-.56618-.83588-1.3293.46711-2.46165.4917-2.8309.17209-2.65859-.29502.19694-1.1555-.56618-2.99938-2.73244-.56545-.64003-1.27842-1.25545-1.57344-1.35391-.46712-.1477-.61463-.02462-.86048.7385m83.31878-84.11495c-.68838.12309-1.57344.46772-2.01597.76312-.6638.49233-.76214.7385-.76214 1.69854 0 .98467.14751 1.3293 1.1555 2.43705 1.10633 1.28006 1.1555 1.37853 1.1555 2.9786 0 .91082-.09834 1.9201-.24585 2.24012-.3442.8862-4.2778 4.80024-5.82666 5.7849-4.1303 2.6586-7.37552 9.42816-7.35108 15.36076 0 2.38781.66394 6.84342 1.25398 8.66505 2.21266 6.79418 4.4499 10.95439 10.66992 19.91483 1.57344 2.24011 6.12168 6.84342 6.81006 6.84342.46712 0 .27044-.39387-3.04855-6.00645-1.69637-2.85553-2.4585-4.70177-2.08973-5.09564.04917-.04923 1.22926 1.00928 2.60602 2.33858 2.58143 2.5355 4.37614 4.0125 4.57282 3.81557.07376-.07385-.93423-2.2155-2.23724-4.751-2.99938-5.88337-4.00736-8.91121-4.40072-13.36682-.24586-2.90476-.24586-3.59402.1721-5.68644.61462-3.20016 1.32758-5.41565 2.38474-7.43421 1.42594-2.73244 2.18807-3.44633 1.62262-1.52623-1.03258 3.4217-1.3276 10.01896-.61463 14.03146.6638 3.74173 3.19606 9.67433 4.05653 9.40355.14752-.04924.46712-.86158.71297-1.7724.68838-2.70782 3.04855-6.99111 5.65457-10.2405 2.85187-3.5448 3.98278-3.96328 2.50767-.93544-.95881 1.94472-2.4585 6.47417-3.41732 10.41283-.19668.78773-.44253 2.95399-.54087 4.80024-.24585 4.99717.61462 8.81274 3.04855 13.56375 1.69637 3.34785 4.86784 6.9665 6.0725 6.9665.5163 0 .41795-.71389-.17209-1.55085-.83589-1.15698-2.48309-5.09564-3.1223-7.36037-1.05716-3.88942-.27044-8.39426 2.28641-12.80063 1.53657-2.64629 1.77559-3.07024 1.89794-3.55117l.02327-.09763c.01494-.06649.0292-.13669.0456-.216.3196-1.55085 3.24522-3.93867 5.65456-4.60331 1.67178-.46772 1.13091.34463-1.22925 1.84624-1.08175.68927-1.30301.96005-1.30301 1.60008 0 .41848-.54087 1.87086-1.22925 3.22478-1.40135 2.85552-2.45851 6.69571-2.67978 9.84664-.44253 6.17877 3.17148 12.57908 8.26058 14.6715 1.77013.71388 1.96681.7385 4.89243.61541 2.23724-.09846 3.68776 0 5.4333.32002 3.56484.66465 8.03932 1.89548 10.49782 2.90476 3.58942 1.45238 10.79285 5.09563 13.30052 6.6711 3.76152 2.41242 8.4081 4.97255 11.5304 6.3757 3.81068 1.69854 5.0891 1.7724 8.01473.39386 2.53226-1.1816 4.9416-2.85552 5.33496-3.7171.1721-.36925.24585-.71389.19668-.76312s-1.52427-.27078-3.2944-.49233c-5.13828-.64003-11.1862-2.41243-16.6195-4.92332-1.13092-.51695-3.6386-1.6247-5.55623-2.43705-1.91763-.81234-4.22863-1.84624-5.16286-2.26472-3.58942-1.64932-8.236-3.64326-10.57158-4.52946-2.60602-.98466-12.78423-4.33252-13.153-4.33252-.36878 0-.61463.83696-.76215 2.73244-.1475 1.57546-.22126 1.79701-.68838 1.79701-.56545 0-1.00798-.78773-1.9668-3.52017-.4917-1.37853-.59004-2.14165-.56546-4.751 0-2.88015.07376-3.2494.90965-5.44028 1.89305-4.97255 5.38413-8.78812 11.94834-13.14526.37067-.24996.75472-.50457 1.14365-.75892l.58599-.3807c1.95841-1.26422 3.93249-2.46009 4.85916-2.97136 4.69574-2.5355 14.4806-6.86803 18.97967-8.41888 4.91701-1.69854 13.03008-3.5694 19.61888-4.55407 1.43413-.21827 4.53338-.3722 7.69616-.43679l.904-.016a159 159 0 0 1 1.81761-.01701l.7057-.00076c2.32329.00336 4.33102.06606 5.27477.19978l1.40135.19693-.68839-.61541c-.39336-.32002-1.03257-1.0339-1.42593-1.55085-4.99077-6.62187-7.76888-9.20661-12.39087-11.54519-4.25322-2.14164-7.2526-2.78167-12.0221-2.5355-3.71234.1723-5.21203.56617-7.37552 1.96932-3.19606 2.09241-6.19543 3.274-6.5888 2.6586-.07375-.12309.71297-1.08314 1.77013-2.09242 1.49969-1.45238 1.86846-1.94471 1.74554-2.3878-.12293-.51696-.24585-.54157-2.08973-.39387-1.08175.07385-2.33558.22155-2.77811.32001-.68839.12308-.86048.04923-.9834-.39386-.19669-.61542-3.04856-2.68321-4.91702-3.5448-1.4751-.68926-3.22064-.83696-3.22064-.24616 0 .19693.27043.91081.61462 1.60008.78673 1.52623 1.35218 3.61864 1.08175 3.91404-.12293.09846-.95882-.61542-1.89305-1.6247-.3559-.3751-.67255-.70378-.92277-.95742l-.25204-.2522c-.24572-.2417-.37171-.34943-.32488-.26737.36877.71388-.22127.24616-1.62262-1.28007-1.6472-1.7724-4.32697-4.08635-4.74491-4.08635-.14751 0-.19669.17231-.12293.39386.3196.78773.9834 5.58797.8359 5.95722-.29503.78773-.93424.2954-2.38476-1.7724-3.14689-4.52945-6.44128-8.09886-8.67853-9.47739-.90964-.54156-1.20467-.5908-3.49108-.46771-2.06514.12308-2.99937.32001-5.33495 1.15698-1.57345.56618-3.83527 1.40314-5.03994 1.82163-4.08112 1.477-9.63735 2.43704-8.77687 1.5016.22127-.22154 1.1555-.73849 2.06515-1.13236.49768-.21423 1.02176-.45137 1.54343-.69624l.4459-.21144c2.07182-.99225 3.97354-2.03899 3.86191-2.1694-.1721-.1477-3.66317-.78772-9.19481-1.6493-3.83527-.5908-11.7025-.8862-13.74306-.49234m76.77916 88.15207c.09834 0 .63921.39387 1.18008.8862 1.22926 1.10775 2.06515 1.42776 3.6386 1.42776 1.35217 0 3.71234.68927 3.51566 1.0339-.09834.12308-.6638.2954-1.30301.39386-2.01598.32002-9.14564-1.6493-9.14564-2.51089 0-.09847.41794-.41848.95881-.71388.54087-.27078 1.05716-.51695 1.1555-.51695M98.42777 109.95605c-.14233.34981-.22337 4.0614-.22878 7.53862l-.00007.69125c.00394 2.85834.06107 5.38743.17968 5.5062.31961.32 1.52428-.22156 2.04057-.93544.68838-.93543 1.25383-3.37247 1.25383-5.36642 0-1.89548-.1475-2.28934-1.03257-2.73244-.41795-.22155-.73755-.78773-1.10633-1.99395-.27043-.91081-.56545-2.01856-.68838-2.43704-.1721-.71388-.22126-.7385-.41795-.27078m12.04992-.34417-.02782-.00047c-.07375.02462-1.37676 1.28007-2.92562 2.8063l-2.77811 2.80629.27043 1.50161c.6638 3.64326 1.57345 4.97256 4.00737 5.90799 1.18008.4431 1.20467.4431 2.50767-.1477 1.25384-.5908 3.17148-2.46166 3.54025-3.44633.09834-.27078 0-1.10774-.27043-1.87086-.24585-.76311-.51629-2.46166-.61463-3.81557-.19668-2.58475-.1475-2.46166-1.77012-3.22478-.14751-.04923-.1721.07385-.07376.32002.22127.5908-.1475.51695-1.00799-.22155-.34195-.30212-.66745-.53831-.8149-.60073zm12.03137 12.62285-.08626.00526c-.29502 0-.3442.08283-.14751.16566.19668.08283.41794.08283.4917-.02761.07648-.06442-.01063-.12884-.18036-.1413zm24.4988-14.46956c-.07375 0-.36877.64003-.6638 1.42776-.76213 2.04318-.71296 4.72639.09835 6.47417 1.1555 2.5109 4.1057 3.91404 7.64595 3.66787 1.00799-.07385 1.9668-.27078 2.11432-.41848.1721-.17232.19668-.2954.04917-.2954-.12293 0-1.25384-.12308-2.50768-.24616-2.4831-.27079-4.40073-1.08314-5.48247-2.38782-.88506-1.05851-1.52427-4.20943-1.3276-6.44955.09835-.98466.12293-1.7724.07376-1.7724m-25.54388-1.55085c-.09834 0-.8113.56618-1.54886 1.25545-.73755.66465-1.74554 1.50161-2.23724 1.84624s-.93423.64004-.9834.66465c-.04917.02462.12292.78773.34419 1.69855.44253 1.74778 1.67178 4.43099 2.40933 5.24334 1.22926 1.40314 4.3024 1.87086 5.87584.91081 1.40134-.8862 2.85186-2.73244 3.71234-4.77562 1.1555-2.83091 1.22925-3.34786.41795-3.8648-.3442-.24617-.76214-.36926-.86048-.2954-.12293.07384-.9834.19692-1.91764.27077-1.84388.17232-1.7947.19694-4.22863-2.19087-.41794-.41849-.86047-.76312-.9834-.76312m91.43186 2.33858c-.5163 0-2.53227 1.55085-3.7861 2.92938-2.23725 2.43704-4.89243 7.31113-3.1223 5.68643.29501-.27078 1.20466-1.42776 1.99138-2.56013.8113-1.13236 2.311-2.95399 3.36816-4.06174 1.05715-1.10774 1.74554-1.99394 1.54886-1.99394M52.4537 107.14975l-.8113.41849.76213 2.21549c.41795 1.23083.88507 3.2494 1.05716 4.50484.1721 1.477.39336 2.26473.61463 2.26473.1721 0 .8113-.36925 1.42593-.83697s1.62262-1.15698 2.23724-1.57546c.61463-.39387 1.3276-1.08313 1.59803-1.55085 1.13091-1.84624.3196-3.44632-2.4585-4.80024-2.06515-1.0339-3.31899-1.2062-4.42532-.64003m251.62814 1.37853c-.3196 0-.90965 1.0339-.68838 1.23083.07375.09847.1475.02462.1475-.1477 0-.1477.12293-.2954.24586-.2954.1475 0 .19668.17232.09834.39387-.07376.19693-.27044.36925-.44253.36925-.1721 0-.71297.4431-1.20467.96005-.4917.49233-1.9914 1.74778-3.34357 2.75706l-2.4585 1.82162 2.58143.46772c1.42593.27078 2.72894.41848 2.92562.34463.63921-.24616 1.84388-3.76634 2.23724-6.6711.09834-.76311.07376-1.23083-.09834-1.23083m-166.78508-7.45883c0 .17232-.54087 1.25545-1.22925 2.41243-1.1555 1.96933-1.20467 2.16626-1.20467 4.0125-.02459 1.69855.09834 2.19088.86048 3.74173 1.18008 2.38781 2.36016 3.52017 4.54823 4.33252 1.008.36925 1.89305.61542 1.9914.54157.09834-.04924.19667-.66465.19667-1.35392 0-1.1816-.04916-1.25544-1.1555-1.96932-2.04055-1.28007-2.75352-2.88015-3.09771-7.08959-.12293-1.3293-.04917-2.58474.22126-3.98789.22127-1.13236.36878-2.0924.29502-2.16626-.17209-.17231-1.42593 1.1816-1.42593 1.52623m155.50054 6.3757c-.09834.56618-2.01598 3.5448-2.99938 4.62792l-1.008 1.08313.59005.32002c.51629.27078 2.92562 1.00928 3.36816 1.00928.09834 0 .56545-.78773 1.03257-1.72316.6638-1.40315.86047-2.14165.95881-3.66788.07376-1.6493.02459-1.99394-.39336-2.28934-.78672-.56618-1.40135-.32002-1.54886.64003m-8.8998-3.81557c-.07375 0-.29502.66465-.46711 1.477-.41795 1.82162-1.08175 3.44632-1.67179 3.91404-.56546.46771-.54087 1.3293.02459 1.3293.24585 0 1.03257.2954 1.72095.64002.71297.36925 1.42593.64003 1.59803.64003.56546 0 1.00799-1.6247 1.00799-3.61864-.02459-2.0924-.46712-3.274-1.4751-3.98789-.31961-.22155-.63922-.39386-.73756-.39386m-101.80675-10.0682c-3.1223.34464-6.61338.98467-7.10508 1.28007-.29503.17232.04917.66465 1.45051 2.11703 3.71235 3.84019 4.81868 6.49878 4.81868 11.64365 0 1.67393.07375 3.02784.1721 3.02784.12292 0 1.40134-1.10774 2.87644-2.48627 4.1303-3.8402 6.12169-5.4895 8.0885-6.76957 2.48308-1.60008 7.37551-3.79096 10.39947-4.62792 1.37677-.39387 2.28642-.7385 2.04056-.78773-.22126-.04924-1.20466.1477-2.16348.4431-.62041.19114-1.7452.50596-2.92812.82441l-.6483.17335c-.43248.11484-.8619.22727-1.26684.33153-4.54824 1.15698-6.51504 1.7724-8.45726 2.58475-.9834.41848-1.72096.61541-1.72096.4431 0-.41849 2.55685-2.83091 3.614-3.3971.5163-.2954.76215-.54156.56547-.61541-.27044-.07385-.24586-.17232.04917-.41848.34419-.22155.1475-.2954-.93424-.2954-3.26981-.04924-6.39211-.22155-6.39211-.39387 0-.49233 2.82728-1.52623 6.71172-2.46166 3.9336-.96005 4.40073-1.08313 4.57282-1.25545.3442-.34463-8.43268.04924-13.74305.64004m-74.22231 2.56013c-.29502 0-1.08174.71388-1.9914 1.79702-1.25383 1.5016-1.7947 1.9447-3.34356 2.65859-1.8193.83696-1.86847.8862-2.04056 1.96933-.19668 1.23083.19668 4.13559.8113 6.00645.54088 1.67393 1.62262 2.6832 2.6552 2.46166 1.25383-.2954 2.75352-1.55085 3.39273-2.85553.56546-1.1816.56546-1.3293.27044-3.4217-.36878-2.46166-.1721-6.15416.39336-7.53269.19668-.49233.36878-.91081.36878-.98466 0-.04923-.22127-.09847-.5163-.09847m98.41401 6.99112h-.61462c-1.91764.04923-8.87521 2.6832-12.16961 4.62792-1.72096 1.00928-3.83527 2.83091-3.2944 2.85553.19668 0 1.6472-.56619 3.22064-1.25545 1.57345-.68926 4.20405-1.82163 5.82666-2.48628 2.95021-1.20621 5.2612-2.3632 6.4167-3.274zM59.16543 98.9278c-1.40135 1.25544-1.79471 1.9447-2.11432 3.64325-.24585 1.50162-.1721 2.09242.3196 2.09242.14752 0 1.22926.61541 2.38476 1.40314 2.8027 1.87086 4.5974 2.78168 5.31037 2.68321.51629-.07385.56546-.19693.4917-1.37853-.09834-1.67393-1.05715-4.06174-2.82728-7.04035-1.6472-2.75706-1.91763-2.88014-3.56483-1.40314m215.97979 2.90476c0 .56618-.24585 1.52622-.54087 2.0924-.3196.64004-.46712 1.30469-.39336 1.64932.09834.34463.04917.68926-.09834.76311-.63922.39387-.09834.8862 1.84388 1.6247 1.18008.4431 2.21265.7385 2.33558.68927.12292-.07385.19668-1.0339.19668-2.11703 0-2.24011-.39336-3.32324-1.72096-4.82486-1.13091-1.25544-1.62261-1.20621-1.62261.12309m-158.672-9.0343-1.008 1.08313c-.56545.5908-1.54886 1.35392-2.18807 1.67393-.6392.2954-1.49968.83697-1.91763 1.20621-.76214.61542-.78672.64004-.78672 3.15093 0 2.11703.09834 2.75706.59004 3.74173.86047 1.72316 1.62261 2.36319 3.1223 2.48627 1.57345.17232 2.90104-.27078 4.1057-1.30468 1.45053-1.28006 1.54887-1.82163 1.27843-6.30185l-.24585-3.93866-.86048-.27078c-.46711-.1477-1.13091-.56618-1.45052-.91081zm149.50177 6.17877c-.09834.1477.02458.83696.24585 1.52623.24585.68926.39336 1.74778.36878 2.31396-.02459.5908 0 1.10775.04917 1.15698.29502.22155 2.92562 1.20621 3.24523 1.20621.19667 0 .36877-.19693.39336-.4431.07375-.98466-.09834-2.56012-.3442-3.05245-.46711-.91082-1.86846-2.2155-2.75352-2.60936-1.03258-.41849-1.00799-.41849-1.20467-.09847m-119.28673-6.47417c-.02459 0-.29503.96005-.61463 2.14165-1.08174 3.88942-.73755 6.03106 1.25384 8.19733 1.25384 1.3293 5.21203 2.92937 5.21203 2.0678 0-.1231-.19668-.24617-.41794-.24617-.6638 0-2.26183-.93544-3.1223-1.84625-.46712-.46772-1.1555-1.57546-1.54887-2.41243-.68838-1.45238-.73755-1.7724-.71296-4.72639 0-1.74777-.02459-3.17554-.04917-3.17554m-97.57858 2.8795-.02413.00064c-.36878.04924-2.50768.68927-3.24523.96005-.39336.17232-.88506.68927-1.1555 1.23083l-.44253.96005 1.69637 1.57546c.95882.86158 2.21266 2.26473 2.8027 3.1017 1.10633 1.5016 1.10633 1.5016 2.16348 1.3293.59005-.07386 1.4751-.36926 1.9914-.5908.78672-.39387.93423-.66466 1.32759-2.0678.24585-.91082.6638-2.14165.95882-2.73244.6638-1.37853.68838-1.99395.04917-1.99395-.24585 0-1.69637-.39387-3.19606-.8862-1.36336-.44757-2.58448-.83411-2.8876-.8822zm78.4514-3.34721c-.14751.1477-1.13092.71388-2.18807 1.23083-1.18009.56618-2.01598 1.1816-2.21266 1.57546-.1721.36925-.3196 1.6247-.3196 2.8309 0 3.37248.9834 5.14488 3.56483 6.47418.86047.4431 1.3276.54156 2.21265.39386 1.40135-.19693 3.22065-1.3293 4.20405-2.60936.39336-.51695 1.05716-1.35391 1.45052-1.82163 1.00799-1.15698.8359-1.69854-.59004-2.0678-1.20467-.32-3.17148-1.96932-4.37614-3.66787-.31961-.46771-.78673-1.25544-1.03258-1.74777-.3196-.66465-.4917-.81235-.71296-.5908m144.09306-22.05648c-3.71234 1.28006-11.77625 5.56335-15.53776 8.24656-3.04855 2.16626-6.7609 5.51412-8.3835 7.5573-1.59804 2.04318-3.04856 5.0464-3.93362 8.12348-.93423 3.22477-1.05716 4.62792-.56546 6.5234s.5163 2.16626.14751 2.16626c-.44253 0-1.25383-1.0339-2.01597-2.58474-.61463-1.28007-.68838-1.69855-.6638-4.25868 0-2.70782.04917-2.95399.95882-5.02178 2.8027-6.44955 7.62137-11.66827 13.93973-15.1146 3.66318-2.01856 8.92438-4.3079 12.8334-5.61259 2.06515-.68926 4.00737-1.25544 4.32698-1.25544 1.1555-.02462.54087.64003-1.10633 1.23083m-16.52116 27.7183c-.24586.39386.8113 1.57546 2.01597 2.26472.59004.34464 1.9914 1.00928 3.09772 1.477l1.99139.86158v-.68926c0-.96005-2.23724-2.97861-4.03195-3.64326-1.52428-.5908-2.8027-.68927-3.07313-.27078M134.4203 99.10012c.07375.07385 0 .27079-.1721.4431-.19668.19693-.29502.19693-.29502.04923s.07376-.34463.1721-.4431c.07375-.09846.22126-.12308.29502-.04923m-30.4609-15.7054c-.22126.68927-.71296 2.11704-1.05715 3.17555-1.18009 3.4217-2.26183 7.04035-2.55685 8.56658-.24585 1.1816-.24585 1.55085.02459 1.87086.4917.61542 1.57344.51695 2.65518-.22155.8113-.56618 1.05716-.96005 1.52428-2.48628.44253-1.52623.4917-1.99394.27043-2.78167-.41795-1.40315-.44253-5.39104-.04917-7.06497.1721-.78773.27044-1.64931.1721-1.87086-.27044-.68927-.56546-.4431-.9834.81235m-65.42085-.04923c-1.10633 1.15699-1.40135 2.26473-1.40135 5.09564 0 1.9201.09834 2.48628.63921 3.5448.6638 1.30467 3.17147 3.61863 3.93361 3.61863.22127 0 .78672-.34463 1.27842-.76311.95882-.83696 2.6306-1.7724 3.41733-1.89548 1.00799-.1477 1.25384-.61541 1.03257-1.87086-.27043-1.37853-.19668-3.9879.09834-3.81557.36878.22154.1721-.17232-.34419-.68927-.29502-.2954-.61463-.46772-.76214-.39387-.12292.07385-1.35218-.66464-2.72894-1.67392-1.37676-.98467-2.6306-1.82163-2.77811-1.82163-.1721-.02462-.56546-.07385-.90965-.1477-.44253-.07385-.8359.1477-1.4751.81234m117.49202 6.3757c-.24585 1.50162-.02458 2.6586.78672 3.88943.51629.81235 1.6472 1.74778 1.6472 1.37853 0-.07385-.34419-.66465-.76214-1.3293-.41794-.66465-.88506-1.79701-1.03257-2.5355-.1475-.7385-.29502-1.6247-.34419-1.96934-.07375-.4431-.1475-.2954-.29502.56619m-19.88932-6.76956c-.44253.09847-1.59803.22155-2.60601.22155-1.8193.02461-1.8193.04923-2.26183.96005-.73755 1.52623-.41794 4.6033.6638 6.72033.59004 1.10775 2.26182 2.58474 3.41732 2.954 2.08973.68926 6.17085-.24617 7.35094-1.67394.41794-.49233.41794-.46771-.95882-.8862-.61463-.17231-1.4751-.64003-1.94222-1.0585-.78672-.68927-.8113-.76312-.54087-1.79702.27043-.98467.22126-1.20621-.3442-2.24011-.36877-.64003-.8113-1.64931-.9834-2.24011-.3196-1.15698-.56545-1.28007-1.7947-.96005m-85.38393 5.16949c-.4917 0-.68838.91081-.39336 1.99394.24585.98467 2.28641 2.43705 4.52366 3.22478 1.37676.49233 2.90103.61541 2.90103.27078 0-.27078-2.16348-2.14165-4.67116-4.0125-1.08174-.81236-2.1389-1.477-2.36017-1.477m62.24939-6.12954c-2.60602 1.64931-3.41733 2.09241-3.7861 2.01856-.19668-.02461-.71297.32002-1.1555.78773-.78672.76312-.86048.98467-.93423 2.83091-.14751 3.22478.9834 4.82486 3.51566 4.99718 1.4997.09846 2.53226-.2954 3.54025-1.40315l.78672-.81235-.07375-2.85553c-.04917-1.9201 0-2.78167.19668-2.6832.1721.12308.27043-.34464.27043-1.3293 0-.81235.07376-1.74778.14751-2.0678.24585-.91081-.54087-.7385-2.50767.51695m-87.59659.4431c-.68838 0-.44253.54157.3442.81235.51628.17231.71296.39386.61462.64003-.19668.51695.88506 1.6247 4.4499 4.6033 3.4665 2.90476 4.4253 3.59403 4.62199 3.27401.07375-.12308-.02459-.56618-.24585-.96004-.29502-.56619-.39336-1.477-.3442-3.8402l.04918-3.10169-2.55685-.02461c-1.49969-.02462-2.99938-.22155-3.58942-.41849-.56545-.22155-1.18008-.34463-1.37676-.27078-.1721.04923-.61463-.07385-.95882-.2954s-.8113-.41848-1.00799-.41848m151.64068-10.19127c0 .07385.29502.71388.6638 1.45238.36877.71388.83589 2.11702 1.03257 3.1263.3442 1.60008.3442 1.94472-.02458 3.2494-.63922 2.19087-.93424 2.63397-4.40073 6.64648-3.68776 4.25867-3.9582 4.751-1.9668 3.76634 1.4751-.76311 5.77748-2.04318 8.40809-2.53551 2.60601-.46772 10.71908-.61542 15.26732-.27078l2.58143.19693-1.03257-.64003c-.56546-.34463-1.74554-.86158-2.58143-1.13237-3.19606-1.08313-6.22002-2.70782-5.94959-3.15092.07376-.12308 0-.2954-.1475-.41848-.19669-.09847-.24586-.07385-.12293.12308.09834.17232.02458.2954-.22127.2954-.36877 0-.51629-.32002-.41795-.8862.02459-.12308-.19667-.46771-.46711-.76311s-.4917-.86158-.4917-1.25545v-.68927l1.05716.54157c.59004.2954 1.72095 1.0339 2.50767 1.64931.76214.5908 1.86847 1.28007 2.40934 1.52623 1.03257.39387 1.03257.39387.54087-.12308-.24585-.27078-.6638-.51695-.93423-.51695-.24585 0-.51629-.12308-.61463-.24617-.09834-.17231.02459-.19693.29502-.09846.39336.1477.36878.04923-.12292-.64003-.9834-1.37853-2.4831-2.48628-5.7775-4.23406-1.74553-.93543-4.4499-2.48628-5.99875-3.4217-2.55685-1.52624-3.49108-1.94472-3.49108-1.55085m-53.69378 7.23728c-1.05716.32001-2.4831.61541-3.14689.61541-1.59803.02462-1.99139.61542-2.18807 3.17554-.27044 3.42171 1.08174 6.62187 3.04855 7.21267.8113.24617 1.27842.22155 2.60602-.1477 2.38475-.64003 2.67977-1.00928 3.73693-4.33252 1.2727-4.11155 1.3023-4.11323.3637-5.37271l-.18925-.25192c-.4548-.58371-1.03698-1.13468-1.32995-1.29264-.71297-.32001-.4917-.34463-2.90104.39387m23.13455-5.80952c-.02459.02462-.56546.22155-1.20467.46771-2.06515.78774-2.8027 1.37853-3.49108 2.70783-1.22925 2.53551-.71297 5.14487 1.49969 7.4096.88506.91081 1.45052 1.23083 2.50767 1.477 2.38476.56618 4.40073.34463 4.96619-.56619.12292-.1477-.44253-.66464-1.35218-1.25544-1.9668-1.25545-2.311-1.79702-2.26183-3.56941.02459-.76312-.09834-1.87086-.24585-2.43705-.1721-.56618-.3196-1.74777-.34419-2.63397s-.04917-1.6247-.07375-1.60008m61.561-2.3632c.22126 0 1.08174 1.82163 1.52427 3.2494.8359 2.6832 1.18008 3.49555 2.1389 5.3418.59004 1.10775.9834 2.0678.90965 2.16626-.36878.34463-1.84388-.78773-2.90104-2.24011-1.57344-2.11703-2.21265-3.93866-2.21265-6.27723 0-1.0339.07375-1.96933.1721-2.04318.09833-.09847.24584-.19694.36877-.19694m65.47002 6.20339c-.12292.12308-.02458 1.15698.22127 2.31396l.46712 2.09241.9834-2.11703c.54087-1.15698.95882-2.28934.93423-2.5109-.04917-.19692-.19668-.39386-.34419-.44309-.3442-.07385-2.01597.41848-2.26183.66465m-246.66195-8.0004c-.51628.04924-1.7947.78773-2.36016 1.40315s-.63922.91081-.63922 2.58474c.04917 3.44633 1.86847 5.85875 5.21204 6.84342 3.49108 1.0339 6.0725.96005 7.12967-.19693.39336-.41849.27043-.5908-1.9668-2.68321-1.3276-1.20622-3.19607-3.2494-4.20405-4.55408-.9834-1.28006-1.94223-2.33857-2.11432-2.33857-.1721-.02462-.44253-.24617-.59004-.54157s-.36878-.51695-.46712-.51695m85.65437-2.14164c-.29502.66465-1.3276 2.56012-2.311 4.20944-2.67977 4.48022-3.22064 5.76028-2.9502 7.06496.27043 1.23083.95881 1.72317 2.50767 1.72317 1.3276 0 2.23724-.51695 3.54025-2.09242 1.03257-1.23083 1.08174-1.37853.8113-2.14164-.4917-1.45238-.61462-3.1017-.29501-4.82486.51628-2.92937.59004-4.35713.24585-4.77562-.54088-.66465-.9834-.41848-1.54886.83697m170.64354 6.05393-.09695.00175c-.61463.02462-2.53226.4431-2.67977.56618-.04917.04924.09834.83697.29502 1.74778.24585 1.0339.3196 2.2155.22126 3.20016-.09834 1.20622-.07375 1.50162.1721 1.25545.1721-.1477.36877-.78773.46711-1.37853.07376-.71388.29503-1.13236.54088-1.20621.6392-.17232 1.89305-2.8063 1.69637-3.56941-.10058-.38268-.26699-.5676-.52615-.60872zM14.05183 65.4246c2.04056 5.88336 6.46587 13.933 8.01473 14.5238.76214.2954.78673-.07386.19668-1.82164-.6392-1.89547-.83589-5.02178-.36877-6.44955.12292-.41848.29502-1.3293.36877-2.0678.12293-1.23082.07376-1.3539-.51628-1.62469-1.03257-.46771-3.09772-2.28934-3.7861-3.37247-.56546-.81235-.88506-1.00928-2.40934-1.42777-.9834-.24616-1.91763-.5908-2.08973-.71388-.51628-.39386-.41794 0 .59004 2.954m143.6997 2.04317c-.88506.07385-4.00736 1.64932-4.86784 2.46166-.9834.93544-1.08174 1.13237-1.25384 2.73245-.46711 4.48022 1.9668 7.18805 6.39212 7.18805h1.303l-1.35217-1.40315c-.71297-.78773-1.42593-1.72316-1.57344-2.11703-.36878-.96005.1475-3.52017 1.03257-5.14487.8359-1.52623.95882-2.04318.68838-3.02784-.09834-.39387-.27043-.71388-.36877-.68927m133.27564 2.85553c-2.18807.32002-2.21266.32002-1.94222 1.30468.3442 1.28006.76214 5.51412.61463 6.10492-.07376.2954-.02459.7385.12292 1.00928.27044.4431.27044.4431.29502-.04923 0-.27079.56546-1.37853 1.27843-2.43705 1.20466-1.84624 2.08973-4.20944 2.08973-5.6372 0-.66465-.02459-.66465-2.45851-.2954m-155.67263-1.99395c-.41794.17232-1.7947.39387-3.02396.46772-1.86847.12308-2.311.07385-2.4831-.24617-.29501-.51694-.71296-.24616-1.22925.76312-.34419.64003-.39336 1.3293-.29502 3.274.14751 3.15093.73756 4.60331 2.28641 5.63721 1.03258.68927 1.25384.71388 3.88444.71388l.6279.00024c2.65866-.00295 2.66594-.13171 4.33829-3.27425l1.18008-2.26472-.68838-.36925c-.39336-.22155-1.22926-.91082-1.86847-1.55085-.88506-.91081-1.1309-1.37853-1.18008-2.14164-.04917-.54157-.07376-1.08313-.09834-1.1816-.02459-.2954-.56546-.22155-1.45052.17231m176.70683-1.6118-.06314.01173c-.1721.02461-1.27842.07385-2.4585.12308-1.57345.07385-2.18808.19693-2.28642.46771-.09834.19694.27044 1.60008.78672 3.07708.4917 1.477 1.05716 3.59402 1.20467 4.72639.56546 4.18482.44253 4.0125 1.25384 1.64931.90965-2.60936 1.40135-5.85875 1.18008-7.77885-.1475-1.20621-.09834-1.50161.22127-1.6247.24585-.09846.41795-.2954.41795-.4431 0-.11077-.08298-.19385-.19707-.2077zm-150.05662 2.00567c-.34419 0-.73755 2.53551-.6638 4.23406.07376 1.64931.22127 2.11702.86048 3.02784.8359 1.15698 2.08973 2.24011 2.33558 1.99394.07376-.07385-.09834-.54156-.36877-1.00928-.29502-.46771-.54087-1.1816-.54087-1.55084 0-.76312.93423-3.22478 1.4751-3.86481.29502-.34463.24585-.4431-.29502-.68926-.3442-.17232-1.08174-.71389-1.6472-1.20622-.56546-.51695-1.08174-.93543-1.1555-.93543m137.99597-.39387c-.86048.1477-1.67179.34464-1.74554.4431-.09834.09847.04917 1.67393.34419 3.49556.3196 1.82163.59004 3.7171.61463 4.20944l.07375.91082.71297-1.20622c1.10633-1.82163 2.18807-4.87409 2.38475-6.64648.22127-1.79701.39336-1.69855-2.38475-1.20622m-174.3081-3.47094c0 .1477-.6884.68927-1.4997 1.23083-1.37676.8862-1.59803.96005-3.41732.93543-1.05716 0-2.311-.09846-2.75353-.22154l-.8113-.19694-.3442 1.52623c-.44253 1.9201-.36877 4.8987.12293 6.10492.44253 1.08313 1.25384 1.55085 3.36815 1.99395 2.9748.61541 4.1303-.12309 4.4499-2.8063.09834-.93543.59004-2.6832 1.13091-4.0125.93423-2.31397.95882-2.33858.56546-3.56941-.36878-1.10775-.8113-1.67393-.8113-.98467m53.17749 2.3632c-5.06453.04923-6.85924.27078-4.1303.54156 2.53227.24617 11.85 2.68321 14.30851 3.74173 1.67179.71388 3.49108 1.89548 5.50706 3.52017 1.00798.86158 1.94222 1.477 2.01597 1.40315.27044-.27078-.71296-2.85553-1.52427-4.03713-.93423-1.37852-3.98278-3.4217-6.19544-4.13558-.88506-.2954-2.48309-.66465-3.54025-.81235-1.05715-.1477-3.9582-.24617-6.44128-.22155m75.52531.49233c-1.45051 1.57546-2.48309 3.37247-2.48309 4.33252 0 .32002-.1721.98467-.39336 1.50162-.29502.71388-.4917.8862-.93423.83696-.8359-.12308-1.35218-1.99395-.9834-3.4217.34419-1.25546 2.43392-3.3971 4.4253-4.50485.76215-.41848 1.45053-.78773 1.57345-.78773.4917-.07385.04917.66465-1.20467 2.04318m-129.19451 4.8987c0 .34464.09517.49234.15862.32002.09517-.17232.09517-.46772 0-.64003-.06345-.17232-.15862-.02462-.15862.32001M238.6364 63.6276c-.09834.32002-.24585 1.477-.3196 2.56013l-.14752 1.96933 1.18009 1.1816c.6392.64003 1.74553 1.477 2.4585 1.82162 2.06515 1.05852 1.9914 1.30468-.39336 1.13237-2.9748-.19693-4.15488-.96005-5.23662-3.29863-.93423-2.0924-.51628-3.81557 1.35218-5.29257 1.03257-.81235 1.3276-.81235 1.10633-.07385m-93.71827-4.70177c.14751.24617.02459.2954-.54087.17232-.41795-.09847-1.03257-.24617-1.35218-.34463-.46712-.12309-.78672.04923-1.54886.8862-1.74554 1.87086-2.36016 5.26795-1.35218 7.45882.73756 1.64932 2.36017 3.07708 3.88444 3.44633 1.1555.27078 1.40135.24617 2.43393-.24617 1.1309-.54156 1.81929-1.13236 2.92562-2.46166l.59004-.71388-1.22925-1.3293c-1.05716-1.15698-1.30301-1.6493-1.69637-3.29862-.24585-1.05851-.44253-2.14165-.44253-2.38781 0-.56618-.4917-1.05852-1.27843-1.30468-.44253-.1477-.54087-.12308-.39336.12308m-42.77801 10.58514c-.88506.02462-1.9914.64003-1.67178.93543.19667.19694 2.18807-.39386 2.38475-.71388.07375-.12308-.24585-.22155-.71297-.22155m164.00697-7.8527c-1.4997 1.69855-2.38476 3.5448-2.55685 5.29257-.07376.83697-.19668 1.52623-.29502 1.52623-.3196-.02461-1.25384-.91081-1.54886-1.5016-.44253-.86159-.07376-2.26474.95882-3.61865 1.03257-1.35391 1.25383-1.57546 2.87645-2.6586 1.54886-1.00927 1.84388-.51694.56545.96005m-148.46921 5.26796c.14751 0 .27044.17231.27044.36925 0 .19693-.12293.4431-.27044.54156-.14751.07385-.24585-.07385-.24585-.36925s.09834-.54156.24585-.54156m50.42397-11.64366c-.46712 0-.86048.12309-.86048.24617 0 .1477-.24585.32002-.54087.41848-.29502.09847-1.00799.5908-1.54886 1.08313-1.22925 1.10775-1.77012 2.78168-1.77012 5.29257 0 2.19088.24585 2.5109 3.31898 4.03713 2.08973 1.05851 3.63859 1.37853 3.63859.78773 0-.1477-.19668-.83697-.41795-1.50162-.51628-1.42776-.39336-2.14164.68838-3.44632.93424-1.13236 2.1389-1.79701 4.08112-2.24011 1.008-.24617 1.3276-.41848 1.20467-.71388-.07375-.19694-.12292-.41848-.12292-.49233 0-.04924-.3442-.09847-.76214-.09847-1.52427 0-3.41732-.86158-4.74492-2.11703-1.03257-.98466-1.4751-1.25545-2.16348-1.25545m38.79523 1.57547c-.06556.39386-.1894 1.70189-.28517 3.04233l-.03444.50246c-.12292 2.14164-.07375 3.15092.24585 4.40637.24586.91081.44253 1.79701.44253 2.01856 0 .5908-.86047.39387-1.74553-.41848l-.8359-.76312v-2.92937c0-3.17554.39337-5.02179 1.35218-6.05569.73755-.81234 1.05716-.7385.86048.19694m20.84813 4.62792c.46712 0 .78673.22155 1.03258.7385.51628.98466 2.01597 2.26472 3.41732 2.95399.61463.32002 1.13091.68926 1.13091.83696 0 .17232-.39336.4431-.88506.61542-.8113.2954-1.03257.24617-2.55684-.4431-1.86847-.83696-2.311-1.45238-2.60602-3.47094-.1721-1.1816-.14751-1.23083.46711-1.23083m-90.8418-8.1481c-.14752.04924-.78673.22155-1.40136.39387-.63921.17231-1.54886.41848-2.01597.56618-.54087.17232-1.13092.17232-1.79471-.02462-1.1555-.32001-1.59803 0-2.60602 1.9201-.59004 1.10775-.68838 1.6247-.68838 3.49556 0 1.74778.09834 2.3878.51628 3.07707 1.08175 1.87086 2.99938 2.56013 5.55623 2.0678.8359-.17232 1.62261-.41849 1.77012-.5908.12293-.1477.31961-.93543.44253-1.72316.12293-.76312.3442-1.40315.4917-1.37853.14752 0 .56546-.51695.93424-1.15698.36877-.66465.93423-1.42777 1.22925-1.69855s.54087-.71388.54087-1.00928c0-.5908-1.22925-2.5109-1.59803-2.5109-.12292 0-.19668-.07384-.12292-.17231.04917-.12308.02458-.46772-.09834-.78773-.22127-.54157-.4917-.66465-1.1555-.46772m138.53683 6.5234c-.41795.98467-.8359 2.0678-.90965 2.41243-.56546 2.14164-.78672 2.58474-1.25384 2.58474-.54087 0-1.22925-1.37853-1.22925-2.43704 0-.68927 1.8193-3.1263 3.19606-4.33252 1.10633-.93543 1.1555-.41849.19668 1.7724m-255.9551-4.8987c-1.69638 3.37247-.0246 8.5912 3.02396 9.40354 2.21265.5908 2.26182.5908 1.91763-.22155-.1721-.39386-.39336-.83696-.4917-.98466-.4917-.66465-1.08174-2.83091-1.74554-6.32647-.51629-2.73244-.8113-3.76634-1.10633-3.81557-.46711-.09847-.73755.22155-1.59803 1.9447m132.41515.1477c-1.1555 1.1816-1.42593 1.6247-1.67178 2.8309-.41795 2.01857-.14751 3.17555 1.08174 4.50485 2.06514 2.2401 3.36815 2.60936 6.2446 1.72316l1.54886-.49233.14751-1.84625c.09834-1.55085.24586-1.99394.90965-2.8309.6638-.86159 1.40135-2.19089 1.40135-2.56014 0-.04923-.1721-.12308-.36878-.12308-.22126 0-.93423-.17231-1.59803-.39386l-.36384-.11981c-.54377-.17661-1.05762-.33224-1.25877-.37253-1.10633-.22155-1.89305-.71388-2.28641-1.42776-.71297-1.23083-1.74554-.93543-3.7861 1.10775m68.59233-13.73607c.277.14934 1.07104.6315 1.886 1.142l.37583.23653c.90964.61542 2.08973 1.23083 2.60601 1.40315 1.00799.32001 5.94959.41848 7.59679.1477 2.75353-.46772 5.03994-.96005 6.44129-1.40315 5.23661-1.67393 9.39149-2.09241 11.87458-1.1816 1.94222.68927 4.40073 2.46166 7.54762 5.41566l2.85186 2.6832 1.74554.19694c.95882.09847 3.2944.09847 5.18745 0 3.24523-.17232 3.44191-.1477 3.44191.2954 0 .66465-1.4751 2.04318-2.58143 2.43704l-.86048.2954 1.6472.51695c1.25384.39387 2.50768.51695 5.0891.54157 2.04057.02461 3.41733.12308 3.44192.2954.09834.7385-5.6054 2.60936-9.0473 2.9786-2.33559.22155-7.00675.1477-9.2194-.1477l-1.35218-.19693-.71297 1.23083c-1.08174 1.84625-2.67977 3.76634-2.9502 3.59403-.14752-.07385-.6638.1477-1.13092.54156-1.20467.91082-2.77811 1.55085-4.84326 1.94471-1.6472.34464-1.86846.32002-3.614-.24616-4.622-1.477-6.36754-2.954-7.35094-6.25262-.83589-2.78168-1.10632-6.6711-.4917-7.18805.93423-.76311.46712-.96005-2.48309-1.13236-3.26981-.19693-6.44129-.96005-8.8998-2.19088-1.20466-.5908-5.23661-3.76634-7.67053-6.03107-.36878-.32001.8113-.27078 1.4751.07385m-93.22656 10.28974c-1.1555 0-1.27843.07385-3.17148 2.01856-3.68776 3.76635-6.66255 7.38499-6.66255 8.09887 0 1.28006 2.08973 2.48627 3.7861 2.19088 2.50768-.46772 3.68776-1.45238 3.68776-3.1017 0-.76311 1.13091-4.25867 1.8193-5.58797.27043-.54156.86047-1.40314 1.27842-1.89547.4917-.54157.71296-1.0339.61462-1.30468-.09834-.2954-.4917-.41849-1.35218-.41849m56.7669-.51695c-2.99937 1.52623-3.7861 2.8063-3.49107 5.73567.22127 2.11703.8113 3.12631 2.4585 4.1356 1.22926.7385 2.1635 1.00927 1.59804.41848-.71297-.68927-.19669-2.33858 1.1309-3.59403.8359-.81235 3.83528-2.28934 4.622-2.28934.27044 0 .68838-.12309.88506-.24617.29502-.19693.07376-.56618-1.18008-1.87086-.86048-.8862-1.69637-1.89548-1.89305-2.24011-.1721-.32002-.36878-.54157-.46712-.4431-.07375.07385-.34419 0-.56545-.19693-.4917-.41849-1.4997-.22155-3.09772.5908m99.91371 6.15416c.44253 1.37853 1.45052 3.15092 2.11432 3.69249.56545.46771.56545.46771-.54087.22155-1.52428-.34464-2.45851-.86159-2.9748-1.6247-.56545-.86158-.54087-1.40315.07376-2.41243.6638-1.08313.93423-1.05851 1.3276.12309m-42.75343-7.18805c-.09482 0-.22013 1.058-.29754 2.22575l-.02392.392c-.02925.52463-.04731 1.05012-.04731 1.49322 0 3.1017 1.57344 5.16949 4.67116 6.20338 1.54886.51695 1.74554.51695 3.39274.17232 1.84388-.39386 3.09772-1.00928 3.85985-1.9201.54088-.64003.54088-.64003-.86047-.1477-1.8193.66465-4.22863.2954-6.22002-.9108-1.8193-1.08314-2.82729-2.60937-3.83527-5.73568-.31961-.96005-.59005-1.7724-.63922-1.7724M32.76107 12.67122c-5.06453 2.3632-9.5636 6.35108-13.22677 11.69289-1.27842 1.87086-3.73693 6.9665-4.96618 10.31435-2.33558 6.30186-3.04855 17.89628-1.40135 22.35188.59004 1.57547 2.28641 3.56941 2.85187 3.37248.22126-.07385.39336-.83697.51628-2.01856.1721-2.11703 1.25384-5.09564 2.38476-6.57264.61462-.81235.6392-.91081.29502-1.60008-1.6472-3.20016-2.08973-5.26795-1.84388-8.81274.3196-4.92332 1.35218-8.51735 3.76151-13.21912 4.22863-8.22195 11.33372-13.90838 18.7584-14.99151 3.83528-.56618 9.80945-.19694 12.61214.78773 4.32698 1.55085 8.85063 5.4895 10.64534 9.25584.56545 1.23083 1.18008 2.85553 1.37676 3.61864.36878 1.6247.44253 4.65254.14751 6.69572-.27043 1.89548.19668 1.50161.86048-.71388.59004-1.99395.68838-5.36642.22126-7.58192-.1475-.7385-.6638-2.19087-1.1309-3.20015-3.1469-6.89265-8.77688-10.78208-17.28331-11.96367-4.7695-.66465-9.29315.12308-14.57894 2.58474M289.6504 53.51017c.29502.17231 2.11431.76311 4.05653 1.3293 4.17946 1.23083 5.90042 2.01856 7.49845 3.47094 1.32759 1.20621 1.25383 1.6247-.1721 1.13236-.54087-.17232-1.62261-.34463-2.38475-.36925-1.08174-.04923-2.311-.4431-5.13828-1.67393-5.0891-2.19088-7.03133-3.59402-5.53164-3.98789.8113-.22155 1.13092-.19693 1.67179.09847m12.09585-2.75706c3.68776 1.00928 7.32635 3.22477 10.84201 6.64648 1.9668 1.89548 2.11432 2.14165 1.57345 2.2155-.31961.07385-.81131-.07385-1.05716-.2954-.39336-.36925-.54087-.36925-1.1555-.04924-.76214.39387-1.18008.34464-2.21266-.34463-.34419-.24616-1.20466-.76311-1.89305-1.15698l-1.27842-.71388.12293.81235c.09834.66465.04917.78773-.29502.64003-.22127-.09847-.73756-.2954-1.18009-.4431-.41794-.1477-1.6472-.76311-2.70436-1.35391-1.69636-.96005-5.94958-2.5109-10.57157-3.86481-1.9914-.5908-2.85187-.93543-2.85187-1.1816 0-.24616 1.25384-.61541 3.88444-1.1816 2.04056-.41848 6.7363-.27078 8.77687.27079m-65.05208 3.8648c0 .8862-3.24523 3.05246-5.23662 3.52018-.73755.17232-1.67179.49233-2.06515.68927-.6392.32001-.71296.32001-.71296-.09847 0-1.23083 2.82728-3.34786 5.67915-4.23406 1.10632-.34463 2.33558-.27078 2.33558.12309m-12.63673 1.28007c.09835.66465.41795 1.20621.90965 1.60008.63921.49233.68838.64003.39336 1.00928-.46711.54156-.95881.51695-1.86846-.12308-.78672-.56619-.90965-1.1816-.59004-2.8063.24585-1.15698.93423-.96004 1.1555.32002m-77.14793-12.23445c-.29502 0-1.00799.39386-1.59803.8862-.59004.49233-1.25384.96004-1.49969 1.0339-.76213.24616-2.33558 2.88013-2.65518 4.4556-.4917 2.41242.04917 3.49555 2.311 4.70177.83588.4431 2.04055.8862 2.67977.98466 1.27842.17232 1.45051.04924 2.87645-1.9447.90964-1.28007 2.40933-2.3632 3.56483-2.60937.8113-.17232.8359-.19693.86048-1.57546.02458-.76312.1721-1.79701.3196-2.28935.36878-1.08313.04917-1.60008-.95881-1.52623-.36878.02462-1.72096-.4431-3.02397-1.0339s-2.60601-1.08312-2.87645-1.08312m30.70675-1.23083c-.56546.34463-1.59803.5908-2.92562.7385-2.38476.24616-3.07314.5908-3.71235 1.9447-.3442.76312-.41795 1.37854-.3196 2.92938.24585 3.52018 1.89304 6.0803 4.35155 6.74495 1.49969.39387 2.18807.04923 2.55685-1.28006.29502-1.13237 2.1389-3.32324 3.51566-4.18482 1.05716-.64004 2.26183-1.00929 4.22863-1.23084 1.10633-.12308 1.42594-.27078 1.4997-.64003.04916-.27078-.04918-.5908-.24586-.71388-.46712-.2954-1.77012-.2954-1.77012.02462 0 .4431-2.55685-1.35392-3.41733-2.41243-.46711-.56618-1.18008-1.37853-1.57344-1.7724-.86048-.83696-1.05716-.86158-2.18807-.1477m69.9445 3.88942c-1.77012.8862-2.92562 3.7171-2.33557 5.61259.39336 1.2062.6392 1.477 1.89305 2.11702 2.311 1.1816 4.15487 1.15698 2.53226-.04923-1.72096-1.25545-1.94222-1.64931-1.8193-3.1017.07376-.73849.36878-1.6493.63921-2.01855.71297-.98467 2.85187-2.38781 3.39274-2.2155.36878.12308.3442.07385-.07375-.27078-.61463-.49233-3.31899-.54157-4.22863-.07385m-54.94761-4.06174c-.29502.19693-.9834 1.10775-1.4751 1.99394-1.47511 2.63398-1.20468 4.18483 1.03257 6.54802 1.49968 1.57546 2.36016 2.14165 3.58942 2.41243.8113.19693.88506.17232.6392-.24617-.36877-.68926-.29501-2.2401.12293-3.05246.76214-1.477 2.21266-2.3632 4.79409-2.90476.71297-.17231 1.303-.39386 1.303-.51694 0-.1477-.09833-.24617-.22126-.24617-.12292 0-.76214-.36925-1.42593-.78773-.90965-.61542-1.37677-1.20622-2.01598-2.46166-.44253-.93543-.88506-1.69855-.9834-1.74778-.51629-.22155-4.622.56618-5.35954 1.00928m-29.625-1.57546c-1.42594.54156-2.6306 1.45238-5.21204 3.88942-2.16348 2.09241-.8359 5.4895 2.87645 7.43422 1.40135.71388 4.30239.91081 5.62998.36924l.95882-.41848.00046-2.3885c.00468-2.70204.05125-3.04583.41749-4.62723.24585-1.00928.6392-1.84625.95881-2.14165q.59004-.48001.22127-.5908c-.1721-.07384-.90965-.5908-1.67178-1.15697-1.52428-1.15698-2.01598-1.20622-4.17947-.36925m59.44668 8.71428c1.03257.49233 2.6306 2.3878 2.6306 3.1263 0 .34464-1.03257-.04923-2.4585-.91081-2.99938-1.84625-5.2612-2.78168-6.81007-2.78168-.36877 0-1.13091-.12308-1.69637-.2954-.88506-.24616-.95881-.32001-.51628-.49233 1.54886-.61541 6.26919.09847 8.85062 1.35392m-106.84669.93543c.14751.27078.54087.56618.88506.66464.36878.09847.8359.22155 1.05716.32002.68838.27078.44253-.39387-.29502-.76311-.39336-.19694-.9834-.4431-1.3276-.54157-.54087-.17232-.56545-.1477-.3196.32002m25.61764-8.83737c-4.64658 2.24012-10.62075 6.40032-10.62075 7.38499 0 .68926 1.9668 1.82163 3.36815 1.96932 1.62262.1477 4.00737-.91081 4.42531-1.99394.68839-1.79701 1.22926-2.60936 2.6552-4.06174.86047-.86158 2.21265-1.94471 3.02395-2.41243 1.54886-.86158 1.94222-1.40314 1.4751-1.99394-.4917-.56618-1.25383-.39387-4.32696 1.10774m11.25996 4.55408c.59004 0 1.10632.09846 1.10632.22155 0 .27078-.9834.27078-1.69636 0-.36878-.1477-.22127-.22155.59004-.22155m51.5057-10.2159c-2.04055 1.64932-2.38475 3.71711-.95881 6.05569 1.18008 1.96933 2.9502 2.70783 2.9502 1.23083 0-1.0339.6638-2.28934 1.57345-3.02784.41795-.34463.76214-.7385.76214-.8862 0-.17232-.36878-1.28006-.8113-2.5109-.44254-1.2062-.88507-2.28934-.98341-2.36319-.1721-.19693-1.03257.32002-2.53226 1.50162M186.639 30.46904l-.86048 1.13236c-.46712.61541-1.27842 1.45238-1.8193 1.84624-1.67178 1.28007-2.21265 3.8402-1.25383 5.95722.71296 1.57547 2.58143 3.49556 3.614 3.6925.8113.17231.9834.07384 2.36017-1.28007 2.06514-2.01856 3.88444-2.85553 6.46587-3.00323 1.13091-.07385 2.11431-.22155 2.18807-.34463.07375-.12308-.3196-.4431-.88506-.7385-.54087-.27078-1.37677-.81234-1.8193-1.1816-.93423-.78772-1.05716-.56618-.22126.34464.56545.61541.56545.61541.04917.34463-1.10633-.56618-1.54886-1.72316-1.84388-4.70177l-.19668-1.9201-2.90104-.07385zm-24.6834 3.274c-.05107.00852-.12128.02147-.20681.03795l-.37532.0746c-.417.08453-.96863.1999-1.48302.30594-1.62262.2954-8.4081 2.5355-9.85862 3.22477-1.18008.54157-1.27842 1.15698-.41794 2.56013 1.00799 1.64931 1.74554 2.33858 3.09772 2.85552.90964.34464 1.25384.36925 1.6472.12309.27043-.1477.6638-.2954.86047-.2954s1.10633-.64003 1.9914-1.42776c1.84387-1.6247 3.83526-2.68321 5.33495-2.88015l1.03258-.1477-.07376-2.2401c-.07375-2.38782-.14751-2.48629-1.54886-2.19089M39.59571 16.28986c-1.72096.02462-5.2858.96005-6.95758 1.82163-6.46587 3.34786-10.32573 8.34503-11.77624 15.21306-.19668.93543-.3442 2.38781-.3442 3.22478.02459 1.9447.36878 4.77562.61463 4.92332.09834.04923.27044-.66465.36878-1.6247.39336-4.03712 2.67977-10.3882 4.64657-12.84987.44254-.56618 1.008-1.35391 1.25384-1.74778.61463-.98466 3.41733-3.61864 5.23662-4.94793 2.26183-1.6247 3.68776-2.41243 5.94959-3.2494 1.91763-.71388 1.9668-.76311 1.00799-.76311m143.50302 13.933-1.67179.02462c-.90965.02461-3.58942.27078-5.925.54156-7.76888.8862-9.3669 1.79701-8.5556 4.84947.41795 1.50162 1.303 2.43705 3.34357 3.44633 2.67977 1.30468 5.67915.98466 7.7197-.81235.59005-.51695 1.3276-2.01856.8359-1.72316-.12292.09846-.24585-.02462-.24585-.24617 0-.24617.12293-.34463.29502-.24617.19668.12309.22127.07385.12293-.09846-.24586-.41848.04917-1.35392.41794-1.28007.14751.04924.36878-.32001.51629-.81234.1475-.51695.78672-1.40315 1.69637-2.26473zm41.40125 4.87409c.27043.17231.04917.36925-.78673.78773-.61462.2954-1.37676.54156-1.67178.54156-.51629 0-1.84388.86158-2.21266 1.477-.3196.49233-1.99139.4431-1.99139-.07385s1.35218-1.79701 2.55685-2.43704c.9834-.51695 3.49108-.68927 4.1057-.2954m-94.0265.58041.3143.31397.16602.16413c1.08175 1.05851 1.96681 1.7724 1.96681 1.57546 0-.24616.09834-.22155.3442.12309.22126.2954.4671.41848.56545.32001.3196-.32001-1.22926-2.01856-3.1469-3.49556-2.78928-2.11792-2.83154-1.63932-.20989.9989m66.0241-4.93755c-.4917 0-.59004.36925-.41794 1.37853.1721 1.10774 1.20467 2.2401 2.65519 2.88014l1.00799.46772 1.03257-.93544c1.20467-1.08313 3.36815-2.2401 4.20404-2.2401.31961 0 .46712-.09847.31961-.22156-.12292-.12308-2.08973-.46771-4.37614-.76311-2.26183-.32002-4.25322-.56618-4.42531-.56618m-45.77738-8.2958c0 .12308.88506 1.45238 1.94222 2.954 1.303 1.87086 2.11431 2.75705 2.43392 2.75705.6638 0 1.8193-.4431 1.8193-.71388 0-.34463-3.22065-3.5694-4.42532-4.4556-1.05716-.76312-1.77012-.98467-1.77012-.54157m54.9722.66465c1.18008 2.14164 1.67179 2.6586 2.82728 2.88014 1.03258.22155.9834.04924-.73755-1.9447-3.4419-4.01252-3.9336-4.20945-2.08973-.93544M174.7644 14.2713c.22127.32001.71297 1.45238 1.10633 2.5109.41794 1.0585 1.08174 2.78167 1.49969 3.81557l.76213 1.87086h2.55685l-.44253-.83697c-1.20467-2.3632-3.41733-5.88337-4.30239-6.84341-1.08174-1.1816-1.77012-1.477-1.18008-.51695"/>
</svg>