<svg xmlns="http://www.w3.org/2000/svg" viewBox="0 0 308 280">
<path fill="#143948" fill-rule="evenodd" d="M15.8531 2.59938c1.85883 1.85883 2.71984 4.33555 2.58074 6.75948l2.24187 2.24263 1.52552-1.52467c.10498-.10499.2752-.10499.3802 0l1.87449 1.8745c.10498.10498.10498.2752 0 .38019l-.69463.69402a.299.299 0 0 1 .06883.05146l2.74847 2.74847c.11665.11665.11665.30578 0 .42244l-.31957.3189 1.33573 1.33572.32758-.32673c.11227-.11227.29432-.11227.4066 0l2.38454 2.38455c.11228.11228.11228.29432 0 .4066l-.63678.63554L68.60552 59.5313l2.30113-2.29977c.19102-.19102.50072-.19102.69174 0l2.0994 2.0994a.487.487 0 0 1 .13917.2825l.94932-.95013c.18518-.1852.48543-.1852.67062 0l1.29732 1.29792 19.17185-19.1712c1.42317-2.12428 2.02411-4.63636 1.80896-7.09615l-.0344-.33506c2.39887.28339 4.72893 1.34732 6.57464 3.19303s2.90964 4.17576 3.19303 6.57463c-2.56568-.30248-5.20772.28937-7.4312 1.77457L82.37913 62.55782c1.54957 1.60509 6.98932 7.2396 15.05248 15.59016-.88997 2.92423-.17205 6.24298 2.15169 8.56672 2.24408 2.24936 5.42 2.99326 8.2732 2.23274a1929584 1929584 0 0 1 46.06564 47.71204 613777 613777 0 0 1 46.2747-47.83663c2.7874.65752 5.77521-.03545 8.03256-2.2928 2.25734-2.25734 2.996-5.44911 2.22492-8.30758 8.12133-8.39122 13.60309-14.05752 15.1606-15.66755l-17.65466-17.65387c-2.22083-1.48786-4.86553-2.07705-7.4312-1.77457.28338-2.39887 1.34731-4.72892 3.19302-6.57463s4.17577-2.90964 6.57464-3.19303c-.30248 2.56567.28936 5.20772 1.77456 7.4312l19.17096 19.17033 1.29821-1.29704c.18519-.1852.48544-.1852.67063 0l.94668.9475a.487.487 0 0 1 .13917-.28252l2.0994-2.0994c.19101-.19101.50072-.19101.69174 0l2.3057 2.30436 38.52884-38.52883-.63609-.63485c-.11228-.11228-.11228-.29432 0-.4066l2.38455-2.38454c.11227-.11228.29431-.11228.4066 0l.32193.32108 1.33573-1.33572-.31393-.31325c-.11665-.11666-.11665-.30579 0-.42244l2.74847-2.74847a.299.299 0 0 1 .06883-.05146l-.69726-.69666c-.105-.10499-.105-.2752 0-.3802l1.87449-1.87449c.10499-.10499.2752-.10499.3802 0l1.52746 1.52661 2.24256-2.24193c-.1391-2.42393.7219-4.90065 2.58074-6.75949 3.44382-3.44381 9.00849-3.46268 12.42904-.04212 3.42055 3.42055 3.40169 8.98522-.04213 12.42903-1.85883 1.85884-4.33555 2.71984-6.75948 2.58075l-2.24263 2.24186 1.52467 1.52552c.10498.10499.10498.2752 0 .3802l-1.8745 1.87449c-.10499.10499-.2752.10499-.3802 0l-.69402-.69463a.299.299 0 0 1-.05146.06884l-2.74846 2.74846c-.11666.11666-.30579.11666-.42244 0l-.3189-.31957-1.33572 1.33573.32672.32758c.11228.11228.11228.29432 0 .4066l-2.38454 2.38454c-.11228.11228-.29432.11228-.4066 0l-.63554-.63678-38.52883 38.52884 2.29977 2.30112c.19102.19102.19102.50073 0 .69175l-2.0994 2.0994a.487.487 0 0 1-.28251.13916l.95014.94932c.18519.18519.18519.48544 0 .67062l-1.29792 1.29733 19.1712 19.17184c2.12427 1.42317 4.63636 2.02412 7.09615 1.80897l.33506-.0344c-.28339 2.39887-1.34732 4.72892-3.19303 6.57463s-4.17577 2.90964-6.57464 3.19303c.30248-2.56567-.28936-5.20772-1.77456-7.4312l-17.65678-17.65795a261722 261722 0 0 0-15.59016 15.05247c-2.92423-.88996-6.24297-.17204-8.56671 2.1517-2.24936 2.24408-2.99326 5.41999-2.23274 8.2732a1922857 1922857 0 0 1-48.0844 46.42514l-.73513-.7611 3.93183 4.07267 2.61818 2.71198c41.42162 42.90579 81.0183 83.92834 81.72948 84.69246 16.88137 18.17386 22.93081 35.86637 22.93081 35.86637s-17.45245-6.28419-35.72921-23.06797c-1.29766-1.19037-46.12145-44.52627-90.94288-87.8766l.57238-.55325-2.71547 2.62157-2.71368 2.61983c-43.3932 41.89231-85.2758 82.31942-86.04796 83.0381-18.17387 16.88136-35.86638 22.9308-35.86638 22.9308s6.2842-17.45245 23.06798-35.7292c1.18713-1.29414 44.29099-45.8781 87.5231-90.5774a717546 717546 0 0 1-48.03737-46.4694c.65752-2.7874-.03545-5.77522-2.2928-8.03256-2.25734-2.25735-5.44912-2.996-8.30759-2.22492-8.39121-8.12133-14.05751-13.6031-15.66754-15.1606L45.76523 99.17291c-1.48786 2.22083-2.07705 4.86554-1.77457 7.43121-2.39887-.28338-4.72892-1.34732-6.57464-3.19303-1.8457-1.8457-2.90964-4.17576-3.19303-6.57463 2.56568.30248 5.20773-.28937 7.43121-1.77457l19.17032-19.17096-1.29704-1.2982c-.18519-.1852-.18519-.48544 0-.67063l.9475-.94668a.487.487 0 0 1-.28251-.13917l-2.0994-2.0994c-.19102-.19102-.19102-.50072 0-.69174l2.30436-2.3057-38.52884-38.52884-.63484.63608c-.11228.11228-.29432.11228-.4066 0l-2.38454-2.38454c-.11228-.11228-.11228-.29432 0-.4066l.32108-.32193-1.33573-1.33573-.31325.31392c-.11665.11666-.30578.11666-.42244 0l-2.74846-2.74846a.299.299 0 0 1-.05146-.06884l-.69666.69727c-.105.10499-.27521.10499-.3802 0l-1.8745-1.8745c-.10498-.10498-.10498-.2752 0-.38019l1.52662-1.52746-2.24194-2.24256c-2.42393.1391-4.90065-.72191-6.75948-2.58074C.02237 11.54247.0035 5.97779 3.42406 2.55725s8.98522-3.4017 12.42904.04213"/>
</svg>