<svg xmlns="http://www.w3.org/2000/svg" viewBox="0 0 675 935">
  <path fill="#84a0ad" fill-rule="evenodd" d="M175.171 23.566c-.571.905-.762 3.429-.238 3.429.667 0 1.143-.905 1.333-2.572.19-1.428-.428-1.905-1.095-.857m-4.238 7.714c-.667.715-2.524 2.095-4.095 3.095-3.572 2.191-3.762 2.667-.381.762 2.19-1.19 6.714-5.142 5.952-5.142-.143 0-.81.571-1.476 1.285m-10.238 6.429c-1.095.714-1.81 1.238-1.62 1.286.477 0 4.382-2.048 4.382-2.286 0-.476-.857-.143-2.762 1m177.857 11.857c3.476.714 6.762 2.429 8.714 4.524 2.286 2.38 9.286 12.714 12 17.524 1.238 2.285 2.857 4.81 3.667 5.619 2.285 2.476 3.857 4.81 5.714 8.523 2 4.048 5.095 7.762 7.905 9.572 1.095.666 2.19 1.714 2.476 2.333.714 1.572 2.333 2.524 3.143 1.857.057-.05.1-.095.143-.136l.033-.031c.226-.203.545-.304 2.852-.31l.54.001c2.925.01 8.527.14 19.48.381 15.476.333 19.523.571 22 1.286 5.38 1.524 9.57 4.952 11.428 9.476 1.048 2.524.476 5-2.714 11.571-5.238 10.715-16.19 21.429-31.143 30.524l-4.857 2.953.19 3.333c.143 1.857.476 3.81.81 4.333.428.81.333 1.429-.334 2.81-.81 1.762-.81 1.81.381 3.143 2.286 2.523 3.429 4.523 4 6.857.667 2.619.429 3.285-.81 2.095-1.142-1.143-1.57-1-.475.19.476.524.762 1.286.571 1.715-.476 1.238-1.048.904-1.714-.905-.857-2.381-2-3.286-2.81-2.19-.476.666-.762.714-1.285.238-.425-.386-.505-.397-.268.093l.097.194.123.236c.333.62 1.428 1.572 2.428 2.096 1.048.523 1.572 1 1.239 1-.81.047-.81 1.523.047 2.81 1.476 2.19 3.953 9.237 3.429 9.856-.286.334-.762 1.572-1.143 2.715-.333 1.19-.905 2.38-1.286 2.714-1.047.857-.81 2.428.334 2.428.571 0 1 .334 1 .715s-.429.857-1 1.047c-.572.143-1 .62-1 1 0 .953 2.428 1.524 3.571.81 1.286-.81 1.667-.714.905.19-.334.429-.762 2.19-.857 3.905-.096 1.667-.381 3.286-.62 3.524-.619.666 1.239 1.952 6.572 4.714l1.594.804.748.373c5.972 2.975 8.724 4.109 10.039 4.109.952-.048 1.619.38 2.143 1.286.476.81 2.476 2.142 5.524 3.666 2.666 1.286 4.952 2.572 5.142 2.857.477.762 2.762.62 2.762-.19 0-1.667 3.238-1.762 3.81-.095.238.666 1.524 1.952 2.905 2.904 1.38.953 2.81 2.286 3.238 2.953.619 1.143.571 1.476-.477 3.571-1.333 2.62-2.285 3.238-3.476 2.143-.857-.81-2-1.048-2-.476 0 .143.524.952 1.238 1.762 1.286 1.571 1.905 5.285.62 4.047-.334-.333-.81-.619-1.048-.619s.143.477.905 1.096c.761.571 2.047 2 2.857 3.095.762 1.143 2.476 2.619 3.762 3.333 2.238 1.238 3.666 2.81 1.952 2.19-.476-.19-.81-.095-.81.239 0 .285.239.524.524.524.667 0 .048 2.523-.857 3.57-.38.43-.667 1-.667 1.287 0 .285-.333.81-.761 1.142-.572.524-.715.524-.715 0 0-.333-.143-.523-.285-.38-.19.19-.048.714.238 1.238.285.523.952 1.952 1.476 3.238.524 1.238 2 3.476 3.333 4.952 2.953 3.333 6.429 8.62 10.095 15.381 2.524 4.571 3.143 5.381 5.858 7.19 4.428 3 6.047 5 8.761 10.858.62 1.333 1.381 1.095 2.19-.667.858-1.81 2.572-2.429 3.096-1.143.381 1.048 1.62.81 3-.476 1.429-1.286 2.19-1.571 1.238-.429-.428.477-.428.762-.095.762.286 0 .667-.238.81-.524.19-.238.761-.476 1.285-.476s1-.19 1-.428c0-.572 5.048-3.096 5.572-2.762.762.476.38 1.238-1.857 3.571-2.572 2.715-2.762 4.095-.572 4.667 1.238.333 1.714.095 3.667-1.762 1.905-1.857 2.238-2.381 2-3.667-.143-.857-.334-1.762-.476-1.952-.143-.238.19-.857.666-1.333.905-.953.953-.905 2 .857 1.143 1.952 2.286 2.333 2.857.952.477-1.333 1.524-2.238 2.143-1.905 1.143.762 2.953-1.238 3.715-4.095.428-1.619 1.238-3.81 1.761-4.905a267 267 0 0 0 2.429-5.238c1.476-3.333 2.095-3.904 5.667-5 1.952-.571 3.143-.238 4.38 1.238.81.953 1.667.477 1.286-.762-.19-.523-.095-1.761.19-2.809.23-.838.58-3.291.882-5.922l.074-.66.036-.331.07-.662.034-.33c.333-3.333.762-7.714.952-9.762.163-1.748.707-6.55 1.248-11.383l.093-.829.183-1.645 1.19-10.095-1.38-1.429c-1.715-1.857-1.667-2.619.428-6.476 1.762-3.238 2.143-4.857 1.238-5.38-.571-.382-2.476-4-2.476-4.715 0-.286.667-1.286 1.476-2.238 2.381-2.667 2.048-4.476-1.571-8.714-1.81-2.096-1.81-3.238.19-7.048 1.477-2.857 1.524-3.238.905-4.714-1.666-4-1-9.096 1.667-12.762 3.428-4.762 4-6.953 2.571-10.381-.428-1-.762-2.953-.762-4.381-.047-1.429-.38-3.476-.81-4.571-1.713-4.524-2.237-6.715-2.761-11.477-.714-6.523-.62-9.19.476-12.38.667-1.905 1.19-2.62 1.81-2.62 1 0 1.333.477 2.333 3.143.381 1.095 1.19 1.953 2.286 2.476 1.619.762 1.714.762 2.904-.38 1.43-1.334 3.43-7.096 4.239-12.096 1.38-8.524-.19-16.81-3.667-19.047-1.81-1.19-2-2.477-.762-4.81.857-1.714 1-2.571.714-4.667-.428-3.523-1.428-5.142-4-6.666-3-1.715-4.857-1.715-8.762.143-5.571 2.571-8.714 6.857-10.476 14.095-1.238 5.143-1.238 5.19-3.095 4.286-2.476-1.334-3.095-3.524-2.81-10.477.19-4.857.524-6.714 1.62-9.666 5.095-13.905 10.904-20.62 23.047-26.762 4.905-2.429 8.62-3.048 12.476-2.048 5.572 1.429 9.096 3.429 13.238 7.572 3.19 3.238 4.286 4.81 6.429 9.142 3.952 8.048 4.762 11.905 4.714 22.762-.04 5.98-.176 8.71-.652 11.142l-.078.382-.084.38q-.087.379-.186.763l-1 3.667 1.095.81 1.096.809-1.715 3.285c-3.571 6.667-5.476 11.667-5.238 13.572.19 1.476-.095 2.19-1.523 4.047-1.762 2.334-6 11.762-6.62 14.858-.19 1-1 3.19-1.81 4.904-1.809 3.953-1.809 6.477-.094 10.667 1.857 4.381 1.857 7.952.047 10.952-3.19 5.286-3.523 6.429-2.857 8.953.381 1.238 1.524 4.143 2.62 6.333 1.904 4.048 1.904 4.048 1.047 5.857-.429.953-1.286 2-1.905 2.334-1.333.714-3.524 3.857-3.952 5.666-.238.905-.048 2 .666 3.334 1.381 2.761 1.286 3.857-.714 6.047-1.524 1.714-1.667 2.048-1.428 4.286.142 1.428.761 3.19 1.523 4.286 1.19 1.81 1.19 1.952.381 3.19-.428.667-1.143 1.381-1.571 1.571-1.286.477-2.238 3.143-2.953 8.096-1.619 11.571-1.761 13.428-1.142 14.762.476 1.095.428 1.38-.238 1.904-.572.429-.953 1.715-1.19 3.762-.287 2.857-.191 3.286.809 4.381l1.142 1.19-1.476 1.715c-1.619 1.857-2.476 5.286-1.905 7.857.286 1.143.858 1.714 2.667 2.524 5.62 2.476 6.762 3.19 7.62 4.667 1.19 1.857 1.237 4.19.237 6.619-.952 2.238-1 2.095.476 2.666.667.238 1.477.953 1.81 1.62.429.856.429 1-.048.57-.714-.714-2.523-.285-2.476.572 0 .381.953 1.19 2.095 1.81 1.381.762 2.477 1.857 3.096 3.095.904 1.952.904 1.952-.19 4.667-.858 2.047-1 2.904-.572 3.285.285.334.571 1.096.571 1.762 0 1.762-1.905 6.667-3 7.857-.762.81-1 1.667-.952 3.286.143 4.095-2.19 7.333-7.953 11.048-1.714 1.095-2.095 2.143-.857 2.619.381.143.762.571.762.952s.762 1.381 1.714 2.238c1.953 1.714 2.334 2.857.762 2.476-.571-.142-1-.047-1 .238 0 .334-.238.381-.619.048-.333-.286-1.047-.619-1.523-.81-.477-.19.476.953 2.142 2.477 2.572 2.38 3 3.047 2.905 4.38-.047.858.429 2.525 1.048 3.763.857 1.619 1 2.476.666 3.238-.428.952-.666.762-2.761-2.19-2.524-3.525-4.381-5.62-4.762-5.286-.096.142 1.047 1.904 2.571 3.952 1.571 2.095 2.857 4.047 2.857 4.38 0 .525-.143.525-.619.048-.952-.904-1.38-.714-1.38.62 0 .666-.239 1.333-.477 1.523-.238.143-.143 1.476.286 3.143.619 2.238.666 3.429.238 5.476-.524 2.667-.476 3.381.571 5.572.715 1.428-.095 2.857-1.476 2.714-.905-.095-.952.19-.762 3 .143 1.714.429 3.476.667 3.952.857 1.667.524 2.524-.81 2.19-1.285-.332-1.524.049-1.857 3.144-.095.666-.619 1.476-1.143 1.762-1.666.904-1.762 1.428-.476 3.571.905 1.572 1.048 2.19.62 2.667-1.287 1.238-3.334 0-3.382-2.048 0-.476-.238-.905-.476-.905-.762 0-1.095 1.81-.571 3.143.333.953.285 1.524-.239 2.19-1 1.334-.904 1.858.381 2.43 1.334.618 3.381 4.428 3.381 6.38 0 1.095-.238 1.381-1.19 1.381-.857 0-1.381-.476-2.048-1.952-.476-1.048-1.476-2.381-2.238-2.953l-1.38-1.047-.62 1.285c-.333.81-.428 2.381-.238 4.239.381 3.142-.143 4.428-1.81 4.428-.666 0-1.38.905-2.285 2.762-1.333 2.714-1.333 2.81-.524 4.571 1.19 2.43.714 3.667-1.38 3.667-1.572 0-1.715.143-2.715 2.953-.81 2.19-1.238 5-1.572 10.38-.091 1.317-.198 2.79-.308 4.278l-.074.992c-.21 2.807-.425 5.548-.57 7.254-.476 4.62-.429 5.334.476 7.238 1.143 2.572 1.238 3.477.286 3.096-1.476-.524-1.333 1.428.238 3.19 1.762 2 1.762 3.62-.095 6.19-2 2.81-3.476 7.905-3.81 13.048-.238 3.905-.143 4.905.381 4.857.476 0 .429.19-.143.667-.666.476-1.142 3-2.095 10.857-.38 3.031-.713 5.678-1.003 8l-.107.857c-1.083 8.692-1.55 12.642-1.808 15.407l-.024.264q-.03.325-.056.632l-.02.244-.03.358c-.11 1.47-.503 5.064-.94 8.817l-.196 1.672-.197 1.654-1.095 8.619 1.143 1.524c.619.857.952 1.666.762 1.857-.19.19-.429.047-.572-.286-.333-.952-1-.714-1.285.429-.19.714.095 1.476.904 2.285 1.715 1.667 1.62 3.715-.238 5.81-1.952 2.238-2.333 3.38-2.762 8.143-.19 2.19-.571 4.904-.81 6.095a80 80 0 0 0-.952 6.524c-.285 2.38-.714 5.476-.952 6.857-.212 1.232-.766 5.304-1.322 9.481l-.101.76-.1.759-.097.781-.099.787a511 511 0 0 1-1.329 9.813c-.333 2.047-.285 3.286.096 4.143.476 1.047.428 1.523-.238 2.714-1.048 1.762-1.096 4.19-.096 5 1.048.857.953 1.429-.762 4.81-1.285 2.57-1.571 3.952-2.19 10.666-.429 4.286-.62 9.476-.476 11.62.285 3.38.19 4-.81 5.618-.81 1.286-1.047 2.286-.857 3.429.381 2.571 3.381 10.476 7.19 19.095 2.111 4.717 6.18 14.206 10.413 24.205l.499 1.178.75 1.773.25.591.618 1.466.25.594.5 1.186c4.156 9.867 8.08 19.294 10.054 24.197.714 1.715 1.667 3.096 2.857 3.953 2.048 1.524 3.905 5.047 2.905 5.619-.334.238-1.429.286-2.524.143s-1.905-.048-1.905.19c0 .667 4.572 7.238 5.667 8.095 1.143.953 1.047 2.572-.143 2.572-.571 0-1.095-.19-1.238-.429-.19-.238-.762-.571-1.286-.714-1.286-.333-1.333.619-.143 1.905 1.762 1.952 2.524 3.333 2.238 4.285-.333 1.286-1.238 1.19-3.047-.285-1.429-1.238-2.905-1.715-2.334-.81.143.286.048.62-.19.762-.905.572-1.952-.286-2.238-1.81-.19-.904-.667-1.618-1.286-1.761-1.286-.334-2.81-3.572-3.714-7.905-.315-1.482-.94-3.64-1.621-5.747l-.197-.6c-1.02-3.087-2.112-5.91-2.468-6.13-.428-.237-5 1.572-5 2 0 .43 1.238 3.048 2 4.239 2.429 3.714 4.334 14.19 2.715 14.81-1.43.57-2.096-.715-2.381-4.715-.143-2.762-.715-5-1.858-7.857-2.571-6.381-2-6.286-10.952-1.81l-7.714 3.858-.143 4.238c-.238 7.142-.62 10.142-1.429 10.619-1.095.619-.952 2.047.477 4.143 2.857 4.19.666 5.809-2.524 1.904l-1.905-2.333-.857 2.286c-1.095 2.762-1.429 11-.62 14.619.525 2.19.477 2.666-.38 4.047-.572.953-1.048 2.905-1.238 5.238-.096 1.365-.318 3.81-.568 6.304l-.085.831c-.099.97-.2 1.929-.3 2.818-.38 3.428-1.047 9.714-1.523 14a964 964 0 0 1-.574 5.556l-.125 1.178c-.295 2.745-.594 5.42-.825 7.266-.324 2.848-.5 8.043-.527 13.258l-.003 1.079c-.006 5.925.184 11.67.577 13.806.286 1.666.238 1.857-.666 1.857-.572 0-1.143-.286-1.286-.62-.095-.333-.238 0-.286.763-.047 1.38.62 1.81 1.238.81.19-.287.715-.43 1.143-.382 1.334.238 3.524-1.524 4.048-3.238a40 40 0 0 0 .81-3.81c.666-4.095 3.952-11.952 7.333-17.38 1.714-2.81 1.476-1.572-.667 3.333-.693 1.63-1.57 4.284-2.348 6.937l-.192.663-.168.591c-1.023 3.634-1.768 6.952-1.482 7.237.095.096.476-.047.857-.38a50 50 0 0 1 2.38-1.667c1.096-.714 2.81-2.905 4.763-6.095.637-1.06 1.318-2.163 2.01-3.263l.417-.66.418-.656c2.718-4.252 5.434-8.19 6.345-9.136 1.238-1.333 4.619-5.523 6.19-7.666.762-1.048 1.762-1.905 2.19-1.905.81 0 .763.095 0 .952-.428.477-.809 1.096-.809 1.286 0 .476-3.285 5.952-4.857 8.095-.619.857-1.143 1.667-1.143 1.857 0 .143-.523.858-1.19 1.524-.62.715-2.238 3.095-3.62 5.334-1.332 2.238-2.761 4.571-3.19 5.238-.38.666-.571 1.333-.428 1.476.428.428 6.81-3.524 8.667-5.286 1.809-1.762 2.57-1.857 1.476-.19-.81 1.19-.81 1.238.476 1.238 1.714 0 1.667.904-.048 1.285-2.428.477-8.476 3.715-10 5.381-1.333 1.381-2.666 4.096-2.619 5.429 0 .19.476.38 1.095.38 1.239 0 3.572-2.57 4.953-5.475.476-.953.857-1.429.905-1 .047 1.047-1.238 5.095-2.238 7-1.81 3.571 1.142 4.143 4.904.952 1.286-1.095 2.334-2.333 2.381-2.714 0-.81 9.667-10.714 10.476-10.714.667-.048.667 1.81 0 2.238-.285.142-.476.571-.476.904 0 .381.238.334.62-.19.904-1.048 3.856-3.095 3.856-2.572 0 .191-.285.715-.619 1.048-.476.524-.38.524.62 0 .666-.38 1.428-.952 1.618-1.286.572-.857 1.953-.238 1.762.762-.143 1.048 2.048.905 4.286-.285q3.93-2.001 4.857-.858c.429.524.048.858-1.952 1.715-1.334.619-3 1.619-3.62 2.285-.618.667-1.333 1.19-1.57 1.19-.858 0-5.382 2.239-5.382 2.668 0 .238-.19.285-.476.142-.238-.19-.762 0-1.095.381-.381.381-1.381.81-2.19 1.048-1.715.429-7.096 3.524-8.334 4.81a18 18 0 0 1-2 1.666c-.571.429-.905.953-.714 1.143.19.238.524.143.714-.143.19-.333 1.286-1.047 2.429-1.619 1.143-.571 2.38-1.476 2.762-1.952.38-.476 1.238-.905 1.904-1 3.858-.334 5-.762 5-1.905 0-.38.429-.714.953-.714s1.047-.238 1.143-.524c.095-.286 1.047-.524 2.142-.572 1.096 0 2.334-.285 2.715-.619.619-.476.619-.38 0 .715-.857 1.476-3.81 4.476-4.381 4.524-.238 0-.714.285-1.048.714-.333.38-1.285.81-2.19 1-5.572 1.047-9.81 3.714-9.81 6.19 0 .476-.38 1.334-.81 1.953-.428.619-.618 1.38-.428 1.666.238.381.476.334.81-.238.238-.476.666-.714.952-.524.238.143.333.524.143.81-.238.38.095.429.952.238.715-.19 1.429-.095 1.62.143.142.286.952-.286 1.809-1.238.857-.953 1.714-1.62 1.952-1.476.238.142.905.047 1.524-.286.571-.286 1.429-.429 1.857-.238.714.286.62.524-.666 1.619-1.048.857-1.286 1.333-.81 1.524.571.19.571.333.048.619-.524.333-.524.571-.096 1.095.334.38.429 1.19.286 1.81-.143.666-.048 1.095.286 1.095.286 0 .571-.381.571-.857 0-.858.048-.858.524 0 .286.476.762.857 1.048.857.285 0 .81.38 1.19.857.429.667.762.714 1.286.286.762-.62 4.857-.572 5.81.047.38.238 1 .143 1.428-.238.619-.524 1.048-.476 2.238.238.81.476 2.19.81 3.095.714 1.429-.142 1.62 0 1.62 1.19 0 .763.142 1.43.237 1.525 1.572.952 2.62 1.38 3 1.095.858-.476.524-1.286-.38-1-.477.143-1.191.048-1.62-.19-.619-.381-.619-.524.143-.81.476-.19.715-.524.572-.762s.143-.476.666-.476c.667 0 1.096.571 1.429 1.905.428 1.857 2.19 3 2.19 1.428 0-1.19 1-1.476 1.953-.571.762.666 1.285.714 3.095.286 1.905-.43 2.38-.381 3.571.476 1.715 1.238 1.858 1.238 4-.19 1.143-.81 2-1.048 2.429-.763.38.238 1.143.429 1.714.429.524 0 1.286.476 1.667 1.048.333.57.952.952 1.333.809s.762-.048.857.286c.381 1.143 1.905-.095 1.905-1.524 0-1.81 1.524-2.429 2.714-1.143.81.952 1 1.572.381 1.476-.952-.143-1.619.143-1.619.62 0 .333.429.476.953.333s1.238-.096 1.619.143c.333.238.905.19 1.285-.096.477-.38.667-.38.667 0 0 .334.572.572 1.238.572.715 0 1.19.19 1.048.428-.19.238.38.715 1.19 1.096.81.333 1.524.904 1.524 1.285s.286.857.714 1c.381.143.572.572.429 1-.333.857-1.143.905-1.143.048 0-1.381-2.762-3.381-4.667-3.381-1 .048-1.952-.19-2.095-.476-.19-.286-.904-.524-1.571-.524-.714 0-1.095.238-.953.524.19.285.905.524 1.572.524.905 0 1.19.19 1.047.666-.142.381.334 1 1.191 1.524.81.476 1.476 1.095 1.476 1.38 0 .334.333 1 .81 1.477.762.905.762 1-.143 1.667-.762.619-.81.81-.238 1.19.857.572.285 1.62-.715 1.238q-.714-.285-.714.715c0 1.619-1.143 2.238-2.476 1.285-1-.714-1.19-.714-2.048.096-.952.857-1.095.714-2.762-2.143-.333-.524-1.714.666-1.714 1.476s-.238.952-1.238.714c-.667-.19-1.38-.095-1.524.19-.143.239-.571.334-.904.239-.334-.143-1.286-.048-2.096.19l-1.524.381 1.762.905c.953.524 2.477 1.429 3.334 2.095 1.285.953 1.81 1.095 3.143.714.857-.285 2-1 2.476-1.619l.905-1.095 1.809 1.334c2.238 1.714 2.952 2.952 2.62 4.714-.096.762-.239 1.571-.239 1.81-.048.19-.333.333-.667.237-.333-.047-1.238.286-2 .81-1.143.714-1.523.762-2.143.286-.38-.334-.714-.953-.714-1.334 0-.571-.238-.571-1.38 0-1.191.62-7.525 1.62-12.906 2.096-.81.095-2.142.38-2.904.714-1.857.714-3.667.667-4.048-.095-.19-.477-.38-.477-.571-.048-.143.286-.715.429-1.286.286-.762-.19-.952-.048-.857.666.143.81-.19 1-2.048 1.048-1.238.048-2.762-.143-3.38-.429-.81-.38-1.477-.38-2.572.048-.81.381-2.572.62-3.905.62-2.238.047-9.428 1.047-11.143 1.618-.428.095-1.38.381-2.19.524-.762.19-1.238.524-1.048.81.19.333-.571.428-2.286.19-1.476-.19-3.714-.095-5.142.19-1.241.29-5.247.83-9.43 1.311l-1.143.13-.76.083-.728.087c-4.597.55-8.947 1.163-9.987 1.39-1.048.285-4.476.428-7.62.333-4.666-.143-5.666-.048-5.666.524 0 .666-.285.81-2.143.952-.333 0-.619-.286-.619-.667 0-.81-4-2.047-6.523-2.047-.81 0-2.762-.143-4.334-.286-2.666-.333-2.857-.238-3.714 1.048-.81 1.238-1.048 1.333-3.381 1-2.952-.381-3.571-.477-5.38-.953-.715-.238-2.239-.095-3.477.238-3.048.857-10.048 1.143-18.19.715-1.953-.143-6.572-.334-10.286-.524l-6.81-.334-.476 2.19-.429 2.144-2.761.047c-1.524.048-3.239-.095-3.81-.333-1.095-.38-3.524-3.952-2.667-3.952.238 0 .477-.238.477-.572 0-.38-.19-.38-.62-.095-.333.286-2.142.524-4.047.619-1.857.048-3.81.333-4.333.667-.81.524-1.143.428-2-.524-1.286-1.333-2.81-1.429-3.143-.143-.19.762-1.048 1-6.19 1.476-3.239.334-7.953.81-10.43 1.048-1.591.184-4.344.387-7.157.547l-.939.051c-1.25.067-2.488.123-3.618.164-11.333.428-16.523.81-16.762 1.285-.142.239-.952.19-1.761 0-.81-.238-2.334-.38-3.334-.285-3.476.285-13.904.285-15.524-.048-1-.19-1.952-.047-2.38.286-.43.38-1.143.476-1.858.238-2.047-.714-2.619-.714-3.81-.095-.856.428-1.237.428-1.713-.048-.858-.857-4.19-.714-4.572.19-.143.382-.619.715-1.047.715-.429 0-.762-.333-.762-.714 0-.572-.62-.762-2.429-.762-1.714 0-2.571.238-2.762.762-.333.904-1.476.952-2.19.095-.286-.334-1.381-.572-2.429-.524-1.095.048-2.905.095-4.048.143-2.047 0-2.095.047-1.619 1.286.858 2.285.667 2.571-1.81 2.476-2.475-.095-3-.429-3.285-2-.19-.857-.571-.953-3.095-.857-1.571.047-3.952.428-5.19.904-1.953.62-2.762.667-4.762.19-3-.713-5.858-.38-7.572.858-2 1.429-1.666 3.667.381 2.571 2.857-1.571 4.905-.523 4.381 2.143-.571 2.715-1.428 2.857-14.048 2.905-11.428 0-16.857-.333-20-1.38-2.428-.763-2.523-.763-2.523.666 0 1.762-1.334 1.619-1.762-.19-.286-1.477-1.286-2.048-3.572-2.048-1 0-1.095.19-.81 1.762.239 1.619.191 1.761-1.094 1.714-1.096 0-1.286-.143-1-.857.19-.476.476-1.429.619-2.096.238-1.047.143-1.142-.953-.857-.619.19-1.714.334-2.333.334-.714 0-2.048 1-3.714 2.81-1.477 1.523-3.667 3.332-4.953 4-7.19 3.618-23.143 6-35.047 5.142-11-.762-16.096-1.81-19.667-4.19-1.762-1.143-1.619-3 .286-3.762 1.571-.667 2-1.524.762-1.477-.667 0-1.953-1.666-1.524-2.095.095-.095.333-1.428.524-2.952.19-1.62.714-3.143 1.285-3.762.62-.667.953-1.762.953-3.19 0-1.381.333-2.572.857-3.143 1.238-1.381.428-1.667-5.381-2.048-5.762-.381-10.476-.095-16.476 1-5.334 1-18.667 1.048-22.19.095-2.382-.666-2.905-1.143-3.524-3.095-.239-.762-.62-.857-2.429-.62-1.143.191-2.762.096-3.62-.142-1.047-.286-1.951-.19-3.094.333-1.334.62-1.762.667-2.286.19-.476-.523-.381-1.047.571-2.666 1.524-2.666 1-3.047-4-2.619-3.761.286-3.904.286-5.142-1.047-1.477-1.62-1.334-2.048.714-2.524.81-.19 1.619-.572 1.81-.857.428-.715-1.524-2.143-3.953-2.858-1.095-.333-1.857-.714-1.714-.809.428-.476 5.524.81 6.81 1.762.761.524 2.38 1.143 3.523 1.333 1.952.286 2.095.238 1.857-.619-.143-.524-.38-1.81-.571-2.905s-.667-2.619-1.048-3.38c-1.143-2.143.095-1.667 1.524.57 1.38 2.191 3 3.334 3.524 2.525a1.22 1.22 0 0 0 0-1c-.19-.286.476-1.762 1.476-3.286 1.428-2.143 2.095-2.714 3.143-2.762 1.333 0 3.857-.857 2.857-.905-.572-.047-1.857-2.619-1.476-2.952.143-.143.238 0 .238.333 0 .62 3.571 2.572 4.762 2.572.619 0 .762-.429.666-1.857-.238-2.524-1.428-3.048-8.333-3.477-5.143-.285-6.333-.19-12.952 1.143-2.19.429-1.096-.619 2.143-2 3.238-1.428 3.333-1.428 11-1.19 8.095.238 8.428.143 7-1.905-.429-.62-.524-1.286-.286-1.714.619-1-.19-2.238-4.81-7.238-6.904-7.429-5.047-7 2.762.619 12.143 11.857 12.857 12.238 10.714 5.38-.428-1.38-1.095-2.857-1.476-3.285-.952-1.095-.857-1.62.19-1.048.525.286 1.191 1.62 1.572 3 1.048 4.096 5.572 9.62 5.524 6.857 0-.428-1.238-2.571-2.762-4.81-1.524-2.237-2.667-4.19-2.571-4.285s1.714 1.714 3.571 4.048 3.81 4.524 4.381 4.81c1 .523 1.048.476.714-2.096-.666-5.143-2.904-13.238-5.143-18.428-1.19-2.858-2.095-5.572-2-6 .166-.704 2.524 3.913 4.64 9.01l.237.578.119.29.233.582q.174.437.343.873c1.048 2.714 1.667 3.619 2.333 3.619.524 0 .953-.238.953-.62 0-.088.017-.336.046-.706l.024-.3c.088-1.073.247-2.85.406-4.755.666-7.19 1.428-8.19 1.476-1.857 0 2.762.286 5.905.571 7 .286 1.095.524 2.857.477 3.905 0 1.047.19 1.857.476 1.857.333 0 .524-.524.476-1.143-.095-.62 0-1.429.143-1.857.19-.429.428-2.048.571-3.62.19-2.333.096-2.952-.619-3.38-.714-.476-.714-.524.19-.381.858.143 1 .619 1.239 4.524.238 3.761.38 4.428 1.38 5.142 1.334.905 1.477 1.62.286 1.524-1.333-.095-1.333 1.048.048 1.953 1.048.714 1.429.762 2.048.238.523-.476.619-.81.238-1.19-.905-.906-.524-1.43.714-1.096 1.857.429 2.048-.571.524-3.286-1.714-3.19-1.286-3.666.714-.762 1.381 2.048 3 3.286 3.095 2.429.238-2.19.62-3.476 1.238-4.095.62-.62.715-.476.715 1.19 0 1.905 1.095 3.62 2 3.048.666-.381.619-1.762-.048-1.762-.333 0-.428-.524-.19-1.476.238-1.143.095-1.572-.477-1.81-.428-.143-.761-.524-.761-.81 0-1.19-2.905-4.142-7.905-8.142-2.953-2.334-5.62-4.238-6-4.238-.333 0-.62-.381-.62-.81 0-.571.239-.714.858-.428l.143.056.358.136c.529.199 1.244.457 1.832.665 4.143 1.476 13.572 7.905 16.857 11.524 1.286 1.333 1.62 1 .572-.524-.524-.762-1.81-3.334-2.857-5.715-2-4.57-6.524-12-10.19-16.619-1.239-1.571-2.048-2.952-1.858-3.19.514-.486 3.6 3.091 6.645 7.296l.405.564c1.889 2.647 3.717 5.477 4.855 7.664.952 1.857 1.81 3.285 1.952 3.143.095-.096.19.38.238 1.095.048.667.429 1.619.905 2.047.714.762.81.715.81-.238 0-.571-.381-1.857-.762-2.857-.81-1.952-1.048-4.81-.334-4.047.572.571 3.048 6.523 3.429 8.142.143.667.619 1.334 1.095 1.477 1.286.523 3.81 3.428 3.667 4.238-.095.38.19 1 .619 1.38.428.334.762.953.762 1.334 0 1.429.857.62.905-.857 0-1.095-.143-1.476-.62-1.286-.714.238-.761-.857-.142-1.524 1-.952-.572-9.428-3.953-21.333-1.238-4.38-2.143-8.048-2-8.19.368-.368 2.238 2.72 3.929 6.162l.265.546.131.274.258.55c.68 1.465 1.29 2.92 1.703 4.134 1.286 3.905 2.857 10.334 3.238 13.572s1.19 5.428 1.714 4.81c.715-.81 4.096-11.858 4.286-13.953l.038-.436a86 86 0 0 1 .169-1.803l.022-.175q.004-.036.01-.062c.047-.238.285-.19.618.095.381.38.572 3.619.62 9.571.047 4.953.19 8.857.38 8.667s2.62-3.143 5.381-6.62c3.857-4.809 5.048-6.57 5.048-7.761 0-1.048.524-2 1.714-3.19.952-.905 2-2.286 2.286-3.048.524-1.238.428-1.714-.476-3.238-1-1.572-1.048-1.953-.477-3.381.334-.905 1.238-2.476 2.048-3.572 1.619-2.285 1.714-3.666.571-8.095-.857-3.047-.857-3.285.048-4.762.81-1.38.857-2.047.333-8.619-.523-6.524-.238-19.476.667-35.047l.286-4-.953 3c-.476 1.619-1.19 4.095-1.523 5.476-.953 4-2.715 7.476-4.953 9.524-1.143 1.047-2.047 2.285-2.047 2.81-.048.475-.477 1.142-1.096 1.475-.571.286-1.714 1.334-2.523 2.238-.858.953-1.715 1.715-1.953 1.715-.905 0-.428-1.334.857-2.524 1.762-1.667 2.715-3.667 2.667-5.62-.048-.856.095-2.094.286-2.713.238-.715.143-1.143-.19-1.143-.334 0-.572.524-.572 1.143-.048 1.142-7.095 9.857-8 9.857-.762 0 .762-3.286 3.047-6.667 2.429-3.571 3.905-6.667 3.953-8.19 0-1.572-.715-1.429-2.334.333-.714.857-1.571 1.524-1.904 1.524-.334 0-1.477.81-2.524 1.81-3.095 2.809-5.714 4.809-5.714 4.333-.048-.238.666-1.524 1.476-2.81s1.476-2.571 1.524-2.857c0-.238.19-.476.476-.476.285 0 .524-.238.524-.476 0-.286-1.524.619-3.334 2-1.81 1.38-3.524 2.428-3.857 2.333-1.19-.381-.81-1.381 1.048-2.714.355-.257.721-.53 1.087-.809l.366-.282.356-.278.352-.28.356-.286c2.054-1.665 3.702-3.209 3.054-2.97-1.476.571-1.524-1.143-.047-2.095 2.095-1.286 4.095-3.238 3.809-3.715-.429-.714-4.38 1.905-5.238 3.429-.762 1.333-3.667 3.619-4.571 3.619-.858 0-.334-1.095 1.619-3.19 2.238-2.43 2-3.096-.905-2.334-2.714.762-5.095.714-5.095-.143 0-.81 1.476-1.285 4.142-1.285 3.286-.048 6.239-1.048 7.572-2.62 1.38-1.618 1.619-2.904.619-2.904-.381 0-.905-.238-1.238-.572-.714-.714.095-2.428 1.095-2.428.762 0 2.048-1.381 1.667-1.81-.143-.143-1.429.334-2.857 1.048-1.477.714-2.715 1.238-2.858 1.095-.142-.143 1.667-2.095 4-4.428 2.572-2.477 4.381-4.762 4.62-5.62.19-.809.952-1.952 1.666-2.57.714-.62 1.143-1.287.953-1.477-.239-.238-1.286.428-2.381 1.428-1.143 1-2.524 1.81-3.096 1.81-.857 0-.523-.476 1.762-2.714 1.524-1.524 2.81-2.953 2.81-3.19 0-.763-1.429-1.667-5.381-3.382-2.143-.952-3.905-1.666-3.905-1.714-.095 0-.714 6.429-1.048 10.762-.142 2.333-.476 3.19-1.285 3.857-.905.667-1.19 1.667-1.62 5.238-.428 3.572-.714 4.429-1.428 4.572-.81.142-.857-.143-.619-3.62.143-2.238.048-3.761-.238-3.809-.238 0-.571.619-.762 1.38-.476 2.382-1.429 3.906-2.619 4.049-1.429.238-1.429-.62.143-4.477.714-1.714 1.143-3.19 1-3.333-.476-.476-1.762 1.095-3.048 3.714-.714 1.477-1.524 2.572-1.762 2.381-.81-.476.048-3.143 2.477-7.762 2.095-4.047 2.19-4.38 1.428-5.19-1.095-1.048-1.048-3 .095-4.667.477-.714 1.19-2.666 1.524-4.285.572-2.477.572-3.048-.047-3.524a845 845 0 0 1-5.477-4.143c-2.619-1.953-7.619-6.429-11.095-9.952-3.524-3.477-6.476-6.191-6.619-6.048s-.048 2.38.238 4.952c.381 3.381.381 4.715-.047 5-.81.476-.143 7.143.81 8.524 1.237 1.762 1 2.381-.953 2.381-2 0-2.429-.524-2.572-3.238-.047-1.095-.238-2.905-.38-4-.144-1.095-.286-2.667-.286-3.476-.048-1.667-.762-3.19-1.286-2.667-.572.572-2.19 11.095-1.905 12.524.143.762.048 1.714-.286 2.095-.523.572-.81.572-2.047-.048-1.19-.57-1.524-1.095-1.572-2.333-.047-1.524-.047-1.524-.476.429-.286 1.095-.38 2.952-.238 4.143.095 1.19.095 2.523-.095 2.952-.238.667-.476.571-1.333-.524-1-1.238-1.096-1.286-2.524-.524-1.381.667-1.524.667-2.143-.143-.333-.476-.62-1.19-.62-1.619 0-.428-.237-1.095-.475-1.476-.334-.619-.667-.524-1.81.334-1.476 1.19-3.238 1.428-3.19.476 0-.334.571-1.62 1.238-2.81 1.476-2.571 1.476-2.571.428-2.571-.666 0-.714-.429-.428-3.095.304-2.605.29-2.994-.363-2.753l-.135.054-.074.032c-1.285.571-3.714.952-3.714.571 0-.142 1.048-2.238 2.333-4.666 2.238-4.381 3.857-8.62 3.429-9.096-.476-.428-1.714 1.715-1.714 2.953-.048 1.476-.953 2.905-3.905 5.952-1.19 1.238-2.143 2.524-2.095 2.905 0 .952-2.048 1.619-3.143 1.048-.81-.381-.81-.572-.143-1.905.857-1.62 1-3 .333-3-.238 0-1 .667-1.714 1.476-.81.905-1.62 1.381-2.095 1.19-1.048-.38-1-.476 1-2.809.952-1.095 1.714-2.286 1.714-2.571 0-.381-.095-.381-.38-.048-.763 1.095-3.096 1.81-4.144 1.238-1.38-.762-1.19-1.333.762-2.238 2.095-1 4.381-5.238 2.81-5.238-.81 0 0-1.381.952-1.62.667-.19 1-.952 1.238-2.952.179-1.369.492-3.017.865-4.668l.152-.66c.8-3.403 1.81-6.662 2.364-7.338.905-1.048.238-2.19-2.476-4.095-4.286-3-4.572-3.048-6.476-.286-.857 1.286-1.953 3.666-2.334 5.286-.904 3.333-2.095 5.476-4.285 7.571-1.238 1.19-1.905 1.429-3.572 1.333-1.143-.047-2.333.143-2.714.429-1.048.857-3.667.762-4.381-.19-.429-.572-1.19-.81-2.62-.715-1.666.143-2 0-2-.81 0-.714.525-1.095 1.763-1.428 2.095-.524 3-1.19 3-2.286.047-.476.571-1.952 1.238-3.333 1.286-2.524 1.571-3.762.905-3.714-.81 0-1.524.762-1.81 1.952-.476 1.905-3.333 4-4.714 3.476-1.667-.619-1.381-1.285 1.095-2.38 2.286-1 4-3.096 2.572-3.096-.381 0-.858.238-1 .476-.381.62-2.62.953-3.381.524-.429-.333-.477-.762-.143-1.762.619-1.762 1.714-2.143 2.095-.762.429 1.762 1.762 1.19 3.952-1.666 2.143-2.762 7.81-7.762 8.81-7.762.714-.048 1.857-1.572 1.857-2.572 0-.428 1.333-2.285 2.905-4.047 1.571-1.81 4.571-5.953 6.619-9.19 9.047-14.239 17.428-24.62 31.524-38.953l11.285-11.524 9.476-14.143c1.22-1.817 2.33-3.477 3.343-4.998l.543-.817c6.319-9.502 8.71-13.412 10.434-17.09l.144-.31.141-.31a60 60 0 0 0 .681-1.57c2.572-6.095 8.095-25.095 15.381-52.762 4.81-18.286 9.238-32.524 15.667-50 5.619-15.38 6.238-17.524 8.666-30.81 2.381-13.19 6.381-29.952 10.762-44.952.297-1.018.596-2.052.894-3.092l.384-1.338.128-.446.38-1.338.249-.874.246-.87.243-.863c2.14-7.603 3.963-14.39 4.238-15.94.19-.953 0-2.143-.524-3.096-2.81-5.476-6.619-29.285-6.142-38.285l.285-4.953-1.524 1.953c-.753.92-3.234 3.532-5.796 6.091l-.531.528-.53.523c-2.952 2.905-6.952 7.429-8.952 10.096-5.19 6.952-9.857 10.857-14.476 12-1.143.285-3.81 1.619-5.953 3-3.333 2.095-4.238 2.428-6.666 2.523-1.524 0-3.857.096-5.238.143-2.62.048-5 1.048-7.477 3.096-.761.666-2.571 1.81-4 2.523-1.38.667-2.857 1.524-3.238 1.81s-1.428.571-2.333.619-2.286.476-3.048 1c-1.047.667-2.142.905-4.142.81-2-.143-3.477.142-5.286.904-3.857 1.714-8 4.524-9.19 6.286-.62.905-2.048 2.571-3.143 3.714-2.286 2.334-2.81 2.334-6.905.334-3.095-1.477-6.524-6.477-6.476-9.572 0-1.524-.334-2.38-1.048-3.048-.857-.761-1-1.285-.762-2.714.714-4 .143-6-1.81-6-1.142 0-1.57-.952-1.618-3.714 0-1.381-.239-2-.667-1.905-.381.095-1.143-.095-1.714-.428-.905-.477-.953-.81-.667-2.62.524-2.952.428-5.285-.238-6.095-.572-.666-.524-1.666.286-6.285.19-1.238.047-2.334-.572-3.477-4.333-8.38-5.81-21.095-3.286-28.19 1.81-4.952 1.143-7-2-6.667-2.714.286-1.333-4.38 2.62-8.904 2-2.334 2.952-4.096 2.952-5.477 0-1.571-1.048-.904-4.143 2.667-1.62 1.857-2.143 2-2.62.524-.285-.905.191-1.572 2.43-3.667 2.523-2.333 3.285-3.286 2.619-3.286-.096 0-1.19.905-2.381 2-1.19 1.048-2.334 1.81-2.524 1.715-.62-.381-.429-2.381.285-3.476.381-.524.858-2.19 1.096-3.715.19-1.524.571-3.047.857-3.38.286-.334.333-.62.143-.62-.143 0 .047-.524.476-1.095.428-.619.762-1.762.762-2.571 0-1.286-.095-1.381-.81-.762-.476.38-1.619 1.857-2.524 3.285-1.523 2.381-3.142 3.477-3.142 2.096 0-.715 1.19-2.953 3-5.667 1.047-1.524 1.428-2.619 1.238-3.286-.476-1.524 1.095-5.714 3.095-8.38 1.905-2.524.81-1.81-2.143 1.38-1.428 1.524-1.667 1.62-2 .857-.238-.571.286-1.904 1.476-3.81 1-1.618 1.81-3.19 1.81-3.475 0-.334.762-1.048 1.714-1.715 1.572-1 3.095-3.19 2.62-3.714-.144-.095-.953.667-1.906 1.762-2.714 3.143-4.238 1.238-1.666-2.095.666-.905 1.238-1.905 1.238-2.19 0-.334.428-.81 1-1.096 1.238-.714 3.428-3.571 3.619-4.81.095-.523.333-1.237.524-1.57.285-.382-.096-.382-1 .142-2.381 1.238-2.81 1-2.429-1.429l.322-1.937.142-.868c.093-.574.181-1.125.25-1.575.19-1.239.905-3 1.524-3.905 1.19-1.667 5.81-5.095 6.905-5.095.857 0 2.143-2 2.143-3.334 0-2-1.429-1.952-3.429.095-1.095 1.19-1.857 1.667-2 1.286-.238-.81 1.476-3.095 3-3.952 1.095-.572.953-.62-1.285-.429-2.096.238-2.762.572-4.191 2.095-.905 1-1.571 2.143-1.429 2.524.191.381.096.857-.19 1-1.286.81-1.571-4.666-.333-6.19.904-1.095 4-2.476 8.047-3.476 6.572-1.715 8.572-4 3.19-3.667-2.38.143-2.856 0-3.333-.857-1.19-2.19-.81-2.476 2.953-2.19 2.905.19 3.524.142 3.524-.525 0-.857-1.048-1.38-2.81-1.38-1.714 0-1.524-.62.429-1.381 2.333-.953 4.047-1.953 4.238-2.477.285-.857-8.334-12.904-13.334-18.619-1.666-1.904-2.142-2.952-3-6.666-.714-3.238-1.333-4.905-2.38-6.096-.616-.73-2.163-2.486-3.714-4.264l-.443-.507-.653-.752c-1.857-2.143-3.381-4.238-3.381-4.667s-1.143-2.952-2.571-5.571c-3.858-7.19-7.334-13.524-8.667-15.715-1.952-3.238.143-4.38 3.667-2 1 .667 2.095 1.238 2.428 1.238s1.238.286 2 .62c.762.285 1.667.57 2 .619.333 0 1.19.666 1.905 1.428.714.81 1.428 1.333 1.524 1.238.21-.21.713-2.811 1.12-5.432l.091-.604c.285-1.907.503-3.727.503-4.535l.048-1.953 2.333.334c3.286.476 5.714 1.762 6.714 3.524 1.143 2.047 1.572 6.476.857 8.523-.476 1.334-.428 2.477.286 6.048.952 4.857 3.095 10.667 3.905 10.667.286 0 .238-.334-.143-.762-.476-.572-.476-.905-.048-1.334.477-.476.667-.38.905.477.143.619.524.952.905.81 1-.382 2.095-3.43 3.81-10.668.17-.742.352-1.512.535-2.281l.185-.768c.677-2.808 1.359-5.49 1.708-6.712l.857-3 2.953.095c6.19.238 6.809 1.38 5.523 10.285-.952 6.667-1.143 15.81-.38 17.286.333.572.57 1.62.57 2.333 0 1.953.667 2.905 4 5.667l3.048 2.572 9.858-9.81c5.428-5.38 10.714-10.333 11.809-11.048 1.952-1.238 2-1.238 3.62-.333 2.237 1.19 2.57 2.762 1.237 5.381-2 3.952-3.428 6.286-4.762 7.905-2.285 2.762-6.714 9.524-7.857 11.905-.571 1.238-1.333 2.619-1.762 3.095-.666.714-.476 1.19 1.762 4.524 3.095 4.714 4.62 7.619 6.429 12.38 1.428 3.762 2.714 4.905 3.047 2.667.048-.571.477-1.333.905-1.714 1.095-.905 2.714 1.286 2.333 3.19-.19.953-.047 1.477.524 1.667.429.19.667.524.524.762s.238.667.905.905c2.428.904 3.047 3.047.905 3.047-1.572 0-1.572.715-.096 3.096.81 1.238 1.715 3.095 2.048 4.19.573 1.764 1.447 4.183 2.413 6.725l.308.806.155.405.315.811.158.406.317.809c1.749 4.432 3.51 8.562 4.191 9.61.381.619.952 1.142 1.286 1.142.485 0 3.472-1.988 9.951-6.605l1.442-1.03q1.122-.802 2.369-1.698c3.762-2.714 4.238-3.19 3.952-4.19-.143-.572.333-1.381 1.238-2.19 1.762-1.572 1.81-2.239.238-1.906-1.333.238-1.952-.333-1.333-1.333.286-.476.667-.524 1.38-.095 1.287.666 2.668-.667 2.668-2.572 0-.714.19-1.476.476-1.619.81-.524.571-2.285-.524-4-.905-1.476-.905-1.666-.19-1.952.476-.19 1.523 0 2.333.428.857.429 1.571.762 1.666.762.096 0 .381-.857.715-1.857 1.143-3.81 3.333-6.714 5.619-7.428.857-.286.905-.62.619-2.667-.286-2.19-.19-2.476 1-3.238.714-.476 1.476-.714 1.714-.572s1.143-.142 2.048-.619c1.524-.857 1.571-.857 2.571.524 1.238 1.667 2.048 1.715 3.048.238.619-.952.857-1.047 1.571-.428.429.38.81.952.81 1.333 0 1.429 1.714 1.667 4.047.572 1.19-.572 3.572-1.143 5.19-1.334 2.81-.238 3-.38 3-1.524 0-1.047-.57-1.523-3.475-3-1.905-.952-3.524-2.047-3.667-2.38-.238-.81 1.143-.81 1.857.047.286.381 1.429.952 2.524 1.333 1.714.572 2.143.524 3.238-.19 1.762-1.143 1.667-2.952-.19-4.286-.81-.571-1.62-1.476-1.762-2-.334-1.047-1.905-.905-3.334.334-.476.38-.952.523-1.095.285-.476-.81.381-1.476 2.429-1.952 1.857-.429 2-.62 2.523-2.953.477-2 1.715-5.19 3.096-7.857.095-.19-.81-.81-1.953-1.428-8.524-4.334-13.857-10.143-15.714-17.143-1-3.667-.905-5.714.571-10.429 2.334-7.38 7.238-13.428 15.62-19.333 7.523-5.286 15.38-9.048 24.857-11.81 2.476-.714 6.047-1.857 8-2.476 1.904-.666 4.285-1.38 5.238-1.619l1.762-.428.047-6.238c.048-3.905.333-7.143.81-8.715.619-2.095.619-2.904.143-4.762-1.239-4.333-1.858-9.809-1.667-14.285.143-3.857.428-5.19 2.38-9.953 1.191-3.047 2.525-5.904 2.906-6.333.904-1.095 10-6.19 16.619-9.38 5.952-2.858 9.428-3.858 15.523-4.477 6.096-.62 6.62-.62 9.572 0M150.98 911.47c.238 0 .047.857-.524 1.905-1.286 2.38-1.238 2.619.285 2.619.953 0 1.43-.381 1.905-1.524.334-.81.762-1.333.953-1.19.428.428-1.048 3.285-2.096 4.047-.666.476-.666.667-.047 1.429.666.761.762.761 1.285 0 .381-.524.715-.62.953-.286.81 1.333 2.571.428 4.714-2.524 1.19-1.667 2.286-2.857 2.429-2.714s-.381 1.143-1.19 2.285a44 44 0 0 0-1.953 2.905c-1.095 1.953-4.095 4.048-5.81 4.095-.904 0-2.523.239-3.571.524-1.143.286-2.19.334-2.667.048s-1.571-.286-2.619-.048c-2.333.572-4.81-.333-4.285-1.476.238-.476.333-1.476.333-2.286-.048-.81.19-1.666.476-1.857.952-.571 1.429.048.81 1.048-.477.714-.429 1.143.047 1.714.953 1.143 1.334 1 2.524-.857 1.238-2.048 1.286-3.429.238-5.095-.762-1.143-.762-1.238 0-1.524.476-.19 1.238.048 1.714.476 1.143 1 2.286 1.048 3.096.048.333-.381 1-.762 1.523-.762.524 0 .953-.19.953-.476s.238-.524.524-.524m139.714 9.619c.666 1 .666 1.143 0 1.524-.429.238-1.715.38-2.857.285-1.715-.142-2.143-.333-2.143-1.142 0-.62.476-1.096 1.285-1.334 2.143-.571 2.905-.476 3.715.667m-157.762-3.62c.762 1.81.38 3.144-.762 2.715-1.143-.476-1.81-2.524-1.19-3.714.666-1.238 1.142-.953 1.952 1m135.524 1.525c.285 0 .523.238.523.476a.53.53 0 0 1-.523.524c-.286 0-.477-.238-.477-.524 0-.238.191-.476.477-.476m317-23.048c0-.286.237-.38.523-.19.238.142.476.523.476.81 0 .285-.238.332-.476.19-.286-.19-.524-.524-.524-.81m-44.763-14.476c-.142 0-.238.238-.238.524 0 .285.238.476.524.476s.381-.19.238-.476c-.19-.286-.428-.524-.524-.524m13.286-1.476c0 .81.334.952 2.429.904 2.047-.047 2.38-.19 2.19-.952-.143-.476-.714-1-1.333-1.143-2.048-.571-3.286-.095-3.286 1.19m30.905-.524c.286 0 .667.238.81.524.19.285.095.476-.191.476s-.62-.19-.81-.476c-.142-.286-.095-.524.19-.524m-12.19-1.952s-.286.19-.62.38c-.38.239-.523.81-.333 1.239.476 1.285 1.095 1.047 1.048-.381-.048-.715-.096-1.238-.096-1.238m-39.524.952c-.905 0-.715 1.095.19 1.428.333.096.62-.19.62-.619a.834.834 0 0 0-.81-.81m.857-.857c.143.714.524 1.095 1.047 1.047.477-.047.905.143.905.381s.19.429.476.429.19-.524-.285-1.19c-1.096-1.715-2.334-2.096-2.143-.667m6.38.38c1.048 1.286 1.62 1.62 2.048 1.191.381-.333.381-.905.048-1.81-.286-.714-1.143-1.476-2-1.809-2.048-.667-2.048.143-.095 2.429m3.048-3.237.286 1.476c.572 2.762.476 2.714 2.762 2.047 2.095-.619 3.286-1.81 1.81-1.81-.429 0-.858-.237-1-.618-.19-.429-.477-.286-1 .38-.762 1-.762.953-1.81-.237zm-414.094 2.238c-.667 0-.239 1.143.523 1.38.334.144.477-.095.286-.57-.19-.477-.524-.81-.81-.81m-6.239-.238c.191.428.334.904.334 1.047 0 .095.333.19.762.19.38 0 .762-.19.762-.38s-.524-.667-1.096-1.048c-.952-.571-1.047-.571-.762.19m406.381-.286c-.286 0-.619.238-.81.524-.142.285-.095.476.191.476s.667-.19.81-.476c.19-.286.095-.524-.191-.524m27.476-.524c0 .524.143.62.524.19.333-.285.476-.809.38-1.142-.237-.715-.904-.048-.904.952m-31-3.714c-.619.762-.285 2.762.476 2.762.524 0 2-1.429 2-1.953 0-.19-.285-.619-.619-.952-.762-.762-1.142-.762-1.857.143m48.476 1.857c-.666 0-.952.095-.619.238.334.143.905.143 1.238 0 .334-.143.048-.238-.619-.238m-452.761-1.62c-.143 0-.238.239-.238.525 0 .285.238.476.524.476.285 0 .38-.19.238-.476-.19-.286-.429-.524-.524-.524m40.714-1c-.286 0-.38.239-.19.525.143.285.38.476.523.476.096 0 .239-.19.239-.476s-.286-.524-.572-.524m110.667-1.142c-2.096.905 1.047 2.143 5.38 2.143 3.382 0 4.62-.524 3.62-1.572-.572-.523-8-1.047-9-.571m78.877-99.476-.474.175c-2.622.997-6.501 3.224-6.594 3.873 0 .19-.143 1.142-.238 2.095-.095.952-1.095 3.571-2.19 5.762-1.096 2.19-1.953 4.333-1.905 4.714.143 1.857-.143 2.571-.953 2.476-.476-.047-1.714-.047-2.714 0-1.762.048-1.81.095-2.047 2.19-.143 1.191.095 2.905.523 4 .572 1.477.62 2.191.143 3.143-.285.715-.524 1.81-.524 2.477s-.19 1.238-.428 1.238c-.905 0-1.476-1.238-1.238-2.667.19-1.38 0-1.81-1.762-3.19-1.953-1.572-2-1.572-2.286-.524-.143.619.095 1.619.524 2.333.762 1.143.714 1.286-.143 1.905-.524.428-1.524.571-2.286.428s-1.476-.047-1.666.239c-.381.619-3.762-.762-4.62-1.905-.57-.762-.714-.714-1.38.286-.429.619-1.238 1.095-1.715 1.095-1.142 0-1.904-1.953-1.047-2.476.333-.239.524-.81.38-1.334-.237-.857-.285-.81-.618.19-.572 1.763-1.762 1.144-2.667-1.333-.81-2.142-2.048-3.333-2.048-1.952 0 .429.239 2.048.524 3.62.572 3.237.19 4.19-1.285 3.094-.858-.619-1.096-2.143-2-11.38-.88-9.094-1.023-10.443-1.79-10.766l-.072-.027a2 2 0 0 0-.281-.065c-1.048-.143-1.096.048-1.096 2.667 0 1.714.286 3.286.762 4 .524.81.857 2.762 1 6 .096 2.619.381 5.143.62 5.571.761 1.381.095 3.19-1.143 3.19-1.286 0-2.239-1.761-2.239-4 0-.904-.428-1.714-1.095-2.19-2.571-1.81-4.905-7.857-4.905-12.904 0-2.81-.19-3.381-.952-3.62-3.143-1-4 3.286-1.81 9.334.81 2.19.81 2.476.048 3.619-.476.762-.81 2.286-.81 4v2.762h-1.904c-1.048 0-2.048-.143-2.19-.286-.143-.143-.096-1.095.095-2.095.619-2.857.904-9.62.428-9.62-.238 0-.428 1.048-.428 2.286 0 2.715-.715 4.286-1.762 3.905-.572-.238-.762-1.81-.857-8.095l-.143-7.857-2.476-.572c-4.239-.952-4.239-.952-3.572 1.286.333 1.095.762 2.143.953 2.334.714.714.333 2.19-.715 2.761-.81.429-.952.858-.762 2 .238 1.19.143 1.429-.619 1.429-.81 0-.952.333-.762 1.762.19 1.667 1.667 4.667 3.143 6.38.667.81.62.858-.333.858-1.429 0-1.381.667.143 2.905 1.143 1.666 1.619 3.095 1.047 3.095-.762 0-3.81-2.238-4.523-3.238-.429-.667-1-1.238-1.286-1.238-.905 0-.476 2.428.714 3.857 1.524 1.81 2.333 3.38 2.286 4.476 0 .667-.572.333-2.095-1.333-1.19-1.286-2.429-2.715-2.762-3.286-.476-.81-.524-.619-.286 1.286.429 3.38 1.429 7.524 2.38 9.619.43 1.047.715 1.857.62 1.857s-1.048-.667-2.143-1.524c-1.81-1.428-1.952-1.476-2.095-.524-.143 1.048 1.524 4.762 2.38 5.334.287.143.525.762.525 1.285 0 .81-.238.953-1.096.667-1.571-.476-2.285-1.333-3.428-3.952-1.381-3.334-2.238-2.762-2.238 1.523 0 1.905.19 4.429.428 5.62.381 1.952.334 2.19-.476 2-.619-.096-1-.762-1.238-2.048-.38-2.286-1.952-5.333-2.81-5.381-.619 0-1.619 3-1.619 4.905 0 .619-.285 1.095-.571 1.095-.38 0-.476-1.095-.238-3.62.38-4.237-.143-5.57-1.381-3.618-.476.667-1.095 1.238-1.333 1.238-.715 0-.62-2.333.19-3.905 1.095-2.047 1.476-5.619.81-7.333-.572-1.333-.667-1.381-1-.476-.19.523-.238 1.285-.143 1.619.143.333-.095.619-.572.619-.476 0-.762-.429-.762-1.19 0-1.239-2.952-8.334-3.476-8.286-.143 0-2.047 5.19-4.19 11.619-.334.992-.682 2.011-1.037 3.035l-.306.878-.158.451-.317.9c-1.695 4.789-3.407 9.322-4.277 11.307-2 4.667-2.143 5.095-1.477 6.381.905 1.667.905 4.667.096 5.38-.334.334-1.096.858-1.62 1.239-.952.667-.952.81-.285 2.381.38.905.714 2.714.667 4-.048 2.048-.286 2.619-1.858 4.095-2.142 2-2.142 2.62 0 7.81 1.715 4.143 2.19 9.143 1 10.476-.81.905-.761.952.81 1.286.905.19 2 .619 2.428.952 1.048.905 2.905 1.286 3.286.714.143-.285-.286-1.333-1-2.333s-1.095-1.905-.905-2.095c.239-.143.572-.667.762-1.143.143-.476.524-.857.81-.857s.38.333.19.762c-.19.476.048.714.572.714.666 0 .81-.286.619-1.095-.19-.62-.429-2.048-.572-3.143-.285-1.714-.238-1.857.334-1.048 2.047 3.095 3.762 5.095 4.428 5.19.434.073 3.01-2.847 5.516-6.154l.366-.486c.67-.896 1.326-1.81 1.928-2.693.095-.143.286-.095.428.096.143.142-.047.904-.476 1.714-.428.857-.571 1.714-.286 2.19.239.429.191 1.048-.047 1.477-.333.523-.476.38-.476-.715 0-1.238-.096-1.333-.762-.762-1 .762-2.81 4.429-2.238 4.429.238 0 .762-.333 1.19-.714.905-.953 1.381-1 1.048-.096-.143.334.19 1.048.714 1.572.952.81 1.048.81 1.333.095.19-.476.572-.857.905-.857s1.048-.476 1.572-1.095l1-1.143.142 1.38c.096.763.334 1.382.572 1.382s.762.333 1.19.714c.62.667 1.143.38 4.048-2.286 3.857-3.571 4.952-3.619 1.524-.095-2.238 2.286-3.238 3.952-3.238 5.333 0 .381.143.381.38.096 1.43-1.953 12.763-7.667 14.191-7.143.381.143-1.476 1.285-4.048 2.571-4.952 2.476-6.523 3.572-6.523 4.524 0 .762 3.81 2.476 4.714 2.095.429-.143 1.19.429 1.857 1.429l1.143 1.666 1.429-1.19c1.142-1 2-1.238 4.38-1.238 1.667.048 3.048-.238 3.286-.572.429-.714-1.714-2.523-2.619-2.19-.333.095-.857-.095-1.19-.476-.477-.572-.334-.762.714-1 .714-.19 1.476-.667 1.714-1.048.429-.81 3.095-1.476 3.095-.762 0 .238.429.572 1 .715.62.19 1 0 1-.381 0-.762-3.285-5.238-4.476-6.096-2.428-1.714-3.285-2.619-2.476-2.666.476 0 2.81 1.81 5.238 4.047l4.429 4.048.143-3.19c.238-5.381 1.095-6 1.476-1.048.095 1.571.333 3 .476 3.143s1.81-1.429 3.714-3.476c1.857-2.048 3.524-3.62 3.667-3.477.19.19-.19.857-.857 1.524-1.238 1.429-4.334 5.714-4.334 6.095 0 .143.62.19 1.381.143 1.572-.095 3.62-1.476 6.286-4.143 2.572-2.523 2.905-1.666.381 1.048-1.143 1.238-2.048 2.476-2.048 2.762 0 1.143 2.524 1.143 4.048.048 1.714-1.286 2.286-1.096 1.429.476-.715 1.333-.048 2 2.142 2 .762 0 1.381.238 1.381.476 0 .286.62.38 1.429.19.81-.142 1.571-.047 1.762.286.619 1 1.286.048.714-1.095-.333-.762-.333-1.572.048-2.476.476-1.286 1.524-1.905 1.524-.953 0 .524 2.38 1.19 2.952.857.238-.142.095-1.428-.286-2.904-1.428-5.381.334-3.762 2.381 2.238.715 2.047 1.19 2.047 1.19-.048 0-.905.334-1.38.953-1.476.572-.095 1.333-.667 1.81-1.19.762-.953.81-.953 2.428-.048 1.572.857 1.62.857 2.334-.095.666-.905.619-1.096-1-2.667-1.62-1.571-2.191-2.62-1.43-2.62.144 0 1.191.81 2.239 1.763s2.143 1.762 2.381 1.762.571-.81.762-1.762c.19-.953.524-1.62.81-1.476.237.142.333.904.142 1.714-.143.762-.047 1.857.286 2.333.38.715.524.762.571.19 0-.57.143-.523.715.191.619.81.81.81 1.476.238 1.857-1.666 2.286-1.904 3-1.619.524.19.81 0 .81-.524 0-.666.142-.714 1-.19 1.38.905 1.237 1.905-.286 1.952-2.19.143-2.381.19-2.905 1.048-.667 1.048-.333 1.429 1.476 1.619 1.905.238 2.714-.143 2.714-1.286 0-.762.19-.904.953-.666.81.238 1 0 1.143-1.381.238-2.572-.524-3.667-4.715-6.905-3.714-2.905-4.619-3.952-3.333-4 .81 0 6.762 3.81 9.143 5.857 1.714 1.429 3.286 2.143 3.286 1.429 0-1.81-5.953-9.81-11.953-16-4.143-4.334-6.333-7.334-5.762-7.905.143-.143.953-.095 1.762.143.81.238 1.476.333 1.476.19 0-.568 2.195 1.54 4.368 3.996l.334.38.349.404c.867 1.012 1.693 2.042 2.33 2.934.982 1.34 2.15 2.884 3.11 4.12l.371.478c.418.535.78.988 1.043 1.307 1.429 1.62 1.62 1.762 1.286.667-.19-.667-1.762-4.143-3.572-7.667-3.095-6.238-3.81-8.38-1.761-5.476.18.262.506.816.92 1.56l.235.422a155 155 0 0 1 2.702 5.16q.235.465.474.93l.318.619c1.378 2.67 2.728 5.177 3.208 5.976.619.952 1.238 2.38 1.476 3.19.857 3.429 4.81 10.095 4.81 8.095 0-.428-.239-.81-.524-.81s-.477-.285-.477-.666c0-.38-.333-.952-.714-1.238-.333-.333-.905-1.476-1.286-2.619-.619-2.143-.285-2.905 1.334-2.952 1 0 2.666 2.095 2.666 3.333 0 .667.19 1.143.477 1.143.761 0 .619-1.81-.715-7.238-2.238-9.048-7.19-20.953-11.285-27-2.62-3.905-3.381-6-1.239-3.476 4.381 5.143 9.239 14.095 13.096 24 2.095 5.476 2.857 6.714 4.143 6.714.571 0 1-.143 1-.333.047-.858 1-13.143 1.333-16.905.19-2.19.333-4.476.333-5.095-.047-.667.238-1.143.62-1.143.668 0 .894 5.697.64 11.688l-.032.706q-.043.886-.1 1.764l-.047.7a85 85 0 0 1-.271 3.046c-.334 3.096-.381 5.62-.095 6.667.238.905.285 2.238.142 2.905-.19.714-.238 1.714-.095 2.238.238.952.238.952.62 0 .19-.524.38-1.571.428-2.333 0-.762.238-1.381.524-1.381.285 0 .523-.429.523-1 0-.572-.285-1-.666-1-.905 0-.762-3.238.238-4.334.428-.476 1.238-1.952 1.714-3.19.952-2.429 2.19-4.524 2.19-3.667 0 .286-.666 2.19-1.523 4.238-1.524 3.762-1.715 5.477-.62 5.81.382.143.667 0 .667-.238 0-.286.762-1.81 1.762-3.429.953-1.619 2.096-4.19 2.524-5.714.429-1.476 1.429-3.429 2.238-4.238 1.81-1.953 1.81-2.62-.047-5-.81-1.048-1.477-2.333-1.477-2.905 0-1.333 1.096-4.333 1.572-4.333.666 0 .476-2.19-.286-3.286-.714-1-1.952-4.429-2.095-5.714-.714-7.048-5.19-27.143-6.286-28.238-.333-.334-.476 1-.38 3.714.047 3.048-.144 4.762-.715 6l-.81 1.762.286-1.762c.19-.952.333-1.952.286-2.238 0-.286-.048-1.572-.143-2.857-.048-1.334-.143-2.381-.238-2.381-.62 0-2.238 4.38-2.524 6.81-.286 2.333-.19 2.952.476 3.428.762.571.762.857.143 2.571-.571 1.667-.571 2.048 0 2.572.762.714.952 2.095.238 2.095-.238 0-.952-.524-1.619-1.238-.667-.667-1.333-1.238-1.571-1.238-.19 0-.334 1.476-.334 3.285 0 2.858-.142 3.286-.904 3.096-.477-.096-.81-.476-.715-.81.177-.865.314-2.567.386-4.268l.02-.535c.078-2.224.04-4.292-.168-4.292-.81 0-3 2.714-3.81 4.667-1.047 2.428-2.618 2.619-2.094.238.19-.905.38-1.857.428-2.143s.476-1.048.953-1.714c.904-1.286 1.142-2.524.523-2.524-.19 0-1.285 1.047-2.476 2.285-2.619 2.858-3.857 2.524-1.666-.428.81-1.143 1.523-2.333 1.523-2.714s.477-1.334 1.048-2.143c1.286-1.762.952-2.429-.667-1.286s-1.666 1.048-1.476-1.476c.095-1.238.381-2.238.62-2.238.237 0 .428-.381.428-.857 0-.715-.19-.667-1.095.38-1.19 1.334-3.858 2.762-3.858 2.048 0-.238.477-1.047 1.048-1.81.62-.761 1.143-2.047 1.19-2.809.096-1.571-.238-1.81-1.142-.857-.905.905-1.238.19-1.19-2.38.047-1.906-.144-2.382-.953-2.572-1-.238-1-.286 0-1.905 1.19-1.857 1.238-2.238.38-2.238-.904 0-2.333 1.857-2.333 3 0 .571-.238 1-.523 1-.667 0-.62-1.81.095-3.143.286-.62 1.333-1.762 2.238-2.524.905-.81 1.667-1.667 1.667-1.905 0-.6-.894-.529-3.504.429M245.838 871.089c.285.286.81.429 1.19.286.381-.096.143-.334-.524-.524-.857-.19-1.047-.143-.666.238m-53.524-6.714c-.427.661-.93 1.49-1.43 2.342l-.271.466c-1.126 1.942-2.156 3.86-2.156 4.049 0 .143.619-.143 1.38-.572 1.572-.904 4.048-4.619 4.477-6.762.38-2-.62-1.761-2 .477m-53.095 3.857c.19 1.095.571 2.238.857 2.524.333.333.38-.19.143-1.524-.19-1.095-.572-2.19-.857-2.476-.334-.334-.381.142-.143 1.476m49.952-5.62c-1.19.525-4.905 6.667-4.476 7.382.19.285 1.476-1.048 2.857-2.905 1.38-1.81 2.714-3.62 3-3.905.619-.857-.143-1.143-1.381-.571m-20.857 3.953c.524 2.048 1.048 2.905 1.762 3.095.905.238 1 .096.762-2.19-.143-1.572-.715-3.19-1.62-4.476-2.428-3.476-2.666-2.62-.904 3.571m9.667 1.81c0 .904.857 1.714 1.19 1.19.19-.333.19-.81.048-1.095-.381-.572-1.286-.667-1.238-.095m284.761-.905c-.143 0-.38.238-.524.524-.19.285-.095.476.19.476.287 0 .572-.19.572-.476s-.143-.524-.238-.524m59.048-.667c-.667.715-.334 1.762.524 1.62.476-.096.904-.525.904-.905 0-.762-.904-1.239-1.428-.715m-205.571.19c-.429 0-.762.191-.762.43 0 .237.333.38.762.38.38 0 .761-.143.761-.38 0-.239-.38-.43-.761-.43m-47.762-1c-.286 0-.477.334-.477.763 0 .38.048.714.191.714.095 0 .286-.333.476-.714.143-.429.048-.762-.19-.762m-90.286-1c-.143 0-.19.43-.19 1 0 .572.19 1 .428 1s.333-.428.19-1c-.142-.57-.333-1-.428-1m267.143-108.809c.81.905 2.523 3.572 3.81 5.857l.275.498c1.195 2.146 2.367 4.108 2.677 4.55.952 1.333.095 1.62-1.715.524-3-1.81-3.714-.238-1.857 3.857.524 1.238.905 2.714.762 3.286-.38 1.524 4.476 6.714 6.238 6.714 1.429 0 3.238 1.667 2.762 2.476-.238.286-1.524.048-3.571-.714-3.334-1.286-5.19-1.62-3.62-.714.477.285.905.904.905 1.38 0 1.096 2.667 3.667 4.62 4.477 1.38.619 2.237 1.904 1.666 2.476-.476.476-2.571-.667-6.048-3.381-3.142-2.381-3.238-2.429-3.238-1.286 0 .857.572 1.715 1.667 2.572 1.429 1.047 3.333 3.857 3.333 4.857 0 .428-2.333 0-3.428-.572l-.284-.141c-.466-.232-.883-.43-1.002-.43-.286 0 1.476 4.667 2.524 6.667.857 1.619.286 1.762-1.572.285-1.142-.904-1.428-.952-1.81-.38-.38.618-.523.57-.952-.048-1.428-2.238-1.38-2.238-2.714-1.62l-.134.061-.243.109c-1.093.482-1.036.332-.432-1.265.285-.714.285-1.285.047-1.285-.19 0-.524-.429-.666-1-.143-.524-1.048-1.429-2-2-1.477-.857-1.858-1.524-2.381-3.667-.334-1.428-1.143-3.762-1.81-5.19s-1.333-3.429-1.524-4.381c-.38-2.524-1.143-2.19-1.143.524 0 1.38.191 2.142.524 1.952.238-.143.476-.048.476.238s-.238.524-.476.524c-.285 0-.524 1.047-.524 2.38 0 3.43-.428 4.763-1.333 4.048-.333-.285-.666-.904-.666-1.38 0-.477-.43-1.191-.905-1.62-.857-.714-.905-.571-1 3.048-.048 2.048-.381 4.38-.667 5.143-.476 1.143-.428 1.571.333 2.38.858.953.858 1.096-.19 4.144-.571 1.762-1.048 3.428-1.048 3.714 0 .333.81.667 1.81.714l1.81.19-1.239 1.477c-.666.857-1.476 2.762-1.81 4.238-.57 2.476-.523 2.81.239 3.38.476.382 1.143.62 1.524.62 1 0 .762.857-.62 2.143l-1.237 1.143 1.428 3c.762 1.619 1.429 3.762 1.476 4.714.096 1.238.524 2.095 1.476 2.857l1.334 1.143-1.19 1.571c-.905 1.286-1 1.667-.477 2 2.62 1.477 2.714 1.667 1.476 3.667-1.428 2.286-1.095 3.095 1.524 3.81 1.19.285 2.857 1.333 3.905 2.38 1.047 1 3.047 2.81 4.476 4 1.429 1.191 2.571 2.477 2.571 2.858 0 .428.286.762.62.762.333 0 .19.333-.381.761-.953.715-.953.762.523 1.953.81.666 1.667 1.238 1.858 1.238.714.048.38 1.571-.381 1.857-1.239.476-.858 2.143.619 2.762.762.333 1.81 1 2.285 1.476.667.667 1.477.857 3.334.714 1.714-.095 2.523.048 2.714.524.143.381 0 .524-.429.381-1.047-.428-1.714.19-1.428 1.286.19.667.857 1.095 2.047 1.333 1.477.286 1.905.143 2.62-.81.523-.714 1-.952 1.19-.618s.095.714-.19.857c-.762.476-.572 2.238.285 2.571 1.143.476 1.238.143 1.476-4.19l.19-3.953-3.475-6.904c-1.953-3.762-3.429-7-3.286-7.096.143-.142.667.62 1.238 1.667.952 1.857 2.333 3.429 3.333 3.762.286.095.524.38.524.667 0 .285.429 1.38.905 2.476.476 1.095.952 2.524 1 3.143.238 1.952.714 1.762 1.048-.477.142-1.19.523-3.19.761-4.428.239-1.19.715-5.048 1-8.476.334-3.429.81-7.286 1.048-8.524.44-2.112 1.241-7.474 1.992-13.106l.121-.915.126-.967c.377-2.9.728-5.784 1-8.25.078-.798.165-1.635.256-2.478l.092-.844c.326-2.952.682-5.849.89-7.297.333-2 .618-5.143.761-7 .078-1.515.44-5.566.882-9.773l.086-.815.044-.408.089-.815.09-.808c1.095-9.524 1.143-12.429.285-12.62-.285-.094-.904 1.096-1.38 2.525-1.048 3.38-1.762 4.285-2.667 3.571-.762-.667-1.19.714-1.048 3.286.095 1.38-.047 1.476-1.81 1.571-1.523.048-1.857-.095-1.618-.667.142-.428.428-1.666.571-2.81.238-1.428.19-1.904-.238-1.666-.333.19-.572.953-.572 1.62 0 1-.238 1.237-1.142 1.095-1-.143-1.143-.572-1.62-3.905-.476-3.476-.57-3.762-1.618-3.572-.905.096-1.096-.095-1.096-1.095 0-.667.286-1.476.667-1.762.81-.666 1.38-4.476 1-6.428-.286-1.334-.381-1.381-3.81-1.524-3.19-.143-10.81-2.19-13.476-3.667-1.524-.81-1.524-.476-.047 1.238M180.79 859.565c-1.238 1.905-1.857 6.286-1 7 1.095.905 1.572.048 2.095-3.81.524-3.809.096-5.047-1.095-3.19m78.952 5.238c-.38 1.048.19 2 .762 1.095.238-.333.429-.952.429-1.285.047-.905-.81-.762-1.19.19m262.429-1.333c-.096 0-.19.238-.19.524 0 .285.237.476.523.476s.381-.19.19-.476c-.142-.286-.38-.524-.523-.524m-215 .048c-.143.285-.19.666-.095.761.143.143.38-.095.571-.523.333-.858.048-1.048-.476-.238m147.571-.239c-.19.477-.047.715.286.62.333-.143.714-.477.81-.81.285-.905-.715-.714-1.096.19m60.81-6.285c-1.286 0-3.81 3.904-3.477 5.428.143.572.524.238 1.286-1.19.62-1.095 1.476-2.476 1.905-3.095s.571-1.143.286-1.143m-324.62 2.524c-.523 1.333-.523 1.666.144 2.333.428.428 1.143.667 1.571.476 1.286-.476 2.429-2.714 2.095-4.095-.523-2.048-2.714-1.334-3.81 1.286m297.572-.334c.048.572.238.048.524-1.19.238-1.238.333-2.476.286-2.762-.239-.62-.858 2.571-.81 3.952m-44.524-7.19c-.285 0-.524.333-.524.714 0 .857 2.381 3.762 3.096 3.762.285 0-.19-.762-1.048-1.762-.857-.952-1.428-2-1.286-2.238.143-.286.048-.476-.238-.476m-74.523 2.476c-.62 0-.62.571 0 1.524.38.619.476.524.476-.381 0-.62-.19-1.143-.476-1.143m9.238.048c-.19.285-.238.666-.096.761.143.143.381-.095.524-.523.334-.858.048-1.048-.428-.238m116.904-5.381c-1.38.714-2.143 2.38-2.143 4.666 0 2 .715 1.905 1.239-.19.19-.762.857-2.19 1.571-3.238 1.238-1.953 1.19-2.143-.667-1.238M382.314 838.47c-.096 0-.476.952-.81 2.095-.38 1.143-1.047 2.905-1.571 3.905-.524.952-.953 2.143-.953 2.571 0 .477-.38 1.143-.81 1.477-.428.38-.666 1.047-.523 1.571.095.476 0 1.048-.238 1.19-.571.334-.62 2.19-.048 2.19.238 0 .715-1.142 1.096-2.618.81-3.238 1.476-4.381 2.619-4.381.476 0 .904-.048.904-.095 0-.096.143-1.857.286-4s.19-3.905.048-3.905m-12.857 14c-.286 0-.477.238-.477.524 0 .285.19.476.477.476.285 0 .523-.19.523-.476a.53.53 0 0 0-.523-.524m11.571-4.524c-.62.381-1.81 5-1.381 5.429.095.095.667-.62 1.286-1.572 1.19-1.952 1.285-4.571.095-3.857m145.905 3.572c-.905.047-2.953.857-2.953 1.19 0 .238 3-.571 3.381-.952.143-.143-.047-.238-.428-.238m-159.19-3.953c.618 2.048 1.666 4.429 1.952 4.429.143 0 .285-.857.285-1.953 0-1.523-.285-2.095-1.333-2.762-1.286-.857-1.286-.857-.905.286m74.666 2.905c-.286 0-.381.238-.19.524.142.285.38.476.523.476.095 0 .238-.19.238-.476s-.285-.524-.571-.524m77-5.333c-1.857 1.619-3.238 3.857-2.381 3.857 1-.048 3.714-2.667 4.047-3.905.381-1.381-.047-1.381-1.666.048m-81.62 1.333c.144.571.572 1 .953 1 .857 0 .905-.572.095-1.381-.857-.905-1.333-.714-1.047.38m-1.094-2.476c-.143 0-.239.238-.239.476 0 .286.239.524.524.524s.381-.238.238-.524c-.19-.238-.428-.476-.523-.476m93.285-2.524c-.428.286-.571.619-.38.857.19.19.618.095.952-.238.762-.762.333-1.19-.572-.62m-96-6.476c-.285 0-.524.238-.524.476 0 .286.239.524.524.524.238 0 .476-.238.476-.524 0-.238-.238-.476-.476-.476m80-2.715c0 .429-.238.62-.524.477-.285-.19-.38-.524-.238-.81.429-.667.762-.571.762.333M267.22 806.232c-.762 4.667-.715 5.286.523 6.667.953 1.095 1.19 1.19 1.19.476 0-.476-.237-.905-.523-.905-.429 0-.524-.952-.333-3.095.095-1.715.047-3.715-.096-4.381-.285-1.048-.428-.857-.761 1.238m7.047-1.238c-.238 0-.047.428.429 1 .524.571 1 1 1.095 1s-.095-.429-.429-1c-.38-.572-.857-1-1.095-1m94.572-7.715c-.43.43.095 1.715.666 1.715.238 0 .476-.429.476-1 0-.953-.571-1.286-1.142-.715m-44.381-.285c-.286 0-.477.333-.477.714s.19.857.477 1.048c.285.143.523-.143.523-.715 0-.571-.238-1.047-.523-1.047m-64.524-3.524c.19 1.476 2.143 5.524 2.524 5.286.19-.143 0-1.857-.429-3.857-1-4.286-2.667-5.429-2.095-1.429m185.571-3.476c-1.333 0 1.238 6.666 2.952 7.762 1.239.762 1.048-.429-.666-4-1-2.048-2.048-3.762-2.286-3.762M276.41 795.47c-.286 0-.38.238-.19.524.142.285.38.476.523.476.096 0 .238-.19.238-.476s-.285-.524-.571-.524m54.38-5.714a57 57 0 0 1-.618 3.619c-.19.904-.143 1.619.143 1.619.238 0 .714-2.286 1.095-5.048.38-2.762.524-5.143.38-5.286-.285-.285-.57 1.19-1 5.096m-9.713 3c0 1.095.095 1.476.238.857.095-.62.095-1.524 0-2-.143-.476-.238.047-.238 1.143m-127.048-6.143c-2.286 4.38-2.762 6.38-1.524 6.38 1.334 0 4.81-6.666 5.286-10.142.524-3.857-.143-3.19-3.762 3.762m123.62 4.857c-.096 0-.191.38-.191.762 0 .428.238.762.476.762.286 0 .38-.334.19-.762-.143-.381-.38-.762-.476-.762m-40.191-.62c0 .62.238 1.144.523 1.144.239 0 .477-.19.477-.381 0-.19-.238-.714-.477-1.143-.428-.571-.523-.524-.523.38m162.57-4.237c.096 2.952 1.144 5.333 2 4.524.239-.286.239-1.572-.094-3.143-.286-1.524-.857-3.095-1.238-3.476-.715-.715-.762-.477-.667 2.095m-122.047-7.238c0 .81 1.953 7.524 2.667 9.38l.81 2-.238-3c-.191-1.618-.62-4.142-1.048-5.57-.429-1.43-1.095-2.715-1.476-2.858-.429-.19-.715-.143-.715.048m44.524 5.619c-.619 0-1.238.952-.905 1.333.143.143-.047.81-.428 1.572-.714 1.38-.62 1.904.238 1.38.286-.19.571-.761.571-1.285s.19-1.095.477-1.238c.285-.19.523-.667.523-1.048 0-.38-.238-.714-.476-.714m-26.047 2.476c-.286 0-.477.476-.477 1 0 .571.19 1 .477 1 .285 0 .523-.429.523-1 0-.524-.238-1-.523-1m-59.477 1c-.285 0-.523.286-.523.571 0 .286.238.381.523.19.239-.142.477-.38.477-.523 0-.095-.238-.238-.477-.238m25.429-4.476c-.524 0-.619 2-.143 3.19.524 1.381 1 .476.81-1.428-.143-.953-.429-1.762-.667-1.762m34.714-6c-.81 0-1.38 1.19-.952 1.905.143.285-.048 1.285-.476 2.285-.81 2-1 4.286-.286 4.286 1.143 0 3.143-2.381 3.524-4.19.333-1.477.285-2.191-.334-3.096-.428-.666-1.095-1.19-1.476-1.19M187.6 781.422c-1.143 1-2.858 2.429-3.762 3.143-.905.762-1.476 1.476-1.286 1.667.429.476 1.429-.143 3.571-2.095 1-.905 1.858-1.381 1.953-1.048s.571-.286 1.095-1.286c.476-1.047.81-1.952.714-2.047-.095-.096-1.143.619-2.285 1.666m140.38 1.762c-.761.953-.285 1.762.524.953.334-.286.476-.81.381-1.143-.143-.429-.428-.381-.905.19m-25.81-4.047c-.523 1.38 0 4.095.81 4.095.524 0 .715-.572.715-2.19 0-2.191-.953-3.382-1.524-1.905m129.43-2.048c-1.096 1.048-.81 4.238.476 5.143.761.524 1.238.571 1.619.238.333-.333.333-.62-.096-.905-.333-.19-.762-1.428-1-2.714-.333-1.952-.523-2.286-1-1.762m-108.143 2.905c-.286 0-.477.571-.477 1.286 0 .714.19 1.142.477.952.285-.143.523-.714.523-1.286 0-.524-.238-.952-.523-.952m124.952.476c-.286 0-.381.238-.19.524.142.286.38.476.523.476.095 0 .238-.19.238-.476s-.285-.524-.571-.524m-107.048-4.333c-1.095 1.619-1.523 4.857-.666 4.857.904 0 2.285-2.238 2.619-4.286.333-2.048-.81-2.38-1.953-.571m16.62 2.333a.53.53 0 0 0-.524.524c0 .286.238.476.523.476.238 0 .477-.19.477-.476s-.239-.524-.477-.524m.666-5c-.857 0-.857.048 0 2.048.762 1.81 1.333 1.428.952-.667-.142-.762-.571-1.381-.952-1.381m74.333 0c-.285 0-.38.38-.19.762.143.428.38.762.476.762s.19-.334.19-.762c0-.381-.238-.762-.476-.762m-77-.476a.53.53 0 0 0-.523.524c0 .285.238.38.523.238.238-.19.477-.429.477-.524 0-.143-.239-.238-.477-.238m1.381-3.524c-.81 0-.952.19-.523.571.285.334.428.858.285 1.19-.095.334.143.763.62.953.714.286.761.19.237-.38-.38-.477-.428-.81-.047-1.048.285-.19.524-.524.524-.81 0-.238-.477-.476-1.096-.476m109.429-4c-.334 4.38-.238 6.286.238 6.762.19.19.428-1.81.524-4.333.054-.995.081-1.882.085-2.645v-.372c-.014-3.547-.54-4.03-.847.588m6.85-9.383-.04.002c-.239 0-1 .143-1.763.286-1.224.153-1.434.06-1.444 3.819v.734c.002.78.009 1.698.016 2.78 0 6.762 1.714 5.905 2.38-1.238.191-1.952.525-3.619.763-3.762.19-.143.428-.81.428-1.476 0-.572-.14-1.038-.3-1.13zm1.055 9.145c-.334 1.857-.286 1.952.476 1.19.619-.571.81-1.428.714-3-.19-2.38-.619-1.762-1.19 1.81m-290.238-1.19c-.334.57-.429 1.19-.286 1.333.381.38 1.286-.857 1.286-1.762s-.381-.762-1 .428m260.047-3.667c-.048.952 1.905 4.619 2.476 4.619.857 0 .524-1.286-.571-2.286-.572-.524-1.238-1.428-1.476-1.952-.238-.572-.429-.715-.429-.381m23.048-1.381c0 .666.095.952.238.619s.143-.905 0-1.238c-.143-.334-.238-.048-.238.619m-293.333-2a.94.94 0 0 0 .143 1.095c.333.333.619.286.857-.095a.94.94 0 0 0-.143-1.095c-.334-.334-.62-.286-.857.095m358.761-5.048c0 .286.19.62.476.81.286.143.524.095.524-.19s-.238-.667-.524-.81c-.285-.19-.476-.096-.476.19m-357.904-1.19c0 .81.095 1.095.238.619.095-.524.095-1.19-.048-1.524-.095-.333-.238.048-.19.905m358.904-2.81c0 .286.19.62.476.81.286.143.381-.048.19-.476-.332-.858-.666-1.048-.666-.334m-38.19-4.952c-.667 0-.81.571-.81 3.095 0 3.714.762 3.429 1.238-.476.334-2.238.238-2.62-.428-2.62m-320.238 4.476c0 .714.095 1 .238.667a1.98 1.98 0 0 0 0-1.286c-.143-.333-.238-.048-.238.619m-41.905-3c-.38 0-.19 2.476.238 2.714.19.143.286-.428.19-1.238-.142-.81-.332-1.476-.428-1.476m395.524.19c.143.524.285 1.143.285 1.381 0 .239.238.429.524.429.238 0 .476-.143.476-.38 0-.239-.333-.858-.81-1.382-.713-.905-.761-.905-.475-.048m-2.19-9.428c0 .286.19.857.475 1.238.286.429.477.571.477.286 0-.286-.19-.857-.477-1.286-.285-.38-.476-.524-.476-.238m-396.524-1.286c.047.667.143.62.571-.095.286-.524.429-1.048.286-1.143-.333-.333-.857.381-.857 1.238m13.524-6.428c0 .428.285 1.238.714 1.762.38.523.714.761.714.476 0-.905-1.428-3.095-1.428-2.238m-25.134-5.48-.01.003c-1.047.334-1.38.62-1.38 1 0 .715.857.524 1.19-.285.117-.35.202-.638.203-.704zm2.372-17.044c-.56.882-1.39 4.152-2.072 7.536l-.144.726-.138.725c-.676 3.61-1.112 6.976-.79 7.299.191.19.668.095 1.048-.239.953-.761 1.572-4.095.858-4.523-.667-.429 1.714-6.81 3.095-8.381.571-.62.857-1.429.714-1.857-.38-1.048-2.19-1.905-2.571-1.286m4.238 14.571c-.286 1.62-.238 1.857.286 1.381.38-.285.809-1.333 1-2.285s.238-1.81.095-1.953c-.429-.428-1 .81-1.381 2.857m-25.048-10.571c-1.047.857-1.095 1.047-.428 1.476.952.667 1.095.667 2.19-.143.572-.428.81-1 .62-1.524-.382-1.047-.953-1.047-2.382.19m-2.666.476c-.143 0-.381.238-.524.524-.19.286-.095.476.19.476s.572-.19.572-.476-.143-.524-.238-.524m9.523-12.095c-.476 1.286-1.714 3.81-2.81 5.619-2.19 3.571-2.333 4-1.333 4 1.096 0 2.239-1.62 3.572-4.905.619-1.714 1.667-3.762 2.238-4.571.62-.857.952-1.762.762-2-.667-1.143-1.714-.381-2.429 1.857m-6.143-2.762c-2.333 2.428-4.19 5.667-4.142 7.238v1.381l1.476-1.667c.762-.952 2.143-3.047 3-4.666 1.905-3.572 1.762-4.524-.334-2.286M441.885 390.66c.333.38.429.81.286.952-.381.381 2.238 27.429 2.81 28.762.285.762.856 1.095 1.714 1.095 1.761 0 4.714 1.62 6.619 3.62 2.238 2.333 4.19 6.857 4.666 11 .572 4.237.096 6.428-2 9.285-.81 1.095-1.619 2.905-1.81 3.952-.428 2.381-1.38 3.524-3.952 4.715-1.857.81-1.904.904-.666.904 2.095.048 2.904.572 2.904 1.81 0 .905-.428 1.286-1.809 1.762l-1.81.571.334 4.334.048.599.05.602c.169 2.002.354 3.934.473 4.608.073.653.228 2.163.382 3.75l.058.598.084.89c.333 3.429.571 4.096 2.857 7.524 2.762 4.238 4.762 6.476 5.572 6.476.761 0 3 2.429 3.952 4.334.619 1.238.667 1.857.19 3.047-.523 1.381-.38 1.762 1.286 4 1 1.381 2.572 4.048 3.524 5.953 2.429 4.857 6.38 15.095 6.667 17.19.238 1.571.047 1.905-1.905 3.476-4.667 3.715-9.62 3.762-11.048.048-1.714-4.333-5.714-16-6.857-19.905-.263-.87-.525-1.706-.767-2.439l-.142-.426c-.394-1.168-.713-1.995-.853-2.135-.666-.619.238 4.381 1.429 8.143 1.571 4.667 3.095 10.238 3.952 14.476.429 1.953 1.905 7.333 3.333 12 3.429 11.183 5.302 17.608 6.607 23.38l.154.69.15.685.143.682.14.68.138.693.068.347.133.695c.525 2.79.976 5.68 1.467 9.148.28 1.99.512 3.611.792 5.17l.09.49.074.387q.075.385.157.772l.083.389.08.36.084.363c1.37 5.848 4.199 13.305 13.402 37.593 3.953 10.38 3.762 10.143 4.572 6.238.38-1.81.905-5.381 1.19-8 .286-2.62.953-7.905 1.476-11.762 1.58-11.512 1.705-13.865.862-15.701l-.071-.15-.076-.149c-.905-1.667-.905-1.762.095-3.095.571-.762 1.143-1.81 1.333-2.286.41-1.103 1.488-7.51 2.488-14.45l.122-.853.03-.214.15-1.07c.399-2.857.771-5.722 1.067-8.27.225-2.002.5-4.393.785-6.819l.155-1.324c.39-3.309.78-6.561 1.06-8.857 1.527-12.175 1.731-14.692.983-16.139l-.06-.11a3 3 0 0 0-.095-.157l-.069-.103a5 5 0 0 0-.187-.253c-1.333-1.714-1.381-3.476-.048-4.38.572-.382 1.238-1.477 1.476-2.382.246-.82.931-5.276 1.578-9.934l.166-1.2c.418-3.067.803-6.093 1.018-8.104.286-2.666 1.096-8.666 1.762-13 .286-1.905.572-4.952.667-6.762.095-1.762.476-5.428.81-8.095.333-2.714.476-5.476.38-6.238-.142-.714 0-3.143.381-5.333.334-2.238.762-6.572.953-9.62.333-5.095.285-5.618-.572-6.237-.476-.381-1.143-1.191-1.38-1.81-.905-2.095-8.286-9-11.286-10.62-1.905-1-4-2.761-5.858-4.856-2.254-2.572-3.063-3.27-8.76-6.135l-.996-.499c-.928-.462-1.97-.976-3.148-1.557-12-5.952-17.048-9.143-20.715-13.19-1.298-1.421-3.32-3.52-5.447-5.678l-.61-.617-.612-.617-.612-.614c-3.052-3.055-5.957-5.865-6.909-6.617-1.571-1.286-2.238-1.476-1.38-.476m100.905-2.81c-.143.477-.381 1.381-.572 2-.19.62-.095 1.143.143 1.143s.62-.81.762-1.857c.333-1.952.095-2.857-.333-1.286m2.095-6.095c-.238 3.381-.143 3.905.476 2.19.286-.666.333-2.095.143-3.19-.38-2-.38-1.952-.619 1m.857-13.762c-.571 0-.286 2.429.476 4.19.857 2.048 2 2.572 1.238.524-.285-.666-.476-1.428-.428-1.619.047-.19-.143-.952-.476-1.714-.334-.762-.667-1.38-.81-1.38m-422.285-6c-.286 0-.476.572-.476 1.238 0 .715.19 1.238.476 1.238s.524-.523.524-1.238c0-.666-.238-1.238-.524-1.238m423.428-5.524c-.333 0-.19.477.333 1 .476.572 1 1 1.096 1 .095 0-.048-.428-.334-1-.333-.523-.81-1-1.095-1m-.905-3c-.666 0-.666.572 0 1.524.381.62.476.524.476-.38 0-.62-.238-1.144-.476-1.144m11.762-41.476c-.428 0-.762.238-.762.476 0 .286.19.524.429.524.285 0 .619-.238.81-.524.142-.238-.048-.476-.477-.476m.714-1.524c-.285 0-.476.239-.476.524s.19.476.476.476.524-.19.524-.476a.53.53 0 0 0-.524-.524m-440.142-4.952c-.429.095-2.333 3.667-2.095 3.905.405.405 1.097-.088 1.566-.892l.04-.072a2.5 2.5 0 0 1-.368.297c-.286.143-.476.048-.476-.238s.19-.524.476-.524c.246 0 .457.071.51.182.154-.339.263-.713.3-1.086.047-.858.095-1.572.047-1.572m384.904-2.238c-.523.38-.714.714-.428.714.285 0 .81-.333 1.19-.762.762-.904.524-.904-.762.048m-386.523-13.571c-.429 1.047-.667 2-.524 2.142.095.143.572-.619 1-1.619.429-1.047.667-2 .572-2.142-.143-.143-.62.619-1.048 1.619m3.048.285c-.143 0-.381.238-.524.476-.19.286-.096.524.19.524s.572-.238.572-.524c0-.238-.143-.476-.238-.476m404.428-2.952c-.381 1.238.095 1.952 1.333 1.952.667 0 .952-.333.952-1.19 0-1.524-1.81-2.143-2.285-.762m-408.19-7.381c0 .333.19.286.571-.048.333-.333.476-.714.333-.857-.333-.333-.904.238-.904.905m1-3.714c-.381.714-.381 1.047-.048 1.047s.667-.333.857-.762c.476-1.238-.19-1.428-.81-.285m3.095-9.572c-.714.238-.857 2.095-.143 2.095.238 0 .62-.428.81-1 .333-1.19.238-1.428-.667-1.095m2.524-9.38c-.572.047-1.62 1.333-1.62 2 0 .761.858.142 1.477-1.048.286-.524.38-.953.143-.953m326.809-2.572.81 1.238c.904 1.38 2.333 2.19 1.904 1.095-.143-.38-.81-1.047-1.476-1.524zm-2.62-3.095c-.666.666-.285 1.666.667 1.666.572 0 1-.19 1-.428 0-.667-1.285-1.62-1.666-1.238m-322.332-4.667c0 .857 1.238 1.952 1.666 1.524.143-.19.096-.762-.19-1.238-.619-1.096-1.476-1.238-1.476-.286m-2-2.476c0 .286.619-.095 1.38-.81.763-.666 1.858-1.428 2.43-1.571.618-.19 1.237-.714 1.428-1.143.143-.429.238-.857.143-.952-.524-.524-5.381 3.523-5.381 4.476m324-8.429c-.477.572-.524.953-.096 1.334.762.761 2.19.095 2-.905-.238-1.19-1.143-1.381-1.905-.429m-313.572-7.38c-.619.809-.619.809.19.19.477-.381.906-.762.906-.905 0-.38-.429-.143-1.096.714m270.143-17.048c.619.762 2.429.904 2.429.238 0-.238-.667-.572-1.477-.667-1.19-.19-1.38-.095-.952.429m-5.429-4.476c-.952.333-.762 1.047.477 1.809s4 1.667 3.047 1c-.286-.238-.619-.857-.714-1.38-.19-1-1.762-1.81-2.81-1.43m2.381-21.572c0 .286.238.762.572 1.095.476.477.476.762 0 1.238-.334.334-.62 1.048-.62 1.62 0 .57-.666 2.57-1.475 4.428-1.096 2.571-1.334 3.714-1 4.571.428 1.096 2.285 2.762 3.047 2.762.19 0 1.19-1.666 2.19-3.666 2-4.143 2-5.381-.047-8.19-.667-.858-1.19-1.763-1.19-2 0-.667-1.477-2.477-1.477-1.858m142 9.952c-.762.429-.952.715-.524.715.429 0 1.19-.334 1.715-.715 1.238-.952.428-.904-1.19 0m-283.428-6.619c-.905.858-.762 2.048.19 1.667.429-.143.905-.286 1-.286.143 0 .238-.428.238-1 0-1.142-.523-1.285-1.428-.38m-3.905-8c-1.548 1.686-2.618 4.112-2.666 6.07v2.073l1.714-1.904c.905-1.048 2.714-2.667 3.952-3.572 2.19-1.524 2.286-1.667 1.429-2.428-1.572-1.429-3.286-1.524-4.429-.239m144.333-8.19c0 .19.572.952 1.286 1.619l1.333 1.19-1.142-1.619c-1.239-1.666-1.477-1.904-1.477-1.19m-5.571-1.429c-.572 0-.572 1.334 0 1.715.619.38 1-.19.714-1-.143-.381-.476-.715-.714-.715m2.81-11.523c.238.428.38 1.476.333 2.285-.095.857.143 1.81.476 2.096.571.428.667.142.524-1.62-.095-1.238-.524-2.476-1-2.857-.667-.523-.715-.523-.334.096m-2.762 1.952c0 .238.38.762.81 1.143.761.619.809.571.237-.429-.619-1.19-1.047-1.476-1.047-.714m3.047-4.429c-.286 0-.619.239-.81.477-.142.285-.095.523.191.523s.667-.238.81-.523c.19-.238.095-.477-.19-.477m-238.047-19.142c-.048.714-5.572 6.238-5.905 5.904-.19-.19.048-.523.476-.81.476-.237 1.667-1.57 2.667-2.952 1.667-2.285 2.762-3.142 2.762-2.142m9.38-7.667c1.334 2.905-1.714 7.905-4.761 7.762l-1.381-.048 1.286-.333c1.904-.476 2.761-1.19 3.666-2.905.857-1.762 1.095-3.667.381-3.667-.238 0-.571-.428-.714-1-.381-1.428.857-1.285 1.524.19m-4.856-2.19a.477.477 0 0 1-.477.476c-.238 0-1.38.952-2.523 2.047-1.143 1.143-2.239 1.905-2.429 1.762-.524-.524.62-1.952 2.714-3.38 2.096-1.477 2.715-1.667 2.715-.906m4.19-2.953c-.667 2.429-1.238 3.667-2.095 4.238-1 .667-1.19.667-1.429 0-.143-.428.286-1.428 1-2.333.715-.81 1.667-2.81 2.143-4.381 1.19-3.953 1.476-1.857.381 2.476m-5.81-1.857c.096 1.048 0 2.095-.238 2.333-.619.524-4.666.953-4.666.476 0-.523 1.476-1.19 2.762-1.238.571 0 1.047-.428 1.143-1 .095-.571.285-1.333.476-1.762.19-.428.38.048.524 1.19m-1.238-7c.143.38 1.429.81 3.096 1 3.047.333 4.762 1 4.762 1.905 0 .38-.239.333-.715-.048-.428-.38-1.81-.476-3.619-.333-1.619.143-3.762.238-4.81.238-1.523.047-1.856.238-1.856 1.047 0 1.381-.762 1.239-1.429-.285-1-2.143-.762-2.715 1.19-2.715 1.096 0 1.858-.285 2.048-.761.333-.905.952-.953 1.333-.048m-5.142-75.095c-1.572.524-1.81 1.238-1.572 4.38.19 3.048.524 3.525 3.667 5 1.666.81 3.238 1.334 3.476 1.191s.381-.047.381.19c-.19.953.048 1.62.571 1.62.286 0 1.715 1.047 3.143 2.333 2.857 2.62 3.143 2.381 2.429-1.762-.286-1.428-.334-2.571-.095-2.571.476 0 .952 1.904.952 3.857 0 .905.238 1.762.524 1.905.285.19.524.762.524 1.285 0 .905.047.905 1.714-.095.952-.571 2.19-1.619 2.714-2.333.572-.762 1-1.095 1.048-.81 0 .334-.429 1.143-1 1.857-.572.715-.857 1.381-.62 1.477.191.142.048.142-.333.047-.38-.095-1.714.857-2.904 2.095-1.238 1.286-2.334 2.19-2.524 2.048-.143-.19-.048-.571.238-.857.81-.857.238-1.857-.905-1.572-1.047.239-1.333-.666-.333-1.047.333-.095.047-.381-.714-.572-.715-.19-1.239-.619-1.143-.952.095-.286-.62-1.19-1.524-2-1.476-1.19-1.762-1.286-2.048-.619-.476 1.333.19 2.476 1.334 2.143 1.523-.381 1.571.38.142 1.714-.714.667-1.952 2.238-2.81 3.429-.856 1.238-1.713 2.38-1.904 2.524-.19.142-.762 1.57-1.238 3.142-.762 2.429-.81 3-.238 3.334.38.238.667 1.143.619 1.952 0 .857.19 1.667.429 1.857.285.143.476 1.62.476 3.238 0 2.334.19 2.953.762 2.953.38 0 .762.238.762.523s-.286.477-.667.477c-.333 0-1.048.619-1.62 1.333-.523.762-1.285 1.62-1.618 2-1.238 1.238-1.62 3.095-.81 3.905.667.714.667 1.095-.285 3.714-1.19 3.333-1.239 3.857-.381 3.19.333-.285 2.142-.761 4.047-1.142 3.381-.62 3.429-.667 5.476-3.524 1.286-1.762 2.477-2.905 3.048-2.905.524-.048 1.381-.428 1.857-.857.524-.476.953-.62.953-.286 0 .286-.667 1.048-1.477 1.667-2.19 1.714-5.047 5.714-5.142 7.143-.096.714-.429 1.285-.762 1.285-.334 0-.953.62-1.334 1.429-.428.762-1.095 1.667-1.524 2.048-1 .81-1 2.476 0 2.857.43.143 1.239-.143 1.81-.667.571-.476.952-.714.81-.428-.084.25-.495 1.12-.916 2.035l-.18.393c-.904 2.048-1.047 3.667-.524 6.238.334 1.572.286 1.62-.904 1.334-.953-.239-1.524 0-2.524 1.238-1.238 1.476-1.286 1.476-1.62.428-.19-.571-.761-1.524-1.285-2.047-.952-1.048-2.238-5.524-1.762-6.286.19-.238-.285-.857-1-1.286-1-.714-1.571-.762-2.762-.333-.857.286-1.714.428-1.904.286-.19-.096-1.858 1.238-3.715 3.047-1.31 1.276-2.545 2.402-3.2 2.926l-.17.133c-.154.116-.257.18-.296.18-.238 0-2.286.142-4.62.285-5.285.286-9 2.048-9.666 4.619-.571 2.238-1.381 1.952-1.333-.571 0-1.94.09-2.178 2.613-3.753l.426-.267c2.58-1.613 3.666-1.902 9.437-2.647 3.905-.524 4.714-2.238 3.476-7.667-.62-2.524-1.667-3.524-3.476-3.238-2.143.381-2.667-.333-1.953-2.714.334-1.143.762-2.095.953-2.095.238 0 .524-.429.666-1.048.143-.571.524-.905.81-.714.333.19.38.047.19-.476-.19-.524.048-.905.762-1.096 1.286-.333 1.762-1.714 1.381-3.857-.238-1.143-.095-1.857.429-2.238.619-.524.762-.38 1.048.762.857 3.81 1.238 5.048 1.904 5.952.667.953.905.762 5-3.285 5.238-5.238 7.143-7.857 6.429-8.953-.286-.428-.81-.81-1.19-.857-.382 0-1-.095-1.334-.095-.429-.048-.619-.572-.524-1.429.048-.762-.143-1.904-.476-2.523-.524-.905-.524-1.048.143-.81.428.143.762.476.762.762 0 .238.19.428.38.428.334 0 .715-.57 3.477-5.142.619-1.048 1.38-2.81 1.667-3.905.285-1.095 1.238-2.62 2.142-3.429 1.43-1.337 1.565-1.647 1.572-4.566v-3.72l-3.095-1.761c-2.381-1.334-3.19-2.096-3.62-3.476-.57-1.762-1.047-6.715-.618-6.239.142.096.476-.095.81-.523.285-.381 1.428-1.048 2.523-1.429 1.095-.429 2.238-.762 2.476-.762.857-.047-1.619 1.476-3.19 2.048m-25 65.904c1.285 1.286 1.238 1.477-.334 1.477-1 0-1.238-.19-1-.762.19-.429.334-1 .334-1.238 0-.286.428-.048 1 .523m28.619-10.38c-1.238.57-2.381 3-1.953 4.142.476 1.238 1.429.62 2.762-1.714 1.238-2.286.953-3.238-.81-2.428m-19.81-6.381c-.19.476-.524.666-.81.523-.285-.142-.809.524-1.237 1.477-.43 1-1.239 2.38-1.762 3.095-1.238 1.619-1.334 2.38-.143 1.905.476-.19 1.285-.334 1.762-.334.762.048.857-.238.619-1.38-.19-.858-.048-1.953.333-2.62.62-1.095.667-1.047.905 1.095.286 2.381.952 2.858 3.286 2.286.904-.238 1.19-.619 1.19-1.666 0-1.81-3.667-5.62-4.143-4.381m10.238-3.762c-1.19 0-5.143 6.19-4.714 7.38.143.382 0 .62-.333.62a.53.53 0 0 0-.524.523c0 .81 1.238.572 2.333-.38 1.476-1.334 3.667-5.381 3.667-6.81 0-.714-.19-1.333-.429-1.333m2.953 2.904c0 .334-.477 1.096-1.048 1.667-1.19 1.143-1.095 2.62.143 2.857.571.095 1-.428 1.428-1.905.477-1.523.477-2.19.048-2.619-.476-.428-.571-.428-.571 0m2.19-17c-.19.477-.476 1.381-.714 2-.286.62-.286 1.19 0 1.381.619.381 1.19-.762 1.285-2.619.048-1.81-.19-2.095-.57-.762m1.286-7.523c0 .38-3.238 2.619-3.762 2.619-.762 0 0-1 1.38-1.905 1.81-1.095 2.382-1.286 2.382-.714m9.952-1.857c.524 0 .381.285-.476.857-.667.476-1.524 1.19-1.857 1.619-.334.428-.572.571-.62.285 0-.238.477-.952 1.096-1.619.571-.619 1.429-1.142 1.857-1.142m390.047-3.524c.953 0 1.048.143.62.619-.477.476-.762.476-1.239 0-.428-.476-.333-.62.62-.62"/>
</svg>