<svg xmlns="http://www.w3.org/2000/svg" viewBox="0 0 675 935">
  <path fill="#84a0ad" d="M332.9 36.301c-12.755 4.31-23.634 14.29-30.199 27.735-2.25 4.591-2.86 6.278-8.206 21.457-3.47 9.885-3.705 10.4-4.549 10.073-.797-.281-6.19 5.622-11.489 12.556-7.455 9.791-7.737 10.822-.562 1.967 2.298-2.81 5.392-6.278 6.846-7.636 1.5-1.406 3.33-3.28 4.08-4.217 1.266-1.499 1.36-1.546 1.031-.421-.515 1.733-3.517 7.168-5.11 9.276-.704.984-3.846 4.638-6.894 8.152-11.63 13.258-13.646 18.505-10.692 27.969l1.173 3.795-2.345 2.108c-6.471 5.81-15.897 7.355-22.65 3.748-1.64-.844-3.985-2.67-5.251-3.983-2.532-2.717-3.33-2.81-1.688-.187 1.5 2.436 4.548 4.92 7.69 6.278 3.798 1.64 3.658 1.827-2.204 2.858-6.706 1.171-12.286 4.076-15.475 8.011-2.157 2.67-3.141 4.591-3.47 7.027l-.328 1.921.703-2.108c.845-2.53 4.08-6.934 6.425-8.714 2.532-1.92 7.737-3.514 15.521-4.638 3.846-.61 7.316-1.171 7.69-1.312 1.22-.468.751.703-.984 2.624-1.594 1.827-5.205 7.87-5.205 8.807 0 .235.89-1.077 2.016-2.857 2.204-3.702 6.8-8.059 9.848-9.37l1.97-.844-.329 1.078c-.516 1.733-1.547 3.233-5.862 8.245-2.157 2.577-4.783 5.716-5.814 6.981-1.032 1.265-2.345 2.436-2.955 2.624-5.158 1.452-13.88 4.544-16.084 5.668-1.5.75-3.517 2.202-4.455 3.186l-1.735 1.874 2.533-1.968c1.36-1.077 3.798-2.436 5.392-2.998 2.439-.89 13.552-4.029 14.209-4.076.14 0-.61 1.452-1.641 3.233-2.298 3.888-4.174 8.901-5.346 14.476-.891 4.123-.938 5.294-.422 12.79.234 3.42.14 3.982-1.266 6.887-.844 1.78-2.533 4.31-3.799 5.622-2.157 2.296-2.204 2.342-.61 1.5 1.736-1.032 5.018-4.686 5.018-5.623 0-.89 1.641-3.467 2.11-3.326.422.187 3.47 9.135 3.986 11.853.282 1.593.141 1.874-2.297 4.029-1.407 1.312-4.361 3.186-6.519 4.216-2.157 1.03-3.517 1.874-2.954 1.874 2.017.047 4.69-1.03 8.3-3.373 2.064-1.359 3.752-2.249 3.752-1.968 0 1.031-1.5 3.374-2.814 4.404-2.298 1.78-6.096 6.512-7.08 8.808-.517 1.171-1.267 3.514-1.642 5.153-2.25 9.51-2.298 9.932-1.829 11.15.47 1.172.61 1.031.797-1.264.141-1.874.891-4.17 1.313-4.17.61 0 .516 1.546-.234 3.748-.797 2.249-.61 6.793.375 9.417.844 2.248 2.345 6.512 2.626 7.496.14.515.328.421.657-.375.28-.703.234-2.483-.047-4.45-1.079-6.935-1.126-7.965-.516-10.12.985-3.42 3.001-5.435 7.737-7.684 4.596-2.155 5.252-2.108 5.768.516.188.983-.188 2.951-1.172 5.856-1.266 3.7-1.5 5.106-1.5 9.463 0 3.092-.235 5.482-.61 6.185-1.642 2.857-7.222 5.34-11.02 4.825-2.58-.375-3.564-.796-6.05-2.67l-1.688-1.265.938 1.311c.563.703 1.97 1.874 3.142 2.624 3.048 1.968 7.268 1.827 11.676-.281 1.688-.797 3.236-1.5 3.377-1.5.187 0 .234 1.266.14 2.812-.093 2.342-.328 2.904-1.406 3.748-1.548 1.124-6.425 1.358-8.254.374-1.782-.937-1.782-.234.047 1.031 1.126.843 2.298 1.171 3.94 1.171 1.312 0 2.344.188 2.344.375 0 .234-.469 1.406-1.032 2.624-1.219 2.717-1.688 6.418-1.031 8.058l.515 1.218.047-1.452c.047-2.811 1.595-7.122 3.283-8.996l1.641-1.827v2.109c.047 2.436.75 2.389 1.22-.094.328-1.734 1.125-2.67 3.47-3.935.843-.422 2.11-1.265 2.813-1.874.75-.61 1.5-.937 1.641-.797.657.656-5.158 24.502-8.394 34.388-1.172 3.654-2.438 8.245-2.766 10.213-.516 3.139-.47 3.795.234 5.294.985 2.061.844 2.342-1.641 3.607-3.705 1.92-5.299 5.903-3.752 9.51.704 1.734.704 1.78-.328 2.109-1.453.468-2.813 2.108-3.142 3.748-.187.75-.375 1.358-.469 1.358s-1.64-1.452-3.423-3.28l-3.282-3.325-1.923 2.202c-1.031 1.218-2.391 3.138-2.954 4.31-.844 1.78-.938 2.389-.516 4.404.375 1.64.375 2.951-.047 4.45-.469 1.827-.422 2.249.422 3.373.563.75 1.36 1.546 1.83 1.734l1.687.843c1.688.797 1.266 2.249-1.313 4.685-1.594 1.5-2.485 2.764-2.485 3.467 0 .609-.657 1.968-1.454 2.998-.844 1.03-1.5 1.921-1.5 2.015 0 .093.703.937 1.547 1.874.938 1.077 1.97 1.733 2.673 1.733 1.782 0 2.016-1.265-3.986 20.426-2.485 9.136-7.268 23.05-8.206 24.128-.281.281-1.407.468-2.532.468-1.923 0-2.064.094-1.876 1.36.14 1.31-1.22 6.511-2.016 7.589-.235.328-1.173.468-2.298.28-1.735-.187-2.017-.093-2.673 1.172-.985 1.968-1.126 3.654-.375 5.013.516.984.469 1.452-.188 2.81-.844 1.781-1.125 7.637-.563 11.854.376 2.717-.562 7.308-1.922 9.323-.985 1.546-.938 2.155.281 3.42l1.032 1.077-2.251 7.59c-2.907 9.885-3.376 11.337-4.877 15.32l-1.313 3.373 1.313 2.53c1.36 2.67 3.236 8.995 4.127 13.727l.516 2.81-5.44 7.356c-2.954 4.076-8.347 11.197-11.91 15.882-11.396 14.898-12.709 16.772-12.709 17.428 0 .515-.328.468-1.453-.094-1.736-.843-2.486-.562-3.752 1.406-.656 1.077-1.594 1.733-2.954 2.108-1.735.515-1.923.703-1.782 1.92.094.984-.516 2.109-2.485 4.592-8.02 10.026-16.178 22.488-21.29 32.56-2.954 5.763-11.3 25.627-10.785 25.58 1.22 0 10.035-6.653 17.585-13.258 7.034-6.184 11.442-11.01 19.93-21.832 3.141-4.03 7.502-9.557 9.66-12.228 2.156-2.717 4.173-5.247 4.407-5.575.328-.468.188-.984-.469-1.687-.938-1.03-.938-1.03.657-2.53 1.828-1.686 1.828-1.78.75-2.998-.797-.843-.797-.984.094-2.483.562-.89 2.438-3.607 4.267-5.997 1.829-2.436 7.08-9.51 11.676-15.74 4.596-6.232 9.332-12.603 10.504-14.15a269 269 0 0 1 2.908-3.935c.703-.937.937-1.03 2.11-.468 1.125.515 1.735.421 4.314-.703 2.907-1.218 3.142-1.218 4.69-.469 3.422 1.593 5.72.375 5.814-3.138.047-2.296.797-3.233 3.47-4.545 3.189-1.452 3.892-2.53 3.939-5.715.047-2.624.14-2.858 1.735-3.936 2.72-1.827 3.751-4.685 2.157-5.997-.985-.843-.938-2.295.188-3.841 2.11-2.999 1.735-4.685-1.454-5.997-1.735-.75-1.782-.984-.188-2.858.891-1.077 1.501-1.405 2.298-1.218.891.281.985.14.704-.984-.235-.937.093-1.827 1.313-3.607 2.063-2.952 3-3.373 2.579-1.078-1.032 5.857-4.877 38.51-5.909 49.848-1.547 17.334-3 26.751-7.128 46.24-2.72 12.884-2.672 12.51-2.063 12.556.235 0 1.126-2.295 2.017-5.06 2.579-8.198 2.391-7.683 2.438-6.418.047.61-.281 3.467-.656 6.418a1976 1976 0 0 0-1.97 16.117c-1.923 15.882-3.048 22.909-6.471 40.337-.891 4.591-1.876 10.307-2.204 12.743-.704 5.247-1.782 8.527-3.845 11.806-.844 1.359-1.548 2.624-1.548 2.858 0 .984 1.032.187 2.298-1.827.75-1.218 1.547-2.202 1.782-2.202.469-.047.422 1.733-.094 4.029-.234 1.03-.234 1.968 0 2.108.703.469 1.548-1.827 1.5-4.076-.046-2.436.657-4.263 1.548-3.888.422.14.61-.516.61-1.968.047-1.171.328-2.39.656-2.764.563-.469.61.094.422 3.233-.14 2.108-.516 4.17-.844 4.544-.516.609-.469.703.14.75.986 0 1.595-.984 1.408-2.109-.047-.468.093-.843.375-.843.797-.047.562 5.669-.563 12.65-.938 6.137-.985 6.558-.188 7.448.798.89.704.937-2.72 2.202-2.438.937-3.704 1.172-4.032.797-.844-.797-1.594-.562-3.189.89-1.313 1.265-15.428 7.964-16.694 7.964-.281 0-.844.422-1.313.937-.75.844-.797 1.172-.234 2.999.328 1.124.89 2.202 1.266 2.342.375.14 2.814-.562 5.44-1.546 9.284-3.42 12.989-4.45 13.974-3.842 1.313.844 1.922.703 3.423-.655 1.219-1.219 7.69-4.17 9.05-4.17.375 0 .75.468.891 1.03.328 1.219 1.36.797 1.36-.562 0-1.03 2.814-2.764 3.423-2.108.235.234.094 2.858-.234 5.81-.375 2.998-.563 5.575-.422 5.809.14.187-.141 1.405-.563 2.717-.516 1.546-1.313 2.624-2.345 3.28-1.875 1.218-2.344 2.248-.89 1.874.562-.141 1.36-.703 1.734-1.265 1.407-1.968 1.266-.469-.187 2.67-.797 1.733-2.204 5.013-3.048 7.262-.844 2.295-2.298 5.387-3.236 6.887-.89 1.499-1.5 3.138-1.36 3.56.14.469 0 .984-.328 1.218-.422.234-.516.094-.281-.515.187-.469.14-.703-.188-.515-.234.14-.469.75-.469 1.264 0 1.546-2.298 5.716-5.955 10.823-1.876 2.623-3.423 5.106-3.377 5.528 0 1.359 1.267.937 4.127-1.406 4.033-3.279 4.783-2.764 2.485 1.734-.656 1.312-1.219 2.623-1.219 2.81 0 .235 2.017-1.639 4.455-4.169 2.392-2.483 4.408-4.825 4.408-5.247 0-.375.422-.984.89-1.359.517-.374 1.455-2.014 2.111-3.7s1.36-3.093 1.548-3.093c1.5 0-3.799 15.226-6.331 18.318-1.923 2.25-1.829 3.14.14 1.312l1.267-1.171-.328 1.218c-.235.656-.938 2.061-1.642 3.092-1.36 2.015-1.266 2.717.282 1.874 1.594-.843 1.735-.703 1.406 2.155-.14 1.5-.093 2.811.141 2.952.516.328.985-1.5.985-3.936.047-1.92 2.016-6.793 3.657-8.854.75-.937.75-.937.798.234 0 1.733-1.313 9.745-2.157 12.93-.75 2.858-2.814 7.262-4.315 9.183-1.031 1.265-1.172 2.014-.422 2.014.657 0 4.08-4.731 5.674-7.87.938-1.921 1.689-4.685 2.486-9.839.656-3.935 1.172-7.168 1.172-7.261 0-.047.469-.094.985-.094.61 0 .985.375 1.078 1.03.235 1.5 1.22 1.687 1.642.329.328-.984.375-1.031.61-.235.14.516-.235 1.968-.798 3.327-.656 1.499-.938 2.858-.75 3.607.187.843-.047 1.827-.704 2.998-1.266 2.156-1.266 2.202-.14 2.202.516 0 1.5-.562 2.157-1.265l1.266-1.218-.281 2.109c-.141 1.124-.47 2.483-.704 2.951-.234.515-.328 1.078-.187 1.312.562.89-.75 5.669-2.439 8.948-.938 1.874-1.5 3.42-1.22 3.42.892 0 3.377-3.982 4.69-7.543.704-1.967 1.5-3.935 1.735-4.403.235-.469.328-1.125.188-1.546-.282-.703 1.5-4.732 2.063-4.732.469 0-.281 4.029-.797 4.685-.563.656-.422 7.12.14 7.12.188 0 .376-1.124.376-2.482 0-1.5.375-3.233.984-4.404 1.032-2.061 1.22-3.514.516-4.826-.234-.468-.14-2.67.188-5.247.375-2.436.563-4.59.422-4.778-.094-.188.047-.469.328-.61.704-.468.938 1.031 2.72 18.647.656 6.793 1.313 12.649 1.97 17.709.14 1.077.468 3.982.75 6.418s.797 5.2 1.078 6.137.516 3.374.47 5.388c-.048 2.858.187 4.263.984 6.09 1.032 2.25 1.032 2.39.234 3.748-.984 1.687-1.078 4.357-.14 5.716 1.125 1.687 1.219 3.045.281 4.03-.703.796-.89 1.733-.797 5.153.047 2.81.328 4.45.797 5.012.563.703.61 1.031.094 1.828-.328.562-.469 1.592-.328 2.295.187.797 0 1.734-.376 2.296-.61.796-.61 1.265.047 3.28.704 2.201.704 2.53-.093 4.169-.657 1.405-.75 2.436-.516 4.45.328 2.577.281 2.671-1.5 4.358-1.548 1.452-1.689 1.827-1.22 2.717.891 1.686.375 3.514-1.266 4.404-.891.515-1.454 1.218-1.454 1.874 0 .562-.375 1.311-.844 1.686-1.078.797-1.313 2.952-.469 3.982.563.703.563.984-.047 1.921-.375.61-.844 1.874-1.031 2.811-.563 2.905-2.064 4.92-3.705 4.92-.75 0-2.954.562-4.877 1.264-5.017 1.734-5.627 1.687-5.44-.609.141-1.967-.703-2.623-.984-.75-.188 1.312-1.594 2.203-2.532 1.594-.422-.235-.516-.844-.329-1.734.282-.937.188-1.265-.28-1.124-.376.14-.704.703-.798 1.312-.14.89-.375 1.03-1.22.75-1.03-.329-1.078-.282-.234.655 1.548 1.687.75 3.935-.938 2.53-.562-.469-.797-.469-1.125 0-.234.468-1.313-.234-3.517-2.343-4.127-3.888-4.924-3.888-.985 0 1.642 1.64 3.001 3.186 3.001 3.42 0 .188-.937.516-2.063.75-1.641.234-2.157.14-2.673-.515-.562-.75-.656-.75-1.125.187-.938 1.734-2.439 2.249-3.564 1.218-.938-.843-.985-.843-1.22.188-.28 1.03-2.297 1.874-3.141 1.311-1.313-.796-.235-2.717 2.157-3.888.703-.328 1.079-1.078 1.22-2.155l.14-1.64-2.017.328c-2.25.375-2.297.281-1.266-2.67.61-1.78.61-2.062 0-2.296-.703-.281-3.235.375-3.095.796.188.516-1.172 2.483-1.547 2.25-.234-.141-.563-1.125-.75-2.11l-.375-1.873-.938 1.874q-1.548 3.091-3.517.843c-.985-1.171-2.439-1.265-3.283-.28-.469.561-.469 1.03.047 2.107.844 1.78.657 4.357-.328 3.608-.422-.375-.75-.375-.938-.094-.14.281-.094.656.188.797.61.374.656 2.06.093 2.436-.515.28-3.329-.984-3.798-1.734a.96.96 0 0 0-.75-.421c-.75-.047-.516 1.592.469 3.232l.938 1.5-1.267-.094c-2.11-.14-2.157-.188-1.781-1.265l.328-1.03-1.079 1.03-1.031 1.077-1.501-1.077c-1.125-.797-1.454-1.359-1.313-2.343.047-.702.281-1.17.422-1.077.188.14 1.125-.797 2.157-2.108 2.017-2.67 2.063-4.404.14-5.013-.796-.281-1.312-.047-2.156 1.03-.61.797-1.266 1.265-1.454 1.078-.563-.562.281-2.858 1.548-4.123 1.735-1.78 1.266-4.17-1.079-5.294-.891-.422-1.641-.562-1.641-.281 0 .234.234.469.516.469.28 0 .375.234.187.515-.14.281-.516.328-.797.187-.657-.421-.094-2.53 1.078-4.029 1.267-1.64.798-2.623-1.125-2.249-1.313.282-1.5.188-1.172-.562.422-1.171-.422-1.733-2.814-1.733-2.907 0-3.939.75-3.564 2.623.141.844.75 1.921 1.313 2.343.704.515 1.126 1.546 1.313 3.045.282 2.624-.187 2.858-2.673 1.593-3.423-1.78-4.783-.656-4.08 3.42.563 3.701 1.783 4.498 6.894 4.638 1.782.047 2.532.375 4.033 1.733 1.125 1.031 1.875 2.202 1.922 2.952.047.703.094 1.64.141 2.108 0 .469.235 1.03.516 1.218.89.656-.61 2.858-1.97 2.858-.656 0-1.219-.187-1.219-.468 0-.235-.422-.328-.985-.188s-.984.562-.984.937c0 .89-2.486 2.155-3.94 2.062-.609-.047-1.875-.844-2.86-1.734-2.063-1.827-2.532-1.968-2.532-.609 0 .562.281.984.656.984.329 0 1.032.422 1.548.984.844.937.797.984-.469 1.452-1.688.656-1.735.656-3.423-.234-1.313-.656-1.5-.656-2.063.14-.891 1.125-.891 2.062 0 2.062.375 0 .797.375.937.75.235.562-.515 1.17-2.626 2.248-1.594.797-3.141 1.452-3.47 1.452-.281 0-.984.422-1.547.984-.61.563-1.266.984-1.454.984-.656 0-.469-.796.328-1.452.376-.375.75-.843.75-1.125 0-.28-.468-.14-1.03.375-.564.516-.939 1.359-.845 1.921.094.797-.657 1.452-3.564 3.092-4.97 2.764-5.908 3.467-5.908 4.498 0 2.202 3.563 3.467 13.317 4.731 3.095.375 7.222.937 9.191 1.219 1.97.28 6.19.655 9.379.843 4.22.187 6.19.515 7.268 1.171.797.469 4.97 1.64 9.238 2.624 10.504 2.436 10.223 2.295 10.223 4.731 0 1.125.234 2.483.516 3.046.844 1.546 4.97 3.045 13.27 4.778 4.174.89 9.379 2.109 11.536 2.718 2.157.655 4.97 1.405 6.19 1.733 3.048.796 46.564.468 49.612-.375 1.22-.328 5.393-1.171 9.379-1.827 8.863-1.546 13.974-3.186 16.412-5.294l1.83-1.593-.985-1.546c-.75-1.171-.845-1.593-.329-2.014 1.36-1.078 10.786-3.374 19.836-4.826 23.212-3.701 23.493-3.701 36.905-3.748 16.271-.094 24.43 1.125 37.42 5.622 4.174 1.452 4.924 1.546 12.567 1.64 12.615.14 17.538.843 16.929 2.436-.797 2.015 4.22 4.17 12.848 5.435 2.439.374 14.209 1.03 26.073 1.405 24.666.843 27.526.75 44.501-1.968 11.114-1.78 14.396-2.576 15.85-3.935.797-.703 3.423-1.265 14.443-3.186 5.955-.984 9.191-2.014 9.191-2.858 0-.655-6.19-4.731-9.097-5.996-1.266-.562-2.204-1.312-2.11-1.593.281-.89 4.689-3.186 7.409-3.889 1.266-.328 2.344-.702 2.344-.89 0-.328-5.955.281-7.55.797-.797.234-.937.14-.703-.61.14-.515.422-1.499.61-2.154.281-1.125.234-1.125-.61.234-1.172 1.78-2.438 2.858-3.47 3.045-.469.047-1.172.515-1.547 1.078a2.47 2.47 0 0 1-1.97.843c-1.313-.14-1.922-.984-1.078-1.5.75-.468.656-1.217-.188-1.264-.985 0-1.407-1.687-.985-4.31.422-3.186-.656-2.062-1.453 1.405-.563 2.53-.563 2.577-1.313 1.406-.422-.656-1.642-3.374-2.673-6.044-.985-2.624-2.345-5.388-2.955-6.137-.562-.703-1.875-2.577-2.86-4.123s-2.157-2.858-2.58-2.858c-.796 0-.562.515 2.111 4.779.375.562.797 1.967.891 3.045s.75 3.045 1.407 4.357c1.313 2.624 2.063 5.575 1.453 5.528-1.5 0-4.36-1.546-5.58-2.951l-1.453-1.687 1.219 2.67c2.954 6.606-.094 6.606-6.987 0-1.876-1.733-3.799-3.513-4.361-3.982-1.266-1.03-3.189-1.64-3.189-.984 0 .282.656.61 1.454.797.938.234 2.532 1.5 4.454 3.56 2.955 3.233 3.752 4.873 2.11 4.404-3.423-.984-5.298-1.265-8.862-1.124l-4.033.14-4.595-5.012c-4.315-4.732-10.786-13.727-13.083-18.272-.61-1.124-1.642-2.904-2.345-3.935-.704-1.078-1.079-2.155-.891-2.577 1.36-3.28 1.078-4.591-1.407-7.261-1.22-1.265-1.36-1.687-.89-2.53.796-1.546.609-2.577-.423-2.53-.75 0-1.032-.515-1.266-2.108-.188-1.172-.844-2.67-1.5-3.327-1.642-1.827-1.923-3.888-.75-5.668.562-.797.984-1.687.984-2.015 0-.281-.985-2.061-2.204-3.888-1.641-2.53-2.204-3.842-2.204-5.294 0-1.031-.469-2.765-1.032-3.889l-1.031-2.014 1.36-2.437c1.219-2.295 1.313-2.623.703-4.263-.375-.984-1.5-3.139-2.58-4.872-1.922-3.046-1.969-3.14-1.359-5.247.469-1.687.469-4.404.094-12.181-.844-14.945-1.266-45.96-.657-45.397.704.702 2.345 9.51 3.236 17.24 1.125 9.276 1.782 13.118 2.345 12.93.61-.234.61.329.187-7.308-.187-3.607-.703-8.245-1.078-10.213-.422-2.015-.657-3.701-.516-3.842.14-.14.375.703.61 1.874.187 1.172.609 2.905.984 3.936.328.984.891 4.825 1.22 8.573.468 6.09.703 7.121 2.25 10.307 1.735 3.607 4.127 6.512 4.127 5.013 0-.422-.797-2.436-1.735-4.45-1.83-3.796-2.017-4.92-1.782-11.432.14-4.498.281-4.357 2.485 1.968 1.079 3.092 2.392 5.575 4.267 8.105 2.626 3.56 3.658 4.544 3.658 3.56 0-.234-.985-1.92-2.157-3.701-1.172-1.827-2.439-4.357-2.767-5.622s-.89-3.326-1.266-4.497c-.375-1.219-.703-2.858-.703-3.702v-1.499l1.5 1.827c1.454 1.734 4.643 4.17 8.722 6.653 3.517 2.108 3.19 1.078-.797-2.624-2.204-2.061-4.455-4.403-5.064-5.247-1.5-2.061-5.44-13.773-4.83-14.382.516-.516 2.766 1.405 3.189 2.764.187.515.515.89.75.89.656.047 0-7.496-1.032-11.994-.516-2.155-.844-4.029-.703-4.122.14-.141.61.093 1.078.468 2.439 2.108 2.86 1.171.891-1.733-.703-1.031-1.266-2.437-1.266-3.14 0-.749-.985-3.326-2.204-5.762-1.735-3.513-2.204-4.966-2.157-6.887v-2.483l1.079 1.312c.61.703 2.063 2.624 3.282 4.31 3.001 4.217 7.269 8.058 10.973 9.839 1.688.796 3.47 1.546 3.892 1.64 1.735.28.938-.89-1.547-2.343-3.517-2.108-8.488-7.168-10.27-10.494-.797-1.546-2.485-5.341-3.657-8.48-2.72-6.98-3.799-9.136-6.565-13.165-3.846-5.481-4.924-8.339-6.331-16.819-.422-2.53-1.22-6.278-1.782-8.292-.516-1.968-.89-3.701-.797-3.795.14-.14.797.937 1.5 2.39.704 1.405 2.345 4.075 3.611 5.856 1.313 1.827 3.048 4.357 3.845 5.668 1.079 1.828 1.454 2.156 1.642 1.453.093-.469-1.642-4.591-3.846-9.089-3.939-7.964-7.08-15.32-6.705-15.695.14-.093.89.75 1.688 1.921 3.33 4.826 4.69 4.779 2.016-.093-4.267-7.637-9.003-21.692-10.785-31.952a401 401 0 0 0-.844-4.45c-.657-2.952.938.14 2.767 5.387 1.97 5.528 2.297 6.325 2.72 5.903.328-.328-1.08-6.793-2.44-11.431-3.47-11.478-7.127-27.547-6.47-28.203.094-.094 1.031 2.014 2.063 4.638 3.517 8.995 9.707 20.567 14.443 26.938 3.001 4.03 4.173 6.137 5.58 10.073a432 432 0 0 0 2.392 6.652c.844 2.343.985 3.327.61 4.92-.516 2.389-.047 5.434.984 6.465 1.079 1.124 1.923.421 1.313-1.125-.703-1.874-.563-2.857.516-4.17.938-1.03 1.032-1.733.938-8.526-.094-8.901-.61-14.57-1.923-21.316-1.875-9.417-3.704-15.133-13.458-41.462-5.299-14.289-8.16-23.003-10.176-30.499-1.078-3.888-3.142-10.775-4.642-15.32-1.735-5.106-2.72-8.995-2.72-10.4 0-1.218-.234-2.764-.469-3.467-.422-1.03-.187-1.546 1.454-3.607 1.078-1.312 3.235-3.514 4.83-4.92 1.688-1.499 3.704-3.935 4.97-6.137 1.22-1.968 3.846-5.388 5.909-7.543 4.924-5.153 7.69-8.901 8.065-11.103.188-.984.75-2.155 1.267-2.624.515-.468 1.078-1.405 1.266-2.061.328-1.312.89-1.405 3.095-.656 2.344.843 4.314-.28 4.267-2.39 0-1.451.094-1.592.985-1.311 2.532.843 4.501.75 6.143-.281 1.5-.937 1.594-1.171 1.36-2.811l-.282-1.827 4.69-3.186c2.579-1.78 5.064-3.842 5.533-4.591.516-.89 1.453-1.546 2.673-1.874 1.922-.515 2.813-1.78 2.813-4.123 0-1.171 1.641-2.764 4.924-4.872.938-.562 2.016-1.593 2.392-2.296.61-1.077.562-1.452-.47-3.654-.609-1.359-2.86-5.107-4.97-8.292l-3.845-5.81 1.219-1.593c.656-.843 2.063-3.42 3.095-5.715 1.078-2.296 2.298-4.498 2.767-4.873.422-.374.797-1.358.797-2.202s.422-2.248.938-3.092c.562-.843 1.219-2.53 1.547-3.7.281-1.172 1.079-2.905 1.688-3.89.844-1.311 1.032-1.967.657-2.623-.704-1.218 1.688-6.043 3.33-6.793 1.312-.609 1.312-.515 1.406-4.404.047-1.546.328-3.092.61-3.42.28-.375.797-1.546 1.172-2.623.328-1.078 1.5-3.046 2.579-4.31 1.923-2.296 1.97-2.343 1.125-3.608-.75-1.124-.797-1.452-.14-2.81.422-.891.89-2.343 1.078-3.327.47-2.249 1.5-4.17 2.626-4.966 1.97-1.406 2.532-2.999 1.97-5.2-.422-1.828-.235-3.093 1.5-10.307 12.661-51.956 13.552-92.528 3.564-165.707-4.877-35.746-6.049-48.723-6.143-67.931-.047-12.04 0-12.93.891-13.915.797-.89.844-1.17.281-2.248-.656-1.265-.328-6.794 1.079-16.913.563-4.029.61-4.123 2.204-4.825 1.97-.797 2.532-1.874 1.735-3.186-.328-.469-.563-1.218-.563-1.64 0-1.312 6.33-17.522 9.098-23.331 1.5-3.045 2.72-5.903 2.72-6.278 0-.796-1.97-.843-3.002-.047-3.282 2.624-13.083 16.023-17.069 23.425-.985 1.78-2.344 3.935-3.001 4.732l-1.172 1.452 1.031.843c.891.75.938.984.422 2.483-.328.89-1.594 2.952-2.72 4.592-3.282 4.497-7.643 10.822-15.052 21.785-3.751 5.481-10.457 15.366-14.959 21.878-4.502 6.56-11.348 16.538-15.193 22.254-6.143 9.089-14.115 20.754-25.182 36.87-1.828 2.67-3.892 5.529-4.548 6.325l-1.173 1.405-.89-1.78c-.657-1.452-.75-2.108-.329-3.28.375-1.077.375-1.873-.047-2.763-.328-.656-.422-1.968-.281-2.858.281-1.359.14-1.734-.844-2.202-1.5-.797-2.814-2.483-2.86-3.608 0-.515-.704-1.218-1.83-1.733-1.031-.422-2.485-1.218-3.235-1.733-.797-.516-3.236-1.218-5.72-1.593-2.346-.328-6.519-1.453-9.192-2.436-2.673-1.031-5.768-1.874-6.893-1.921s-2.58-.469-3.189-.937c-.844-.562-2.25-.797-5.017-.797-4.361 0-4.502-.234-2.58-3.092 2.533-3.7 2.064-7.402-1.5-11.993-7.08-9.136-8.066-10.635-8.535-12.837-.28-1.312-.328-3.092-.14-3.982l.328-1.64 2.72 3.092c1.453 1.687 3.188 3.654 3.798 4.357 1.782 1.921 2.58 3.701 3.33 7.309l.703 3.28-.235-3.89c-.28-4.544-.984-5.855-5.908-11.103-4.455-4.778-4.455-4.778-2.298-7.87 7.784-11.244 7.69-11.104 7.362-17.428-.375-6.466-1.547-9.51-8.628-22.113-5.252-9.37-6.94-13.587-5.346-13.587 1.032 0 1.923-1.78 1.5-3.045-.187-.656-.14-.89.188-.703.329.235.282-.515-.14-1.92-.75-2.483-1.407-3.514-1.22-1.968.188 1.874-.046 2.717-.703 2.717-1.407 0-3.798-4.544-4.783-9.23-2.063-9.884-3.376-12.789-10.832-23.986-3.564-5.434-7.315-9.464-10.035-10.869-.844-.469-2.58-1.64-3.94-2.624-4.267-3.185-7.737-4.122-10.363-2.764-1.219.656-1.547.562-5.017-1.311-3.283-1.78-4.22-2.062-7.503-2.156-3.048-.14-4.455.094-7.925 1.265m195.262 74.35c-.703 4.92-1.5 9.277-1.782 9.605-.375.468-.422.89-.094 1.311.329.375.375 3.936.047 10.448-.703 14.851.235 37.573 2.345 58.046 3.892 37.48 5.111 54.017 5.486 75.24.563 33.03-2.626 62.685-9.8 91.263-2.626 10.541-3.705 13.633-5.252 15.273-1.173 1.265-2.11 4.357-1.735 5.762.422 1.546-2.626 9.885-4.268 11.666-1.078 1.218-1.266 1.827-1.078 3.513.234 2.202-1.641 7.262-3.986 10.729-.703 1.03-1.313 2.483-1.313 3.233s-.657 2.576-1.454 4.122c-3.095 5.81-4.267 8.058-5.533 10.87-.75 1.64-1.829 3.747-2.438 4.684l-1.079 1.734-.844-2.952c-.422-1.64-1.829-4.544-3.048-6.465-2.907-4.497-4.924-9.557-4.549-11.15.188-.797-.047-1.968-.703-3.233-.563-1.077-1.032-2.67-1.032-3.467 0-.983-.281-1.546-.938-1.733-.75-.281-.937-.75-.89-2.483l.093-2.108.891 1.265c.47.75.844 1.827.844 2.436 0 1.265.14 1.312 1.548.562 1.125-.609.984-2.202-.516-5.622-.704-1.593-2.017-8.62-2.017-10.869 0-.281.657-.422 1.407-.281 1.595.234 2.017-.234 2.392-2.53.14-.843.422-1.92.703-2.39.516-.983-1.5-4.637-2.86-5.153-.61-.234-.704-.796-.516-2.81.375-3.093-.469-5.623-2.392-7.356-3.048-2.717-5.252-4.216-6.752-4.544-2.72-.563-4.267-1.64-4.267-2.811 0-1.359-2.11-5.67-3.47-7.121-.61-.656-.985-1.734-.985-2.858 0-1.874-.563-3.28-2.017-4.826-1.031-1.124-1.172-2.108-.469-3.982.657-1.687-.937-5.95-3.095-8.199-2.11-2.202-4.08-4.872-4.407-6.09-.141-.515-.422-2.296-.61-3.935-.328-3.327-1.735-8.293-3.283-11.525-.562-1.312-.984-3.14-.984-4.451.047-1.218-.61-4.544-1.454-7.355-1.313-4.404-1.594-6.419-1.923-13.306-.375-7.214-2.157-20.8-4.173-31.576-.891-4.92-1.172-8.76-.657-8.76.235 0 .422.327.422.749 0 1.17 2.533 6.137 3.002 5.856.422-.234-.938-4.498-2.204-6.98-.938-1.828-1.032-2.671-.188-1.547.328.422.938.89 1.36 1.078.422.187 1.172.656 1.735 1.077.657.469 1.22.563 1.735.235.563-.375.328-.797-1.407-2.296-1.641-1.452-2.25-2.436-2.813-4.591-.797-3.046-.938-5.903-.282-5.903.282 0 1.266.796 2.251 1.686 1.36 1.265 1.876 1.546 2.063.984.188-.422-.703-1.546-2.25-2.951-1.735-1.546-2.439-2.53-2.392-3.28.188-1.452 1.36-1.874 2.72-.937 1.922 1.218 1.735.328-.328-1.546l-1.97-1.78 3.33-4.826a5565 5565 0 0 1 6.283-8.995c1.595-2.295 5.299-7.59 8.16-11.806 2.86-4.17 7.315-10.681 9.894-14.476 2.626-3.795 6.706-9.792 9.097-13.305a9288 9288 0 0 1 12.24-17.944c4.313-6.371 10.972-16.116 14.724-21.644 3.751-5.528 8.346-12.322 10.222-14.992a821 821 0 0 0 5.956-8.76c1.828-2.765 2.579-3.561 2.672-2.859.094.516-.422 4.966-1.125 9.932m-125.25 10.729c3.422 6.98 3.516 7.121 3.235 10.166-.235 2.811-1.923 7.59-2.72 7.59-.188 0-.281-1.968-.188-4.357.188-4.498-.046-5.341-3.329-12.603-.844-1.874-2.063-6.418-2.72-10.12l-.281-1.686 1.22 1.968c.702 1.077 2.86 5.153 4.782 9.042m-118.827-6.231c-1.032 1.593-5.815 13.961-5.815 15.039 0 2.389-2.298 7.308-5.111 11.056-1.642 2.155-3.283 4.076-3.564 4.17-.329.093-.985-1.5-1.642-3.889-1.266-4.591-1.078-7.215.61-10.682 1.5-2.998 1.97-3.045 1.641 0-.75 7.356-.844 9.277-.375 9.277.235 0 .61-2.062.797-4.545.61-8.62 2.11-11.431 9.567-18.224 4.126-3.748 5.298-4.404 3.892-2.202m115.637 12.65c1.876 4.965 1.735 10.306-.422 15.225l-1.64 3.748-.61-4.45c-.329-2.437-.704-8.62-.891-13.774l-.282-9.323 1.313 2.67c.75 1.5 1.876 4.17 2.532 5.903M267.953 154.08c0 .375-.844 1.265-1.875 1.967s-2.58 2.062-3.517 2.999c-.938.984-1.782 1.64-1.876 1.546-.61-.61 1.407-3.514 3.564-5.2 2.58-2.015 3.704-2.437 3.704-1.312m133.13 14.055c4.079 4.59 4.876 6.418 4.454 9.791-.563 4.685-1.782 5.763-2.438 2.155-.188-.984-1.266-3.935-2.486-6.512-1.172-2.577-2.297-5.669-2.485-6.887s-.234-2.108-.094-1.967c.141.14 1.5 1.686 3.048 3.42m-137.913 2.623c-1.594 1.687-3.423 3.936-4.08 4.92-1.312 1.873-2.344 2.482-1.781.983.187-.468.469-1.499.61-2.249.328-1.64 2.11-3.373 5.392-5.294 1.313-.796 2.485-1.452 2.58-1.452.093 0-1.126 1.406-2.72 3.092m2.58 4.638c-.376 1.03-1.126 2.764-1.642 3.842-2.907 5.903-4.08 9.37-5.064 14.757-.563 3.233-1.172 6.09-1.407 6.278-.563.61-1.641-6.652-1.22-8.339.564-2.296 2.111-5.481 5.487-11.478 4.08-7.262 5.159-8.667 3.846-5.06m-10.598.516c0 1.218-1.83 6.09-2.532 6.746-.75.703-.235-2.998.844-5.669.797-2.014 1.688-2.577 1.688-1.077m-5.487 3.092c-.234.937-.328 2.951-.187 4.45.281 2.437.187 2.905-.891 4.17-.657.796-2.58 3.56-4.268 6.09l-3.094 4.685.375-2.202c.516-3.092 2.297-7.683 4.126-10.54.844-1.36 1.548-2.859 1.548-3.374 0-1.359 2.25-5.622 2.766-5.106.094.093-.093.89-.375 1.827m150.245-.516c.563.844 1.079 1.827 1.172 2.202.047.328.375 1.078.75 1.546.376.516-.093.14-1.078-.796-.985-.937-1.923-2.343-2.11-3.092-.422-1.734-.047-1.687 1.266.14m-149.213 16.117c0 1.311-.422 5.2-.938 8.713-.563 3.514-.89 6.466-.75 6.606.094.094.281-.14.422-.515.094-.375.422-1.359.703-2.249.282-.843.75-3.654 1.126-6.278.515-4.263.656-4.638 1.219-3.607.328.609.985 2.623 1.454 4.45l.797 3.327-1.97 3.092c-1.078 1.687-2.907 5.34-3.986 8.105-2.673 6.793-2.766 6.934-3.423 5.716-.844-1.593-3.048-10.916-3.33-14.149-.28-2.858-.187-3.233 2.017-7.543 2.439-4.685 5.44-8.714 6.19-8.245.281.187.469 1.312.469 2.577m-3.845 39.353c-.329 8.995-.47 9.417-3.236 11.29-2.673 1.828-3.517 2.015-3.001.75.188-.468 1.125-3.513 2.063-6.746.938-3.28 1.97-6.372 2.345-6.887.328-.562.797-1.733.985-2.623.703-3.186 1.031-1.406.844 4.216m-5.205 4.872c-1.548 7.45-1.923 8.152-5.721 10.682-1.923 1.265-3.517 2.061-3.705 1.78-.422-.656 1.079-5.575 2.485-8.339 1.126-2.202 7.034-8.667 7.503-8.199.094.141-.14 1.968-.562 4.076m11.77 26.704c.61 2.952-3.001 12.603-5.627 14.992l-1.032.937.281-2.436c.188-1.312 1.032-4.17 1.923-6.325.89-2.155 2.016-5.106 2.485-6.512.891-2.764 1.454-2.951 1.97-.656m1.97 6.794c-.423 2.67-1.689 5.387-3.19 6.7l-1.031.983.797-1.968a124 124 0 0 1 1.97-4.497c.656-1.453 1.219-2.811 1.219-3.092 0-.235.094-.469.281-.469.14 0 .14 1.03-.047 2.343m156.2 29.515c.843 3.7 1.781 8.901 2.016 11.525.281 3.513.75 5.434 1.735 7.402 1.5 3.139 1.594 4.872.469 9.323-1.126 4.404-.61 6.793 2.485 10.963.328.421.188 1.265-.328 2.342-.47.984-.844 2.296-.844 2.999 0 1.405 2.204 4.263 3.282 4.263.563 0 .704.281.422 1.124-.938 2.999-.89 3.186 1.454 5.716 1.97 2.061 2.204 2.577 1.782 3.42-1.172 2.202-.328 6.371 1.922 9.182.798 1.031 1.501 2.25 1.501 2.764 0 1.031 1.032 3.608 2.016 4.967.516.655.47.983-.28 1.827-1.08 1.17-1.501 5.762-.657 6.793.375.421.28.89-.282 1.499-.469.515-.797 1.124-.797 1.405 0 .282-.516 1.125-1.079 1.874-1.031 1.265-1.031 1.593-.515 4.123.562 2.764.562 2.764-1.407 6.137-2.063 3.608-2.58 5.388-1.22 4.264.423-.328.751-.89.751-1.218 0-.75 1.876-3.233 2.438-3.233.47 0 .329 1.78-.281 3.233-.656 1.593-2.767 3.326-3.189 2.576-.234-.328-.516-.468-.703-.28-.516.515.656 2.295 1.782 2.623 1.031.328.985.375-.375 1.874-2.626 2.81-3.095 5.294-1.173 5.715.938.235 1.548-.046 2.58-1.17l1.36-1.5-.235 2.296c-.14 1.593 0 2.436.516 2.857.469.422.75 1.547.75 3.514 0 1.687.281 3.56.75 4.404l.75 1.452 1.923-1.593c1.079-.89 1.97-2.014 1.97-2.483 0-.421.187-.937.469-1.077.703-.469 1.172.703.562 1.359-.281.28-.515 1.218-.515 2.014 0 .843-.47 2.343-.985 3.373-1.548 2.858-1.266 3.889.469 1.827 1.031-1.17 1.5-2.202 1.5-3.42 0-.983.235-2.061.47-2.483.421-.609.703-.515 1.734.75.704.796 1.36 1.968 1.548 2.624.187.75.422.936.656.562.235-.328.61-.469.938-.281.516.328.61 1.64.516 7.027 0 .89.187 1.64.375 1.64.235.047 1.032.14 1.782.234 1.641.187 3.282-1.218 3.282-2.858 0-1.03-.046-1.03-1.266.281-1.219 1.312-2.391 1.734-2.813.984-.985-1.733-.797-3.139.703-4.779.797-.983 1.782-1.78 2.157-1.78.329 0 .891-.656 1.22-1.452.328-.843 1.031-1.734 1.5-2.015 1.172-.609 1.923.703 1.97 3.327 0 1.827 1.594 6.84 2.485 7.777 1.032 1.077 1.032-.469 0-3.467-.657-1.78-1.032-3.327-.891-3.467.187-.187 1.032.281 1.876 1.03 2.11 1.734 2.954.938 1.36-1.311-1.267-1.78-2.298-5.107-2.11-6.887.093-.61.468-2.577.89-4.357.422-1.733.797-4.732.797-6.606 0-4.123.516-5.247 1.548-3.607 1.172 1.827 2.016 4.263 2.016 5.669 0 .75.375 2.108.891 2.998 1.313 2.202 1.266 5.294 0 6.09-1.125.703-1.36 1.5-.328 1.078.75-.281 1.266 2.061 1.266 5.575 0 1.171.235 2.108.47 2.108.656 0 1.078-2.295 1.125-5.95 0-1.733.187-3.607.375-4.122.328-.89.469-.844 1.453.75.563.936 1.032 2.295 1.032 3.091 0 .75.563 2.155 1.22 3.186.703.984 1.265 2.249 1.265 2.811 0 .515.375 1.874.75 2.951.423 1.078.798 3.233.892 4.78.093 2.295.375 3.138 1.453 4.216.704.75 1.313 1.546 1.313 1.733s-.797 2.39-1.782 4.872c-1.688 4.357-1.735 4.638-1.172 7.028.328 1.358 1.125 3.7 1.782 5.247.89 2.155 1.172 3.748 1.172 6.606 0 3.42-.14 4.029-1.547 6.184-.938 1.499-1.876 2.342-2.486 2.39-.515 0-8.769-3.89-18.288-8.574-14.49-7.168-17.49-8.808-18.007-9.932-.328-.75-1.266-3.514-2.11-6.09-.844-2.578-2.157-6.326-2.907-8.293-.797-1.968-1.407-3.795-1.407-4.03 0-.233.657-.796 1.454-1.217 1.594-.844 1.875-1.968.797-3.514-.891-1.265-2.58-6.606-3.048-9.557-.422-2.764-1.313-3.795-3.986-4.451-2.626-.703-3.236-1.405-4.596-5.528-.61-1.874-2.204-5.716-3.517-8.574-1.5-3.232-2.391-5.715-2.344-6.7.14-1.967-1.782-6.043-3.33-7.027-1.453-.983-1.453-1.499-.046-1.92 2.204-.656 3.985-2.39 5.158-4.92 1.031-2.342 1.125-2.857.61-4.731-.329-1.125-.892-2.53-1.267-3.092-.89-1.312-4.36-2.67-6.893-2.67-1.876-.048-2.016-.141-2.063-1.5 0-.843-.282-2.342-.61-3.326-.328-1.031-.703-2.155-.75-2.483-.235-.844-2.392-1.687-5.111-2.062l-2.251-.28.14-2.859c.141-3.466-.422-4.59-2.485-5.153-1.032-.234-1.641-.75-1.735-1.359-.14-.89.328-1.686 3.095-5.434.656-.844.656-1.265.187-2.343-.328-.702-.75-1.311-.937-1.311-.798 0-.891-1.64-.188-3.327 1.641-3.888 4.549-12.321 4.877-14.242.187-1.171.844-2.436 1.594-3.139 1.642-1.546 3.095-4.497 3.095-6.325 0-.843.328-2.342.75-3.326.47-1.077.704-2.905.61-4.544-.094-2.109.094-3.045.938-4.17 1.36-1.968 6.284-11.806 7.034-14.148.328-1.031.75-1.874.938-1.874s1.078 3.045 1.922 6.793m22.79 162.755c2.625 1.546 21.336 10.916 26.54 13.305 5.065 2.342 5.159 2.39 3.846 4.263-.61.843-1.032 1.827-.985 2.155.188.843-1.876 4.732-4.548 8.48a826 826 0 0 1-5.44 7.87c-1.735 2.577-3.94 5.763-4.877 7.028-.89 1.265-1.782 2.624-1.876 2.952-.469 1.218-1.266-.375-2.344-4.78-.61-2.435-3.611-11.946-6.706-21.175-7.08-20.989-7.175-21.41-6.424-21.363.328 0 1.594.562 2.813 1.265M223.78 675.234l.329 5.575-1.595.655c-1.547.656-1.594.61-1.735-.468-.094-.656.047-2.342.375-3.795.282-1.452.798-3.982 1.079-5.669.328-1.733.75-2.81.938-2.483.187.328.469 3.14.61 6.185m166.142 37.292c.094 2.389-.14 7.73-.516 11.853-.422 4.966-.469 7.683-.14 8.01.28.282 1.172.47 2.063.47 1.922 0 1.782-.75 3.47 16.115.187 1.828.047 4.639-.329 6.887-.656 3.842-1.594 5.341-4.173 6.794-1.125.655-.61 1.686.797 1.686 2.345 0 3.752-1.78 5.393-6.746 1.36-4.217 1.547-5.622 1.782-12.181.187-5.154 0-9.464-.563-14.336l-.797-7.027 1.172-2.811c1.595-3.795 2.439-8.058 2.017-10.214-.329-1.78-.329-1.78.984-1.218 1.079.516 1.266.89 1.266 2.858 0 1.265-.468 3.608-1.031 5.154-.704 2.061-.844 3.045-.47 3.42.376.374.704.328 1.126-.047.329-.328.704-.61.844-.61s.235 4.92.188 10.964c-.047 10.166 0 11.01.89 11.993.939.984.939 1.124.095 4.263-.797 3.092-.797 3.28 0 4.17 1.031 1.171.89 3.045-1.22 13.118-.797 3.794-1.594 7.683-1.688 8.62-.75 5.013-2.532 8.058-5.158 8.62-1.876.422-2.86 1.593-1.688 2.015.469.187 1.266.093 1.782-.234.469-.328 1.22-.563 1.641-.563 1.688 0 4.549-5.528 6.284-12.134.89-3.513 1.125-4.029 1.266-2.717.234 2.436-1.266 11.197-2.673 15.32-.89 2.717-1.782 4.263-3.282 5.81-1.079 1.124-1.923 2.154-1.782 2.295.656.656 3.563-1.406 4.83-3.514.844-1.312 1.922-2.998 2.485-3.842l1.032-1.452-.047 2.202c0 2.998-.75 5.997-2.251 9.183-2.157 4.544-.375 4.122 1.922-.422 1.735-3.42 2.814-7.824 2.814-11.244 0-1.5.14-2.905.328-3.092.61-.61 3.048 8.292 3.658 13.305.516 4.17.516 5.154-.188 7.496-.797 2.717-.75 3.56.188 2.624 1.36-1.359 2.016-6.278 1.688-12.697-.281-5.34-.188-6.558.422-7.355.703-.937.75-.75.797 2.624 0 3.185.094 3.56.75 2.998.376-.328.75-1.171.75-1.874.048-1.359.892-3.701.939-2.624 0 .422.375.563.984.375.516-.187 1.079-.093 1.22.188.469.75 1.266.609 1.266-.188 0-1.124-2.017-2.342-2.814-1.686-.469.421-.61.328-.61-.235 0-.468.188-.843.423-.843s.562-.421.703-1.03c.328-1.312.89-.938 2.767 1.827 2.297 3.42 5.345 11.103 7.69 19.536.703 2.483 2.157 6.84 3.283 9.604 1.64 4.31 1.875 5.294 1.406 6.325-.281.655-.515 1.64-.515 2.202 0 1.452 1.781 4.357 3.798 6.137l1.735 1.546-1.126 1.92c-1.313 2.25-1.547 5.904-.422 6.747.422.328 1.032 1.078 1.36 1.687.516.937.422 1.311-.515 2.623-.657.984-1.173 2.483-1.267 4.076-.187 2.483-.046 2.905 2.439 6.278.656.937.234 4.216-1.97 14.664-.984 4.497-1.313 7.496-1.266 11.197 0 4.497-.047 5.06-.75 4.731-.469-.187-2.25-.468-3.986-.609l-3.236-.327 1.267-1.219c1.172-1.124 2.672-2.342 5.158-4.17.516-.374.703-.702.375-.749-.281 0-1.22.562-2.016 1.218-.798.703-1.595 1.218-1.736 1.218-.187 0-1.5.797-3 1.734s-3.142 1.733-3.705 1.733c-1.173 0-1.22-.187-.516-1.499.422-.75.375-.984-.234-.984-.938 0-.938.281.28-3.748 1.408-4.544 4.315-10.213 7.27-14.055 2.954-3.935 3.188-4.31 2.672-4.31-.75 0-5.768 7.777-9.52 14.758-3.938 7.402-4.266 7.87-5.157 7.87-.75 0-2.345-4.684-3.189-9.37-.844-4.637-1.782-7.167-4.08-10.962-1.078-1.874-2.11-4.17-2.297-5.153-.141-.984-.563-1.828-.845-1.828-.328 0-.75-.14-.937-.374-.188-.188-.563-.375-.844-.328-.235 0 .14.656.844 1.499.703.843 1.266 1.827 1.266 2.249 0 .421.89 2.108 1.97 3.7 2.203 3.28 3.657 7.59 4.173 11.994.187 1.593.562 3.982.844 5.247.75 3.467.281 3.795-1.407 1.031-1.594-2.53-2.532-5.294-3.798-11.01l-.75-3.185.28 3.185c.141 1.78.61 4.31.985 5.67.376 1.358.798 3.466.938 4.684.235 2.061.188 2.155-.516 1.218-.375-.562-1.5-1.874-2.485-2.951-.985-1.031-2.86-4.123-4.22-6.84-1.313-2.718-2.392-4.779-2.392-4.592 0 .235 1.22 3.327 2.72 6.887 2.954 7.075 3.892 9.651 3.47 10.073-.14.14-3.33-1.406-7.034-3.467-10.082-5.528-15.896-8.011-15.896-6.793 0 .234.797.609 1.781.796 2.017.375 11.02 4.92 15.944 8.058 2.954 1.874 3.048 2.015 1.688 2.015-1.97.047-14.302-1.687-21.57-2.998-4.877-.89-6.706-.984-11.583-.703-3.142.234-10.832.468-17.07.562-9.565.094-12.191 0-16.974-.843-3.095-.562-6.753-1.125-8.113-1.265s-2.626-.469-2.813-.797c-.188-.28-1.313-.468-2.58-.374-1.688.093-2.344-.094-2.579-.656-.375-.984 1.032-2.624 2.486-2.905l1.031-.187-1.078-.094c-.61 0-1.829.703-2.86 1.686-1.923 1.78-2.673 2.109-2.673 1.172 0-.328-.376-.422-.75-.281-.939.374-2.299-.14-1.97-.703.187-.234 1.031-.469 1.922-.469.985.047 1.782-.28 1.923-.702.234-.61-.235-.703-2.626-.563-1.641.094-2.954 0-2.954-.14.047-.14.516-1.124 1.125-2.108.985-1.593 1.22-1.734 1.688-.984.516.703.563.703.61.047 0-.375-.235-.984-.516-1.265-.375-.375-.234-.844.61-1.593 1.453-1.359 1.97-1.312 1.406.234-.468 1.218-.468 1.218 1.501-.328 1.079-.89 1.97-1.64 1.97-1.686 0-.094-.891-.094-1.97-.047-1.125.047-1.97.234-1.97.421 0 .188-.468.375-.984.375-.985 0-.985-.047-.14-.937 3.235-3.514 3.938-4.31 4.22-5.106.515-1.5-.985-.937-1.642.609-.75 1.827-2.485 2.998-3.939 2.623-1.031-.28-1.125-.14-.844 1.125.188 1.077-.14 2.248-1.454 4.544-.937 1.733-1.875 2.998-2.016 2.811-.188-.14-.563.234-.938.843l-.563 1.125-.562-1.5c-1.173-2.998-2.204-5.153-2.532-5.153-.188 0-.563 1.03-.891 2.249-.657 2.623-1.454 2.67-2.392.187-.61-1.593-.61-1.593-.375-.234.844 4.404.89 6.137.14 6.184-.75 0-4.782-3.935-6.846-6.653-1.922-2.576-2.11-2.53-.61.094.798 1.406 1.923 3.14 2.533 3.842.61.703.985 1.499.844 1.733-.75 1.218-4.783-1.546-5.721-3.888-.235-.656-.563-1.078-.703-.937-.329.328 1.594 4.732 2.485 5.622.422.374.75.937.75 1.17 0 .704-4.455.563-4.642-.14-.094-.328-.422-1.733-.75-3.092-.282-1.358-1.407-5.2-2.486-8.62-2.532-8.199-2.626-8.995-1.454-10.447.938-1.172.938-1.219-.562-3.233-1.22-1.687-1.454-2.296-1.126-3.42.563-1.92.47-2.577-.703-4.966-1.594-3.28-1.407-7.543.469-10.213.75-1.125 1.407-2.53 1.407-3.186 0-.609-.891-2.577-1.97-4.404s-1.97-3.467-1.97-3.654.892-1.452 2.017-2.858l1.97-2.483-.329-4.966c-.281-4.591-.14-5.762 1.923-16.491 1.266-6.371 2.72-14.055 3.236-17.147.562-3.092 1.078-5.715 1.219-5.81.61-.655 1.219 2.25 1.782 8.95.703 8.15.14 18.833-1.313 26.703-.422 2.249-.61 4.217-.47 4.404.798.75 1.783-1.546 3.002-6.887.703-3.186 1.5-5.81 1.782-5.81.797 0 .516 16.82-.375 22.208-.797 4.684-.797 5.06.047 7.402.562 1.499.797 3.092.61 4.122-.423 2.718 1.36 2.905 1.922.188.094-.656 0-2.296-.328-3.654-.422-2.109-.329-3.186.844-7.871 1.219-5.06 1.36-6.418 1.688-20.66.375-16.304.844-25.627 1.36-26.799.469-1.218.938 5.107 1.031 13.54.047 7.543 1.266 19.958 2.533 25.673.515 2.437 2.063 5.107 2.626 4.545.14-.14-.094-1.874-.47-3.936-.375-2.014-.703-4.684-.703-5.903.047-2.389-.094-2.483 2.439.984 1.453 1.968 1.5 1.031.234-2.576-.89-2.624-1.22-4.826-1.454-9.839-.14-3.607-.422-7.074-.562-7.73-.141-.796-.047-1.078.234-.75.282.282 1.313 4.03 2.345 8.386.985 4.31 2.204 8.855 2.673 10.073 1.406 3.654 2.579 9.323 2.907 14.008.375 5.388 1.313 5.81 1.172.469-.093-2.015.047-3.655.235-3.655.187 0 1.078 1.172 1.922 2.577.845 1.452 2.673 3.982 4.033 5.669 1.36 1.64 2.814 3.514 3.236 4.123s.844.983.985.89c.422-.469-1.454-4.826-3.47-7.965-3.611-5.622-4.033-6.7-3.752-9.791.235-2.624-.563-7.402-1.36-8.527-.656-.937-.985-3.795-.469-4.685.47-.937.422-2.576-1.266-36.12-.375-8.34-.656-15.274-.563-15.367.141-.14.798.75 1.454 1.92.704 1.219 1.641 2.484 2.063 2.812 1.36 1.124.891-1.36-.844-4.357-1.547-2.718-1.594-2.858-1.5-8.62.047-3.233.328-6.794.61-7.871.28-1.125.843-3.983 1.172-6.419.328-2.483.89-4.45 1.219-4.591.844-.234.75 6.23-.094 9.885-.375 1.546-.469 2.811-.234 2.811s.422-.422.422-.937c0-.562.234-1.124.469-1.265.562-.328.14 2.39-.516 3.748-.516 1.03-.563 4.404-.047 5.154.187.28.844.796 1.454 1.124 1.078.562 1.125.796 1.125 7.964 0 6.466.094 7.59.985 9.183.516 1.03 1.313 3.139 1.735 4.732 1.125 4.076 1.782 2.764.938-1.921-.516-2.999-.61-6.7-.375-15.742.328-12.274.656-12.743 1.547-2.389.375 3.935 1.313 8.901 2.767 14.758 1.64 6.418 2.204 9.744 2.204 12.368 0 2.39.187 3.514.562 3.42.329-.047.61.375.657.984.047.562-.14 1.03-.422.984s-.563.374-.657.983c-.14.844 0 1.031.61.844.422-.188.75-.562.75-.89 0-.937 1.36 1.92 2.532 5.481 1.22 3.42 1.595 9.323.75 11.056-.374.703-.187.844.845.844h1.313v-4.638c0-2.53-.375-6.09-.797-7.918-1.079-4.732-1.032-8.199.187-13.258.844-3.655.938-4.826.516-6.372-.375-1.405-.328-2.951.094-5.856.328-2.202.75-4.17.938-4.357.187-.234.61 1.687.984 4.17 1.032 7.402 2.392 12.883 4.22 17.38 2.158 5.201 2.298 7.825.563 11.291-.656 1.36-1.5 2.765-1.875 3.046-.47.374-.704 2.108-.797 5.762-.141 4.966-.094 5.2.844 5.2s1.031-.328 1.031-3.56c0-2.999.188-3.889 1.22-5.388.656-1.03 1.219-2.014 1.219-2.202.047-.515 1.922-2.998 1.97-2.53.046 1.078 3.657 14.055 4.407 15.835 1.735 3.983 4.69 4.78 3.61.937-2.203-7.683-2.719-10.166-2.484-12.18.14-1.172-.047-4.123-.422-6.512-.516-3.608-.516-4.732.046-7.028.376-1.499.938-4.029 1.267-5.669.562-2.717 1.688-5.668 2.203-5.668.094 0 .094 1.03-.093 2.202-.188 1.546-.047 2.81.562 4.31 1.032 2.53 1.032 4.45.047 7.87-.422 1.406-.75 3.795-.75 5.294 0 3.14 1.5 7.59 2.626 7.824.985.188.985-.468.047-3.56-.375-1.359-.703-3.046-.703-3.842 0-1.406 2.11-9.37 2.813-10.4.61-.938 1.126-8.34 1.36-18.038.188-9.229.328-10.869 2.532-23.612 1.641-9.744 1.688-9.838 2.11-9.838.938 0 1.97 8.714 1.97 16.257 0 4.778.14 5.34 1.266 6.84 1.5 2.061 1.5 2.155.047 4.122-1.594 2.109-3.752 6.466-3.752 7.59 0 .984 2.251 3.935 2.673 3.514.141-.14.047-.984-.234-1.78-.422-1.219-.375-1.875.281-3.186.891-1.734 2.626-3.842 3.189-3.842.656 0 1.5 5.622 1.5 10.12 0 3.42.141 4.59.657 4.778.797.328 1.266-.984 1.266-3.654 0-.984.563-2.858 1.22-4.17 1.125-2.248 1.172-2.623.703-5.856-.704-4.732-.61-5.481.984-8.573 2.064-3.936 3.002-7.59 3.049-11.572 0-1.874.328-5.763.75-8.62.375-2.858.985-7.122 1.313-9.464.328-2.577.797-4.263 1.078-4.17.329.094.563 2.062.657 4.592m-56.506 10.025c.281 1.78.844 4.966 1.22 7.122.984 5.106 1.64 24.361.843 24.361-.656 0-1.266-2.202-2.344-8.386-.938-5.622-1.595-27.594-.798-26.798.282.281.75 1.921 1.079 3.701m145.227 7.543c0 .188-.187.234-.469.094-.281-.188-.469-.703-.469-1.125 0-.75.047-.75.47-.14.28.422.468.937.468 1.171m-3.751 13.446c1.219 6.137 1.5 9.276.938 10.307-.422.75-.563.468-.844-1.546-.141-1.359-.61-4.17-1.032-6.278-.797-4.31-.938-7.683-.281-6.98.234.28.797 2.295 1.219 4.497M359.3 752.207c-.094 4.45-.328 5.997-1.22 7.87-.609 1.266-1.219 2.296-1.36 2.296-.187 0-.187-2.342 0-5.247.329-5.34 1.595-11.15 2.345-10.681.188.14.329 2.717.235 5.762m121.03 2.436c.516 2.764 1.032 5.669 1.173 6.419.14.796 0 1.311-.282 1.311-1.078 0-1.688-2.061-2.344-8.105-.188-1.592-.422-3.092-.563-3.326-.235-.421.281-1.358.75-1.358.235 0 .797 2.295 1.266 5.06m-164.64 5.646c0 1.827-.188 3.092-.376 2.764-.375-.562-.187-6.09.188-6.09.094 0 .187 1.498.187 3.326m162.483 1.147c.282.937.282 1.453.047 1.172-.516-.516-1.36-3.56-.844-3.092.188.14.563 1.03.797 1.92m-161.78 8.105c1.078 5.857 2.579 24.971 1.829 23.847-.235-.422-.563-1.406-.704-2.202a36 36 0 0 0-.797-3.514c-1.078-3.982-2.485-14.804-2.485-19.114v-4.404l.89 1.827c.517.984 1.08 2.623 1.267 3.56m-7.55-2.108c-.469.515-.516.422-.281-.28.187-.47.469-.75.61-.61.187.187 0 .562-.329.89m104.806 8.995c0 5.997-.61 8.293-1.126 4.076-.422-3.373-.422-8.948 0-9.979.657-1.78 1.126.61 1.126 5.903m5.252 2.952c-.094.28-.47.468-.844.468-.422 0-.75-.609-.845-1.733l-.14-1.687.985 1.218c.562.656.937 1.453.844 1.734m-98.57 28.531c.142.469.048.656-.234.469-.234-.141-.469-.516-.469-.75 0-.703.376-.562.704.281m-124.781 74.584c0 .844-.188 1.359-.469 1.172s-.516-.984-.516-1.78c0-.89.188-1.36.516-1.172.234.14.469.937.469 1.78m277.465 5.81c.14.28.094.515-.188.515-.28 0-.656-.234-.797-.515-.187-.235-.094-.469.188-.469.281 0 .61.234.797.469m54.396 8.198c1.641 2.952 1.735 4.123.14 1.827-1.078-1.499-2.579-4.357-2.579-4.825 0-.797.985.468 2.439 2.998m-2.532 8.058c.61 1.078.89 1.968.61 1.968-.564 0-2.017-1.405-2.017-1.968 0-.234-.14-.75-.282-1.17-.61-1.594.61-.75 1.689 1.17m-292.518 5.2c.187.75-2.298.61-2.908-.14-.468-.562-.28-.656 1.079-.515.938.093 1.735.375 1.829.656m261.1 2.624c0 .61-2.486.984-4.221.656l-1.454-.328 1.454-.328c2.204-.515 4.22-.515 4.22 0"/>
</svg>