<svg xmlns="http://www.w3.org/2000/svg" viewBox="0 0 675 935">
  <path fill="#84a0ad" d="M337.44 222.04c1.541-2.465 5.547-2.696 10.554-.693 1.772.693 5.315 1.386 7.857 1.54 2.465.077 5.392.616 6.47 1.233 4.237 2.233 12.787 9.397 13.635 11.477.539 1.232 2.773 3.697 4.93 5.546 2.233 1.848 4.93 5.083 6.008 7.24 2.31 4.545 2.465 5.392.77 3.928-.693-.539-1.232-.616-1.232-.23.077 1.232 4.39 4.93 6.47 5.545 4.237 1.233 8.936 4.853 10.553 8.088 1.849 3.928 2.08 5.931.231 2.388-.693-1.31-2.08-3.235-3.004-4.314-1.772-1.925-9.397-6.239-9.397-5.314 0 .308 2.85 3.543 6.239 7.163 5.161 5.392 6.625 7.626 8.165 11.94 1.926 5.468 3.775 7.933 5.931 7.933 3.005 0 9.86 2.696 12.402 4.93 2.696 2.388 2.773 2.696 3.004 9.089.231 5.854.463 6.624 1.85 6.855 4.159.616 5.314 1.079 5.314 2.311s-.154 1.232-1.54 0c-1.695-1.54-6.471-1.772-7.01-.308-.231.54.154 2.465.77 4.236.616 1.772.924 3.544.616 4.006-.23.385-.924-.693-1.54-2.465-1.233-3.543-3.004-5.623-5.623-6.316-1.464-.462-1.772-.154-2.08 2.542-.154 1.617-.462 3.543-.693 4.236-.232.847 1.155 1.695 4.775 2.927 4.7 1.54 5.315 2.08 6.702 5.16 1.849 4.083 1.926 5.316.308 5.932-2.619 1.078-1.001 4.776 2.465 5.623q1.617.346-.924.462c-3.082.154-3.775-1.232-3.082-6.008.463-3.081.232-3.62-2.31-6.24-1.772-1.694-3.929-2.926-5.547-3.157-1.463-.231-3.389-.694-4.16-1.002-.846-.385-1.386-.308-1.386.308 0 .463 1.079 1.079 2.465 1.387 5.084 1.001 8.32 8.01 6.625 14.404-.693 2.619-.693 3.62.308 5.084.616 1.001 1.695 1.771 2.31 1.771.694 0 1.233.386 1.233.848 0 1.078-2.465.077-4.621-1.849l-1.695-1.54-1.387 2.618c-.847 1.695-1.232 3.62-.924 5.392.54 3.312-.693 2.85-1.387-.539-.23-1.54-1.001-2.465-1.771-2.465-1.156 0-1.156-.154 0-1.771 1.31-1.849 1.694-6.702.77-9.09-.54-1.309-7.087-6.162-8.473-6.162s-.77 1.54.924 2.08c2.003.616 2.08 2.003.077 2.003-2.08 0-7.164 4.698-5.623 5.16 3.312 1.079 3.466 1.156 1.926 1.233-1.156.077-.77.847 2.234 4.082 2.08 2.234 3.774 4.545 3.774 5.161 0 .54 2.08 3.697 4.545 6.933 5.007 6.47 6.778 11.014 6.778 17.639 0 4.236.154 4.621 4.391 9.012l4.314 4.544-1.233 3.929c-1.694 5.238-6.624 10.707-10.322 11.4-3.158.616-3.312 1.155-1.54 6.239 1.155 3.39 3.62 5.931 14.02 14.635.615.54 2.156.847 3.388.77 4.314-.308 8.628 7.857 6.471 12.479-1.107 2.583-1.295 2.408 2.081 4.423l.46.275c1.927 1.079 4.7 3.312 6.317 4.93 1.541 1.618 4.083 3.62 5.624 4.39 1.54.848 4.39 2.311 6.239 3.236 2.31 1.232 4.776 1.771 7.703 1.771 7.087-.077 8.55 1.002 5.7 4.16-1.386 1.54-1.386 1.54.154 1.232.925-.154 1.772-1.001 1.926-1.848.385-2.234 3.312-5.315 5.084-5.315.77 0 2.157 1.155 3.158 2.542 1.464 2.002 2.157 2.387 3.852 1.925 1.155-.23 2.927-1.155 4.005-2.08 1.156-.847 2.465-1.54 2.927-1.54 1.276 0 22.575-32.602 43.63-66.2l1.83-2.924c8.835-14.135 17.524-28.283 24.56-40.1 7.82-13.033 8.29-13.883 7.358-16.177l-.061-.149-.032-.076-.067-.156-.034-.08c-.77-1.617-.77-2.388.077-3.697 1.387-2.234-.23-3.929-6.547-6.701-4.237-1.926-5.7-2.157-9.86-1.85-2.696.232-6.625 1.233-8.705 2.158-4.775 2.156-11.246 7.933-14.558 13.094-1.387 2.157-2.927 3.929-3.312 3.929-.712 0-.335-6.339.579-12.606l.104-.696c.352-2.315.776-4.589 1.242-6.494 2.85-11.708 7.78-22.492 15.33-33.661 4.313-6.24 13.942-16.56 19.488-20.874 3.543-2.696 3.543-1.849 0 1.54-2.696 2.62-3.313 3.775-3.236 5.931.078 1.54-.23 3.235-.539 3.852-.385.693.385.23 1.695-.925 1.31-1.078 3.697-3.004 5.392-4.236 1.618-1.233 3.004-2.62 3.004-3.004 0-1.464 3.312-7.78 5.007-9.629 2.465-2.695 2.696-1.386.616 3.39-2.773 6.162-2.773 17.177-.077 22.646 2.08 4.159 6.394 8.858 11.17 12.17 2.542 1.694 3.62 2.002 5.93 1.54 2.62-.616 2.774-.77 2.543-3.543-.231-2.85-.077-3.004 4.468-5.084 7.24-3.389 15.02-6.162 15.56-5.623.3.3.654 4.939.886 9.854l.037.821c.218 4.934.303 9.919.078 10.893-.154.77-1.078 1.463-2.003 1.463-3.004 0-4.082 1.156-3.004 3.158.54.925.693 2.388.462 3.159-.924 3.004 10.861 10.398 19.643 12.324 5.007 1.078 11.94-.154 15.098-2.62 1.078-.923 2.08-1.386 2.08-1.154 0 .594 2.033-1.55 4.024-3.988l.34-.42c1.246-1.548 2.427-3.157 3.03-4.22.925-1.617 2.003-2.772 2.388-2.541.426.248.64 3.616.648 7.773v.72c-.017 4.723-.288 10.26-.802 13.382-.385 2.773-1.694 8.088-2.773 11.862-8.01 27.653-31.351 55.152-57.464 67.784-8.396 4.082-15.252 6.316-16.253 5.315-.385-.385 1.078-2.311 3.08-4.468 12.634-13.094 20.26-34.277 17.718-49.22-1.156-6.393-3.698-12.478-6.933-16.33-1.618-1.848-2.542-2.387-3.158-1.771-.462.462-1.695.847-2.773.847s-2.542.616-3.158 1.387c-.617.77-14.02 20.72-29.811 44.29l-3.342 4.985-.962 1.433-1.446 2.155-1.932 2.875-.483.718-.965 1.436c-13.021 19.366-25.659 38.028-30.463 45.015-6.009 8.704-10.861 16.099-10.861 16.484 0 .462 1.386 2.31 3.235 4.237 4.082 4.544 4.16 6.932.385 10.244-2.157 1.926-2.85 3.158-2.85 5.238 0 2.234-.462 3.004-2.85 4.39-1.695 1.002-2.773 2.311-2.773 3.236 0 2.002-3.544 5.546-5.624 5.546-1 0-2.08 1.078-3.08 3.004-1.85 3.928-5.316 5.083-9.167 3.158-1.464-.694-3.004-1.31-3.544-1.31-.462 0-3.235 3.544-6.085 7.857l-.442.677q-.222.34-.447.677l-.45.676c-2.48 3.706-5.001 7.195-5.979 8.369-2.157 2.464-19.796 28.577-23.417 34.508-1.463 2.542-1.617 3.312-.847 4.313.847 1.001.616 2.157-1.464 6.24l-.135.287-.27.575c-1.164 2.494-2.246 4.925-2.522 5.685-.385 1.155-.924 1.386-2.619.924-5.16-1.233-18.025-10.476-18.025-12.787 0-.772 2.872-4.106 5.72-6.985l.503-.503c2.085-2.07 4.066-3.8 4.792-3.989 1.233-.308 3.698-3.158 6.856-7.933 1.951-2.873 5.848-8.569 9.919-14.43l.644-.926c1.504-2.163 3.02-4.329 4.458-6.366 5.469-7.857 9.937-14.712 9.937-15.097 0-.924-3.852-2.003-4.853-1.31-.462.232-.77 1.464-.77 2.773s-.386 2.542-.848 2.85c-.462.231-.77-.154-.77-1.001 0-.77-.616-3.158-1.387-5.16-1.31-3.698-1.31-3.775-4.621-3.39-2.696.308-3.62.077-4.853-1.31-1.079-1.155-2.542-1.694-4.468-1.694-1.618 0-3.775-.54-4.776-1.232-1.618-1.156-1.926-1.156-3.543 0-1.002.693-2.388 2.387-3.081 3.85-.694 1.387-3.159 3.93-5.624 5.624-5.315 3.774-8.319 3.928-14.558.77-3.62-1.771-5.007-3.08-7.087-6.624-4.16-7.164-4.776-7.703-9.706-9.551-2.619-.925-5.623-2.62-6.701-3.775-2.62-2.773-3.159-2.542-2.157 1.156.77 2.85.616 3.466-1.31 6.008-2.85 3.774-2.773 5.16.54 6.701 1.54.77 3.235 2.31 3.697 3.466 1.464 3.158 2.08 13.557.924 14.943-.847 1.002-.616 1.695.848 3.775 1.617 2.157 1.925 3.543 2.002 9.32l.077 6.855 4.237 4.083c4.16 4.005 4.237 4.005 7.087 3.004 2.619-.924 2.927-.924 4.005.539.617.924 5.778 7.857 11.324 15.405q.754 1.013 1.52 2.049l.615.83.615.833c4.82 6.537 9.625 13.203 11.5 15.853 2.234 3.235 4.314 5.854 4.622 5.854s1.233-.693 2.003-1.617c2.08-2.234 5.007-2.003 7.78.77 3.081 3.081 3.158 7.01.23 10.553-2.464 2.927-6.624 3.389-10.09 1.078-8.088-5.469-10.322-6.547-7.857-3.697.693.77 1.54 2.388 1.849 3.466.385 1.078 3.774 5.315 7.626 9.32 11.169 11.554 19.488 22.107 25.188 31.89 7.164 12.4 7.55 12.863 11.478 13.479 4.622.77 7.087 3.39 7.087 7.626 0 4.005 1.155 6.393 3.08 6.393 2.62 0 5.008 2.388 5.008 4.93 0 2.08.308 2.387 2.234 2.387 3.62 0 7.394 2.85 9.243 7.087.924 2.08 3.235 5.546 5.161 7.548 6.008 6.548 7.626 15.406 3.698 20.413-1.541 1.925-2.542 4.313-2.85 6.932-.309 2.157-1.233 6.008-2.08 8.396-1.387 4.005-1.387 4.622-.308 6.162 2.233 3.158 2.619 19.026.693 27.96-.462 1.926.23 4.006 3.158 9.86 4.853 9.706 4.853 10.322-.308 9.629-3.62-.463-4.083-.386-4.083 1 0 .771.308 1.773.694 2.235.847.847 1.771 7.24 1.694 11.785 0 1.617.616 4.698 1.31 6.778.924 2.85 1.001 4.006.308 4.853s-.693 2.08.077 5.007c.54 2.156.924 5.391.924 7.317-.077 2.619.308 3.697 1.464 4.468 2.003 1.232 2.003 2.08.23 3.466-1.386.924-1.309 1.232.078 5.469 1.078 3.004 1.31 4.852.77 5.546-1.463 1.925 0 5.469 2.234 5.469 1.695 0 2.003 1.694.693 4.082-.616 1.232-.462 1.772.848 2.619.847.54 1.617 1.849 1.617 2.773 0 1.155 1.233 2.773 3.159 4.39 1.771 1.387 3.389 3.39 3.62 4.391.308 1.232 2.003 2.696 4.776 4.16 3.851 2.08 4.236 2.618 4.467 5.314.232 2.696.694 3.312 4.083 5.084 2.08 1.155 5.546 3.466 7.78 5.238 6.394 5.007 14.867 8.088 22.493 8.088 9.551 0 13.326 2.156 15.02 8.55.54 1.848 1.618 4.005 2.543 4.775 2.08 1.926 1 3.312-3.082 4.006-7.317 1.31-7.78 2.542-1.386 3.312 4.699.616 7.318 2.31 4.699 3.158-5.339 1.627-19.099 2.18-33.597 1.66l-1.32-.051c-7.047-.284-14.213-.82-20.622-1.609-3.951-.498-11.54-.962-19.144-1.283l-1.2-.05c-11.993-.482-23.547-.593-20.405.1 1.695.309 4.7.463 6.625.309 4.083-.463 7.626 1.001 6.24 2.465-.54.462-.925 1.54-.925 2.31s-.308 1.464-.616 1.54c-.989.108-2.59.159-4.275.164h-.597c-2.996-.01-6.062-.158-6.298-.394-.23-.308-.077-1.31.463-2.311 2.08-3.851 1.078-3.928-32.738-1.926-6.548.385-16.33.308-21.645-.154-4.7-.462-5.47-.308-5.47.77 0 .848-.693 1.31-1.848 1.31-1.387 0-1.54-.154-.616-.77.693-.385.924-1.002.539-1.387-.693-.693-15.021-1.155-16.1-.539-.308.231-.076 1.155.54 2.157.616 1.001 1.31 3.004 1.617 4.467.386 2.234.154 2.773-1.31 3.312-2.233.848-17.562.155-17.562-.77 0-.385.693-1.925 1.54-3.389l1.618-2.696-7.395.308c-6.548.298-7.274.236-6.898-.95l.043-.128c.462-1.079.23-1.233-.847-.77-.77.385-5.47.924-10.322 1.309-16.023 1.232-23.418 2.542-23.726 4.16-.154.924.463 1.694 1.926 2.233 2.927 1.079 1.849 2.003-2.08 1.695-1.925-.154-3.928.308-5.238 1.155-1.925 1.233-2.696 1.31-6.008.462-2.62-.693-7.472-.847-15.252-.539-6.47.308-12.094.154-12.94-.23-.848-.463-4.777-.463-9.476-.078-4.467.308-11.246.924-15.097 1.233-4.391.308-7.857.23-9.475-.309-1.926-.693-3.312-.693-5.392.077-2.696.925-2.773 1.079-1.695 2.542 1.233 1.618 1.233 1.618 2.388 0 1.001-1.232 1.464-1.386 2.234-.616s.77 1.233-.077 2.234c-.616.693-1.464 1.155-2.003.924-.539-.154-2.542-.077-4.468.308-4.621.848-5.623.385-5.623-2.619 0-2.31-.154-2.387-2.542-1.925-1.386.308-3.851.539-5.469.539h-2.927l3.081 1.617c1.772.925 3.62 1.541 4.16 1.31.539-.231 1.463-.077 2.08.385 1.001.616.924.847-.231 1.54-.848.463-1.387 1.85-1.387 3.159 0 2.773-1.232 3.08-9.552 2.619-6.47-.386-6.701-.617-4.698-5.47 1-2.387 1-2.772 0-2.772-.617 0-1.156.308-1.156.693 0 .308-.693 1.386-1.54 2.31-1.156 1.214-1.791 1.517-18.61 1.528h-2.097c-5.322-.003-12.093-.03-20.736-.064-37.667-.077-39.978 0-40.98 1.387-2.772 3.774-14.327 6.316-29.04 6.316-12.71-.077-21.029-1.772-23.802-5.007l-2.08-2.388-24.726-.308-24.727-.308.462 2.696c.386 2.311.155 2.773-1.463 3.312-1.322.475-8.236.68-15.723.671l-1.024-.003-.514-.002-1.03-.007c-8.753-.067-17.51-.417-18.452-.967-1.387-.77-1.387-.924-.231-.924.77 0 1.54-.385 1.771-.77.54-.77-1.31-9.013-1.925-9.013-.309 0-1.233-.462-2.08-1.155-1.464-1.078-1.31-1.155 1.463-.693 5.315.847 8.474-.308 10.784-3.774 1.156-1.695 2.697-3.39 3.467-3.698 2.436-.953 11.462-2.816 20.445-4.313l.98-.162c3.75-.614 7.452-1.156 10.62-1.533 4.005-.462 10.398-1.232 14.173-1.771q.548-.068 1.11-.134l.75-.088c3.256-.378 6.553-.703 7.845-.703 2.465-.154 2.85-.385 2.85-2.157l.001-.161c.02-1.624.38-1.839 2.619-1.764 4.082.23 6.778 1.078 6.239 2.002l-.035.068c-.218.477.407.532 1.807.164 1.232-.309 5.469-.617 9.397-.694 3.852 0 7.01-.154 7.01-.308 0-.23-.54-.77-1.232-1.31-1.156-.77-.925-1.232 1.617-3.157 1.772-1.387 4.006-4.39 5.7-7.78 2.388-4.699 2.773-6.162 2.311-9.09-.385-3.08-.154-3.85 1.695-5.853 2.465-2.696 2.388-2.08.847-5.084-1.155-2.31-1.155-2.773 0-4.93.616-1.31 1.926-2.696 2.85-2.927 2.696-.847 5.7-6.008 5.7-9.86 0-2.618.386-3.62 1.618-4.313 2.003-1.078 5.315-7.625 6.47-12.71.463-2.079 1.002-4.467 1.233-5.237.231-.847-.231-1.695-1.232-2.234-1.464-.77-1.85-.616-3.082 1.54-2.233 3.852-3.774 3.93-3.158.155l.54-3.158-4.853-.77c-5.315-.848-7.241-.232-7.395 2.464-.077 1.387-.154 1.464-.462.308-.155-.77-.694-1.232-1.079-1-.385.307-.385 1.309.077 2.464.462 1.232.385 2.157-.077 2.465-.54.308-.693 3.158-.308 7.934.616 8.241.385 8.78-4.314 9.782-3.389.693-3.389-.462 0-2.003 1.464-.693 2.773-1.925 2.927-2.773.309-1.771-2.464-14.173-3.235-14.173-.23 0-.693 1.618-.924 3.62-.385 3.39-2.311 6.856-3.929 6.856-1.155 0-1.771-5.854-.77-7.395 1.31-2.233-.847-2.002-3.697.386-5.392 4.544-9.09 5.083-5.084.847 1.54-1.618 2.234-2.773 1.617-2.542-4.39 1.464-4.853 1.54-4.853.308 0-.847.925-1.31 2.928-1.463 3.08-.231 5.777-2.927 3.697-3.62-.77-.309-.693-.925.231-2.774 1.233-2.31 1.155-2.387-1.001-3.312l-2.234-.924 2.003-.385c4.236-.693 9.243-5.854 10.167-10.399.617-3.08-2.387-7.163-3.697-5.007-.693 1.233-4.39 1.464-5.47.386-.384-.463 1.542-.848 3.082-.617.847.077.54-2.696-.385-3.312-.462-.308-2.003-.616-3.312-.616-1.387 0-2.927-.385-3.39-.924-.693-.694-.924-.308-.847 1.617 0 1.387-.154 2.773-.385 3.004-1.078 1.079-2.234-.693-2.234-3.389 0-5.084-8.011-10.707-8.165-5.777 0 1.001-.385 2.542-.77 3.466-.54 1.233-.694.848-.54-1.617.154-2.85-.077-3.312-1.771-3.544-1.926-.23-1.926-.23-1.387 4.853.693 6.316 2.003 11.477 5.777 22.954 3.313 9.86 4.16 11.631 10.476 21.337 2.465 3.774 5.238 8.858 6.163 11.323s3.004 6.008 4.776 7.856c2.927 3.158 3.08 3.698 3.697 10.476.385 4.93.308 7.472-.385 8.396-.54.693-1.695 2.773-2.542 4.698-1.155 2.311-2.157 3.39-3.235 3.39-2.003 0-2.003-.385.077-3.004.847-1.156 1.386-2.234 1.155-2.465-.693-.693-4.545 3.312-4.082 4.313.154.54-.386 1.54-1.233 2.311-1.926 1.618-2.003 3.62-.23 4.93 2.079 1.463.846 5.469-1.542 5.16-1.232-.23-1.771-.77-1.617-1.925.385-2.927.308-4.776-.231-7.549-.54-2.465-.231-3.004 4.16-7.163 4.467-4.39 4.621-4.776 4.621-8.55-.077-2.234-.616-4.468-1.232-5.315-.694-.693-2.157-3.158-3.236-5.315-2.233-4.39-2.465-4.236-3.466 3.004-.231 2.157-.924 5.007-1.54 6.47-.54 1.464-1.31 3.313-1.618 4.16-1.002 2.85-2.08-.231-2.08-6.008 0-5.854-1.772-9.937-8.781-20.643-3.698-5.623-15.868-18.41-22.878-24.033-3.39-2.696-12.941-13.402-17.64-19.796-1.001-1.386-2.003-3.697-2.08-5.006-.077-1.387-1.232-4.237-2.542-6.317-6.24-10.09-8.473-14.173-9.628-17.254-.617-1.848-2.234-5.237-3.544-7.548-4.93-8.704-7.318-21.953-7.318-40.979 0-9.628.308-14.558 1.233-17.408.616-2.233 1.155-5.006 1.155-6.316.019-.713.445-2.166 1.148-4.07l.23-.617c1.001-2.626 2.459-5.98 4.079-9.403l.392-.823c1.973-4.116 4.147-8.254 6.014-11.276 2.003-3.235 5.7-8.319 8.165-11.323s6.085-8.165 8.011-11.554c2.003-3.389 7.24-10.09 11.709-14.943 10.553-11.631 15.714-19.18 16.946-25.265 1.233-5.7 3.081-9.012 4.083-7.394 1.078 1.771 2.002.23 5.084-8.165l.523-1.431.523-1.427c8.388-22.786 17.034-43.648 20.214-48.75 4.468-7.164 11.015-16.099 20.875-28.5 10.014-12.478 11.554-15.56 8.858-17.793-2.85-2.388-4.467-7.395-5.392-16.484l-.924-9.09 2.388-3.003c1.31-1.618 4.237-4.083 6.547-5.392 4.006-2.311 4.16-2.62 4.7-6.624.847-6.548 1.848-9.013 4.93-12.017 1.617-1.54 3.697-4.236 4.544-6.008 2.003-3.774 7.24-11.092 10.399-14.558 1.232-1.31 3.928-6.316 5.931-11.092 2.08-4.775 6.009-13.094 8.782-18.563a604 604 0 0 0 2.874-5.651l.353-.707c4.268-8.566 5.349-11.636 4.399-12.206-2.465-1.617 6.393-13.402 13.71-18.178.925-.693 2.928-3.466 4.392-6.24 3.774-7.163 6.701-10.552 12.478-14.711 5.624-4.006 5.7-4.16 6.548-9.783.924-6.316 4.082-8.627 14.404-10.398l3.082-.54-.54-3.774c-.308-2.156-.154-4.852.386-6.162l.847-2.31 8.165.539 8.165.616 6.625-6.933c5.469-5.623 7.24-7.01 10.399-7.856l3.774-1.002-.308-3.312c-.154-1.772-.385-5.238-.385-7.703l-.154-4.467-2.003 2.31c-2.696 3.082-3.235 5.7-1.695 9.475 1.31 3.39 1.002 4.082-.77 1.772-.616-.77-1.078-3.004-1.078-5.007-.077-4.39 2.388-7.857 8.319-11.631 7.472-4.853 8.242-6.162 8.242-13.788 0-5.931.231-7.086 2.234-10.014 1.155-1.848 3.39-4.005 4.853-4.698 3.158-1.618 10.322-9.012 10.707-11.169.385-1.926 2.773-4.622 3.62-4.16.386.232 3.082-1.617 6.163-4.005 4.468-3.543 6.162-4.467 8.473-4.467s3.312-.463 4.314-2.003m270.452 669.209c1.695 0 4.39 1.617 7.164 4.313 1.618 1.464 3.081 2.234 3.851 1.926 1.541-.616 3.698.154 3.698 1.31 0 .462-.616 1.232-1.387 1.771-1.31 1.001-1.31 1.155 0 3.158 1.387 2.08 1.387 2.08-.847 2.696-1.17.366-5.748.593-10.43.615l-.74.001c-8.01 0-9.089-.154-11.169-1.771-1.31-1.002-3.389-1.849-4.621-1.849s-2.465-.308-2.696-.77c-1.464-2.311 6.085-9.706 8.858-8.627.693.23 2.619-.231 4.237-1.156 1.617-.847 3.466-1.617 4.082-1.617M432.264 722.637c-2.31-4.776-4.16-4.853-3.466-.154l.042.273c.263 1.8.664 6.413 1.047 11.236l.064.805.094 1.21.063.803c.385 6.008 1 12.016 1.232 13.48.847 3.851-1.155 6.47-8.627 11.554-6.009 4.082-6.779 4.852-6.779 7.086-.077 3.158-1.54 4.93-5.623 6.779-4.622 2.156-8.936 2.002-10.476-.232-.693-1-1.233-2.387-1.233-3.158 0-1.54-3.543-5.006-4.39-4.236-.308.308 0-.77.693-2.388 1.078-2.542 1.078-3.081 0-4.082-.616-.694-1.233-1.926-1.233-2.696 0-2.465-1-3.312-4.005-3.544-5.7-.308-5.7-.23-5.47 3.467.232 3.158.078 3.466-1.617 3.235-2.08-.231-2.234.77-.924 4.544 1.232 3.467.23 4.314-1.156 1.002-.539-1.387-1.31-2.311-1.617-2.003-.308.308-.54 6.393-.54 13.48v.915c-.007 9.233-.145 11.636-1.093 13.37l-.094.165-.049.082-.102.162q-.13.2-.28.403c-1.848 2.619-6.932 4.853-10.937 4.853-3.313 0-3.39.308-.925 3.62 1.079 1.386 2.542 3.774 3.313 5.315.847 1.54 3.928 5.238 7.01 8.165 5.623 5.469 8.01 9.397 8.01 13.48 0 1.232 1.079 4.005 2.465 6.238q.15.255.288.496l.268.47c2.37 4.18 2.271 5.024-.17 2.655l-2.003-1.849-.077 4.006c0 4.39-2.08 9.628-4.7 11.939-1.232 1.078-3.542 1.694-8.241 2.156-4.468.386-6.933 1.002-8.088 2.003-2.08 1.926-2.003.385.077-2.31 1.155-1.464 2.465-2.157 4.082-2.157 1.54 0 2.388-.386 2.388-1.233 0-1.463.693-1.463 2.696 0 2.003 1.54 4.776.231 6.625-3.235 1.232-2.31 1.31-3.158.462-5.854-.462-1.772-.924-4.699-.924-6.624 0-3.775-1.079-6.317-5.932-13.634-2.388-3.62-4.005-5.238-5.546-5.546-1.772-.385-2.465-1.232-3.466-4.236-1.233-3.698-5.315-8.936-6.856-9.013-.462 0-.847.694-.847 1.54 0 1.773-4.314 5.855-8.242 7.935-1.464.693-4.776 1.386-7.472 1.463-4.468.077-4.93.308-5.161 1.926-.385 2.465-2.696 1.926-4.083-1.001-.77-1.618-1.463-2.08-2.388-1.695-.77.308-3.08.924-5.238 1.463-3.543.848-3.851 1.156-3.466 2.927.231 1.156.231 1.618-.077 1.079-.693-1.618-2.696-1.233-2.696.539 0 1.695-4.622 5.392-6.317 5.007-1.771-.385-4.853 2.08-5.16 4.082-.386 2.62-1.85 2.311-2.157-.385-.309-2.619-1.695-2.157-1.695.616 0 1.002-.616 2.311-1.233 2.85-.693.54-1.232 1.464-1.232 2.003s-.54 1.463-1.156 2.003c-1.694 1.386-3.851 9.397-3.312 12.401.462 2.619-.616 5.469-1.694 4.39-1.156-1.155-1.926-9.243-1.464-14.712.616-6.47-.77-6.701-2.003-.385-.539 2.773-.693 3.081-.77 1.233-.077-1.233.616-4.853 1.54-7.934 2.08-6.778 1.772-9.551-.539-5.7-.847 1.463-2.002 2.773-2.542 3.004-1.31.54-1.31-2.465 0-3.312 1.079-.693 3.082-4.622 3.082-6.085 0-.54-.463-.462-1.233.154-.693.539-1.232 1.694-1.232 2.465 0 .847-.309 1.694-.694 1.925s-.539-.462-.308-1.617c.231-1.079.693-2.157 1.079-2.465.385-.231.77-1.387.77-2.542 0-1.849-.154-2.003-1.156-1.001-.539.693-1.463 2.773-2.002 4.621-.54 1.926-1.926 4.468-3.082 5.7l-2.08 2.234 1.31-2.234c2.08-3.389 5.546-17.716 4.545-18.717-.54-.54-.77-.385-.77.462 0 1.771-4.545 11.477-5.855 12.478-.539.462-1.771 1.079-2.696 1.387-1.078.385-.847-.077.925-1.695 3.466-3.004 4.39-5.007 4.39-9.782 0-2.234.386-4.314.848-4.622.616-.385.77.077.385 1.387-.462 1.848-.462 1.848.54-.154.538-1.079 2.002-3.39 3.234-5.161 1.54-2.157 2.003-3.466 1.464-4.006-.616-.539-1.156-.539-1.849.154-1.463 1.54-2.31 1.156-1.232-.616 1.232-2.003 1.078-2.157-4.237-2.773l-4.468-.539-1.925 7.086c-2.311 8.473-3.005 9.475-3.775 5.546-.308-1.617-.308-3.158-.077-3.466.308-.308.54.231.616 1.079 0 1.463.077 1.463.77-.077 1.08-2.542.925-6.24-.23-5.855-.54.155-1.156 1.002-1.233 1.926-.231 1.233-.77 1.54-2.08 1.31-2.696-.54-11.015 7.78-13.865 13.941-1.233 2.62-2.234 5.315-2.157 5.855.308 1.617-1.31 1.155-2.696-.848-1.155-1.694-1.155-1.848.847-3.312 1.926-1.386 2.003-1.849 1.541-5.777-.385-3.081-.231-4.853.77-6.701 1.695-3.312 1.618-3.775-.693-4.853-2.31-1.001-2.927-.616-2.927 2.08 0 1.617-.154 1.848-1.079 1.078-1.54-1.31-2.387.077-1.771 3.004.23 1.156.154 3.235-.308 4.622l-.694 2.388-.077-2.157c-.077-2.773-1.386-3.62-2.465-1.54-1.386 2.618-1.001 5.776 1.156 8.318 2.08 2.465 2.542 3.852 1.31 3.852-.386 0-.925-.694-1.156-1.618-.231-.847-1.001-1.618-1.772-1.618-.77 0-1.926-.616-2.465-1.386-1.617-2.08-1.463.231.154 2.696 1.618 2.388 1.618 2.388-3.312 0-2.234-1.078-4.314-1.772-4.622-1.618-.308.231-1.54 2.157-2.696 4.237-3.081 5.7-7.395 8.242-14.096 8.242-2.927 0-7.01-.617-9.167-1.387-3.774-1.386-3.851-1.31-5.084.385-.693 1.002-2.003 1.772-2.85 1.772-1.926 0-9.552 7.857-9.629 9.936 0 .77-1.001 2.542-2.31 4.006-1.233 1.463-3.082 3.928-4.16 5.469-1.001 1.617-3.158 4.236-4.699 5.854-2.773 2.927-2.85 3.08-1.386 4.621 1.386 1.54 1.386 1.849.154 4.39-.77 1.541-1.31 3.159-1.31 3.698 0 .462-1.001 1.695-2.157 2.773-1.771 1.618-1.925 2.234-1.232 3.62 1.694 3.158 1.155 6.47-1.54 8.396-2.158 1.54-2.389 2.234-2.389 6.008v4.237l5.47.77c9.397 1.464 15.405 1.849 15.868 1.079.539-.848 5.469-1.618 12.632-2.08 2.465-.154 5.47-.693 6.702-1.233l2.31-.847-1.617-2.696c-1.001-1.54-1.463-3.389-1.232-4.313.385-1.387-.077-1.926-2.234-2.62-2.696-.924-8.011-6.855-7.934-8.934 0-.694.77-.925 2.234-.694 1.925.308 2.31.077 2.003-1.001-.463-1.695.693-2.542 5.238-3.697 4.005-1.002 4.93-.385 2.619 1.694-2.311 2.08-2.003 3.158.616 2.465 2.388-.539 4.468-2.619 3.774-3.774-.924-1.464 3.004-.616 5.777 1.31 1.695 1.155 3.544 2.079 4.16 2.079 1.618-.077 7.472 3.081 7.472 4.005 0 .386 1.078 1.31 2.388 2.003 1.618.77 2.542 2.08 2.927 3.851.54 2.542.616 2.542 1.31.77.539-1.54 1.155-1.848 3.312-1.617 2.234.231 2.696.693 3.39 3.235.461 1.618 1.155 3.235 1.463 3.544.77.77 9.551 1.078 9.551.23 0-1.54.154-2.002 1.772-4.621 1.078-1.695 1.618-3.928 1.54-6.316 0-2.003.463-4.776 1.156-6.008 1.695-3.312 4.006-3.39 10.4-.154 2.233 1.078 5.545 2.465 7.317 3.08 3.004.925 3.235 1.233 3.004 3.544-.154 1.772.462 3.697 2.003 6.162 2.157 3.39 2.542 3.62 6.162 3.774 2.08 0 4.237.154 4.853.154.54.078.847-.539.77-1.309-.154-.77.155-1.386.617-1.386.539-.077.693.308.385.77-.616 1.001 2.85 1.078 4.39.077.848-.54 1.926.077 3.775 2.003 2.31 2.541 3.004 2.773 7.703 2.927 17.486.539 30.58-.77 37.205-3.698 3.467-1.463 3.698-1.771 3.004-3.466-1.232-2.542-.154-5.854 2.234-6.932 1.85-.848 2.311-.617 4.468 1.771 2.08 2.311 2.773 2.542 5.007 2.157 1.464-.308 4.237-.77 6.24-1.078 2.002-.231 3.85-.77 4.082-1.079.308-.539 4.622-1.078 6.856-.847.539.077 1.54 1.386 2.31 3.081 1.387 2.85 1.387 3.004-.154 4.237-.847.693-1.771 1.925-2.002 2.695-.308.77-1.002 1.387-1.695 1.387-.616 0-1.54.54-2.08 1.232-1.617 1.849 1.233 2.542 3.236.77 1.54-1.386 1.617-1.386 3.312.078.166.152.32.292.48.42l.108.083.11.08c1.628 1.142 4.49 1.278 24.26 1.882 20.952.589 22.926.788 24.797-.679l.132-.106.133-.112c.246-.21.506-.45.82-.721 3.389-2.85 6.393-2.773 9.32.308 2.08 2.157 2.85 2.388 7.087 2.388h.339c3.868-.014 4.725-.289 6.748-2.31 1.309-1.31 2.387-2.774 2.387-3.236 0-1.54 2.542-.924 3.005.693 1.232 4.776 3.774-1.078 3.08-6.932-.692-5.47.617-13.172 3.159-18.487 2.31-4.93 2.619-6.932.924-6.932-1.386 0-3.62 3.39-4.236 6.547-.231 1.31-.77 2.62-1.156 2.85-1.31.77-1.54-1.31-.616-4.93.693-2.772 1.772-4.39 4.083-6.239 2.08-1.694 3.08-3.08 2.927-4.16-.308-1.694-.694-2.002-7.01-4.544-6.547-2.619-8.781-1.925-16.407 5.392-6.317 5.931-8.088 6.779-8.628 3.929-.385-1.618 7.78-10.322 11.478-12.325 3.081-1.617 9.012-1.54 13.018.077 2.619 1.156 3.312 1.156 4.236.308 1.618-1.694.155-8.241-2.542-10.937-1.848-1.772-2.156-2.696-1.771-4.93.462-2.85-2.157-8.627-7.703-16.869-1.31-1.849-2.311-3.851-2.311-4.545 0-2.387-2.465-5.854-5.854-8.241-4.16-3.004-7.857-8.936-10.245-16.33-2.542-7.934-3.313-13.865-3.313-25.496 0-8.858-.154-10.322-1.386-11.015-1.387-.77-1.387-1.001 0-4.621 1.31-3.62 1.31-3.775-.231-5.777-1.849-2.388-2.08-5.623-.462-7.78 1.001-1.233.924-1.926-.617-5.007m-145.586 110.38c.54 0-1.31 3.158-2.234 3.697-.462.308-.308-.385.462-1.54s1.541-2.157 1.772-2.157m-155.677-4.545c1.001-1.618 1.926-2.542 2.08-2.08.385 1.079-2.08 5.007-3.081 5.007-.386 0 .077-1.31 1.001-2.927m149.977-17.254c.693 0 .231.693-1.078 1.695-1.31 1-1.31 1-.309-.309.617-.77 1.233-1.386 1.387-1.386m137.73-487.426c-1.233-1.078-5.547-2.31-5.547-1.617 0 .23 1.001 1.463 2.31 2.773 1.387 1.386 2.928 4.236 3.698 6.932 1.464 5.007 2.85 5.392 2.85.847 0-3.158-1.617-7.548-3.312-8.935m-8.782-19.256c-1.772-2.157-4.083-3.081-4.083-1.772 0 .616.54 1.618 1.156 2.08.616.539 1.001 1.463.77 2.08-.616 1.54 3.697 5.93 6.393 6.547 2.08.462 2.234.385 2.234-2.465 0-2.542-.385-3.081-2.696-4.083-1.54-.616-3.235-1.694-3.774-2.387m9.09-15.02c-5.008-2.157-8.012-2.08-8.474.23-.462 2.542.077 4.622 1.232 4.7 1.233 0 4.237 4.544 4.93 7.394.54 2.465 2.773 4.236 6.317 5.006l2.234.54v-6.317c0-7.471-1.002-9.32-6.24-11.554m-13.096 5.468c-.77-.77-.847-.693-.462.385.54 1.31 8.473 7.934 9.552 7.934 1.155 0 .385-1.694-2.003-4.39-1.387-1.695-3.235-2.927-4.237-2.927-1.001 0-2.234-.386-2.85-1.002m-2.542 5.47c0-1.387-2.31-4.93-2.388-3.544 0 .693.54 1.926 1.156 2.773.693.924 1.232 1.232 1.232.77M293.38 292.21c.077-1.771-3.236-1.155-3.929.77-.847 2.311-.385 3.082 1.387 2.465 1.617-.616 2.542-1.848 2.542-3.235m308.273.617c-2.234-1.156-2.696-1.079-2.388.539.154.77 1.155 1.54 2.08 1.694 2.234.308 2.388-1.078.308-2.233m-192.343-1.695c-.848-3.235-2.62-4.16-2.62-1.387 0 2.157 1.926 5.392 2.774 4.545.308-.308.23-1.695-.154-3.158m-116.238-14.327c-.231-.231-.463-.077-.463.462 0 .462-.693 1.078-1.617 1.387-2.85.924-4.006 2.773-4.006 6.47 0 1.926.308 3.774.694 4.005 1 .616 2.542-2.08 2.542-4.39 0-.925.308-1.695.693-1.695.462 0 1.155-1.232 1.694-2.85.54-1.617.77-3.081.463-3.39m104.683-6.932c-2.927-2.62-4.468-2.85-3.235-.54.462.925 1.155 1.618 1.463 1.618.386 0 1.464 1.772 2.465 3.928 1.002 2.157 2.465 4.622 3.39 5.392 1.54 1.387 1.617 1.387 1.617-.077 0-2.388-3.158-8.01-5.7-10.321m-92.436-19.642c-.154-.154-1.463.924-2.927 2.465-2.003 2.08-2.773 3.697-3.081 6.47-.231 2.003-.231 3.697.077 3.697s1.772-2.773 3.39-6.162c1.54-3.39 2.695-6.316 2.541-6.47"/>
</svg>