<svg xmlns="http://www.w3.org/2000/svg" viewBox="0 0 675 935">
  <path fill="#84a0ad" d="M372.808 156.204c-5.96.815-16.679 6.348-24.44 12.653-11.147 9.05-14.62 11.494-20.065 14.196-7.29 3.56-9.133 5.49-11.105 11.366-1.115 3.389-1.673 4.418-2.53 4.847-.772.343-.943.6-.515.815.73.471-1.157 4.546-2.015 4.203-2.915-1.115-6.517-3.388-6.989-4.375-.6-1.158-1.414-1.544-2.058-.9-.171.128.043.643.43 1.115 1.071 1.158.042 1.029-1.501-.215-.686-.557-1.758-1.287-2.402-1.63-.6-.386-2.443-1.415-4.073-2.359-6.088-3.517-11.276-4.632-15.564-3.26-2.058.601-3.215 1.373-5.23 3.389-1.416 1.415-2.573 2.917-2.573 3.388.043.687.128.687.6-.214.3-.558 1.286-1.587 2.101-2.273 4.073-3.346 8.747-4.418 13.12-3.003 2.701.901 5.36 2.36 5.36 2.96 0 .257-1.244.429-2.744.429-3.26 0-6.046 1.244-9.433 4.289-1.244 1.115-2.401 2.016-2.53 2.016-.171 0-.986-.43-1.844-.944-1.8-1.158-2.486-.858-.814.343 6.474 4.59 13.506 10.808 16.55 14.668 1.33 1.716 1.33 1.802.3 1.244-2.1-1.072-5.145-3.731-9.733-8.406-2.487-2.574-4.63-4.804-4.716-4.975-.086-.215-1.33-.944-2.744-1.716-2.358-1.2-3.044-1.33-6.775-1.33-3.858 0-4.416.086-7.246 1.544-3.944 2.016-6.302 4.633-7.46 8.45s-1.115 3.946.386 1.2c2.958-5.36 5.788-7.805 10.59-9.05 2.487-.642 3.387-.685 5.96-.256 3.987.686 6.603 2.53 12.134 8.492l4.33 4.675h-2.4c-3.56 0-8.747 1.63-11.877 3.645-1.458.944-3.988 3.089-5.617 4.718s-3.73 3.346-4.717 3.818c-.986.514-2.358 1.243-3 1.672-3.988 2.66-5.103 3.088-6.904 2.745-.986-.171-2.53-.343-3.387-.343-3.473-.043-4.76-.772-6.131-3.388-1.458-2.745-1.93-3.003-.858-.43.772 1.888.686 2.188-.557 1.802-.9-.3-7.332-6.733-9.004-9.05-.686-.943-.986-1.115-.986-.6-.043 1.415 6.431 8.964 8.746 10.208 3.43 1.844 7.804 2.916 11.663 2.83l2.186-.085-1.458 1.844c-.771.987-1.5 1.801-1.629 1.801-.128 0-.643-.386-1.157-.9-1.03-.944-1.715-1.158-1.715-.515 0 .215.514.643 1.114.944 1.158.643 1.5 1.544.73 2.015-.215.13-2.488.386-5.06.515-4.802.3-8.19 1.03-4.674 1.03.986 0 3.388-.13 5.317-.3 1.886-.172 3.473-.215 3.473-.044 0 .343-2.273 1.802-4.93 3.217-1.845.944-7.247 5.704-6.518 5.747.257 0 1.544-.943 2.916-2.058 2.058-1.759 7.031-4.547 7.46-4.118.429.43-2.873 5.962-4.63 7.678-1.115 1.158-1.844 2.101-1.587 2.101.815 0 6.045-5.576 7.418-7.849 1.329-2.316 2.744-3.13 6.388-3.645 2.058-.343 2.187-.3 1.63.386-.344.429-.944.729-1.416.729-.428 0-3.087 2.187-5.874 4.89-6.517 6.132-10.461 8.32-15.135 8.363-3.516.043-6.303-1.115-8.747-3.603-2.058-2.144-2.53-1.887-.728.343.814 1.03 2.572 2.402 4.03 3.131 2.144 1.072 3.13 1.33 5.874 1.33 4.202 0 6.774-.944 10.762-3.946 1.715-1.33 3.216-2.402 3.301-2.402.043 0 .472.944.9 2.059 1.073 2.788 1.458 2.187.472-.73l-.729-2.358 2.144-2.188c2.316-2.359 3.602-2.83 3.087-1.158-.171.558-.6 2.66-.943 4.632-.386 1.973-.986 4.375-1.33 5.276-.857 2.144-.857 3.86 0 5.833l.644 1.587-2.358-.172c-1.286-.129-4.245-.515-6.56-.858-2.316-.386-4.288-.6-4.374-.514-.514.514 5.96 1.801 9.948 2.058 4.116.258 4.545.386 4.973 1.287.215.558.815 1.03 1.244 1.03.471 0 .771.257.643.557-.086.3-.515.558-.9.558-.386 0-2.273 1.5-4.245 3.345a796 796 0 0 1-5.746 5.447l-2.272 2.145-9.218.729c-5.06.386-10.59.729-12.263.729-2.487 0-3.173.171-3.816.9-.815.944-1.93 1.201-1.93.472 0-.214.344-.514.772-.6.43-.129.172-.258-.643-.258-.9-.042-1.586.215-1.843.687-.386.643-.472.643-.73-.215-.3-.943-.557-.986-6.945-1.03-3.602 0-9.347 0-12.734.044l-6.132.043-.214-4.16c-.172-4.375-.043-5.49.557-5.105.515.3 2.83-.6 3.259-1.286.686-1.115.3-2.445-1.243-3.946-1.33-1.287-1.93-1.544-3.602-1.544-1.63 0-2.273.257-3.43 1.415-.772.815-1.93 2.402-2.573 3.603-.9 1.716-1.457 2.23-2.4 2.359-1.116.129-1.373-.129-2.316-2.316-.6-1.33-1.715-3.131-2.487-3.989-1.886-2.144-6.817-5.361-8.232-5.361-.643 0-1.972.643-3.001 1.372-1.03.73-2.058 1.33-2.273 1.33-.214 0-1.286-.6-2.358-1.33-3.816-2.573-6.603-2.23-9.047 1.201-1.286 1.759-1.586 1.93-3.344 1.93-1.03 0-2.401.215-3.044.43-1.244.514-3.43 3.43-3.43 4.631 0 .43-.172 1.244-.43 1.845-.385 1.115-.428 1.115-2.786.471-3.259-.815-4.76-.772-6.303.343-2.573 1.802-3.473 5.104-2.1 7.42l.814 1.416-10.462.3c-9.476.257-14.578.643-19.98 1.415-1.758.3-1.887.215-2.787-1.286-1.2-2.016-3.216-3.131-4.716-2.574-1.03.386-4.717 5.705-5.66 8.192-.6 1.587.686 5.147 3.258 8.879 2.573 3.774 3.816 4.546 5.446 3.474.643-.43 1.5-1.459 1.93-2.36.728-1.458.857-1.586 2.357-1.329.858.172 9.519.257 19.252.257h17.665l.643 1.544c.386.944 1.8 2.488 3.558 3.86l2.959 2.317-.043 3.26c-.086 2.744.129 3.645 1.2 5.918.73 1.415 1.758 3.174 2.359 3.86 1.415 1.716 3.215 5.705 3.558 7.978.172 1.115.043 2.788-.257 3.86-.643 2.273-.3 3.989 1.887 9.436 1.715 4.374 4.373 7.42 9.775 11.194 4.245 3.002 5.574 4.332 8.147 8.106 1.93 2.788 4.802 4.932 10.033 7.42 4.33 2.016 6.131 2.316 8.404 1.287 1.757-.772 1.8-.772 3.773.257 1.886 1.03 2.015 1.03 4.459.343 2.658-.772 3.473-.515 3.473 1.115 0 1.115 1.072 3.045 2.315 4.204 1.8 1.672 3.945 2.487 7.075 2.744 4.03.344 5.66-.471 8.66-4.16 2.53-3.088 4.16-4.074 6.132-3.603 2.572.558 6.989-.514 12.52-3.045 2.958-1.372 6.903-2.96 8.79-3.603 3-.986 3.73-1.072 6.73-.729 4.374.515 8.319-.557 14.75-3.86 5.188-2.702 5.145-2.702 5.66 1.115.171 1.116.814 3.646 1.457 5.619.858 2.702 1.072 4.117.9 5.704-.17 1.158-.042 3.088.258 4.29.3 1.286.558 6.304.6 12.309.086 9.307.172 10.508 1.244 14.454.643 2.359 1.586 5.19 2.144 6.219 1.286 2.53 1.243 3.174-.472 10.85-2.015 9.136-1.586 11.924 3.216 21.832 2.444 4.975 2.53 6.047.643 6.905-1.072.472-1.115.73-1.072 3.56.043 2.316-.257 3.86-1.2 6.433-.687 1.845-1.458 4.761-1.716 6.391-.386 2.66-.386 3.131.3 3.86.987 1.115.987 1.33-.557 4.203-1.115 2.016-1.33 2.831-1.158 4.675.129 1.673-.042 2.574-.728 3.689-.686 1.158-.858 1.844-.6 2.96.514 2.23.257 3.945-.73 5.189-.6.772-.857 1.801-.857 3.303 0 1.972-.129 2.187-1.715 3.13-.943.601-4.33 2.788-7.546 4.933-9.733 6.476-18.523 11.795-26.326 15.998-17.022 9.092-28.684 16.898-39.618 26.634a386 386 0 0 1-6.603 5.79c-4.287 3.389-21.137 22.475-25.254 28.608l-1.372 2.016-5.788 1.544c-5.788 1.501-31.514 8.793-40.089 11.323l-4.588 1.372-3.044-1.33c-5.702-2.444-12.177-4.503-23.796-7.505-11.405-3.002-21.867-6.605-35.673-12.395-.557-.257-3.001-.944-5.445-1.544-4.46-1.158-7.332-1.458-9.647-1.03a2.93 2.93 0 0 1-2.273-.6c-.557-.429-2.444-1.2-4.159-1.715-5.273-1.587-8.746-4.718-9.518-8.578-.215-1.116-.6-2.102-.943-2.188-.686-.214-2.144 2.96-2.573 5.704-.172 1.073-.815 3.003-1.458 4.247-.643 1.286-1.243 3.26-1.372 4.417-.171 2.016-.086 2.188 1.887 4.118 2.915 2.873 5.316 3.903 8.79 3.903h2.83l-.344 1.243c-.214.687-.343 1.888-.3 2.66.043 1.2-.172 1.5-1.158 1.758-.686.129-1.672.73-2.272 1.244-.943.944-1.072.944-1.458.214-.3-.557-.986-.772-2.1-.729-1.844.043-4.503.73-3.13.772.814.086 1.114 1.63.385 2.059-.557.343-2.787-1.673-2.787-2.488.043-.815-1.5-2.359-1.886-1.93-.172.129.214 1.03.771 1.973.686 1.115.9 1.802.6 1.887-1.114.386.086 2.531 1.844 3.389.986.429 1.887 1.2 2.058 1.715.386 1.416 1.801 2.831 3.087 3.174 1.201.3 1.673-.343.772-.943-.257-.129-.471-.472-.471-.687 0-.729.857-.471 1.672.472.471.558 1.329.9 2.272.9h1.458l-.3 3.26c-.129 1.802-.429 3.475-.643 3.689-.515.558-.515 2.059 0 2.059.814 0 .814 2.745 0 3.774-.772.987-.772 1.115 0 2.573 1.072 2.06 1.286 6.177.3 6.52-.986.386-.9.986.171 1.33.686.214.944.686.944 1.93 0 2.015 1.157 11.022 1.758 13.681.343 1.673.3 2.059-.472 2.874-.858.943-.858.943.043 1.758.9.815 1.115 2.488.514 3.903-.3.772-3.258 4.246-7.675 9.007-1.586 1.759-2.786 2.617-3.472 2.617-.558 0-1.115.214-1.287.428-.3.515 1.63 3.603 2.273 3.646.3 0 1.886-.9 3.558-2.016 1.63-1.115 3.173-2.058 3.388-2.058 1.672.042-.858 5.661-3.816 8.406-1.072.986-3.087 2.359-4.417 3.045-3.73 1.802-6.731 1.458-3.301-.429 1.286-.686 1.672-.729 2.272-.214.472.386.73.429.73.086 0-.3.257-.515.642-.515.858 0 1.33-.858.772-1.458-.343-.343-.686-.343-1.072 0-.343.257-1.458.6-2.53.772-1.114.171-2.358.686-2.83 1.158-.428.472-.943.686-1.071.472-.257-.472-1.972-.13-2.83.514-.729.6.086 1.673 1.286 1.673.43 0 .944.214 1.072.472.386.6 4.545.557 5.788-.043.515-.3 1.973-1.287 3.216-2.188 4.116-3.088 5.188-2.616 3.43 1.373-1.243 2.745-2.915 4.932-4.673 5.962-.772.514-2.53 1.587-3.86 2.444-3.386 2.188-4.372 2.402-6.988 1.373-2.487-.944-3.43-.6-2.487.9.515.773.472 1.201-.171 2.574-.686 1.415-.686 1.758-.129 3.13.815 1.93 2.101 2.617 4.288 2.274 1.072-.172 1.843-.129 2.015.172.557.857-.214 2.273-1.33 2.573-1.285.3-3.815 3.045-3.815 4.075 0 .514.257.643 1.029.386a24 24 0 0 1 2.23-.558c1.114-.214 1.243-.086 1.243.986 0 1.287-2.273 3.818-3.387 3.818-.3 0-.815.3-1.115.686-.429.557-.3.9.857 1.93l1.415 1.287-.9.943c-1.372 1.458-1.158 2.616.686 3.732.9.557 2.144 1.801 2.744 2.745 1.029 1.587 1.158 2.058.857 4.289-.257 2.444-.214 2.616 1.201 4.031.815.815 1.887 1.887 2.358 2.445.6.643 1.2.858 1.887.686 1.458-.343 4.073 1.03 4.673 2.488.558 1.33 2.101 2.96 2.444 2.616.129-.129-.214-1.287-.686-2.66-1.029-2.658-1.072-7.462-.086-11.236.3-1.115.686-3.646.9-5.619.3-3.26.43-3.603 1.416-3.817 1.2-.3 1.415-.6 2.444-3.731.686-2.102 2.23-4.332 6.731-9.822l2.401-2.917 4.46-.3c5.316-.343 6.13-.086 4.501 1.415-1.415 1.33-1.415 1.845-.043 3.131 1.03.987 1.115.987 2.444.3.858-.428 1.844-.6 2.53-.428.6.128 1.758.043 2.573-.258 1.286-.429 1.672-.343 3.558.815 3.087 1.93 3.816 2.059 5.188.987 1.287-.987 2.659-.644 3.216.772.3.815-2.701 3.688-3.902 3.731-.386 0-1.415.429-2.272.944-.9.514-2.658 1.072-3.988 1.244-1.286.128-2.4.471-2.4.729-.044.257.728.815 1.672 1.286.986.43 2.1 1.115 2.486 1.459.643.557.9.514 2.23-.386 2.744-1.845 4.974-3.046 5.617-3.046.771 0 2.915 1.93 2.915 2.617 0 .3-.386.729-.9.986-1.587.858-1.072 1.716 1.243 2.059 2.53.343 3.259.858 3.259 2.187 0 1.158-3.688 3.732-5.917 4.16-1.93.387-1.887.773.043 2.317 1.715 1.415 1.8 1.415 3.044.686 1.8-1.03 3.387-.558 4.202 1.287.9 2.058 2.444 2.187 4.416.386.815-.772 1.544-1.373 1.672-1.373.129 0 .986.515 1.973 1.115 2.23 1.416 2.058 2.059-1.373 5.447-3.644 3.603-3.601 4.847.086 2.788l1.844-1.03.686 1.03c.386.558.943 1.03 1.286 1.03.3-.043.73.386.858.857.214.687.686.901 1.843.901h1.587l-.3 2.273c-.3 2.102-.258 2.23.643 2.23.6 0 2.615-1.586 5.36-4.289 6.088-6.004 9.432-7.763 9.604-5.103.042.471.128 1.072.171 1.286.086.258.129.772.172 1.158.042.43.557.644 1.372.644 1.5 0 2.143.686 1.5 1.5-.257.301-.557 1.459-.729 2.574-.471 3.045-1.843 5.79-3.172 6.305-1.287.472-1.501 1.415-.472 2.273.343.3.686.772.686 1.072 0 .687-7.632 7.806-9.862 9.179-3.816 2.359-7.288 3.731-10.161 3.989-1.63.171-2.959.386-2.959.514 0 .129.43.687.9 1.244.515.515 1.03 1.673 1.201 2.53.215 1.459.129 1.63-1.329 2.317-2.83 1.33-3.173 2.616-.643 2.316 1.372-.172 1.715.815.515 1.5-.515.258-.6.73-.386 1.63.428 1.716 1.286 1.888 2.872.558 1.501-1.244 3.087-1.887 3.516-1.458.172.172.043 1.115-.214 2.187-.3 1.03-.429 2.016-.3 2.23.514.816 1.543.215 2.486-1.543 1.244-2.23 4.074-4.29 10.205-7.42 4.502-2.316 5.145-2.316 6.26-.086.3.557.857.986 1.243.943.386-.085.858.344 1.115.944.214.558 1.072 1.33 1.887 1.673.814.343 2.315 1.458 3.344 2.444a74 74 0 0 0 3.601 3.174c1.544 1.201 3.602 3.174 5.403 5.147.514.6 3.516 2.23 7.846 4.246.6.3 1.372 1.072 1.715 1.759.472.943.9 1.2 2.058 1.2 1.287 0 1.544.215 1.93 1.502.3 1.115.686 1.5 1.629 1.587.815.085 1.458.6 1.93 1.5.557 1.073.943 1.33 1.8 1.159.6-.086 1.415.043 1.844.343 1.029.772.429 2.145-2.101 4.804-1.715 1.801-2.358 2.23-3.087 1.973-.558-.172-.943-.6-.943-.944s-.558-.772-1.244-.944c-1.029-.257-1.5.043-3.601 2.274-1.287 1.415-2.401 2.959-2.401 3.388 0 .9 1.157 1.587 1.843 1.158s.472.343-.429 1.844c-1.972 3.303-1.286 4.718 1.03 2.016 1.329-1.63 1.457-1.63 1.757-.472.3 1.201 1.072 1.158 1.458-.128.172-.558.686-1.416 1.115-1.888.429-.514.943-1.672 1.072-2.616.214-.986.557-1.673.943-1.673.343 0 .986-.729 1.372-1.586.429-.858 1.03-1.587 1.372-1.587s.858-.386 1.2-.858c.387-.515.772-.772.944-.6.472.471.343 2.144-.214 2.701-.6.6-.129 3.003.729 3.732.771.643.514 2.702-1.415 10.336-.815 3.346-1.93 9.136-2.444 12.867-1.115 8.493-1.973 13.039-3.13 17.328-.815 3.045-1.03 5.833-.73 10.336.044 1.33-.128 1.673-1.157 2.188-2.958 1.415-4.63 5.36-4.159 9.736l.3 2.873-1.543.515c-2.015.643-6.131 3.689-7.16 5.318-1.072 1.587-1.03 2.66.085 6.434l.944 3.088-2.359 2.745c-1.286 1.501-2.53 2.702-2.744 2.702-.171 0-.343.6-.343 1.287 0 1.072-.428 1.544-2.615 2.83-1.887 1.116-2.573 1.802-2.487 2.445.043.6-1.029 1.844-3.559 4.032-2.015 1.715-5.102 4.632-6.86 6.476-1.758 1.802-4.63 4.29-6.388 5.49-1.715 1.158-3.516 2.616-3.902 3.26-.557.858-1.972 1.5-6.046 2.788-10.547 3.345-12.905 5.19-14.577 11.365-1.287 4.547-1.158 5.962.728 8.235.9 1.073 1.801 2.316 2.058 2.788.258.472 2.016 1.587 3.86 2.402L81.336 935h11.362c20.666-.043 31.6-1.372 36.573-4.46 4.245-2.617 9.561-4.075 17.536-4.761 7.246-.644 17.622-2.102 20.41-2.917 2.7-.772 3.687-1.673 3.687-3.431-.043-.858-.258-1.93-.558-2.402-.428-.686-.428-1.158 0-2.059.858-1.844.643-4.331-.386-5.447l-.9-.986 1.115-2.059c.6-1.158 1.243-3.26 1.415-4.632.343-2.745-.643-11.066-2.058-17.542l-.858-3.946 1.33-1.158c1.5-1.287 1.8-3.603.642-4.546-1.243-1.03-.728-2.016 1.587-3.045 1.243-.6 2.787-1.759 3.473-2.66 1.115-1.458 1.243-2.015 1.2-4.632-.043-1.844-.428-3.86-1.029-5.36-.514-1.33-.814-2.66-.6-2.96.172-.343 1.415-1.587 2.701-2.745 3.259-2.917 4.245-4.975 4.416-9.222l.13-3.388 5.744-8.535c3.13-4.718 6.175-9.607 6.732-10.894l1.029-2.316 3.173-.3c4.33-.43 5.874-1.501 6.56-4.504.3-1.244 1.5-4.503 2.658-7.205 1.2-2.745 3.173-7.292 4.416-10.165 3.56-8.235 4.374-9.78 5.403-10.508 1.329-.944 1.715-.558 1.715 1.887l.043 2.102 1.286-1.545 1.286-1.544 1.587 1.416 1.629 1.415 2.1-.772c1.116-.429 2.273-1.158 2.53-1.673.258-.471.687-1.029.944-1.2.6-.386 1.672.428 1.672 1.2 0 .644 1.286 1.33 1.715.901.129-.129-.214-1.287-.772-2.573-.557-1.33-1.157-2.617-1.286-2.917-.343-.815.472-.729 6.431.73 6.346 1.586 14.02 2.916 16.85 2.916 1.244.043 3.002-.429 4.546-1.158 3.258-1.501 5.745-4.46 13.334-15.74 5.917-8.793 7.76-10.552 7.803-7.42 0 .857.086.857.944-.301.686-.9 1.286-1.244 2.444-1.244.857 0 1.543.215 1.543.43 0 .214-.772 2.272-1.758 4.588-.943 2.316-2.1 5.362-2.53 6.691-.428 1.373-1.071 3.045-1.414 3.732-.686 1.33-.172 2.015 1.029 1.33.771-.43 2.958-6.134 4.716-12.267.515-1.845 1.158-3.603 1.415-3.903.557-.687 2.315-.772 3.43-.172.772.429.772.815.214 6.22-.343 3.173-.943 6.647-1.329 7.72-.6 1.672-.643 2.015-.128 2.358.943.6 2.658.472 2.915-.171.086-.3.257-3.646.343-7.42.086-4.246.3-7.077.643-7.377.343-.343 1.03-.258 2.573.3 2.23.858 2.487 1.716.557 1.93-.686.086-1.415.515-1.672.944-.343.643-.129 1.072.943 2.015 1.244 1.158 1.33 1.33 1.03 3.56-.172 1.287-.6 3.217-.944 4.332-.729 2.23-.429 2.745 1.758 2.745 1.5 0 1.715-.6 1.715-5.232 0-4.118.472-5.576 1.758-5.576 1.029 0 1.544 1.63.858 2.83-.343.644-.3.987.128 1.244.9.558 2.23-.386 2.23-1.63 0-1.329.471-1.372 1.586-.171.472.515 1.2.858 1.63.73.943-.258 1.286.557 1.243 3.001 0 2.317-2.187 5.533-5.274 7.635-3.945 2.745-4.416 3.302-3.73 4.117.429.515 1.2.687 2.873.6 2.786-.128 3.087.515 1.629 3.518-1.158 2.402-.943 4.503.6 5.919 1.63 1.5 2.744 1.887 4.716 1.63l1.887-.258.3 1.844c.172 1.03.515 1.887.772 1.93 1.2.086 2.83-.171 3.344-.6.343-.3 1.544-.386 3.173-.172 4.03.558 5.574.343 6.817-.815.9-.815 1.501-1.029 2.83-.857 1.587.214 1.672.128 2.616-1.888.6-1.243 1.5-2.359 2.272-2.745 1.458-.729 1.672-2.101.772-4.717-.515-1.459-.472-1.544 2.144-3.946 2.787-2.617 5.488-4.118 7.46-4.118 2.573-.043 1.93 2.316-2.272 8.407-2.916 4.117-3.388 5.533-1.801 5.533 1.543 0 2.572-.815 4.245-3.432.857-1.33 2.23-3.045 3.044-3.774 4.416-3.946 6.817-5.876 7.632-6.133 1.243-.386 3.172 1.158 3.687 2.916.429 1.587.772 1.716 1.63.73 1.2-1.459 1.757-.773 1.714 2.144-.085 2.874-.857 4.546-1.93 4.117-.814-.3-2.529 1.973-2.486 3.346 0 .6-.257 1.93-.557 2.916-.472 1.544-.429 1.845.214 2.36.429.3 1.286.428 1.887.342.857-.171 1.286.086 1.972 1.287.514.815 1.158 1.801 1.5 2.187.6.644.644.772.73 2.617.171 1.973 1.372 1.672 3.73-.987 2.444-2.702 3.73-3.174 5.06-1.715.428.471.77 1.029.77 1.243 0 .258.387.772.858 1.201.686.6.772.987.43 2.445-.858 3.774-.044 4.16 2.057.987 2.315-3.517 6.046-3.818 6.946-.558.6 2.144.043 3.13-3.044 5.576-2.744 2.144-2.616 2.916.472 2.83 7.846-.214 8.189-.343 10.075-3.302.558-.9 1.372-1.973 1.801-2.402.686-.686.858-.73 1.458-.129.514.515.643 1.716.6 5.061-.086 5.061-.3 5.447-3.687 6.906-1.244.557-2.23 1.158-2.23 1.372 0 1.158 2.401 1.802 7.89 2.145 3.172.214 5.83.557 5.916.815.343 1.029-3.301 4.975-5.83 6.304-2.445 1.287-2.573 1.416-2.316 2.702.472 2.274 1.372 3.26 3.13 3.432 3.001.386 4.459-1.073 8.018-7.935 1.329-2.488 4.159-6.562 7.374-10.594 5.96-7.463 8.49-11.151 10.72-15.87 1.8-3.73 6.474-17.756 8.103-24.446 1.586-6.305 1.586-6.305 4.93-7.85 5.575-2.487 18.18-10.593 25.169-16.126 4.03-3.174 11.662-10.808 14.063-14.068 2.316-3.13 2.873-4.76 2.873-8.664 0-3.002.214-4.846 1.586-13.681.386-2.274.686-5.104.686-6.305 0-3.474.258-3.646 4.117-2.53 1.8.514 3.944 1.072 4.759 1.243.814.172 1.458.429 1.458.6 0 .172-.515 1.502-1.115 3.003-2.144 5.147-1.287 9.907 2.358 13.467 1.672 1.63 3.344 2.402 7.46 3.431 1.2.3 2.273.858 2.401 1.201.258.6-3.601 6.134-6.388 9.136-.772.858-1.672 2.273-1.972 3.13a43 43 0 0 1-1.458 3.303c-1.115 2.102-.943 3.26.471 3.26 1.844 0 2.144 1.201.815 3.002-1.115 1.416-1.158 1.759-.815 3.946.472 3.003 1.372 3.775 3.988 3.474l1.93-.171v1.973c0 2.058.9 3.045 1.886 2.016.686-.687 2.401-.644 3.473.042.729.43 1.072.386 1.972-.514 1.93-1.759 2.658-1.158 3.816 3.13.558 2.102 1.2 5.405 1.458 7.335.472 3.517 2.744 10.68 8.66 27.02 1.587 4.418 3.217 8.321 3.602 8.707.6.644.73.6 1.158-.214.257-.472.6-1.759.729-2.831.557-4.289 1.5-3.56 6.217 4.675 3.687 6.476 5.145 9.522 6.817 14.282.386 1.116 1.715 3.732 2.959 5.833 1.715 2.96 2.272 4.29 2.272 5.748 0 2.616.6 4.031 2.916 6.476 2.272 2.445 2.83 4.418 2.058 7.42-.3 1.115-.386 2.745-.257 3.56.343 1.715 2.315 3.946 4.287 4.76.729.3 1.33.816 1.33 1.202 0 .343-.73 1.93-1.587 3.474-1.715 3.13-1.715 3.86.257 6.605l.943 1.286-2.143 8.235c-2.359 9.307-2.659 13.596-1.244 18.1.643 2.016.686 2.702.257 3.646-.814 1.758-.728 12.094.086 12.78 1.672 1.373 10.848 3.089 19.209 3.603 4.545.258 9.818.687 11.705.944 6.217.815 22.21 2.66 27.012 3.088 2.572.257 7.246.772 10.333 1.158 7.76.9 16.936 1.544 28.384 1.887 8.79.258 10.119.172 14.75-.686 7.674-1.501 8.188-1.844 6.56-4.289-.644-1.03-.601-1.2.47-2.83 1.373-2.016 1.459-2.96.3-4.59-.47-.643-1.285-2.402-1.8-3.817-1.158-3.303-2.787-5.447-4.888-6.52-.943-.471-4.202-1.286-7.246-1.844-6.303-1.072-10.762-2.659-15.52-5.447-1.759-1.072-3.946-2.359-4.803-2.873-.858-.515-2.272-1.544-3.13-2.316-.9-.772-2.658-2.016-3.945-2.702-3.215-1.802-6.945-4.89-13.42-11.152-3.044-2.96-6.26-5.876-7.16-6.476-1.758-1.287-1.972-2.145-.943-3.517 1.2-1.587.814-2.96-1.415-5.018-1.115-1.073-3.13-2.488-4.46-3.131-3.3-1.587-3.43-1.845-2.358-4.203l.944-2.016-1.5-1.244c-.858-.686-1.673-1.244-1.887-1.244-.6-.043-.343-1.415.471-2.66.472-.642.986-1.758 1.158-2.444.6-2.445-2.401-7.248-5.874-9.393l-1.63-.986.258-4.761c.214-3.774.086-5.661-.6-9.05-.472-2.359-1.03-6.605-1.287-9.478-.3-3.646-.772-5.92-1.543-7.85-.6-1.5-1.372-3.902-1.672-5.36-.558-2.445-.515-2.66.3-3.389 2.058-1.715 2.1-1.93.9-6.433-1.072-3.86-3.43-14.54-5.745-25.777-.472-2.488-.986-4.632-1.072-4.804-.429-.686 1.758-2.659 4.159-3.817 1.415-.643 2.915-1.673 3.387-2.23.429-.6 1.415-1.158 2.1-1.33 1.33-.3 5.017-3.817 5.017-4.76 0-.3.644-1.459 1.501-2.617.815-1.158 1.63-2.616 1.8-3.303.387-1.715-.814-4.203-3.13-6.433-2.143-2.102-2.272-2.488-1.457-3.817.729-1.158.515-1.287-1.886-1.458-2.273-.13-5.617-2.145-8.104-4.933-1.158-1.287-2.573-2.101-5.402-3.217-3.43-1.33-3.86-1.63-3.988-2.745-.086-.9.386-2.058 1.672-3.945 2.187-3.217 2.53-4.633 1.844-7.206-.643-2.445-4.93-6.862-7.16-7.377-1.93-.429-2.144-1.2-.772-3.045 4.073-5.276 3.173-10.122-2.916-16.17l-3.516-3.474.9-2.616c.515-1.415.944-3.731.987-5.147.043-2.273-.129-2.873-1.458-4.846-.857-1.201-3.215-3.56-5.273-5.233-3.73-3.002-5.06-4.718-5.06-6.433 0-1.373-1.672-3.131-4.76-5.062-4.715-3.002-6.388-5.19-11.447-15.225-3.259-6.391-6.603-12.095-11.105-18.872-3.559-5.318-6.474-10.036-6.474-10.465 0-1.844 3.001-2.917 4.888-1.716 1.029.644 3.687-.257 3.687-1.244 0-.686-1.672-2.659-6.774-8.063-10.076-10.722-26.54-29.294-28.213-31.824-.986-1.416-1.029-1.759-.514-2.574.771-1.243 3.344-2.444 4.587-2.144.515.129 2.873 1.501 5.231 3.045 12.306 8.106 26.069 16.684 27.527 17.113 2.358.73 3.773.215 6.217-2.23 2.1-2.102 3.173-4.632 3.173-7.377 0-1.716-1.93-3.389-11.234-9.822-4.845-3.303-13.163-9.093-18.48-12.781-5.316-3.732-14.963-10.422-21.395-14.883-14.449-10.08-30.142-21.66-31.3-23.16-1.157-1.459-1.114-2.06.215-2.746.6-.343 1.2-.857 1.33-1.2.428-1.116-7.718-12.524-11.706-16.513-2.058-2.016-4.116-3.817-4.545-3.989-1.415-.515-3.644.772-4.502 2.53-.385.858-.9 1.588-1.072 1.588-.514 0-3.087-3.818-3.644-5.405-.386-1.158-.3-1.544.729-2.745.643-.772 1.158-1.672 1.158-2.015 0-.3-1.072-1.845-2.359-3.389-3.773-4.417-3.644-4.117-2.787-5.918s.644-3.26-.686-4.847c-1.2-1.33-1.157-1.887.172-3.131 1.158-1.072 2.53-4.418 2.53-6.133 0-.558-.73-2.402-1.587-4.032-.857-1.673-1.586-3.26-1.586-3.517 0-.3 1.2-1.63 2.615-3.002 2.144-2.016 2.83-3.045 3.602-5.404.557-1.587.986-3.603.986-4.46 0-1.03.943-3.647 2.701-7.25 2.573-5.446 5.66-14.625 6.946-20.887.343-1.63 1.03-3.645 1.544-4.46a40 40 0 0 0 1.715-2.917c.428-.815.9-1.458 1.072-1.458.171 0 .857.815 1.543 1.844.643 1.03 2.573 3.346 4.288 5.147 2.958 3.217 3.13 3.56 4.759 8.664l1.63 5.275 5.702 5.79c6.302 6.391 9.004 8.364 11.876 8.75 2.273.257 3.045.772 3.045 2.016 0 .472.471 1.501.986 2.316 2.23 3.088 9.175 10.336 11.362 11.795 2.83 1.887 8.318 3.345 12.734 3.345 1.758 0 3.773.214 4.502.515.686.257 3.387.6 6.003.729 3.944.171 4.973.086 5.874-.515 1.072-.686 1.2-.643 2.658.343.858.6 2.015 1.587 2.53 2.188.514.6 3.001 2.444 5.53 4.117 3.817 2.573 4.846 3.474 6.046 5.533 2.53 4.375 2.701 4.718 2.144 5.232-.772.772-.6 1.845.643 4.29 1.286 2.53 1.33 3.002.9 7.977-.342 3.689-.342 3.603 1.93 9.908.3.729.643 2.316.772 3.517.214 1.672.514 2.23 1.243 2.53 2.444.858 6.56-2.359 8.447-6.605.729-1.544 1.543-2.83 1.843-2.83.343 0 1.458.342 2.487.728 1.93.73 1.93.772 1.672 2.617-.343 2.616-1.457 6.133-2.4 7.463-2.059 2.916-2.445 9.35-.687 10.636 1.287.944 2.873.73 4.374-.514 1.2-1.03 1.629-1.116 3.901-.858 2.273.257 2.702.128 4.545-1.072 1.115-.773 3.044-1.716 4.288-2.145 3.859-1.287 7.503-3.217 11.233-5.919 1.973-1.415 4.16-2.83 4.802-3.13 1.33-.601 1.544-1.373 1.973-7.378.171-2.101.686-5.704 1.2-7.977 1.072-5.233.73-6.648-2.444-9.693-1.586-1.587-2.143-2.402-1.886-2.917.857-2.145.729-4.718-.472-8.535-1.329-4.246-2.23-6.005-4.588-9.007-1.672-2.102-1.8-2.66-.814-3.774 1.458-1.587-2.144-6.605-6.903-9.608-2.058-1.286-3.002-2.53-5.06-6.562-.771-1.63-2.7-4.975-4.244-7.42-4.288-6.905-4.03-5.919-2.873-10.765.643-2.83.257-6.048-1.458-11.452-1.972-6.133-4.073-9.993-5.488-9.993-.214 0-.9-.6-1.543-1.373-.6-.729-1.544-1.544-2.016-1.844-1.586-.815-8.017-2.616-9.861-2.702-1.63-.086-2.015-.343-3.216-2.144-.772-1.158-2.444-3.174-3.73-4.547-1.33-1.372-2.959-3.645-3.602-5.06-.686-1.46-1.843-3.132-2.615-3.775-1.243-1.072-1.672-1.158-5.017-1.072-5.059.171-5.145.128-5.616-1.116-.386-.943-.73-1.158-2.273-1.158-2.915 0-3.473-.643-5.016-5.532-1.672-5.49-3.473-7.506-8.275-9.522-3.473-1.458-5.231-2.745-4.888-3.603.6-1.587-2.787-9.65-5.317-12.695-1.243-1.501-1.672-2.488-2.1-5.104-.987-5.833-3.86-10.38-9.09-14.197-1.887-1.415-2.144-1.758-2.359-3.774-.428-3.603-2.272-6.862-5.574-9.95-3.215-3.046-6.217-4.632-9.904-5.404-2.23-.472-4.116-1.673-13.206-8.536-1.114-.814-.9-.857 13.292-.9 30.742-.086 57.582-1.93 63.542-4.29 1.844-.728 2.787-1.886 2.058-2.487-.429-.386-11.62-1.544-25.554-2.66-9.261-.728-15.135-.857-41.547-.857-30.27.043-30.742.043-31.728-.858-.557-.514-1.672-1.243-2.487-1.672-1.372-.687-1.586-.687-3.644.043l-2.187.772-4.76-4.504c-3.515-3.388-5.402-4.804-7.245-5.576-1.372-.557-2.487-1.286-2.487-1.587 0-.343.6-1.286 1.372-2.101 1.972-2.145 2.315-3.303 1.8-5.833-.557-2.445-.257-3.603.815-3.517 2.058.214 3.345-.129 4.374-1.158 1.072-1.072 1.157-1.373.857-4.16-.343-3.818-.643-5.576-1.372-8.536-.557-2.101-.514-2.573.257-4.632.858-2.402 1.63-3.602 2.273-3.602.214 0 1.715-1.33 3.387-2.917l3.001-2.917-1.2-1.844-1.244-1.844.086-8.878c.086-10.337.172-11.152 1.372-11.452.6-.171.858-.643.858-1.501 0-.73.514-2.83 1.2-4.76.986-2.96 1.115-3.904.858-6.391-.429-3.818-2.315-7.034-4.202-7.034-1.544 0-1.844-.215-3.473-2.617-.729-1.115-2.23-2.702-3.387-3.602-1.115-.901-3.43-2.96-5.188-4.633-2.701-2.573-4.16-3.474-10.333-6.476-3.988-1.93-8.747-3.86-10.59-4.332-8.061-2.101-16.036-3.002-20.924-2.359m-32.886 21.66c-.429.686-1.158 1.63-1.586 2.144-.43.472-1.501 2.36-2.402 4.16-.9 1.802-2.315 4.032-3.13 4.976-.814.9-1.8 2.23-2.272 2.916-.429.687-.943 1.158-1.158 1.03-.343-.215-3.816 1.458-9.818 4.76-1.286.687-2.444 1.287-2.573 1.287-.814 0 1.115-6.262 2.744-9.05 1.415-2.402 3.087-3.517 10.376-7.12 1.544-.729 4.03-2.187 5.488-3.173 1.501-1.03 2.959-1.802 3.259-1.716.343.043.643-.129.686-.429.129-.986.172-1.03.686-1.03.3 0 .172.516-.3 1.245m-12.305 18.013c-1.03 1.888-4.631 4.718-8.404 6.606-2.23 1.115-4.202 2.058-4.374 2.058s-.343-.472-.343-1.03c0-1.157 1.158-3.044 1.887-3.044s8.532-3.603 9.819-4.547c1.415-1.029 1.972-1.072 1.415-.043m-30.914 3.99c2.701 1.415 3.087 1.93 2.23 2.916-.344.386-.644 1.03-.644 1.458 0 .429-.214.73-.471.73-.258 0-.772.3-1.158.685-.557.558-.557.772 0 1.673.343.558 1.115 2.874 1.63 5.104.557 2.23 1.2 4.503 1.414 5.061.472 1.287.043 1.244-1.586-.086-1.286-1.072-1.33-1.115-1.03-4.375.258-3.002.215-3.216-.385-2.444-.643.858-.729 1.458-.858 4.632 0 .815-.214 1.501-.428 1.501-.6-.043-2.873-1.844-7.632-6.047-2.273-2.016-4.931-4.29-5.917-5.062-2.101-1.672-1.973-1.972 1.63-4.246 4.715-3.045 9.303-3.56 13.205-1.5m5.23 5.06c-.685 1.244-.642 1.33.644 1.072.772-.128 1.2.043 1.372.558.514 1.201-.086 1.287-2.272.215-2.059-1.03-2.487-1.545-1.544-1.888.3-.085.514-.686.514-1.33 0-1.157.043-1.157.9-.385.687.686.773 1.03.387 1.758m4.674 2.702c-.3.3-1.115-.857-1.115-1.5.043-.258.343-.087.686.385.344.515.558.987.43 1.115m-5.617 1.244c.344 1.03.687 1.415.9 1.072.258-.429.558-.429 1.287-.043 1.115.6 1.158.858.343 1.802-1.029 1.2-1.329 2.745-.557 2.745.429 0 .6.257.429.686-.13.343-.43.643-.644.643s-.385-.3-.385-.643c0-.386-.172-.686-.386-.686s-.686-.858-.987-1.93c-.343-1.03-.9-2.316-1.2-2.788-.772-1.158-.772-2.488.043-2.488.343 0 .9.73 1.157 1.63m4.974 1.973c0 .257-.257.429-.514.429-.258 0-.343-.172-.172-.429.129-.257.343-.472.472-.472.085 0 .214.215.214.472m-22.295 9.908c-.172.214-1.63 1.115-3.259 1.887-1.672.815-3.816 2.273-4.802 3.174-1.415 1.372-2.315 1.801-4.288 2.101-1.372.215-2.572.343-2.658.3-.3-.3 4.588-4.331 6.517-5.404 3.173-1.758 9.218-3.216 8.49-2.058m7.031 1.887c1.715.772 3.087 1.544 3.087 1.758 0 .515-1.8.987-3.516.944-.9-.043-1.8.257-2.315.815-.471.472-1.715.943-2.787 1.072-3.73.472-10.29.686-10.29.343 0-.557 2.358-2.101 5.745-3.817 1.758-.9 3.302-1.844 3.473-2.102.558-.857 3.56-.429 6.603.987m-15.564 9.264c-.686.686-12.948 4.418-13.206 3.989-.343-.6 1.93-2.488 3.388-2.788.686-.129 2.23-.515 3.473-.858 2.444-.643 6.903-.9 6.345-.343m-15.092 3.731c0 .6-.557 1.158-1.587 1.63-.943.472-1.543 1.03-1.457 1.459.043.471-.3.772-1.03.857-.6.086-1.328.343-1.543.558-.514.515-1.586.557-1.586.086 0-.386.943-1.373 3.773-3.903 2.015-1.802 3.43-2.102 3.43-.687m-.086 3.174c-1.286.815-1.972.386-.814-.471.643-.515 1.157-.687 1.286-.386.086.257-.129.643-.472.857m17.193 1.33c-1.114.943-2.315 1.673-2.615 1.544-.3-.086-.686.043-.815.3-.214.343-1.5.43-3.858.215-3.688-.258-5.746-.901-4.417-1.33.9-.343 5.231-1.158 7.418-1.415.986-.129 2.4-.43 3.13-.644 2.958-.9 3.258-.557 1.157 1.33m-13.334 4.074c.986.3 2.144.6 2.53.772.343.13 1.114.3 1.672.386.557.13 1.586.386 2.272.644l1.2.514-2.7 2.317c-1.458 1.243-3.945 3.56-5.446 5.103-2.015 2.06-2.872 2.66-3.215 2.317-.3-.3-.858-1.973-1.287-3.775-.686-3.002-.686-3.345 0-4.632 2.487-4.76 2.016-4.418 4.974-3.646m26.24 5.962c.129.172-.129.429-.6.6-.472.13-1.286.687-1.844 1.159-.986.9-.986.9-2.487.043-.814-.472-1.543-1.201-1.586-1.587-.129-.644.3-.73 3.044-.6 1.758.042 3.302.256 3.473.385m-31.17 6.691.857 2.616-1.115 1.244c-2.272 2.488-2.444 2.83-1.715 3.26.472.3 1.072-.086 2.272-1.459l1.63-1.93.514 1.845c1.072 3.988 1.072 4.589.215 4.846-3.002.815-3.045.772-4.76-1.715-2.486-3.56-2.53-3.86-.729-12.824l.472-2.445.729 1.973a131 131 0 0 1 1.63 4.589m17.578-2.445c-.471 5.876-2.658 9.822-4.93 8.964-.43-.171-.686-.043-.686.343 0 .644-4.374 2.36-4.845 1.888-.129-.13.128-.901.557-1.716s1.286-2.402 1.844-3.517c.6-1.115 1.415-2.488 1.843-3.045.772-.987.815-.944.686 1.801-.128 2.059 0 2.616.3 2.145.258-.386.472-1.502.472-2.53 0-1.245.429-2.446 1.2-3.604 1.158-1.758 3.345-4.246 3.688-4.246.086 0 .043 1.587-.129 3.517m4.931-2.573c2.83 1.372 3.344 2.101 1.844 2.659-.686.257-1.372.472-1.544.472s-1.114.643-2.1 1.372l-1.801 1.373-.13-1.716c-.17-1.93.644-5.104 1.287-5.104.257 0 1.33.43 2.444.944m-10.547 1.587c0 .128-.686 1.2-1.501 2.359-.772 1.158-2.272 3.688-3.301 5.661-.987 1.973-2.016 3.689-2.273 3.775-.557.171-1.415-4.075-1.029-5.147.472-1.244 4.03-5.104 5.574-6.048 1.372-.858 2.53-1.115 2.53-.6m8.318 5.575c-.172.258-.515.472-.815.472-.343 0-.257-.171.129-.472.857-.557 1.029-.557.686 0m-39.49 268.534c.087.858-.47 2.23-1.929 4.504-1.157 1.801-3.515 5.576-5.316 8.406-3.902 6.176-5.403 7.506-15.607 13.51-9.304 5.533-16.079 9.48-17.665 10.251-1.5.815-3.516.343-3.516-.772 0-3.002 16.036-18.314 31.128-29.765 10.119-7.635 12.606-8.836 12.906-6.134m-212.15 59.103c-.3 1.244-2.144 1.801-3.43 1.115-.9-.472-.9-.472.043-1.673.515-.686 1.5-1.587 2.144-2.016 1.2-.772 1.2-.772 1.372.386.086.644 0 1.63-.129 2.188m-.257 4.031c0 1.244-1.072 1.802-2.272 1.158-1.244-.686-1.072-1.672.343-2.144 1.543-.558 1.929-.343 1.929.986m26.926 90.112c.772.558.9.9.558 1.544-.858 1.587-5.403 2.316-5.403.858 0-.214.3-1.03.686-1.758.772-1.544 2.487-1.802 4.16-.644M96.43 714.59c.729 1.115.729 1.158-.557 2.487-.73.772-1.673 1.587-2.101 1.802-1.115.6-7.632 2.273-7.89 2.015-.343-.386.815-4.031 1.63-5.018 1.072-1.286 2.1-1.587 3.73-1.03 1.2.43 1.5.387 2.358-.47 1.244-1.245 1.93-1.202 2.83.214m4.888 38.086c0 .858-1.2.986-2.23.171-.771-.557-.814-.729-.257-1.072.772-.557 2.487.086 2.487.9m265.531 34.054c.943.815.943 1.416.129 2.488-.6.772-.73.772-2.015.129-1.373-.73-1.716-1.63-1.115-3.174.3-.815 1.715-.558 3.001.557m4.373 3.517c.858.987-.214 1.802-2.143 1.587-.6-.043-.772-1.458-.258-2.015.515-.515 1.844-.3 2.401.428m-235.089 1.502c.129.343-.043.514-.386.428a1.52 1.52 0 0 1-.814-.814c-.086-.344.085-.515.428-.386.3.085.686.471.772.772"/>
</svg>