<svg xmlns="http://www.w3.org/2000/svg" viewBox="0 0 675 935">
  <path fill="#84a0ad" d="M106.72.419c-.838 1.465-1.57 12.504-1.309 19.672.524 14.806 3.403 30.031 14.765 77.956 2.46 10.307 6.23 26.474 8.43 35.996 6.754 29.142 22.094 93.966 28.9 122.22 3.928 16.428 4.556 19.933 3.823 21.66-1.152 2.877-3.403 4.447-7.958 5.598-5.603 1.36-5.76 1.36-9.058-.89-1.623-1.046-3.09-1.936-3.351-1.936-.785 0-1.728 4.395-1.675 7.64 0 1.83.47 3.923 1.308 5.754 1.362 2.93 3.98 6.383 4.817 6.383.262 0 1.048-1.15 1.728-2.563 1.519-3.087 3.875-4.5 10.629-6.174 4.712-1.203 6.859-1.413 6.859-.68 0 .261-.733 1.255-1.624 2.197-3.036 3.192-3.036 6.436.105 7.953 2.2 1.099 2.566 2.197 1.204 3.924-1.36 1.831-.942 3.767 1.205 5.964 1.884 1.936 1.99 2.25 1.466 3.872-.629 2.04-.053 4.185 1.152 4.185 1.466 0 2.46 1.622 2.46 3.924-.052 3.82 3.613 6.331 8.482 5.808 2.356-.262 2.618-.21 2.88.89.157.68 1.047 4.29 1.937 8.057 3.822 15.539 4.032 17.84 1.937 21.922-1.1 2.145-1.256 3.034-.89 4.708.629 2.669 1.833 3.977 5.34 5.546 1.571.733 4.032 2.198 5.446 3.296 1.414 1.1 2.984 1.884 3.403 1.78.471-.053 1.518-1.413 2.304-2.93s2.46-4.03 3.77-5.547c1.937-2.302 2.303-3.086 2.303-5.18-.052-2.72-.47-3.452-3.455-5.702-1.152-.837-2.513-2.459-3.09-3.558-.523-1.046-1.204-2.459-1.57-3.034-.733-1.308-3.98-15.382-4.398-18.888-.262-2.616.262-3.348 2.46-3.348 1.99-.053 5.655 3.976 5.655 6.174.053.941.42 2.51.838 3.4.785 1.57.785 1.413.576-3.034-.21-4.133-.157-4.5.576-3.558.419.576.785 1.465.785 2.04 0 .524.262 1.57.576 2.303.524 1.046.419 1.883-.314 3.819-.995 2.564-.785 3.662.576 3.662.471 0 .733-.209.524-.47-.158-.315.157-1.1.733-1.78l.994-1.203 1.047 2.145c.89 1.727 1.362 2.145 2.828 2.302 2.094.21 1.99.576 1.832-8.475-.104-3.349.105-5.703.42-5.913.994-.627 1.151.419 1.256 8.947.052 4.552.314 8.476.628 8.633.262.157 1.361.314 2.408.314 1.519 0 1.938.261 2.2 1.308.314 1.36 2.303 2.25 3.717 1.726.419-.209.89-1.57 1.152-3.348.21-1.727.576-3.087.837-3.087.576 0 1.1 2.04 1.1 4.709 0 2.511.733 3.505 2.565 3.505 1.257 0 1.31-.052 1.414-7.795.052-4.29.105-9.261.105-11.04-.053-3.087-.053-3.191 1.361-2.982l1.414.157-.053 11.667c-.104 10.83-.052 11.667.89 11.667 1.885 0 2.304-1.36 2.147-7.01-.21-5.075.105-6.75 1.1-6.75.261 0 .47 2.616.523 5.756.105 5.702.629 8.423 1.885 9.208.838.523 3.194-.053 4.346-1.047.68-.627 1.152-.68 2.042-.157.837.419 1.466.419 2.251 0 .943-.47 1.047-.941.68-3.191-.732-5.127-.68-5.284 1.938-5.65 1.309-.158 2.67-.68 3.037-1.152.366-.47 1.832-2.302 3.194-4.08 2.408-3.035 2.827-3.297 6.754-4.5 3.77-1.099 4.398-1.151 6.073-.419.995.419 1.99 1.047 2.2 1.36.209.315 1.308.576 2.46.576 3.613 0 9.529-4.656 10.262-8.11.157-.836.419-1.988.524-2.563.209-1.046.575-1.099 4.974-.942 4.555.21 4.764.157 6.387-1.36.89-.837 2.775-3.14 4.189-5.127 1.413-1.989 3.822-5.18 5.34-7.168 1.57-1.936 3.508-4.814 4.346-6.33.995-1.884 4.031-5.233 9.058-9.994 4.136-3.924 8.377-8.371 9.424-9.94 1.047-1.518 2.094-2.826 2.304-2.826.89 0 .419 15.277-.68 20.98-1.205 6.33-4.399 27.259-5.76 37.775-.471 3.82-1.152 8.005-1.466 9.365-.367 1.36-.576 3.506-.524 4.814.053 1.255-.21 2.825-.523 3.505-.367.628-.733 2.668-.89 4.552-.367 5.86-.367 5.807-3.613 5.807-1.623 0-3.456.157-4.136.367-1.362.366-3.404 3.767-3.404 5.598 0 .575-.523 1.674-1.151 2.407-3.299 4.238-11.52 21.817-11.52 24.695 0 2.04 2.2 4.97 5.341 7.115 1.31.89 2.356 1.831 2.356 2.145 0 .262-1.204 1.099-2.67 1.831-1.466.733-6.02 3.558-10.157 6.279-4.136 2.668-9.53 5.964-11.99 7.324-8.115 4.395-11.99 7.534-14.87 11.825-1.832 2.773-4.398 5.546-8.534 9.051-3.246 2.825-10.733 9.836-16.65 15.539a27977 27977 0 0 0-18.534 18.05l-7.749 7.534-1.518 4.5c-1.31 3.924-1.414 4.76-.89 7.01.419 1.78.419 3.14-.053 4.814-.576 2.093-.419 2.93 1.257 8.267 1.675 5.18 1.937 6.854 2.199 13.864.314 7.116.523 8.372 1.937 11.668l1.57 3.714-6.334 6.174c-5.76 5.598-8.954 9.836-9.372 12.4-.21 1.203 1.518 1.046 4.764-.419 4.608-2.145 4.608-1.674 0 5.232-1.937 2.983-3.56 5.546-3.56 5.755 0 .21.471.995 1.047 1.675l1.047 1.308 1.728-1.622c.89-.89 1.675-1.884 1.675-2.198 0-.366.367-1.098.838-1.674.838-1.046.89-.942.628.994-.157 1.099-.785 2.773-1.413 3.663-1.414 1.935-1.466 2.877-.105 4.08 1.309 1.204 1.152 1.36 6.23-6.958 3.77-6.174 5.289-7.639 4.922-4.761-.105.732-1.309 4.656-2.618 8.633-1.885 5.755-2.303 7.586-1.885 8.423.786 1.465 2.147 1.308 2.775-.314.262-.785.733-1.412 1.047-1.412.576 0 .21 1.517-.628 2.563-.576.733.995 2.564 1.937 2.25.367-.105.524-1.151.472-2.407-.21-2.459.89-4.028 2.67-4.028.576 0 1.1.052 1.1.157 0 .052-.262.994-.577 2.04-1.36 4.552-3.298 12.034-3.298 12.714 0 .47.366.366 1.047-.366.576-.576 1.937-4.03 3.037-7.587 1.309-4.133 2.251-6.383 2.67-6.278 1.361.47 2.042 2.825 1.728 5.703-.262 1.936-.157 2.93.314 3.244 1.257.784 3.822 7.063 3.822 9.47 0 1.621.838 3.976 2.775 8.057 1.833 3.819 2.723 6.435 2.775 7.848 0 2.877 1.309 7.272 2.984 9.679.943 1.412 1.31 2.668 1.257 4.342 0 1.308.628 4.447 1.414 7.011 1.832 5.86 1.832 6.54-.053 8.057-1.256.994-1.413 1.36-.89 2.198.314.575 1.257 1.099 2.042 1.203l1.466.157v5.494c0 6.173-.366 6.749-3.35 4.918-2.41-1.465-2.41-1.465-4.19.575-.837.942-2.774 2.25-4.345 2.93-4.765 2.145-6.65 5.232-3.77 6.33.943.367 1.885.315 3.142-.208 2.146-.942 8.796-3.087 9.372-3.087 1.361 0-.262 2.145-4.922 6.592-6.492 6.121-11.623 9.365-14.922 9.365-1.937-.052-2.304.157-2.304 1.099 0 .837-.733 1.465-2.617 2.302-1.414.628-3.299 1.622-4.137 2.197-2.146 1.518-7.12 2.146-15.55 2.04-7.906-.104-9.162.263-12.2 3.297a6.78 6.78 0 0 0-1.989 3.82c-.21 1.203-.942 2.825-1.623 3.61l-1.309 1.36h-11.414c-12.984.052-13.665.21-16.754 4.133-2.618 3.349-7.644 12.243-8.22 14.545-.262 1.099-1.414 5.755-2.513 10.464-2.304 9.522-2.828 10.725-7.645 17.789-2.303 3.453-4.502 7.638-6.858 13.446-3.508 8.58-4.398 12.609-4.45 19.515 0 3.192-.053 3.244-3.3 6.383-4.869 4.761-4.554 3.872-8.324 23.282-.943 4.761-2.042 9.836-2.46 11.25-.42 1.412-.786 3.19-.786 3.975 0 1.78-.629 2.302-4.084 3.14-1.519.418-5.602 1.83-9.058 3.191s-8.639 2.93-11.571 3.558c-5.34 1.15-12.147 4.028-14.922 6.383-2.513 2.145-3.665 4.5-5.707 12.086-2.304 8.37-3.665 16.951-3.927 24.328-.157 4.71-.261 5.285-1.413 6.017-2.775 1.831-14.294 11.772-16.598 14.336-1.36 1.517-2.618 3.505-2.827 4.395-.471 2.145-1.675 2.877-7.697 4.656l-4.921 1.465-9.11 9.208c-6.021 6.122-10.105 9.784-12.147 10.935C5.094 929.984 3 931.92 3 933.227c0 .994.733 1.1 12.461 1.413 15.603.47 572.267.47 574.571.052l1.623-.366-.785-3.244c-.419-1.83-.995-3.82-1.31-4.395-.313-.575-.837-3.191-1.099-5.755-.733-7.168-1.57-8.266-12.042-15.539-9.738-6.801-20.105-12.138-24.294-12.556-2.408-.262-2.67-.419-4.031-2.93-.838-1.57-3.98-5.075-7.697-8.58-3.455-3.245-7.12-7.22-8.168-8.79s-2.827-5.651-3.979-9.052c-1.1-3.4-2.88-7.848-3.927-9.888-1.78-3.401-2.827-4.604-9.005-10.046-1.047-.941-3.822-3.976-6.178-6.749-2.409-2.825-5.131-5.703-6.074-6.435-3.508-2.669-11.309-6.697-16.964-8.685-.89-.314-.837-.471.105-2.721.576-1.36 1.047-3.662 1.047-5.494.053-2.616.315-3.557 1.519-5.127 1.413-1.831 1.466-2.093.785-3.715-.366-.941-.89-3.139-1.152-4.865a95 95 0 0 0-1.047-5.494c-.942-4.133-.733-5.284 1.309-7.272l1.937-1.78-.314-4.917c-.157-2.982-.68-5.755-1.309-7.22-.838-1.832-.89-2.302-.262-2.302 1.152 0 4.45 4.185 5.446 7.01 1.884 5.18 2.094 5.599 2.932 5.599q.785 0 .47-.942c-.156-.523-1.046-3.453-1.936-6.435-1.78-5.808-2.252-6.488-6.44-8.58l-2.304-1.1.785-2.563c.42-1.36.786-3.349.786-4.395 0-1.047.366-2.616.837-3.558.838-1.57.838-1.831-.052-3.82l-.942-2.092 1.99-2.197c2.25-2.512 2.408-3.297 1.099-5.494-.838-1.413-.838-1.674.523-5.127.838-1.989 1.466-4.029 1.466-4.552s.733-4.814 1.623-9.522c.89-4.71 2.618-15.016 3.875-22.864 1.204-7.848 2.46-15.591 2.775-17.266.261-1.622.523-5.127.523-7.743 0-4.342.105-4.866 1.414-6.278 1.1-1.151 1.309-1.832 1.047-3.087-.419-2.04.21-5.023.995-4.761.366.157.785.837.942 1.57.157.732.733 1.412 1.257 1.517.733.104.942-.262.942-1.78 0-1.569-.366-2.197-1.937-3.4-1.047-.785-1.885-1.936-1.885-2.564 0-1.36 1.257-.994 1.519.471.314 1.465 3.455 4.081 4.764 3.924 1.152-.157 1.257-.732.524-4.97-.42-2.355.314-2.72 1.413-.68.89 1.674.943 1.674 2.985.052 1.518-1.256 1.57-1.465.994-3.296-.418-1.518-.418-2.145.105-2.669.576-.575.157-1.57-2.251-5.075-4.241-6.383-5.34-9.208-4.87-12.609.524-3.557.524-3.4-.156-10.464-.315-3.296-.367-6.226-.105-6.487.89-.942 3.508.47 3.979 2.145 1.047 3.924 5.916 28.88 5.916 30.398 0 1.046-.314 1.883-.837 2.04-.89.366-1.152 2.407-.315 2.407.262 0 1.152-.785 1.938-1.674 1.675-1.989 1.832-4.238.628-10.778-1.309-7.22-1.466-9-.89-9 .314 0 .68.576.838 1.256.104.68.733 3.767 1.36 6.854 2.043 9.784 4.818 16.062 7.174 16.062 1.466 0 1.414-1.098-.262-4.342-1.832-3.61-4.503-12.975-5.34-18.521-.524-3.453-.524-5.285 0-8.005.366-1.988.68-4.343.68-5.232 0-2.512.472-3.453 1.885-3.453 1.78 0 2.2.785 3.56 6.592.733 3.192 2.147 7.01 3.508 9.627l2.252 4.395.052 8.266c0 7.482-.157 8.528-1.361 11.406-1.047 2.511-1.204 3.296-.628 3.82.942.941 2.88-1.361 4.502-5.442 1.152-2.825 1.257-4.133 1.257-10.62 0-7.378-.785-15.854-1.833-20.04-1.36-5.493-.523-4.708 3.508 3.35 1.676 3.348 4.503 8.318 6.283 11.039 3.09 4.708 3.508 5.075 7.016 6.749 5.969 2.773 6.492 3.087 7.487 4.813 1.676 2.773 1.257 12.243-.68 16.01-1.257 2.511-.943 3.61.89 3.244.68-.105 1.937-1.936 3.455-5.023l2.461-4.813-1.047-3.035c-.942-2.773-.942-3.296-.21-5.598.576-1.883.786-5.494.786-13.132-.052-10.569-.052-10.621 1.152-10.621 1.675 0 1.937-1.256 1.256-6.017-.314-2.25-.733-6.854-.89-10.15-.262-5.65-.21-6.121.89-7.115.681-.628 1.362-.838 1.623-.524.21.262 2.252 4.918 4.45 10.36 2.252 5.441 4.975 11.772 6.127 14.021 6.754 13.499 15.497 22.655 20.89 21.87 2.147-.262 1.519-1.622-1.413-3.244-3.508-1.883-8.378-7.115-12.304-13.132-3.09-4.761-4.346-7.325-9.425-18.94-1.57-3.662-3.56-8.162-4.45-10.045-.838-1.884-1.361-3.4-1.152-3.4s.628.522.942 1.202c.681 1.36 5.131 9.784 7.959 14.964.995 1.831 2.722 4.656 3.822 6.278 1.047 1.622 2.408 3.663 2.932 4.5.89 1.36 1.152 1.465 2.618.941.89-.313 1.623-.784 1.623-1.046s-.838-3.558-1.885-7.272c-1.1-3.715-2.199-8.633-2.566-10.83-.314-2.25-1.413-6.697-2.46-9.941-2.095-6.383-2.095-6.54-1.414-6.54.262 0 1.309 1.57 2.251 3.453 13.142 25.061 17.33 31.182 21.362 31.182 1.1 0 2.828-.47 3.77-1.098 6.859-4.134 3.298-16.376-9.006-31.078-1.78-2.145-4.083-5.232-5.078-6.802-2.094-3.244-1.99-3.871 1.152-5.703l1.937-1.098 2.251 2.25c1.257 1.255 2.88 2.668 3.665 3.19 1.676 1.1 4.712 5.651 6.021 9 2.356 6.174 4.346 9.836 5.446 10.098 2.775.732 2.67-.471-.629-6.854-4.136-7.848-4.136-8.424-.366-4.97 3.612 3.295 9.215 6.33 14.87 8.057l3.821 1.15 1.885 3.558c2.828 5.442 6.074 10.726 7.069 11.668 1.36 1.203 3.089 1.412 3.298.366.105-.419-1.1-2.72-2.618-5.023-1.518-2.354-3.141-5.127-3.612-6.226-.786-1.883-.786-2.04.209-2.302 1.309-.314 2.042-3.767 1.78-8.266-.052-1.57 0-2.878.105-2.878.157 0 1.413 1.727 2.827 3.872 2.67 4.028 3.822 4.918 4.87 3.871.68-.68-1.048-4.708-3.98-9.417-.942-1.413-1.728-3.558-1.885-5.18-.994-8.214-5.497-19.724-10.524-26.788-2.041-2.877-2.356-4.29-.994-4.29 1.256 0 9.843 9.522 15.864 17.475 2.356 3.14 4.712 5.18 8.639 7.43 2.723 1.569 4.817 4.917 4.87 7.69 0 1.57.942 1.936 2.041.837 1.047-.994.786-3.191-.628-6.226-1.414-3.034-2.88-4.447-6.021-6.069-1.204-.575-3.665-2.825-5.498-4.97-5.55-6.435-11.623-14.022-11.99-14.964-.21-.523-.733-1.255-1.256-1.674-.471-.418-.838-1.15-.838-1.622-.052-.784.052-.784.838 0 .471.471 2.513 3.035 4.555 5.703 2.722 3.663 4.817 5.755 8.325 8.214 4.031 2.93 4.817 3.767 6.126 6.645l1.518 3.244v-3.663l.052-3.714 2.88.104c1.675.053 3.613-.261 4.555-.68 1.361-.68 1.675-1.203 1.833-3.034.209-2.878-.733-5.86-2.985-9.26-.995-1.57-1.99-3.559-2.146-4.448-.42-1.988-2.985-8.476-3.77-9.627-.314-.47.21-.105 1.152.785 1.152 1.046 1.78 2.145 1.78 3.034 0 2.512 2.199 3.715 3.246 1.78.785-1.466-.157-4.762-1.937-7.012-.89-1.098-2.147-2.982-2.88-4.237-1.832-3.349-2.827-4.29-10.943-10.36-17.54-13.184-39.32-32.49-49.792-44.158-2.408-2.72-7.068-7.69-10.262-11.091-6.492-6.802-8.325-9.784-12.304-19.987-1.361-3.453-4.869-11.824-7.749-18.625-6.806-15.801-13.874-33.328-14.87-36.677l-.366-1.255 2.514 1.412c2.984 1.622 4.712 1.78 5.13.314.262-1.046 1.99-1.935 3.404-1.726.68.104.68 0 .105-.733-.89-1.046-.42-2.563.837-2.563.524 0 .786.314.576.837-.157.418-.105.942.21 1.15.994.576.523 1.309-1.519 2.25-1.1.524-1.728 1.047-1.361 1.152.366.104.68.575.68.994-.052 1.203 2.252 3.034 3.404 2.668.523-.157.995-.052.995.314s.366.523.785.366c.576-.21.942.157 1.152 1.151.628 2.93.733 3.035 2.513 2.668 2.356-.47 2.932-1.046 3.717-3.61.367-1.255.838-2.25 1.1-2.25s1.361.838 2.46 1.832c1.31 1.203 1.99 2.354 1.99 3.296 0 .785.262 1.57.576 1.779.262.157.524 1.465.524 2.877 0 1.465.366 3.244.838 3.977 2.25 3.871 3.717 7.481 5.392 13.76 1.938 6.906 3.142 9.836 4.346 10.83 1.047.785 3.98-.68 5.445-2.72 1.1-1.57 1.31-2.46 1.257-6.227 0-3.61-.314-5.127-1.78-8.685-.943-2.354-1.728-4.5-1.728-4.76 0-.21 1.047-.576 2.304-.681 1.308-.157 3.141-.575 4.083-.994 1.624-.68 2.042-.576 5.864 1.308 2.252 1.099 4.817 2.72 5.655 3.61 7.592 7.639 8.587 8.79 9.006 10.83.418 1.727.314 2.46-.576 3.924-1.414 2.407-1.362 3.035.418 6.174 1.624 2.93 2.828 3.558 4.922 2.616 1.204-.576 1.518-.471 2.147.418.419.576.785 1.465.785 1.989 0 1.412 2.618 3.243 4.765 3.243 2.042-.052 2.303-.889 1.256-3.714-.785-1.884-1.623-10.674-1.256-12.243.47-1.674 2.775-1.36 6.073.837 3.56 2.407 7.016 3.4 9.267 2.616 2.409-.785 2.252-1.988-.576-4.656-1.413-1.308-4.607-5.494-7.12-9.261-4.084-6.121-5.236-7.43-9.739-10.987-2.827-2.198-6.02-4.97-7.016-6.122-1.047-1.203-4.869-4.656-8.534-7.743-11.518-9.784-10.524-8.685-9.686-11.249 1.204-3.61.524-4.813-6.65-11.615-7.015-6.697-14.398-15.539-19.529-23.491-1.728-2.669-4.188-6.174-5.497-7.744l-2.304-2.877 1.57-3.192c2.41-4.918 2.514-5.65.838-9.26-1.675-3.767-3.717-5.965-8.324-9.313-3.456-2.46-4.974-2.93-6.126-1.779-.838.837-2.461-.576-4.346-3.715-2.042-3.557-5.707-5.441-11.99-6.226l-3.298-.418 3.77-.105 3.77-.052-.315-1.727c-.89-4.29-4.87-8.11-8.9-8.58l-2.461-.262v-3.924c0-5.493-1.676-8.11-11.257-17.946-8.011-8.161-10.472-11.091-12.043-14.074-1.047-2.04-3.77-12.766-5.026-19.672-1.518-8.528-4.712-19.62-7.644-26.683-4.974-11.72-7.958-16.219-12.147-18.05-1.361-.628-3.246-1.936-4.241-2.982-1.78-1.936-11.728-7.534-13.351-7.534-2.356 0-9.058-5.128-9.058-6.959 0-.419-.68-1.517-1.57-2.354-1.467-1.465-1.78-1.57-5.341-1.308-3.613.261-3.875.209-5.236-1.256-.995-1.046-1.57-2.407-1.728-4.029-.47-3.976-2.46-8.475-5.026-11.196-2.618-2.825-4.084-3.14-6.859-1.57-1.623.89-1.78.89-3.56-.052-1.152-.628-2.356-.89-3.037-.68-1.518.47-1.518-.419-.052-3.767 1.256-2.825 1.256-4.918-.105-9.836-.68-2.669-.68-2.72.995-4.134.942-.784 2.146-2.406 2.67-3.557.942-1.988.942-2.198.105-2.669-.629-.314-.943-1.203-.943-2.616 0-2.51.89-5.18 1.571-4.76.785.47 1.152 3.295.524 4.028-.367.419-.367 1.256 0 2.459.576 1.831.523 3.715-.157 5.86-.21.628-.158 1.465.104 1.883.262.419.524.053.68-1.15l.315-1.884 1.518 1.203 1.519 1.203v-1.255c0-.942.105-1.099.471-.576.367.576.524.576.785-.157.42-1.046.157-1.674-1.413-3.348-.838-.994-1.047-2.093-1.047-6.226-.053-2.773.052-5.18.261-5.337.681-.732 3.142 1.465 3.142 2.773 0 1.779.838 2.25 1.256.733.21-.785-.052-1.78-.733-2.721-.942-1.256-.942-1.517-.209-2.145 2.147-1.779 2.042-4.97-.21-5.598-.837-.21-1.047-.576-.837-1.675.314-1.621 1.256-1.988 1.256-.575 0 .523.157.785.367.575.157-.157.785.21 1.309.89.89.994 1.047 1.046 1.047.261 0-.47.471-1.15.942-1.412.681-.419 1.048-1.57 1.31-3.976.261-3.14.209-3.454-.89-3.924-.681-.314-1.52-1.204-1.886-2.04-.418-.838-.785-1.152-.942-.733-.628 1.726-2.984.261-3.246-1.989-.262-2.354.785-2.72 2.304-.837.733.89 1.308 1.256 1.308.89s-.209-.68-.523-.68-.524-.262-.524-.628.42-.314 1.205.261c.68.471 1.151 1.1 1.1 1.465-.106.314.208.994.68 1.465 1.623 1.622.994-2.668-.786-5.493-.942-1.413-1.675-2.826-1.675-3.14 0-.313-.628-.784-1.414-1.098-1.204-.471-1.361-.733-1.047-2.145.471-2.25-1.047-5.128-3.98-7.534-2.722-2.25-2.512-3.192.525-2.355 3.77 1.047 6.963 4.709 7.068 8.058 0 1.412.052 1.464.523.313.576-1.465-.21-4.5-1.675-6.33-.576-.733-2.827-2.302-4.974-3.453-2.932-1.518-4.136-2.46-4.555-3.61-.314-.89-.786-1.622-1.047-1.622-.524 0-.524.418.052 1.57.314.522.262 1.517 0 2.301l-.524 1.36-1.36-1.517c-.734-.837-1.362-1.988-1.362-2.459 0-.732-.105-.784-.419-.261-.576.941-4.503-.628-4.503-1.78 0-.94 3.822-2.301 4.346-1.516.21.366.576.261 1.047-.21.576-.628.524-.784-.262-.837-2.251-.104-4.136.21-5.55.942-1.937.994-3.874.47-5.55-1.517-.732-.89-3.193-2.669-5.497-4.029-2.304-1.308-5.183-3.244-6.335-4.29-3.613-3.244-6.074-4.133-11.624-4.29-4.555-.157-5.13-.053-7.434 1.308-3.09 1.883-4.922 3.453-4.922 4.238 0 .313.89-.21 1.937-1.204 4.032-3.662 12.2-4.918 16.912-2.564 2.88 1.465 2.722 1.36 2.932 2.826.052.68.157 1.36.157 1.465.052.104.366-.105.785-.419.576-.47 1.047-.314 2.042.733 1.623 1.778.89 1.778-4.503 0-5.602-1.78-11.466-2.04-14.45-.576-1.205.628-3.09 1.099-4.241 1.099-1.1.052-1.885.21-1.78.47.157.21-.472.576-1.414.733-.89.21-1.937.68-2.304 1.099-.314.418-1.047.732-1.623.732-.523 0-1.152.314-1.361.628s-.68.419-1.152.262c-.419-.157-.628-.053-.471.21.157.313-.262.836-.943 1.15-.68.366-2.513 1.517-4.136 2.564-3.822 2.511-4.817 2.04-1.832-.837 2.67-2.564 7.958-5.285 9.32-4.761.837.313.837.261 0-.576-.786-.837-1.153-.785-4.346.837-3.875 1.988-8.22 5.755-8.22 7.168 0 .523-.838 1.517-1.938 2.25-1.047.732-2.146 1.988-2.408 2.825-.314.837-.89 1.517-1.257 1.517-.419 0-2.199 1.727-4.031 3.82-3.508 4.08-4.241 4.342-6.597 2.145-.629-.576-1.624-1.047-2.2-1.047-.837 0-.366.68 1.78 2.616 1.624 1.413 2.933 2.93 2.933 3.349 0 .418-.995 1.831-2.2 3.244-1.256 1.36-2.198 2.825-2.198 3.243 0 1.1-1.362.89-2.513-.366-.524-.628-1.31-1.099-1.728-1.099-.42 0-1.204-.47-1.728-.994-1.466-1.465-2.67-1.778-3.456-.889-.47.628-.47.785.053.785.47 0 .576.575.314 1.883-.471 2.512 1.047 6.122 3.35 8.162 1.833 1.57 2.357 3.296 1.257 3.976-.314.21-.89.105-1.309-.261-.366-.314-.837-.419-.994-.262-.472.471-4.817-2.406-4.922-3.191 0-.366-.105-1.204-.105-1.78-.052-.575-.471-1.15-.995-1.255-1.518-.314.158 3.453 2.932 6.436 2.618 2.825 4.346 5.022 4.294 5.493 0 .157-.21.628-.471 1.099-.42.628-.733.628-1.885-.157-1.78-1.151-3.09-1.151-4.66-.052-1.257.889-1.257.889-.21 2.092 1.414 1.57 2.042 3.61 1.1 3.663-.419 0-1.309.47-1.99 1.046-.942.785-1.151 1.413-.89 2.46.576 2.354 0 3.138-1.937 2.406-1.78-.576-3.298-2.878-3.298-4.814 0-.627-.262-1.15-.576-1.15-.943 0-.576 3.505.576 5.388.575.994 1.727 2.093 2.565 2.407 3.403 1.36 5.183 2.46 5.969 3.61.785 1.203.733 1.256-.786 1.256-.89 0-2.46-.366-3.56-.837-2.722-1.1-4.346-1.047-4.136.157.314 1.465 2.67 2.302 6.65 2.302 4.188.052 5.026.732 3.507 2.877-1.1 1.518-1.152 3.349-.104 5.337.47.837.68 2.04.47 2.72-.366 1.413.681 2.826 2.043 2.826 1.047 0 1.885 1.412 1.309 2.302-.157.261-.786.68-1.362.89-.994.366-.994.522-.261 1.517.837 1.046.837 1.046.837-.157s1.78-2.616 2.409-1.989c.21.21.366.838.366 1.36 0 .576.314 1.518.68 2.094.577.941.786.994 1.52.366.418-.419 1.989-1.413 3.455-2.198l2.618-1.412-.053 1.517c0 1.779-1.885 5.023-2.932 5.023-.419 0-1.309-.419-2.042-.994-.733-.576-1.623-.89-2.042-.785-.418.157-1.204-.157-1.832-.733-.942-.837-1.152-.89-1.57-.209-.367.576-.21.942.575 1.308.576.262 1.1.68 1.1.89 0 .261.942.837 2.146 1.307 2.932 1.152 3.142 1.832.995 2.878-2.304 1.099-4.712 4.5-6.283 8.894-1.309 3.663-2.67 5.913-5.34 8.738-1.257 1.36-2.252 1.883-4.294 2.145-1.832.262-2.617.628-2.617 1.203 0 1.413-2.67 4.343-4.241 4.71-.89.208-2.461 1.412-3.56 2.72-1.467 1.674-3.928 3.244-9.059 5.86-8.69 4.447-9.32 5.127-9.214 10.882.052 2.616.523 5.65 1.204 8.005 1.518 4.761 1.518 6.017-.053 8.214-.733.942-1.884 3.087-2.617 4.761-2.775 6.383-10.21 16.743-16.336 22.916-6.283 6.331-9.581 11.144-9.686 14.074-.052 1.256-.314 1.675-.89 1.518-2.723-.733-7.12.313-7.173 1.726 0 .419-.524 1.256-1.1 1.988-1.047 1.256-1.1 1.256-3.036.367-2.461-1.152-3.77-.733-6.702 2.197-1.833 1.883-2.304 2.72-2.304 4.29 0 1.047.262 2.04.68 2.145.367.157-.052.262-.994.314-10.472.419-10.733.471-11.885 1.57-1.1 1.098-1.152 1.098-3.246.104-1.362-.68-3.351-1.046-5.498-1.046-3.141 0-3.56.157-6.073 2.25-1.78 1.465-3.299 3.505-4.503 5.86-.943 1.935-1.99 4.028-2.304 4.604-.419.837-1.152 1.046-3.298 1.046-1.519 0-3.77.366-4.974.785-2.88 1.046-13.56.785-13.927-.314-.105-.419-1.938-2.407-4.084-4.447-2.618-2.407-3.665-3.767-3.09-3.872 4.19-1.203 9.425-2.145 10.577-1.831.785.21 2.251 1.203 3.246 2.302 2.408 2.511 3.456 2.145 4.607-1.779 1.624-5.65-1.727-15.591-5.235-15.591-.681 0-1.623 1.046-2.723 3.034-.942 1.622-2.199 3.244-2.827 3.61-.628.314-3.403.838-6.178 1.152l-5.027.627-1.623-1.883c-3.35-3.924-3.717-5.023-8.953-25.218-1.675-6.488-3.508-13.394-4.031-15.382-.524-1.936-4.713-17.894-9.268-35.42-4.555-17.528-8.848-33.695-9.476-35.997-.576-2.25-2.985-11.405-5.236-20.3-3.613-14.178-9.058-34.792-19.006-72.253-6.021-22.55-10-35.002-15.34-47.559C115.096 15.225 107.662 0 107.19 0c-.104 0-.314.21-.47.419M211.07 330.033c.21.837.68 2.616 1.1 3.976 1.099 3.558 1.413 5.965.89 6.279-.263.157-.734-.367-1.048-1.204-1.257-3.505-2.827-8.79-2.827-9.627 0-1.57 1.57-1.046 1.885.576m10.995 4.813c0 5.442-.105 6.017-.995 6.226-.943.157-.995-.104-.628-3.139.314-2.668.157-3.714-.786-5.86-1.518-3.4-1.466-3.662.629-3.453l1.78.157zm6.44-5.075c.157.367.314 2.093.419 3.82.104 2.877 0 3.139-1.048 3.139-1.047 0-1.1-.314-1.1-3.82 0-2.93.158-3.871.734-3.871.419 0 .89.314.995.732m15.864 15.749c0 2.197-.262 3.871-.576 3.871-.628 0-.628.105-.628-3.557-.053-3.82 0-4.134.628-4.134.314 0 .576 1.622.576 3.82m54.085 174.748c-.157.261-.628 3.662-1.047 7.534-.471 3.871-1.152 8.79-1.623 11.04-.471 2.197-.838 5.126-.838 6.487v2.511l-4.555-4.604c-2.513-2.511-4.974-4.866-5.55-5.127-.837-.471-.89-.785-.419-2.093.315-.89.629-2.564.629-3.767 0-2.093.052-2.198 1.466-1.884.837.157 2.146 0 2.88-.366 1.675-.89 3.874-4.552 3.874-6.54 0-2.302.576-3.296 2.408-4.08 1.728-.681 3.456-.158 2.775.889m357.13 27.415c1.205 1.256 1.153 1.099 1.414 6.33.157 4.082.472 7.064 1.1 10.15l.366 1.937-1.57-1.36c-5.34-4.814-12.304-12.662-12.304-13.97 0-.89 2.88-1.988 3.77-1.465.313.21 1.099 2.04 1.622 4.081.943 3.296 3.299 7.586 4.608 8.423 1.309.785 1.414-.837.157-2.668-2.304-3.348-3.037-12.557-1.047-12.557.419 0 1.256.524 1.885 1.1m6.493 6.854c3.35 1.727 6.911 7.272 6.545 10.202-.21 2.04-2.723 2.773-4.66 1.308-2.147-1.622-3.246-3.871-3.822-8.057-.68-4.604-.576-4.761 1.937-3.453m-24.45 12.347c3.14 6.122 6.387 14.702 6.387 16.69-.053 1.152-.053 1.152-.838-.156-.419-.733-1.204-2.616-1.728-4.134-.838-2.563-1.832-4.342-4.712-8.266-.68-.942-2.566-3.663-4.189-6.017l-2.984-4.29 1.257-1.047c1.256-.994 1.309-.994 2.565.21.733.68 2.618 3.819 4.241 7.01m-6.86.89c1.78 2.668 3.194 4.97 3.09 5.075-.472.47-6.179-3.192-10.734-6.854-.366-.314 3.456-3.453 3.98-3.296.209.052 1.832 2.354 3.664 5.075m-4.555 4.5c2.984 2.04 6.597 4.237 8.01 4.917 2.357 1.152 2.828 1.727 5.394 6.645l2.827 5.337.157 5.912c.105 3.244 0 6.017-.21 6.174-.209.157-1.36-1.308-2.565-3.192-1.204-1.831-4.922-6.592-8.22-10.464-9.896-11.667-13.875-17.265-13.142-18.469.68-1.15 2.461-.418 7.75 3.14m-7.12 5.545c5.235 6.697 10.366 12.871 14.136 17.004 1.728 1.936 3.09 3.61 2.932 3.767-.366.366-4.607-1.255-8.272-3.191-4.503-2.407-8.954-6.959-11.467-11.72-2.408-4.604-3.927-8.842-3.508-9.94.681-1.832 2.513-.68 6.179 4.08m-294.459-1.779c0 .157-.68 2.303-1.466 4.814-.995 3.139-1.885 4.97-3.09 6.069-1.989 1.831-2.826 1.308-2.041-1.308.262-1.046.524-3.296.524-5.023 0-4.552.209-4.865 3.35-4.865 1.466 0 2.723.156 2.723.313m8.796 4.081c.785 2.25 2.094 5.703 2.932 7.691 1.414 3.244 1.518 3.767.943 6.331-.367 1.517-1.676 4.552-2.932 6.802-4.084 7.01-4.19 7.377-4.19 10.202s1.31 6.33 2.514 6.75c.524.156.628-.89.367-4.71l-.367-4.97 2.67-4.029c2.932-4.447 4.66-8.894 4.765-12.242.052-1.413-.786-4.5-2.304-8.424-1.309-3.4-2.199-6.33-1.99-6.54.158-.21 1.257-.104 2.357.157 1.884.471 2.042.68 2.146 2.564.105 1.15.68 3.715 1.362 5.65 2.356 6.959.523 15.958-4.032 19.777-1.57 1.308-2.042 3.035-.838 2.982 1.466 0 4.346-2.302 5.917-4.708 1.728-2.721 2.775-6.593 2.775-10.307 0-1.256.314-2.773.68-3.296.68-.942.733-.89 1.571.052.942 1.046 3.141 7.063 3.613 9.784.157 1.15-.105 2.04-.89 2.982-.629.68-1.152 1.622-1.152 2.04 0 1.151 2.251.89 3.665-.47 1.675-1.57 1.675-4.238-.105-9.156-.733-2.093-1.361-4.238-1.361-4.814s.837-2.616 1.78-4.604c1.675-3.296 1.937-3.558 3.717-3.715 1.047-.052 2.2.053 2.513.262.42.261.733 3.924.943 9.784.262 8.266.471 9.783 1.78 13.237 1.414 3.819 3.456 6.592 4.608 6.173.314-.104-.158-1.936-1.152-4.342-1.571-3.872-1.676-4.657-1.938-13.237-.314-10.15-.157-11.249 1.414-10.412.68.366 1.152 1.465 1.414 3.192.47 2.93 1.832 7.377 3.56 11.353 1.885 4.343 2.094 9.575.576 14.388-.942 3.087-1.1 4.238-.628 4.709.68.732 2.303-.262 2.303-1.36 0-1.413 1.205-4.762 1.676-4.762.262 0 .523 1.78.628 3.977l.157 3.976 1.833.47 1.832.524-.366 2.878c-.314 2.25-.157 3.034.576 3.767.47.47 1.1.89 1.36.89.263 0 1.1 1.098 1.886 2.458.785 1.308 1.832 2.564 2.356 2.72.523.158 1.466 1.047 2.094 1.937.576.941 1.78 2.197 2.67 2.825l1.624 1.203-.42-1.883c-.785-3.767-1.046-7.639-.47-7.639.837 0 1.204 1.203 1.57 5.389.471 4.5 1.047 6.174 2.147 6.174.995 0 .995-.262.838-7.22-.053-2.983.157-5.442.418-5.599.786-.47 1.205 2.355 1.31 7.953.052 5.494.366 5.912 3.717 4.29 2.094-.994 2.146-1.15 1.623-2.668-.576-1.674-.105-28.096.523-28.096.105 0 1.257 1.099 2.566 2.46 2.147 2.144 2.46 2.824 3.037 6.435.785 4.76 1.57 6.435 3.874 8.37 2.723 2.25 5.498 2.878 8.377 1.78 1.31-.471 2.513-.89 2.723-.89s1.728 1.779 3.403 3.976a285 285 0 0 0 5.236 6.645c2.513 2.982 2.722 4.133 1.152 5.598-.629.523-1.1 1.204-1.1 1.465-.052.262-.628 1.413-1.361 2.512-1.885 2.93-2.251 4.499-1.1 4.499.786 0 .838.419.524 2.564-.367 2.511-.367 2.563 2.356 5.075 2.251 2.145 2.618 2.72 2.094 3.557-.523.785-.314 1.256 1.31 2.564 2.094 1.779 3.56 2.04 4.24.89.42-.68 2.461-1.989 3.142-1.989.157 0 .157 1.465-.053 3.297-.314 3.086-.261 3.296.786 3.296.68 0 1.466-.419 1.78-.942.419-.733.68-.785.89-.314.157.419.628.68 1.1.68.418 0 .785.262.785.523 0 .314.419.68.942.838 1.466.47 3.037 5.284 2.723 8.161-.157 1.256.052 3.82.471 5.599 1.204 5.493 3.194 22.235 3.299 27.467 0 2.721.314 5.494.68 6.174.367.628.68 2.512.68 4.081 0 1.622.367 4.133.786 5.65 1.047 3.454 1.047 7.482.053 8.843-1.1 1.412-1.1 3.244 0 4.133 1.309 1.099.523 6.435-1.205 8.11-1.518 1.464-1.623 2.04-.418 4.237 1.204 2.25 1.047 4.552-.42 6.122-.994 1.046-1.256 1.988-1.308 4.656-.053 3.244-.053 3.349-2.67 5.65-2.2 1.884-2.618 2.512-2.304 3.506.21.68.837 1.465 1.413 1.78.89.47 1.048 1.202.995 5.231 0 5.075-.995 8.842-3.455 13.29-.786 1.36-1.623 3.4-1.938 4.603-1.832 7.168-1.623 6.645-3.193 6.331-2.357-.47-13.195-3.4-17.435-4.76-6.283-1.99-8.43-2.774-15.708-5.86-3.822-1.623-7.173-2.93-7.487-2.93-.942 0-2.146-1.832-2.88-4.396-1.099-3.767-4.24-9.731-6.544-12.242-1.152-1.308-2.827-3.296-3.718-4.5-2.199-3.087-1.937-2.825-9.529-7.952-7.644-5.128-17.068-9.784-21.204-10.517-1.519-.209-3.456-.628-4.398-.837-3.194-.732-17.121-6.906-23.404-10.36-7.435-4.185-16.755-8.004-19.372-8.004-1.257 0-4.556-1.36-9.791-3.976-4.346-2.198-9.425-4.71-11.31-5.494-1.884-.785-3.455-1.726-3.455-2.04s.942-.576 2.146-.576c2.514 0 3.299-.785 3.666-3.61.157-1.203.575-3.453.89-5.023.47-2.197.47-3.087 0-3.557-.89-.89-.786-3.506.209-5.023 1.414-2.198 1.466-6.226.262-13.917-1.414-8.947-1.414-10.36 0-12.086 1.361-1.779 1.361-4.343 0-6.592-.838-1.36-1.466-1.78-3.142-1.884l-2.094-.21-.052-3.034c-.053-1.622-.367-4.708-.68-6.854-.891-5.44-.839-9.312.156-10.15 1.257-1.046.995-2.93-.523-4.394-1.205-1.151-1.362-1.727-1.362-5.18 0-2.198.21-4.186.524-4.447.314-.367.366-2.093.105-4.395-.21-2.093-.21-5.075.052-6.592.262-1.518.471-7.116.471-12.505 0-7.848.157-9.731.785-9.731.42 0 1.257 1.15 1.885 2.616.943 2.04 1.1 3.139.838 5.075-.21 1.36-.576 4.552-.733 7.063-.419 4.97-.052 5.807 2.2 5.493 1.256-.209 1.256-.313 1.046-5.022-.104-2.878.053-4.814.367-4.814.785 0 2.199 3.977 3.979 11.197 1.728 7.063 2.147 8.057 4.189 9.679 2.303 1.831 2.67.575.837-3.035-.89-1.779-1.78-4.028-1.99-4.97-.313-1.57-.156-1.831 1.205-2.511s1.518-1.047 1.518-3.506c0-1.883-.576-3.871-1.78-6.487-2.147-4.605-2.251-6.017-.419-6.854 1.78-.785 2.513-2.616 2.513-6.331 0-3.82.838-5.075 2.88-4.133 1.257.575 1.518 1.098 1.833 3.871.261 2.302.628 3.401 1.36 3.767 1.467.785 1.781-.157 1.362-3.924-.314-2.72-.157-3.662.838-5.702 1.361-2.669 2.618-3.401 4.346-2.46.994.524 1.466.367 3.089-1.098 1.1-.942 2.094-1.57 2.251-1.413.419.419-1.414 6.75-2.618 9.208-.576 1.1-1.937 2.512-2.984 3.192-1.047.628-1.937 1.517-1.937 1.988 0 1.36 2.303.785 4.712-1.15 2.618-2.198 4.345-5.913 4.921-10.831.42-2.982 2.618-11.824 3.56-14.074.472-1.047.89-1.256 2.618-1.099 1.99.157 2.042.21 3.456 4.29m-19.477-3.086c.367.994-1.152 5.44-2.827 8.37-2.409 4.082-4.032 3.297-2.2-1.046.472-1.098.943-2.877 1.1-4.08.314-2.826 3.142-5.18 3.927-3.244m296.291.47c.21.68 1.1 2.721 1.99 4.552 2.932 5.86 2.775 5.965-1.78 1.465-2.409-2.407-4.346-4.604-4.346-4.866 0-.418 2.565-2.197 3.35-2.354.21 0 .577.523.786 1.203m-258.175 3.035c0 .837-.366 1.988-2.67 7.953-.576 1.464-.628 1.517-1.675.575-1.623-1.36-1.519-2.511.785-8.79.157-.418.995-.732 1.937-.732 1.204 0 1.623.261 1.623.994m244.457 8.685c1.152 2.04 3.508 5.18 5.184 7.01 1.675 1.884 3.822 4.396 4.764 5.6 4.346 5.65 7.802 14.387 7.069 17.997-.42 2.04-1.78 3.662-3.09 3.662-1.36 0-4.921-4.08-7.696-8.79a752 752 0 0 0-4.398-7.429c-3.665-5.912-8.744-16.637-8.744-18.364 0-.523 3.77-3.296 4.45-3.296.158 0 1.31 1.622 2.461 3.61m-11.832 9.051c.576 2.564 1.413 6.854 1.885 9.575.47 2.72 1.36 6.383 1.937 8.162.628 1.988.785 3.087.419 2.982-1.31-.419-11.205-20.614-10.786-21.87.262-.784 4.503-3.819 5.079-3.61.261.053.942 2.198 1.466 4.761m-282.888-2.511c0 .576-.314 1.099-.628 1.203-.733.262-1.466-1.308-.995-2.092.524-.838 1.623-.21 1.623.889m104.087 3.191c1.204.628 1.309.995 1.309 5.18 0 2.512-.157 4.552-.367 4.552h-.837c-1.257 0-4.556-8.11-4.032-9.732.314-.889 2.251-.889 3.927 0m5.445 3.715c.471 8.685 2.199 15.12 5.079 19.15.89 1.203 1.675 2.458 1.675 2.772 0 .837-1.99 1.204-3.403.628-2.042-.785-3.037-2.25-3.98-6.121-1.151-4.605-1.308-19.411-.209-19.045.367.105.733 1.308.838 2.616m7.016-.942 2.723.628.366 4.395c.157 2.407.628 7.325.995 10.935.314 3.558.523 6.645.366 6.75-.366.418-5.183-5.86-6.387-8.32-.943-1.988-2.723-11.196-2.723-14.021 0-1.256.576-1.308 4.66-.367m10.367 2.564c.261.262.21 1.256-.105 2.302-1.1 3.506-1.204 5.755-.471 8.214.419 1.308.785 4.343.89 6.697.052 2.355.576 6.017 1.1 8.11.837 3.14.837 3.715.209 3.191-1.78-1.465-3.718-5.755-4.398-9.783-.943-5.442-1.99-18.574-1.519-19.306.367-.628 3.456-.21 4.294.575m137.752 7.586c.68 5.18.576 6.54-.419 4.71-.785-1.57-1.937-9.89-1.466-10.674.681-1.099 1.205.47 1.885 5.964m-267.232 1.727c2.932 7.01 3.089 7.691 2.042 7.691-.472 0-1.1-.523-1.414-1.203-2.618-6.593-3.822-10.098-3.822-11.301 0-2.145.733-.994 3.194 4.813m261.84-3.348c2.041 5.284 4.712 30.659 3.35 32.02-.89.889-1.937-1.1-4.502-8.215-1.676-4.709-6.074-21.242-6.074-22.916 0-.47 5.76-2.878 6.23-2.616.21.157.681.942.995 1.727m-59.583 6.016c.104 1.57-.053 2.826-.315 2.826-.47 0-2.827-5.075-2.827-6.017 0-.262.628-.262 1.466-.052 1.414.366 1.57.68 1.676 3.243m49.53-1.674c.314 1.151 1.204 4.761 1.99 8.11 1.78 7.377 3.298 12.242 5.026 16.062 1.675 3.715 1.675 4.028-.21 3.4-2.251-.784-6.544-5.179-9.529-9.73-3.089-4.71-9.267-16.69-9.267-17.947 0-.68.68-.889 3.403-.889 1.885-.052 3.927-.262 4.555-.523 2.409-1.047 3.508-.68 4.032 1.517m-112.045 9.993c.89 3.296.628 5.703-.838 7.691-.785 1.047-1.361 2.198-1.361 2.564 0 .314-.42.942-.89 1.36-.733.576-.943.576-1.31-.052-.68-1.099-2.827-10.464-3.193-14.022l-.314-3.087 3.665 1.831c3.141 1.518 3.77 2.04 4.24 3.715"/>
</svg>