<svg xmlns="http://www.w3.org/2000/svg" viewBox="0 0 675 935">
  <path fill="#84a0ad" d="M347.67 123.184c1.572-.628 7.807.42 12.627 2.096 12.836 4.348 21.06 11.683 27.4 24.362 1.976 3.981 4.995 10.717 7.963 17.685l.556 1.309.277.655.55 1.31a455 455 0 0 1 4.747 11.732l.275.715c2.057 5.347 4.096 10.384 4.598 11.388 1.204 2.357 2.148 2.62 12.73 3.3 7.597.472 8.173.629 12.103 2.567 4.924 2.41 9.22 6.444 11.316 10.636.786 1.571 1.362 2.986 1.205 3.143s-1.415-1.467-2.777-3.563c-3.196-4.715-5.5-6.967-6.653-6.496-.734.262-.472.89 1.624 3.615 3.353 4.348 9.378 14.355 10.216 16.922.23.72.677 1.898 1.22 3.261l.239.595c.244.605.503 1.236.767 1.874l.267.638.268.637c1.251 2.964 2.494 5.738 2.792 6.145.367.42 1.677.315 4.715-.419 6.025-1.414 6.916-1.362 8.855.89 2.724 3.092 5.5 8.645 6.653 13.203.629 2.358 1.415 4.506 1.834 4.768.367.262 1.938.471 3.458.471 3.981 0 6.653.943 9.063 3.091 2.986 2.725 4.034 5.187 3.667 8.854-.314 3.668-.89 4.506-.89 1.31 0-1.362-.576-3.405-1.362-4.977-2.2-4.296-5.606-6.077-11.683-6.077-3.825 0-4.454.471-3.825 3.038.262 1.048.89 1.467 2.83 1.991 2.933.734 3.719 1.572 1.466 1.572-2.305 0-5.449-1.467-5.868-2.672-.157-.576-.68-3.039-1.1-5.554-1.414-8.068-2.777-9.43-10.006-10.268-3.353-.42-3.668.052-1.52 2.358.786.89 1.834 2.305 2.253 3.195.472.943 1.938 3.091 3.248 4.768 1.362 1.729 2.463 3.248 2.463 3.458 0 .458-2.743-2.665-5.286-5.839l-.38-.476c-1.383-1.744-2.661-3.45-3.346-4.53-.524-.838-1.205-1.362-1.467-1.205-.314.157-.523.052-.523-.262s.262-.576.576-.576.419-.21.262-.524c-.524-.786-2.62 0-2.253.89.157.472.314 1.048.314 1.258 0 .262 1.415 1.886 3.249 3.615 1.78 1.729 3.772 4.19 4.348 5.396 1.99 3.982 5.082 12.469 5.344 14.564l.262 2.044-.838-2.096c-.42-1.153-1.467-3.3-2.253-4.82l-1.52-2.724-1.205 3.72c-1.571 4.61-3.51 8.958-3.562 7.806 0-.42.471-2.043 1.048-3.563.576-1.52 1.362-4.243 1.729-6.13.628-3.248.576-3.51-.839-6.13-.838-1.519-2.514-3.457-3.772-4.348-3.772-2.672-3.877-2.724-3.458-1.205 1.258 4.349 2.044 10.53 2.253 17.29.157 4.243.629 9.168 1.048 11.001.943 3.72 1.153 8.907.367 10.164-.734 1.153.314 1.624 3.667 1.624 2.462 0 3.144-.21 4.82-1.729 2.724-2.357 3.615-4.243 3.615-7.963 0-2.934.052-3.091.838-2.305 1.153 1.152 1.258 8.015.157 11.211-.68 1.939-1.205 2.41-4.82 4.244-4.61 2.358-7.544 2.62-13.778 1.257-4.114-.924-4.395-1.074-4.403.127v.169l.001.184v.201c0 1.52.158 1.625 5.083 2.83 6.13 1.519 7.335 2.2 8.697 5.186 1.1 2.463 1.414 6.13.524 6.706-.367.21-.577-.419-.577-1.572 0-4.558-1.676-6.339-7.44-7.858-5.972-1.624-6.39-.786-1.519 3.039 5.659 4.453 6.916 8.801 4.401 15.402-1.729 4.61-3.667 7.02-5.972 7.335l-1.834.262 2.358-1.99c3.562-3.092 2.776-4.559-1.258-2.201-1.205.733-2.305.995-2.881.786-.786-.367-.629-.577.943-1.205 3.667-1.572 6.601-5.24 6.601-8.278-.052-2.148-1.414-3.615-4.925-5.396l-2.986-1.467-1.624 1.99c-2.882 3.563-4.4 1.782-1.729-2.095.734-1.153 1.362-2.148 1.362-2.305s-.995-1.31-2.253-2.62l-2.252-2.305.262 4.4c.366 5.188 1.152 12.522 2.305 20.905l.326 2.602.095.752c.297 2.371.572 4.607.679 5.71.82 7.536 1.137 9.97 1.932 12.092l.104.269.11.268c.188.447.401.899.65 1.4l.153.308.247.489c4.034 7.858 6.81 18.18 6.287 23.733-.315 3.667-.157 3.981 4.977 10.425 3.09 3.773 4.82 7.702 5.71 12.627.681 4.19 1.205 5.186 4.034 8.225 1.363 1.467 3.249 4.296 4.192 6.392.995 2.2 2.881 5.029 4.558 6.81 1.624 1.677 4.034 4.82 5.448 6.968 1.939 2.987 3.196 4.244 5.292 5.396 2.043 1.1 3.038 2.096 3.981 3.982.734 1.415 2.41 3.458 3.773 4.558 1.362 1.048 7.439 6.916 13.464 12.94l11.002 10.95 6.234 1.52c3.458.838 8.226 1.676 10.688 1.886 4.61.314 5.344.576 9.064 3.195 1.257.839 4.034 2.148 6.287 2.882 6.81 2.358 8.225 3.248 10.635 7.02a107 107 0 0 1 2.216 3.704l.348.61.347.614.343.615c2.39 4.309 4.47 8.553 4.29 9.022-.262.943-3.72.786-5.606-.157-.89-.472-2.829-2.672-4.348-4.82-2.62-3.877-5.344-6.916-5.763-6.444-.157.157.157 1.362.576 2.672 1.886 5.553-.629 13.36-6.13 19.017-1.519 1.52-3.72 3.825-4.872 5.135-1.1 1.257-2.253 2.305-2.462 2.305-1.205 0-2.41-1.624-2.567-3.51-.105-1.362-.524-2.358-1.31-2.882-1.52-1.1-1.572-3.772-.052-4.715 1.414-.943 1.362-1.886-.158-2.724-.68-.367-3.09-2.41-5.396-4.61-4.977-4.768-5.763-5.187-9.745-5.554-4.61-.42-7.806-1.467-11.84-4.034a95 95 0 0 0-3.154-1.892l-.224-.125c-.276-.15-.454-.236-.499-.236-.21 0-.366.629-.366 1.362 0 .786-.472 2.567-1.048 3.982-2.62 6.758-3.248 21.742-1.362 33.74.523 3.457.733 7.072.523 8.958-.471 4.663-3.562 11.369-8.696 18.547-7.65 10.844-11.37 16.136-13.36 19.017l-1.938 2.777 2.462 4.348c1.362 2.358 2.881 5.554 3.405 7.02.577 1.782 2.044 3.982 4.192 6.392 4.348 4.768 6.706 9.588 6.339 13.203-.105 1.414-.629 3.405-1.153 4.453-.524.995-.89 2.148-.89 2.567 0 1.73 2.881 6.287 5.5 8.802 3.249 3.09 7.702 8.749 7.702 9.85 0 1.309-2.253.89-3.51-.63-3.248-3.929-4.925-5.762-5.134-5.553-.105.105.89 2.777 2.252 5.92 1.991 4.715 2.306 5.816 1.677 6.287-1.31 1.048-1.467 3.196-.576 7.44 1.205 5.658 1.152 6.758-.158 6.077-1.31-.734-2.043-2.62-2.933-7.754l-.734-4.139-.314 7.702c-.367 7.963-1.677 15.402-2.934 16.712-.838.839-3.091.367-3.039-.628 0-.367.472-1.991 1.1-3.563l1.1-2.881-1.414.314c-1.729.419-1.729-.157-.21-4.506 1.834-4.924 2.044-14.983.577-23.733-1.153-6.81-2.358-10.583-3.3-10.583-.263 0-.787 1.153-1.153 2.62-1.31 5.396-7.859 19.699-11.264 24.728l-1.31 1.886 1.362 4.768c.681 2.62 2.043 8.33 2.882 12.626l1.624 7.806 10.111 19.961c10.845 21.323 20.432 39.398 25.2 47.466 2.2 3.72 4.505 6.496 9.273 11.316 6.496 6.497 10.792 9.693 19.96 14.984 5.869 3.353 8.069 4.191 10.846 4.244 2.934 0 3.457.576 3.457 3.667 0 7.754-5.291 18.18-13.726 27.138-1.886 1.991-3.405 3.877-3.405 4.192 0 .314.576 1.676 1.31 3.038 2.671 4.715 4.243 9.85 4.348 13.936.105 3.3-.157 4.349-1.624 7.387-2.934 6.077-7.44 9.797-16.032 13.36-3.405 1.467-5.03 1.781-8.12 1.781-5.763 0-9.378-1.99-13.57-7.44-1.728-2.252-3.667-4.295-4.243-4.557-1.31-.63-4.087.628-4.348 1.938-.105.524.733 2.567 1.78 4.506 1.834 3.248 2.358 3.72 6.235 5.763 2.672 1.362 5.973 3.772 8.75 6.391 3.772 3.51 5.605 4.715 10.95 7.23 6.338 2.986 6.443 2.986 7.596 1.991 2.043-1.834 4.139-2.881 5.553-2.881 2.305 0 7.544 2.986 9.483 5.396l1.781 2.2 2.83-.733c1.571-.42 3.352-1.258 4.033-1.886.681-.63 1.624-1.153 2.096-1.153 1.414.052 4.139 3.825 4.872 6.758.524 2.306.472 2.83-.262 3.668-1.1 1.205-1.152 1.729 0 1.676 1.048 0 2.567 1.52 2.148 2.2-.157.263 0 .63.42.786.366.21.157.21-.472.053s-2.462.052-4.087.471l-2.881.734 1.938 1.205c2.62 1.624 3.563 5.763 1.782 8.068-.943 1.257-1.1 2.148-.315 1.624.315-.157 1.153.105 1.939.629.786.471 1.414.68 1.414.471 0-.262.105-.314.315-.104.524.523-2.515 2.933-5.449 4.296-2.567 1.205-2.62 1.257-1.362 1.938l1.257.733h-1.257c-.681 0-1.205.262-1.205.577 0 2.095-20.694 6.444-24.257 5.03-1.257-.525-1.205-.577.838-.63 1.834-.052 1.991-.157.996-.576-1.258-.471-3.406-.419-4.401.21-.314.21-.733.052-.89-.314-.21-.472-.42-.524-.734-.158-.262.315-3.353.577-7.178.577-3.72 0-6.758.104-6.758.262 0 .157.367 1.467.838 2.986.42 1.467.838 2.881.838 3.09 0 .734-3.09 1.573-12.94 3.511-22.109 4.296-27.715 4.977-48.409 5.815-27.395 1.132-28.861 1.16-29.912 2.186l-.07.07-.07.073-.072.076q-.074.078-.158.163c-.733.68-1.833 1.257-2.41 1.257-.733 0-1.624.838-2.514 2.2-.996 1.624-1.939 2.306-3.458 2.725-5.815 1.467-15.036 1.624-21.009.314-1.622-.328-4.404-.633-7.36-.863l-.637-.048-.319-.023-.96-.066c-5.44-.356-10.758-.425-10.003.11 1.205.89-1.572 1.78-7.44 2.357-6.706.681-13.779 2.724-19.175 5.553-3.3 1.73-8.173 2.62-10.95 1.939-1.31-.262-6.13-.367-11.106-.21-8.173.315-17.237-.367-21.428-1.676-.576-.157-2.148-.315-3.51-.262-3.825.052-5.816-1.048-6.601-3.668-.839-2.829 1.624-2.252-22.948-5.343-23.47-2.987-28.71-3.773-44.322-6.916-5.5-1.048-9.325-2.358-9.273-3.196 0-.786-3.196-1.833-5.449-1.781-1.152 0-3.196-.314-4.505-.681-2.2-.681-2.253-.734-1.048-1.153 1.153-.314 1.205-.471.367-.68-.524-.106-1.782.052-2.777.418-1.153.472-6.706.786-16.713.943-3.001.052-5.512.081-7.673.085h-.846c-4.691-.006-7.681-.144-10.611-.45l-.517-.056c-.689-.077-1.38-.164-2.095-.26-2.49-.353-5.324-.81-8.18-1.31l-.951-.168c-6.982-1.24-13.875-2.69-15.964-3.446-1.31-.472-2.881-.891-3.458-.891-.995 0-2.095-2.41-1.362-3.091.681-.681-.943-1.834-2.62-1.834-3.719-.052-18.126-3.038-24.57-5.186-7.335-2.358-9.483-4.297-9.064-7.964.262-1.938 1.1-3.72 2.515-5.291 1.257-1.362 2.148-4.663 1.781-6.497-.314-1.624.681-2.253 4.4-2.829 1.52-.262 2.096-.629 2.358-1.624.21-.733.839-1.781 1.415-2.305.995-.89 1.205-.89 3.982-.053 4.61 1.467 4.296 1.572 10.635-3.667 6.758-5.606 8.54-6.601 11.84-6.863 1.73-.105 5.71.157 8.802.629 10.845 1.676 12.207 1.676 13.988.21 2.13-1.78 7.536-5.878 13.196-10.043l.972-.715c5.03-3.689 10.123-7.33 13.18-9.36 8.068-5.45 8.697-6.183 11.63-13.256.787-1.99 1.94-4.61 2.515-5.867.577-1.31 1.048-2.567 1.048-2.83 0-.628-5.344-2.619-10.845-3.929-8.068-2.043-21.532-2.881-23.313-1.519-1.1.838-4.401 7.335-5.659 11.054-1.257 3.615-2.776 5.659-5.239 6.916-1.152.576-2.305 1.362-2.672 1.781-.458.535-1.066 5.485-1.484 10.638l-.068.86c-.397 5.163-.586 10.295-.229 11.187.996 2.62.734 3.615-.943 3.615-1.834-.052-2.62-.628-5.082-3.877-.889-1.11-3.324-3.882-5.834-6.552l-.538-.57q-.406-.427-.805-.841c-9.378-9.745-13.779-17.08-16.66-27.662-1.52-5.554-1.73-7.335-1.73-13.045 0-5.816.263-7.44 1.991-14.041 2.934-10.74 4.663-15.089 11.684-29.024 5.134-10.269 6.548-13.674 7.963-19.07 3.143-11.684 6.915-18.285 20.432-35.783l.422-.548.84-1.092c11.715-15.269 21.64-29.603 24.776-35.977.243-.486.472-.946.692-1.398l.165-.339.162-.337.24-.507.16-.342c2.202-4.758 4.438-10.934 14.613-39.199 1.31-3.667 3.196-8.854 4.244-11.578 3.143-8.12 3.038-8.75-.42-3.615-1.676 2.567-3.981 5.763-5.134 7.125-1.14 1.384-4.555 4.58-7.998 7.61l-.712.623c-2.963 2.584-5.831 4.942-7.164 5.808-1.153.68-2.515 2.357-3.458 4.19-1.572 3.092-2.881 4.506-5.658 6.288-1.415.838-1.52 1.152-1.205 3.038.262 1.73.105 2.358-.786 3.301-.629.629-1.572 1.153-2.096 1.153-.995 0-2.986 2.2-4.767 5.186-.524.943-1.834 2.305-2.882 3.039-2.986 2.148-6.81 8.278-11.106 17.656-2.149 4.662-4.978 10.635-6.235 13.202-2.305 4.453-2.41 4.768-2.253 9.168.053 2.515-.052 4.506-.314 4.506-1.31 0-1.939-1.153-1.834-3.248s.053-2.253-.943-1.73c-.576.315-1.572 1.258-2.2 2.096-1.048 1.52-1.1 1.52-2.253.472-1.205-1.1-1.467-2.515-.629-3.353.262-.314 1.258-3.458 2.2-6.968 3.616-14.04 8.488-23.366 16.66-32.063.892-.943 2.201-2.934 2.935-4.453.786-1.52 2.515-3.877 3.877-5.187l.307-.307c4.549-4.595 1.688-4.025-7.747 1.564-10.95 6.497-19.699 13.046-28.92 21.847-3.51 3.301-6.758 6.078-7.177 6.025-.471 0-.786-.524-.786-1.205 0-.786 1.362-2.514 3.982-4.977 10.688-10.111 16.555-14.67 26.143-20.17 1.572-.904 2.698-1.575 3.359-2.011l.161-.109c1.688-1.152-.591-.308-7.345 2.591-7.806 3.3-14.302 7.125-21.847 12.888-2.252 1.73-4.558 3.144-5.134 3.091-1.781 0-.89-2.252 1.52-3.929 14.774-10.216 20.065-13.045 35.73-18.965 3.667-1.415 6.81-2.83 7.02-3.144s.262-1.047.105-1.571c-.681-2.096 2.41-5.397 5.082-5.397.471 0 1.729-.89 2.777-1.99 1.728-1.834 2.043-1.991 3.457-1.467 1.52.576 2.777.104 2.777-.996 0-.262.786-1.729 1.781-3.353 5.108-8.07 12.16-23.192 18.477-39.253l.59-1.508a408 408 0 0 0 5.557-15.14l2.881-8.434-1.152-3.668c-1.467-4.505-3.144-14.931-4.506-27.662-.995-9.483-1.1-9.902-4.296-18.127-6.077-15.613-8.068-23.157-10.268-39.031-1.153-7.911-1.31-8.802-1.834-8.75-.21 0-1.781 1.153-3.51 2.515-2.672 2.148-3.406 3.144-4.558 6.183-1.677 4.557-2.83 9.64-3.3 14.669a126 126 0 0 1-.891 6.706c-.524 2.567-.734 2.881-1.886 2.881-.786 0-1.363-.157-1.363-.366.053-.996 3.249-18.704 3.615-19.804.21-.786.105-1.257-.262-1.257-.314 0-.733.68-.943 1.519s-.68 1.99-1.047 2.62c-.367.576-.996 2.095-1.31 3.3-1.258 4.296-2.934 7.387-3.982 7.387-1.414 0-1.31-.89.629-5.396 1.99-4.663 1.99-5.03.314-5.03-3.772 0-5.134-4.82-2.148-7.701.838-.838 3.667-2.462 6.235-3.563 5.605-2.462 5.5-2.305 9.063-7.177 1.572-2.096 3.353-4.244 3.93-4.768.132-.119.248-.235.35-.378l.05-.074c.488-.76.629-2.29.632-8.15v-.602c-.002-1.949-.016-4.344-.037-7.299l-.157-15.56-2.515-5.239c-4.244-8.801-4.244-8.906-.89-25.88 2.933-14.565 5.343-23.838 9.377-35.731 1.153-3.458 2.62-8.435 3.3-11.002.413-1.682 1.207-4.6 2.045-7.548l.265-.93c.355-1.239.711-2.459 1.044-3.572l2.253-7.387-1.467-3.615c-2.934-7.282-4.192-9.378-7.597-12.207-1.33-1.101-4.284-3.717-7.405-6.53l-.648-.585-.65-.587-.648-.588q-.811-.736-1.599-1.455c-7.753-7.177-8.382-8.068-6.758-10.268 1.048-1.362 1.048-2.83 0-3.248-1.1-.42-1.1-2.567 0-2.567.943 0 1.572-2.2 1.205-4.244-.262-1.257.052-1.834 1.938-3.458q2.2-1.886 2.2-3.3c0-.734-1.257-3.982-2.828-7.23-1.52-3.196-2.777-6.182-2.777-6.654 0-1.153 2.41-2.986 4.977-3.772 1.781-.524 2.724-.472 5.501.367 1.886.576 4.506 1.047 5.92 1.047 2.096.053 2.567-.157 2.567-.995 0-1.1 1.677-2.567 2.882-2.567.524 0 .681.367.471.89-.21.472-.104.682.21.524.314-.21.943.577 1.415 1.73a25 25 0 0 0 1.31 2.933c.314.472 2.566 4.034 5.029 7.911 6.444 10.164 11.054 21.218 11.264 27.086.052 1.834.262 4.191.471 5.24.786 3.928 3.93 11.84 5.554 14.04 2.095 2.724 6.182 10.635 8.015 15.455.734 1.939 2.253 4.663 3.458 6.077 1.153 1.415 2.83 4.034 3.772 5.868 1.572 3.091 1.73 3.248 2.41 2.2 4.558-6.496 8.068-12.52 9.012-15.455.576-1.938 1.886-5.553 2.933-8.068 1.258-3.039 2.2-6.601 2.83-10.845 1.624-11.002 2.986-16.922 5.605-24.1 1.415-3.824 2.515-7.23 2.515-7.544-.052-.314-.314-1.938-.629-3.72-.786-4.505-.104-6.129 3.458-7.91 1.52-.786 4.034-2.253 5.501-3.353 3.72-2.62 9.378-5.449 12.521-6.287 2.987-.734 3.249-1.205 1.415-2.148-1.886-.996-4.086-2.934-9.64-8.383-6.706-6.6-8.644-10.268-8.592-16.346.105-4.977.681-6.444 5.344-12.94 4.244-5.92 8.33-13.307 9.483-17.184.733-2.515.733-2.986.052-4.087-1.415-2.095-3.196-10.844-2.83-13.516.525-3.301 2.044-6.706 4.14-9.116 2.043-2.305 10.006-7.754 12.73-8.697.996-.314 1.992-.786 2.149-.943.104-.157.733-.576 1.362-.943.576-.315 2.095-2.83 3.3-5.554 2.83-6.444 5.711-11.473 9.693-16.974 6.339-8.907 14.04-14.198 24.938-17.289 2.41-.681 4.662-1.31 4.977-1.415m147.533 527.521c-.105-.105-.524.786-.891 2.043s-.576 2.358-.472 2.463c.158.157.524-.786.943-1.991.367-1.258.577-2.358.42-2.515m-315.025-177.97c0-1.31-.314-1.258-3.196.156-4.924 2.41-6.182 6.916-1.624 5.763 1.467-.366 4.82-4.505 4.82-5.92M450.2 254.631c-.733-.419-.576 2.41.314 6.13 1.205 5.082 1.048 10.845-.523 15.508-3.04 9.273-2.987 12.207.419 15.402 1.729 1.625 4.19 3.196 4.505 2.83.053-.105.367-.943.681-1.886.629-1.887.21-5.03-1.31-9.745-.576-1.991-.942-5.292-1.047-10.583-.053-4.925-.472-8.959-1.048-11.264l-.143-.546c-.402-1.55-.785-3.105-.978-3.918l-.06-.254-.024-.102c-.157-.681-.524-1.362-.786-1.572m-11.893-2.2c-1.31-.314-1.205-.157.943 2.148 1.31 1.415 2.62 2.41 2.83 2.253.576-.315 2.671 4.348 2.671 5.92 0 .576.21.995.42.838s.471 2.515.576 5.868c.023 1.246.039 2.235.04 3.01v.37c-.008 2.351-.178 2.4-.721 1.702-1.1-1.362-1.153-.367-.105 1.1.786.995.838.995 1.257-.576.681-2.515.524-12.312-.262-15.403-.366-1.52-1.205-3.406-1.78-4.139-.891-1.205-1.153-1.257-1.677-.576-.524.733-.577.68-.262-.105.21-.734-.105-1.153-1.1-1.52-.734-.314-2.044-.68-2.83-.89m2.148 8.487c-1.624-2.357-11.63-12.364-11.63-11.63 0 1.362 4.872 9.849 7.23 12.573 1.571 1.834 4.034 5.135 5.553 7.387 1.52 2.306 2.567 3.668 2.41 3.039-.157-.576-.681-2.881-1.153-5.082-.471-2.462-1.414-4.82-2.41-6.287M163.1 124.075c1.571-.524 3.3-.733 3.3-.314 0 .05.05.296.134.684l.062.279c.191.848.502 2.163.852 3.595.288 1.178.655 2.803 1.015 4.473l.238 1.115c.275 1.3.534 2.573.738 3.632.584 3.162 2.206 10.525 3.95 18.082l.291 1.26c1.608 6.936 3.276 13.847 4.299 17.646.89 3.458 2.148 6.968 2.776 7.806.943 1.205 1.153 2.306 1.1 4.716-.052 2.671.158 3.405 1.572 5.081 1.415 1.73 1.572 2.253 1.31 4.558-.026.21-.049.408-.067.606l-.015.17c-.148 1.872.164 3.96 2.639 14.696l.23 1c.909 3.927 2.086 8.935 3.605 15.382l.23.96.227.955c2.538 10.653 4.75 20.46 5.096 22.29.367 1.99 1.048 4.295 1.467 5.134.786 1.624.472 1.78-1.886.89-.838-.314-2.882-.733-4.506-.943-2.776-.367-2.986-.471-3.195-2.043-.202-1.509-2.624-12.36-5.291-23.95l-.335-1.453c-2.796-12.122-5.77-24.656-6.686-27.878-.315-1.153-1.153-2.672-1.834-3.3-1.781-1.677-2.253-3.983-.943-4.82.943-.577.89-.787-.576-3.563-1.205-2.148-1.73-4.14-2.096-7.492-.68-6.392-9.64-44.637-11.107-47.361-.576-1.048-1.833-5.554-2.462-8.697-.262-1.362-.105-1.572 2.096-2.096l.824-.23.573-.16c.954-.268 1.886-.535 2.375-.71m301.665 115.73c-.996-1.518-2.096-1.623-5.868-.366-3.458 1.153-3.3 1.886.314 1.467 2.2-.262 3.406-.157 4.715.524 1.939 1.048 2.2.471.839-1.624m-24.1-19.436c-1.1-.89-1.1-.681-.052 1.414.471.944 1.257 3.353 1.728 5.344.786 3.091.839 4.034.21 5.763-.89 2.725-.576 4.034 1.1 4.873 1.572.785 5.501.943 5.501.21 0-.52-1.686-4.57-3.488-8.49l-.279-.601a118 118 0 0 0-1.89-3.903c-1.049-2.148-2.359-4.243-2.83-4.61m-9.587-12.312c-3.196-1.886-3.092-1.205.733 3.406 1.624 2.043 3.3 4.4 3.667 5.291.367.89 1.1 5.344 1.52 9.902.733 6.968.995 8.278 1.833 8.435 1.205.21 1.258-1.52.157-8.75-.471-2.829-.838-6.077-.838-7.125 0-2.462-4.61-9.744-7.072-11.159m-2.515 2.515q-1.65-1.493-.157.157c.523.629.943 1.572.943 2.096s.366 1.781.785 2.829 1.1 4.872 1.467 8.487c.577 5.868.786 6.706 1.991 7.859l1.362 1.257-.314-2.2c-.21-1.205-.576-4.558-.89-7.44-.42-4.034-.944-6.025-2.253-8.644-.996-1.886-2.253-3.877-2.934-4.401m-129.457-38.193c-.681-.68-6.916 3.51-8.645 5.816-1.99 2.619-3.038 6.024-3.038 10.006 0 3.353 1.257 7.911 1.99 7.178.158-.158 1.048-2.463 1.939-5.135.89-2.672 3.143-7.701 4.925-11.106 1.99-3.773 3.143-6.497 2.829-6.759m-120.027 21.009c-1.467 0-1.729.105-1.258.628.472.472.996.472 1.887 0 1.205-.523 1.152-.576-.63-.628m121.022-22.58a.58.58 0 0 0-.576.576c0 .314.262.419.576.262.262-.21.524-.472.524-.577 0-.157-.262-.262-.524-.262"/>
</svg>