<svg xmlns="http://www.w3.org/2000/svg" viewBox="0 0 678 850">
<g fill="none">
<path fill="#1c4f64" fill-rule="evenodd" d="M166.67 556.318c.575.271 1.143.614 1.719 1.032q.192.143.347.327.101-.606.165-1.218z"/>
<path fill="#215f78" fill-rule="evenodd" d="M487.8 221.989c2.946-3.16 5.086-7.368 8.414-9.968 1.668-1.3 3.414-1.56 5.417-2.033 2.074-.488 2.437-.48 3.462-2.82.291-.67.445-1.332.84-1.967 2.018-3.238 6.051-3.624 9.517-3.916 6.118-.512 12.245-.961 18.372-1.442q9.58-.756 19.172-1.5c3.537-.277 7.586.14 9.533-3.24.868-1.508 1.333-3.604 1.778-5.559l-7.002-.074c-2.523-.024-5.46.315-7.944-.355-3.378-.906-4.92-4.03-4.849-7.332.177-8.136 13.684-18.667 6.3-26.298a2.1 2.1 0 0 1-.45-.694c-2.988-2.332-2.483-9.463-2.128-13.694-7.806-.548-10.18-9.692-10.775-16.575-.78-.355-1.282-1.143-.848-2.187 1.262-3.061.323-6.615-3.095-7.757-2.389-.796-5.192-.09-7.62.078-3.226.237-6.691-.133-9.281-2.273-2.44-2.02-2.733-4.625-2.232-7.576.52-3.053-1.34-3.286-3.56-4.322a10 10 0 0 1-3.785-3.006c-1.99-2.577-2.491-5.72-1.723-8.825.738-2.975 1.199-4.586-1.474-6.454-1.199-.843-2.523-1.497-3.69-2.383-5.433-4.102-3.608-9.373.386-13.297a8.5 8.5 0 0 1-1.238-1.844c-.339-.674-.587-1.379-.848-2.088-.055-.146-2.215-6.422-3.548-3.593-.662 1.394-2.775 1.221-3.485 0-2.247-3.877-7.136-6.54-6.111-11.69.434-2.186 1.932-3.892 3.572-5.314 1.884-1.632 6.797-4.271 5.153-7.47q-.547.108-1.065.315a1 1 0 0 0-.027-.107c-5.914 2.47-11.607 4.807-17.265 7.21-5.677 2.423-11.697 4.295-15.647 9.543 1.261 1.509 2.59 3.112 3.942 4.727-1.98 1.23-3.363 2.128-4.368 2.955a7 7 0 0 0-1.893-.855c-.812 1.556-1.884 2.979-2.669 4.563-1.699 3.42-1.317 7.08.3 10.432 2.637 5.46 8.433 8.148 11.18 13.474 2.374 4.594 2.512 9.968 2.327 15.011-.158 4.216-.237 9.207-3.253 12.529-3.753 4.129-10.25 2.261-13.92 6.083-3.234 3.364-2.981 9.2-4.613 13.352-.71 1.796-1.652 3.443-3.009 4.834-1.174 1.206-4.29 2.864-5.227 4.779 4.131-.63 7.786-3.294 12.052-3.656 4.916-.418 10.751 2.372 15.084-.82 1.482-1.091 3.375.717 2.957 2.274-1.132 4.247-.142 8.43 2.846 11.677.592.638.809 1.663.316 2.439-1.585 2.47-3.856 3.96-6.474 4.326 3.249 7.69 7.239 15.562 9.245 23.6 1.447 5.763.434 11.05-4.896 14.242-1.688 1.008-3.998 1.718-4.944 3.565-1.238 2.423.619 3.058 2.48 4.098 1.734.961 3.22 2.269 3.422 4.357.185 1.919-.88 3.471-2.157 4.783-1.037 1.064-4.58 3.211-4.364 4.956.067.497-.02.603.165 1.037.592 5.16 1.601 10.558-.875 15.089a49.8 49.8 0 0 0 21.278-10.677"/>
<path fill="#1c4f64" fill-rule="evenodd" d="M431.076 698.324a110 110 0 0 0-.765-3.64c-1.443-6.375-4.802-13.565-12.348-9.838-2.563 1.26-4.779 2.34-7.657 2.64-2.405.256-5.255-.177-7.558.63-4.75 1.659-.859 10.315-7.754 10.57-5.619.202-7.29-5.306-9.53-9.195-1.68-2.907-4.9-3.31-6.927-5.803-1.884-2.325-2.341-5.406-4.407-7.651-3.663-3.98-9.604-5.181-14.536-3.322 3.694 5.41 4.612 12.194 2.1 18.447-.314.788-.993 1.544-1.943 1.477l-4.691-.339c3.398 2.018 6.312 4.697 7.451 8.577.907 3.125-.69 6.997.528 9.89 1.38 3.27 7.31 2.284 9.746 4.967 5.575 6.123 0 13.798-3.47 19.227a73.4 73.4 0 0 0-8.125 17.563l16.192-4.097c-2.602 4.09-.244 7.36 2.531 11.161 2.764 3.787 5.954 5.382 10.35 5.504l-3.695 1.612c1.597 3.05 3.123 5.862 4.554 8.715 1.498 2.982 2.854 6.043 4.412 8.998.027.051.067.103.102.154 3.919 2.297 8.406 4.176 12.683 2.064 1.577-.776 2.784-2.127 4.479-2.69 2.066-.682 5.382.52 6.414-2.041 2.993-7.42-13.286-9.708-14.339-16.67-.618-4.046 3.13-7.54 4.353-11.165 1.017-3.006.162-7.829 2.878-9.905 7.034-5.37 18.7 4.649 22.973-5.055.308-.697 1.487-3.112 2.318-4.05-1.652-5.283-2.081-11.138-2.98-16.46-.895-5.272-1.628-10.618-2.54-15.917"/>
<path fill="#153d52" fill-rule="evenodd" d="M462.529 781.545a41.2 41.2 0 0 1 1.057-19.34c-5.153-1.364-9.147-4.709-11.485-9.763-.962-2.08-1.49-4.255-3.572-5.556-1.218-.768-2.724-1.048-3.994-1.74-2.57-1.4-4.427-3.689-5.669-6.305.126.446-.087 1.789-.308 2.301-1.502 3.412-4.553 5.965-8.287 6.568-4.072.654-13.266-3.822-15.86.335-.418.662-.213 2.427-.34 3.195a25 25 0 0 1-.958 3.9c-.701 2.073-1.699 3.984-2.815 5.87-3.706 6.265 5.138 8.428 8.86 11.509 2.905 2.403 5.105 5.91 4.198 9.794-.73 3.113-3.103 5.209-6.273 5.386-3.17.173-4.317 1.26-6.938 2.592-1.794.914-3.868 1.293-5.87 1.28-2.575-.023-4.992-.732-7.29-1.764 1.17 3.498 2.034 6.422 3.311 9.148.915 1.962 2.661 3.546 4.073 5.268 1.83 2.23 3.308 5.2 5.677 6.394 1.873.945 5.528.56 7.219-.749 3.083-2.383 5.125-1.658 6.907-.177 1.632-.835 3.446-1.418 5.263-1.856 7.215-1.741 14.024-2.982 20.699-6.48a56.6 56.6 0 0 0 10.18-6.789l2.668-2.79c.667-1.004 1.073-2.143.994-3.502-.134-2.261-1.03-4.503-1.447-6.729M353.628 88.736c1.617.895 1.065 3.113-.48 3.68-3.781 1.38-3.115 7.671-3.47 10.886-.327 2.868-1.005 5.531-2.523 8.017-3.332 5.48-9.25 8.88-12.498 14.369-2.452 4.145-1.329 7.86 1.08 11.78 2.169 3.53 4.274 6.93 5.622 10.874 2.555 7.458 2.72 15.523.73 23.107a59.9 59.9 0 0 0 20.592-4.121c1.36-.528 2.404.788 2.55 1.938.856 6.777 4.968 12.285 9.502 17.146 3.426 3.672 11.78 13.774 16.716 7.344 2.82-3.656 3.103-7.58 7.988-9.302 2.55-.906 5.302-.89 7.944-1.375 3.446-.63 6.734-1.871 9.856-3.42 2.91-1.445 5.681-3.163 8.406-4.924 1.774-1.155 3.489-3.022 5.748-2.388 3.075.863 3.757 4.125 4.183 6.848.363 2.32.363 5.515 2.98 6.54 2.863 1.123 7.452.366 10.515.346a332 332 0 0 0 21.436-.847q.341-.022.67.071a21 21 0 0 0-.548-2.238c-2.488-8.21-6.399-16.18-9.632-24.135-1.28-1.194-.193-3.928 1.956-3.412 1.877.445 3.536.004 4.798-1.24a16.1 16.1 0 0 1-3.292-10.264c-3.58.875-7.424-.15-11.252-.315-5.906-.256-10.613 4.081-16.535 3.821a2.07 2.07 0 0 1-1.944-1.48c-1.111-4.165 1.995-6.466 4.881-8.905 3.868-3.27 4.396-7.387 5.595-12.044.89-3.467 2.278-7.013 5.44-9.03 4.345-2.77 11.339-1.143 13.302-6.946 1.57-4.63 1.404-11.445.446-16.185-1.32-6.516-6.588-9.18-10.326-14.096-2.669-3.519-4.498-7.939-4.17-12.419.137-1.97.76-3.83 1.667-5.574.93-1.79 5.874-7.931 1.98-9.554a2.3 2.3 0 0 1-.375-.201c-.82.236-1.79.59-2.989 1.04-2.507.945-5.066 1.8-7.483 2.947-4.589 2.174-9.115 3.652-14.154 1.237-1.064-.512-2.649-.237-3.93.012-7.25 1.402-13.973-1.096-20.868-2.246l.386-3.617c-3.714-1.662-7.814-2.486-10.282-4.944-2.05-2.041-3.288-1.694-5.42-1.352-3.068.5-6.206.524-8.595.698-1.33-2.865-1.775-5.886-3.194-6.45-2.965-1.178-6.442-1.056-9.71-1.47-.32.422-.631.844-.947 1.27 1.077 1.343 2.035 2.8 3.25 4.01 2.065 2.053 6.122 2.51 5.716 6.516-.706 6.99 5.11 9.547 9.068 13.057 3.331 2.955 4.084 7.068.307 9.763-1.916 1.367-2.172 2.592-1.431 4.704.591 1.674.493 3.597.702 5.41l-1.144.141c-.386-1.3-.406-2.935-1.226-3.837-3.162-3.467-2.547-6.138 1.483-8.242-.406-1.147-.525-2.16-1.053-2.868-2.204-2.947-4.274-6.091-6.959-8.542-.867-.788-3.465.378-5.275.552-.93.086-1.932-.276-2.807-.048-1.932.512-3.997.954-5.645 1.998-1.897 1.194-3.312 3.132-5.114 4.51-1.305.994-3.012 2.404-4.36 2.235-5.812-.749-9.762 3.002-14.919 5.114.56.709 1.128 1.39 1.695 2.072-.09.067-.17.146-.256.213a47.7 47.7 0 0 0 15.613 13.765"/>
<path fill="#1c4f64" fill-rule="evenodd" d="M353.778 358.65c1.774-.537 4.061-1.143 5.402-2.522 1.308-1.36 1.013-2.868 1.514-4.507.642-2.1 2.408-3.404 4.45-3.98 3.545-1.004 8.272 1.135 10.267-2.848.812-1.623.958-3.053 1.987-4.212-3.639-11.023.106-22.469 3.99-32.976.595-1.62 2.054-1.78 3.205-1.75 1.143-.043 1.143-.043 1.94-.102 11.863-.866 24.298-.914 35.707-4.597 5.417-1.746 15.108-5.422 14.146-12.344-.229-1.643-.205-3.112.591-4.602.726-1.383 1.49-1.737 1.853-3.408.383-1.78-.086-2.572-.646-4.243-1.695-5.043.118-10.2 1.21-15.196.966-4.4.994-10.566 5.055-13.348 2.389-1.639 4.857-2.698 7.08-4.668 2.062-1.832 3.896-3.9 5.654-6.02 2.2-2.644 4.041-4.716 3.958-8.317-.086-3.633-.394-5.422-.67-9.046-.055-.73.075-3.132.509-3.448q.308-.666.804-1.315c1.131-1.47 4.005-2.676 4.652-4.385.852-2.262-3.765-3.274-5.054-4.937-1.431-1.844-1.36-4.188-.375-6.225 1.329-2.742 3.903-3.987 6.427-5.417 2.397-1.352 3.528-3.136 3.863-5.193a2.1 2.1 0 0 1-.792.213c-8.157.583-16.322.882-24.5.855-4.742-.02-10.569.642-12.998-4.354-.966-1.977-1.072-4.203-1.443-6.335-.118-.67-.315-3.018-1.241-3.195-.237-.043-3.36 2.443-3.817 2.734-5.55 3.526-11.512 6.788-18.057 7.998-3.607.67-8.121.19-10.605 3.412-1.459 1.891-1.999 4.338-3.493 6.229-3.312 4.203-8.382 3.9-12.687 1.39-5.09-2.962-9.549-8.108-13.18-12.642-3.26-4.07-5.67-8.424-6.793-13.396a62.9 62.9 0 0 1-22.295 3.522c-1.246-.027-2.366-1.272-1.94-2.545 3.52-10.614 2.149-21.807-3.804-31.266-4.124-6.56-6.43-12.659-1.498-19.45 4.037-5.552 11.35-9.59 13.093-16.568 1.226-4.925.138-11.386 3.619-15.066a52.4 52.4 0 0 1-14.698-14.065 1.9 1.9 0 0 1-.296-.634c-.816 1.34-1.549 2.576-2.594 2.947-6.264 2.238-12.726 3.912-19.117 5.791l.106-1.465c-1.715-.442-3.414-.926-5.137-1.308-1.553-.347-3.134-.583-5.208-.962-2.038 1.75-4.455 4.307-7.325 6.147-2.677 1.717-5.78 2.844-8.812 3.9-2.357.827-3.623 2.06-3.311 4.625.867 6.99-2.69 10.933-9.005 12.915-3.268 1.028-4.72 3.526-6.056 6.453-.887 1.939-2.342 4.165-4.14 5.043-6.741 3.274-9.91 7.92-7.766 15.535.24.855-.737 2.049-1.143 3.093l-1.246-.355c-.383-3.207-5.997-5.661-.805-9.597-3.54-.489-6.966 3.041-6.375 6.09 1.187 6.147 2.401 12.3 3.383 18.486.434 2.719 1.538 5.989-2.787 7.033-.41.098-.592 1.091-.907 1.655-.891 1.576-1.577 3.34-2.748 4.688-2.638 3.034-5.673 5.729-8.252 8.81-2.286 2.722-4.88 4.215-8.484 4.601-3.789.406-5.48 3.861-7.562 6.528-1.092 1.391-1.49 3.44-2.76 4.547-4.514 3.936-9.245 7.62-13.933 11.347-4.273 3.404-8.176 2.947-11.457-1.438-.918 1.367-1.71 2.742-2.7 3.963-1.057 1.308-2.232 3.444-3.47 3.522-4.715.304-6.938 3.475-9.328 6.733-.603.816-1.549 1.832-2.428 1.927-5.007.54-6.718 4.87-7.282 8.242-.662 3.94-1.7 6.087-5.867 6.245l.966 5.523-9.73 1.864c.213 1.682.54 3.223.552 4.763.012 1.095-.106 2.384-.674 3.266-3.335 5.165-6.809 10.236-10.345 15.495l8.831 6.028c1.001-3.23 1.853-5.988 2.992-9.7 5.985 5.843 10.945 2.691 15.526-1.28l3.292 2.569c2.295-2.522 4.148-5.311 6.702-7.096 1.77-1.237 5.496-2.285 6.648-1.347 5.231 4.282 14.074 5.516 13.783 14.967-.02.638 1.34 1.529 2.223 1.895.454.193 1.763-.41 1.869-.85 1.317-5.5 5.303-4.898 10.105-3.964-.647-2.203-.607-4.594-1.774-5.654-6.257-5.646-3.391-10.409 1.853-14.234 3.489-2.545 3.812-2.108.69-6.241l14.323-9.653-2.121-2.462 4.77.926c-.154-4.314 4.857-3.2 5.386-5.528 4.305.473 8.275.788 12.213 1.367 2.433.355 3.864-.52 4.562-2.757.848-2.719 2.728-3.98 5.48-4.52 5.662-1.114 11.248-2.588 16.914-3.648 1.427-.268 3.134.221 4.541.78 5.654 2.27 11.237 4.693 16.468 6.903 2.8-4.058 7.057-6.3 6.454-11.047 6.742-1.048 4.432 4.471 5.961 7.39 4.203-2.08 7.807-5.724 13.318-3.762-2.018.887-4.04 1.773-6.328 2.786v6.256l-17.717 2.065c.362 1.745.453 4.097 1.364 6.075 1.285 2.777 3.075 5.346 4.841 7.864 1.952 2.793 3 5.496 1.34 8.892-.472.973.158 2.49.363 4.566-.879.8-2.231 2.876-4.08 3.526-4.282 1.513-4.782 1.86-2.665 5.24a4139 4139 0 0 0 21.06 33.315c.501.788 1.85 1.919 2.3 1.726 2.656-1.143 6.402-.536 7.526-4.432.189-.654 1.297-1.159 2.077-1.51 4.227-1.91 8.58-3.565 12.695-5.684 2.59-1.332 4.81-1.49 6.907-.331-3.56 2.383-7.017 4.716-10.495 7.012-3.303 2.175-6.584 4.39-9.97 6.43-1.912 1.15-4.917.824-5.106 4.212-.027.394-1.648.701-2.996 1.225.229-1.528.343-2.344.461-3.16l-1.38-.177c-.224 2.258-.93 4.59-.571 6.75.67 4.045-.69 6.48-4.223 8.418-2.12 1.163-4.447 2.892-5.448 4.965-2.685 5.527-4.617 11.417-7.03 17.087-1.108 2.608-1.08 4.826.808 6.894 6.245-.563 6.245-.563 6.19 3.1l-4.167 1.459c2.764 6.394 5.42 12.524 8.066 18.659 1.498 3.49 4.266 4.168 7.582 3.258 6.335-1.734 12.624-3.66 18.971-5.362 3.876-1.044 8.97-2.021 11.142-3.23M173.636 678.038c.8-4.365 3.501-9.14-.958-12.37-6.828-4.953-16.137-.15-23.722-1.285-4.814-.717-10.314-4.783-9.115-10.354.465-2.16 2.208-3.688 4.368-4.046 2.5-.406 5.634 1.851 8.106 1.749-.623-4.48-2.618-8.408-5.862-11.662-1.195-1.201-.355-3.51 1.419-3.44 4.652.202 5.137-6.76 6.623-9.888 1.096-2.293 2.8-4.24 5.3-5.02 4.982-1.556 9.611 1.931 14.26 3.861.204-4.656 4.77-8.998 9.76-7.288 1.747.603 4.913 3.77 6.04 1.41.742-1.548.04-4.133.391-5.862.737-3.704 3.49-5.319 7.128-5.398 3.091-.07 6.277.481 9.155-1.024 4.108-2.147 3.666-6.272.047-8.412-3.477-2.048-6.426-3.912-8.8-7.288a22.48 22.48 0 0 1-3.17-19.116 225 225 0 0 1-13.404-2.77c-3.052-.745-6.422-1.97-8.189-4.511a16.32 16.32 0 0 1-15.336 2.58 2.046 2.046 0 0 1-1.206-2.954 14.94 14.94 0 0 1 4.671-5.378c-1.131-.17-1.64-1.529-1.494-2.533.126-.851.185-1.687.185-2.514-.078-.39-.145-.792-.216-1.198-.15-.914-.852-2.029-1.64-2.498-2.61-1.564-5.378-2.876-8.232-4.353l-4.148 3.676 1.147.54c-.406 1.666-.433 3.573-1.305 4.948-2.144 3.392-4.98 6.363-6.954 9.838-2.03 3.57-4.87 4.92-8.603 4.27-5.46-.937-6.588 3.357-8.662 6.615-2.026 3.2 1.558 3.98 2.543 5.883.45.866.986 1.682 1.727 2.939-3.97 0-7.325-.063-10.668.02-2.488.058-4.656.295-5.378-3.172-.229-1.092-2.894-1.675-4.447-2.494-.461 1.276-.84 2.588-1.408 3.814-.906 1.938-1.474 4.818-3.008 5.531-3.56 1.655-7.613 2.262-10.708 3.089-1.71-2.49-3.154-4.432-4.435-6.481-2.153-3.436-4.707-.855-7.132-.619-.682.067-1.609-.055-2.074-.472-5.906-5.37-12.395-4.764-16.81 1.69l4.186 6.737c-8.977 2.127-2.996 7.919-3.753 12.769l-15.754 2.73c.962 2.986-.635 7.32-3.38 7.348-3.295.031-6.599-.757-10.14-1.221-.658 1.73-1.143 3.404-1.931 4.916-.434.824-1.274 1.64-2.13 2.002-3.5 1.485-7.104 2.722-10.609 4.192-1.959.82-4.045 3.033-5.653 2.69-4.664-1.004-6.348 2.33-8.843 4.504 1.707 1.15 3.28 2.206 5.228 3.526l-5.224 3.152 1.1.484-1.861 10.268c4.648-1.23 9.521-2.947 14.54-3.716 4.554-.69 9.02-1.26 13.897.686 4.94 1.97 10.756 1.71 16.176 2.521.675.103 1.357.721 1.87 1.257 5.412 5.666 3.784 14.195 8.227 20.286.24.331-.023 1.044-.075 1.576-.343 3.467-.642 6.938-1.048 10.401-.509 4.275-2.153 5.126-6.383 4.271-4.061-.823-8.079-1.265-11.142 2.983-1.466 2.032-4.112 3.218-6.864 5.267-.023-.311 0 .465.083 1.233.489 4.37-1.195 5.957-5.358 4.988-2.365-.552-4.723-1.15-7.727-1.883l4.802 7.438c3.45-2.474 5.267-1.083 8.11 1.943 2.937 3.128 4.068 6.09 4.411 9.975.13 1.485 1.013 2.908 1.313 3.704l7.444-5.914c-1.404-3.467-5.701-5.658-3.872-9.408 2.247.725 4.08 1.587 5.997 1.851 2.172.304 4.42.075 6.82.075l3.213-6.205c.793 1.39 1.282 2.14 1.672 2.943 3.667 7.525 4.207 7.805 12.51 6.351.264-.047.619.024.784-.118 2.354-2.1 4.74-1.084 6.947.102 5.866 3.16 11.686 2.97 17.67.355 1.526-.666 3.458-1.158 5.02-.831 5.885 1.22 9.154-1.498 8.318-7.25-.71-4.893-1.368-9.79-2.16-15.448-.3-.075-1.676-.56-3.088-.725-1.486-.177-3.008-.04-5.428-.04 2.483-3.182 5.007-3.695 7.309-2.785 3.178 1.261 5.658.595 8.18-1.26.683-.5 1.538-.78 2.307-1.159l.753.733c-.788.973-1.396 2.246-2.405 2.872-6.142 3.802-6.592 11.036-.86 15.208.395.288.679.733.624.67l-2.894 5.043c4.624-.67 8.141-1.186 11.65-1.698l.15 1.272-4.534 1.608 2.39 5.705-.998.65c-.446-.67-.813-1.419-1.353-2.002-3.54-3.821-5.322-3.408-8.933-.102-2.114 1.938-5.717 3.518-8.41 3.215-2.846-.327-4.305-.375-4.837 2.51-4.881-1.655-4.881-1.655-6.947 3.072l12.092 1.825-.17 1.296c-2.976.583-5.953 1.174-8.93 1.741-.788.154-1.727.54-2.365.268-1.049-.445-2.46-1.166-2.748-2.072-.891-2.853-2.634-4.047-5.52-4.35-2.65-.276-5.243-1.103-7.897-1.505-1.411-.213-2.878-.035-4.1-.035l.745 6.217c-8.42.421-9.738-.375-8.102-4.413-2.917-.35-5.835-.693-7.908-.938l-3.982 4.949c3.075 1.343 5.945 2.482 8.709 3.841 2.381 1.17 5.464 2.057 6.757 4.03 1.9 2.908 2.484 6.675 3.718 10.35-4.278.26-3.942 4.09-2.492 4.996 3.813 2.384 8.296 3.802 12.644 5.205 2.29.736 4.991.236 7.258 1.008 4.369 1.49 8.563 3.49 13.381 5.508-.126-5.709 3.375-6.213 7.582-5.811-.28-2.23-.714-3.944-.635-5.634.055-1.166.513-2.994 1.313-3.341 5.377-2.34 10.83-4.586 16.413-6.347 1.616-.508 4.096.181 5.602 1.182 4.684 3.12 7.317 3.762 10.724-.485 2.94-3.664 6.134-3.128 9.659-3.191 1.175-.024 2.346 0 3.517 0l-1.026-.906c.809-1.67 1.55-3.377 2.445-5 .45-.803 1.459-1.359 1.73-2.186 1.23-3.759 2.283-7.577 3.533-11.824.185.245.008-.15-.292-.37-1.935-1.418-3.406-2.868-2.31-5.662 1.049-2.67 1.214-5.488 5.255-5.976 4.187-.505 8.24-2.128 11.647-3.073l.496-2.6c-1.352-3.956-2.393-16.926-1.636-21.067"/>
<path fill="#215f78" fill-rule="evenodd" d="M418.538 579.953c-2.621-3.365-7.475-4.374-7.908-9.294-.249-2.778 1.23-5.099 3.406-6.395-1.577-.425-3.682-.453-4.629-.729-1.97-.575-3.524-1.627-4.545-3.44-1.644-2.934-2.228-6.326-4.014-9.258a29.6 29.6 0 0 0-5.764-6.8c-2.164 6.63-10.369 8.628-15.762 4.086-3.509-2.947-5.559-7.722-10.38-8.814a10.865 10.865 0 0 0-11.734 5.079c-.71 1.237-2.807 1.387-3.477 0-1.806-3.743-6.438-1.875-8.681.276-2.173 2.088-3.628 4.806-5.693 6.989-3.052 3.227-7.78 5.752-12.183 3.79-3.489-1.564-4.853-3.739-9.083-2.293-2.981 1.013-5.496 3.018-8.367 4.263-3.09 1.34-6.292 1.923-9.205.918-1.877 10.023-11.662 17.414-21.885 16.41l-.726 4.093c-.161.918-1.123 1.39-1.943 1.473a27.9 27.9 0 0 1-14.036-2.112c-3.966-1.682-5.638-.69-8.792 1.537l-6.958 4.905c-.9.634-2.232.15-2.76-.725-3.493-5.83-11.46-5.945-17.493-6.642a452 452 0 0 1-21.96-3.074 916 916 0 0 1-5.425-.906c-2.543 7.86.875 17.083 8.122 21.228 2.957 1.69 6.268 3.124 6.939 6.867.552 3.061-.872 6.221-3.166 8.21-2.918 2.538-6.955 3.034-10.68 2.948-.895-.02-2.094-.315-2.973-.071-2.977.82-2.661 2.316-2.732 4.44-.055 1.513.031 3.105-.43 4.578-.923 2.915-3.221 4.121-6.166 3.262-1.948-.571-3.414-2.387-5.457-2.6-2.771-.296-5.003 2.829-3.453 5.37.977 1.611-.639 3.25-2.279 2.955-5.98-1.064-15.242-9.704-18.597-.895-1.411 3.704-2.626 8.432-6.071 10.28 2.933 3.86 4.565 8.36 4.908 13.347.043.647-.402 1.466-.997 1.734-2.263 1.052-4.097.812-6.427.063-1.45-.46-4.73-2.151-5.338.335-.343 1.418 1.616 3.495 2.665 4.137 5.985 3.66 15.021-.804 21.625.236 4.49.71 9.371 3.073 10.873 7.683.998 3.069.071 6.02-.737 9.014-1.06 3.936-.327 17.65.895 23.56 5.401 2.183 9.994 1.647 14.497-.414.303-.137.78.099 1.183.17 3.966.65 7.924 1.426 11.906 1.926 6.892.855 14.063 3.57 20.284-3.147l-10.51-9.527 2.539-6.544-3.939-2.68c5.504-1.358 8.327 1.021 8.003 6.056-.083 1.3.363 3.586 1.092 3.822 2.555.843 5.954 2.143 7.893 1.119 2.736-1.45 5.662-4.523 6.356-7.419 1.407-5.882 1.281-6.41 8.397-6.17l-4.683 2.928c-.15 2.596-.024 4.948-.474 7.182-.776 3.869-1.912 7.663-2.893 11.493 5.657 2.521 13.053.405 15.474 8.368-1.987-.315-3.812-.457-5.559-.918-3.556-.942-7.065-2.057-10.601-3.097l-.509 1.206c4.274 6.587 8.319 13.348 12.904 19.707 3.844 5.318 10.976 7.075 15.837 4.554l-1.545-2.62c5.823-1.064 11.236-2.817 16.625-2.75 3.395.04 7.207 2.258 9.99 4.53 2.39 1.951 3.576 5.367 4.992 7.644 2.413-.997 3.883-1.852 5.46-2.206 3.399-.76 6.911-1.068 10.27-1.943l1.794-4.9c2.46-6.726 3.785-14.156 6.628-20.74 1.02-2.364 2.353-4.212 4.337-5.862 2.306-1.915 4.837-3.01 4.908-6.36.11-4.865 2.72-6.531 7.499-6.39 7.03.21 14.102.981 21.132 1.517 1.569-5.295.5-10.842-3.288-15.097-.868-.973-.753-2.462.406-3.16 4.967-2.994 11.023-3.18 16.282-.76 2.413 1.11 4.55 2.758 6.19 4.846.73.93 1.27 1.903 1.766 2.927 3.825-3.676 2.878-9.865 4.377-14.6 1.411-4.46 4.526-6.955 8.531-9.055 2.267-1.193 4.897-2.222 6.564-4.25 2.354-2.861 2.011-6.856 2.066-10.307.115-6.54 1.463-12.836 3.616-18.994 2.207-6.327 5.022-12.438 7.68-18.584l4.344-10.047c1.432-3.313 4.306-8.064 1.652-11.472"/>
<path fill="#153d52" fill-rule="evenodd" d="M367.124 717.176c-2.555-.732-5.023-.681-6.793-2.978-1.55-2.01-1.565-4.562-1.483-6.974.138-3.837-.086-6.705-3.055-9.451-2.57-2.364-6-3.783-9.218-5.035a2.03 2.03 0 0 1-1.186-1.131q-2.208-.165-4.416-.32c-1.415-.102-2.847-.287-4.266-.295-2.488-.008-2.48.615-2.941 3.058-.323 1.725-.35 2.935-1.423 4.432-1.136 1.584-2.784 2.592-4.27 3.794-2.511 2.017-3.706 4.176-4.747 7.198-2.042 5.91-3.733 11.965-5.59 17.934a2 2 0 0 1-.477.816q.373.072.753.11c-.65 2.14-3.959 4.129-3.166 6.548-2.977.93-5.953 1.245-8.216 2.679-4.716 2.994-8.946 6.737-13.614 9.806-1.443.946-3.69 1.088-5.52.946-4.691-.363-9.351-1.096-14.8-1.773l2.334-5.867-2.491-2.135c-.966 9.952-8.627 12.012-16.078 14.932.836 2.734 1.62 5.531 2.563 8.285 1.478 4.334 3.725 8.786-4.073 11.276 2.31 1.044 3.351 1.678 4.475 1.994 2.168.606 4.561.665 6.556 1.6 5.165 2.422 10.16 5.2 15.482 7.97l.722-4.44c2.996.689 5.67 1.516 8.41 1.87 2.089.273 4.257-.05 6.386-.11-.914-1.678-1.833-3.348-2.728-5.035-.122-.224-.126-.508-.323-1.39 1.391-1.234 2.819-3.424 4.715-3.964 2.665-.752 5.902-.985 8.492-.177 4.006 1.253 7.672 3.581 11.56 5.488 1.261-3.625 6.308-6.06 8.634-4.913 4.613 2.285 9.146.414 13.787.06a5.96 5.96 0 0 0-2.188-1.734c-3.572-1.695-4.483-9.192-1.013-11.17 4.924-2.809 9.41-6.87 15.643-6.733 1.625.04 2.835-.315 3.762-1.048a77.3 77.3 0 0 1 5.425-13.06c2.523-4.775 14.327-18.206 4.376-21.063"/>
<path fill="#1c4f64" fill-rule="evenodd" d="M533.877 818.114c-2.847-1.513-5.855-2.687-9.103-1.899-2.173.528-4.152 1.813-6.466 1.675-3.706-.225-5.287-3.278-5.985-6.5-.532-2.46-.473-5.056-2.432-6.935-1.806-1.73-4.503-2.34-6.872-2.829-2.748-.571-5.551-.918-8.319-1.351-1.356-.213-2.827-.65-4.207-.615-2.27.063-2.815 1.182-4.344 2.396-3.016 2.375-7.803 1.083-11.118.161-4.061-1.13-7.767-3.006-11.17-5.405-1.434 1.343-3.11 2.572-4.829 3.794a61 61 0 0 1-19.87 9.286c-2.65.697-6.644 1-10.093 2.01.126.29.268.578.433.846l-3.051.906q-.081.789-.158 1.576c4.968 3.448 10.432 6.344 13.212 12.107 1.072 2.219 2.917 4.09 3.828 6.355 3.043 7.557 3.844 8.038 9.817 8.168 7.349.157 15.068-.938 21.4 4.432.433.366 1.277.33 1.932.327 4.045-.04 7.593-.418 11.93 1.733 4.482 2.226 10.991.777 16.558.292 3.79-.331 6.632-6.201 11.355-2.06.063.063.248-.016.477-.036l2.882-2.439 2.22 3.87c1.214-.78 1.821-1.08 2.333-1.502 5.185-4.302 10.152-8.79 17.876-5.208 1.045.48 4.818-1.962 5.204-3.566.998-4.066 1.065-8.36 1.388-12.662-.34-.071-.682-.13-1.017-.213-5.098-1.26-9.246-4.287-13.811-6.714M533.12 228.982c-1.853.965-2.354 2.608-3.544 4.16-2.283 2.987-6.703 3.113-10.109 3.854q-3.89.852-7.775 1.694c-1.36.3-3.158.969-4.569.555-2.661-.776-1.94-3.073-1.9-5.086.04-2.277-1.183-1.923-3.3-2.218a36.6 36.6 0 0 1-6.048-1.285 33.9 33.9 0 0 1-7.656-3.537 43 43 0 0 1-1.96 1.682c-7.577 6.047-16.495 9.79-26.044 11.22-2.579 3.136-5.402 6.111-8.686 8.471-1.3.938-2.874 1.537-4.14 2.482-1.79 1.332-2.254 2.986-2.716 5.086l-2.326 10.622c-.843 3.869-.828 6.706.34 10.488.618 2.01.993 3.924.082 5.91-.528 1.154-1.9 2.025-2.314 3.16-.394 1.079.004 2.036.094 3.14.213 2.513-.315 4.49-1.853 6.512-3.296 4.326-9.174 6.97-14.169 8.734-12.025 4.252-25.414 4.236-37.994 5.15-.655.051-1.27-.166-1.81.394-3.71 10.074-7.025 20.03-3.008 30.565.308.804-.209 1.883-.926 2.273-1.475.804-1.451 3.36-2.185 4.692-.587 1.072-1.344 1.915-2.389 2.542-2.736 1.643-5.807.7-8.772 1.071-2.96.37-2.476 2.309-3.34 4.496a8.6 8.6 0 0 1-2.077 3.16c-.855.823-.796.933-1.873 1.457.537.177-.098 1.127.048 1.875.713 3.657 7.179 1.813 9.635 2.01 2.587.205 4.917 1.331 6.13 3.703 1.464 2.868 1.605 6.863 1.779 10.027.229 4.007-.966 8.691.126 12.58.93 3.29 3.608 4.003 6.23 2.309.709-.457 1.241-.769 2.05-.895 2.144-.346 3.65 1.761 5.385.48 2.641-1.95 3.78-6.815 7.995-6.31 4.061.48 4.377 5.799 2.934 8.675-1.301 2.592-3.982 3.873-5.713 6.106-2.606 3.38-.923 7.336.63 10.807.71 1.576 2.52 7.95 4.125 8.707.74.355 2.673-.366 3.607-.236.887.118 1.652.343 2.385.883 4.33 3.19-.11 9.605 3.537 13.253 3.69 3.696 10.625 4.66 11.709 10.641.654 3.633-1.668 7.565-5.382 7.821-2.637 1.95-5.665 2.545-8.847 3.625-3.339 1.13-6.142 3.014-4.715 6.886.544 1.466 1.262 2.656 1.262 4.295 0 1.757-.923 3.38-.986 5.09-.083 2.545 1.857 3.656 2.74 5.701 1.151 2.687-.236 4.826-2.14 6.666-3.825 3.7-3.86 7.391-3.454 12.49.394 4.956.607 9.904.465 14.872a129 129 0 0 1-4.1 28.477c4.81 4.31 7.766 9.408 10.195 15.618 1.577 4.026 4.546 3.037 8.031 4.065 2.066.603 3.627 1.785 4.033 3.984.237 1.288-.548 2.521-1.943 2.549-3.699.063-3.793 3.55-1.79 5.618.772.8 1.793 1.398 2.677 2.076 1.549 1.19 3.075 2.423 3.982 4.196 2.192 4.27-.071 8.975-1.786 12.954-5.43 12.592-12.47 25.432-14.97 39.016-1.049 5.681.252 12.068-1.814 17.513-1.695 4.46-5.563 6.433-9.556 8.525-5.26 2.766-6.84 5.97-7.68 11.71-.631 4.33-1.223 8.58-4.7 11.606a2.1 2.1 0 0 1-.591.363c.694.811 1.55 1.457 2.752 2.19 2.546 1.552 3.93 3.254 5.208 5.95.63 1.339 1.12 2.789 2.077 3.927 1.23 1.458 1.364 1.596 3.036.54 1.695-1.076 1.297-.879 1.498-2.577.568-4.905 4.085-6.646 8.658-7.024 3.04-.252 6.052 0 8.906-1.285 2.484-1.119 4.708-2.761 7.519-2.97 4.888-.367 8.437 3.175 10.487 7.26.907 1.821 1.585 3.736 2.12 5.702 5.134-6.399 15.061-8.88 20.841-14.932 2.586-2.71 3.21-5.343 3.509-8.963.146-1.694.355-4.275 1.884-5.398 3.34-2.45 6.9 1.683 9.857 2.431 2.637.67 3.035-2.844 5.192-3.983 1.711-.906 3.805-.796 5.543-.032 2.326 1.02 3.659 3.176 5.007 5.201 1.873 2.829 3.907 5.366 6.663 7.395 2.247 1.667 5.512 3.865 8.307 3.321q.228-.083.47-.11a4.4 4.4 0 0 0 1.734-1.048c1.6-1.548 2.409-3.822 3.99-5.437 3.548-3.64 8.937-4.539 13.822-4.129 6.825.575 13.689 4.042 20.572 2.285 6.056-1.536 10.562-6.504 11.994-12.489a2.04 2.04 0 0 1 1.935-1.477l6.817-.02a2.04 2.04 0 0 1 1.076-.406c5.63-.489 6.856-5.161 6.624-9.865-.126-2.459.433-5.3 2.78-6.627 1.206-.682 2.416-.126 3.551-.489 1.613-.52.907-3.199.481-4.77-1.182-4.394-4.238-6.084-7.494-8.731-4.79-3.893-4.48-13.069-3.825-18.628.588-4.98 2.74-8.53 5.918-11.473a7 7 0 0 0-.434-.35 6.5 6.5 0 0 0-.827-1.214c-2.295-2.71-3.02-5.791-2.137-9.337 1.588-6.398-.446-11.5-5.784-15.416-1.234-.903-3.028-2.522-2.878-3.574.765-5.405-2.535-11.95 4.668-15.866-1.53-1.375-2.756-2.41-3.895-3.522a61 61 0 0 1-3.328-3.506c-1.904-2.175-1.392-3.873 1.404-4.492 1.833-.405 3.714-.555 5.559-.894 4.928-.89 7.695-4.925 6.071-9.117l-5.977 2.648q-2.009-1.823-4.021-3.644c3.84-3.81 6.623-7.722 5.685-13.238-.158-.922.867-2.199 1.616-3.089 2.87-3.451 5.84-6.816 3.123-12.032l7.262-1.757c.528-2.246.394-4.65 1.333-5.181 4.691-2.66 9.166-6.048 15.261-5.09 2.09.33 4.428-.914 6.651-1.442l-.193-1.399-12.395-3.889c0-3.427-.071-6.37.016-9.31.24-8.312.264-8.312 8.385-10.842.387-.118 1.014-.126 1.116-.366.907-2.065 2.523-4.24 2.35-6.245-.193-2.214-1.798-4.168-5.137-3.435-5.362 1.178-10.842 1.84-16.299 2.537-1.183.158-2.842-.055-3.654-.796-8.17-7.442-18.838-11.961-25.237-21.492-.473-.7-1.517-1.055-2.341-1.473-3.47-1.757-6.995-3.416-10.425-5.248-1.111-.599-2.341-1.43-2.92-2.482-2.974-5.382-4.815-10.732 1.024-15.684 1.593-1.36 2.598-3.393 3.939-5.067.489-.61 1.084-1.21 1.762-1.568 3.107-1.663 6.253-3.25 9.407-4.83.938-.47 1.904-1.009 2.91-1.174 6.883-1.103 13.759-2.38 20.694-3.073 4.218-.418 6.62-1.38 6.225-6.351-.304-3.802 1.313-4.665 5.035-3.783 1.514.363 3.028.71 4.711 1.108 0-6.698.126-12.986-.055-19.262-.083-2.801-2.523-3.893-5.185-2.411-5.61 3.128-11.141 6.402-15.864 9.128.114 2.088.713 4.46.189 4.74-3.351 1.808-6.915 3.242-10.503 4.542-.489.178-1.49-1.075-2.35-1.737 4.79-3.633 5.812-7.17 3.399-11.177-.962-1.604-2.216-3.034-3.202-4.63-2.653-4.278-1.443-7.454 3.21-8.785 1.403-.398 2.72-1.38 4.112-1.466 3.706-.236 3.489-2.719 3.784-5.354.198-1.753.947-3.775 2.137-5.016 2.114-2.198 4.242-3.916 1.841-7.253-.67-.938-.465-2.502-.71-4.038l7.39-1.777c0-4.673-.088-9.597.054-14.514.04-1.371.473-2.896 1.199-4.058 2.01-3.215 4.277-6.276 7.08-10.31 1.948.314 5.737 1.583 7.846-2.546l5.551 3.893c-.425-6.533-.536-6.611-8.693-7.518 1.273-2.773-.288-3.703-2.598-4.857-1.81-.906-3.611-2.825-4.325-4.704-1.147-3.05-2.83-4.263-5.969-3.913-1.183.13-2.413-.193-3.615-.118-2.59.166-3.84-1.072-4.471-3.51-.65-2.522-1.652-4.949-2.492-7.384-3.051.915-4.348 5.02-8.058 3.003-2.69-1.466-5.469-2.77-8.3-4.192l.38-3.61c-1.136-.385-2.106-.72-3.281-1.114 1.025-4.326 3.355-8.715 2.673-12.568-1.01-5.713 2.925-7.27 5.67-10.118.157-.161.141-.488.145-.496-.343-3.369-5.57-5.39-1.671-9.373-.048-.016-.095-.02-.138-.035a12.4 12.4 0 0 0 3.784-3.633c-6.012 3.668-12.375 4.752-19.52 5.012-1.911.067-4.1.11-5.834 1.016"/>
<path fill="#153d52" fill-rule="evenodd" d="M480.318 689.074c.173 1.627-.186 2.876-1.506 3.908-1.636 1.284-3.233 1.446-2.713 4.058.229 1.174.974 2.34 1.53 3.376 1.518 2.833 3.225 5.74 5.634 7.92 2.452 2.214 5.7 2.387 8.224 4.333 4.597 3.546 4.869 10.815 6.572 15.917 1.025 3.065 2.55 6.335 5.326 8.218q.85.597 1.826.938c2.066.666 2.168.158 2.42-.788q.468-.668.249-1.733c.244-1.088.24-2.325.414-3.432 1.116-7.21 4.069-14.554 2.539-21.929-1.333-6.398-7.388-9.515-10.058-15.223a22.28 22.28 0 0 1-1.805-12.907c-4.723-.63-9.525-4.314-12.656-7.604-2.081-2.187-3.359-4.885-5.306-7.143-3.84-4.456-4.175.441-6.718 2.305l3.07 9.987c.963 3.125 2.619 6.564 2.958 9.799"/>
<path fill="#215f78" fill-rule="evenodd" d="M518.682 773.898a6.64 6.64 0 0 1-3.48-2.262c-2.422-3.073-1.826-7.288-4.267-10.452-4.585-5.95-5.795-12.119-5.992-19.199-9.115-1.213-11-14.932-13.37-21.602-1.068-3.002-2.227-4.397-5.188-5.653-.922-.39-1.853-.69-2.74-1.174-2.05-1.127-3.777-2.754-5.251-4.555-2.681-3.27-5.796-7.84-6.442-12.142-.245-1.627-.119-3.337.867-4.72.509-.71 1.151-1.06 1.83-1.545 1.328-.957 1.367-.413 1.332-2.111-.071-3.152-2.243-7.293-3.186-10.362l-2.511-8.163c-1.853-.481-3.659-1.758-5.31-2.553-2.11-1.017-2.508-.572-2.697 1.76-.107 1.34-.119 2.664-.426 3.976a14.7 14.7 0 0 1-2.807 5.61c-5.835 7.474-20.95 10.067-23.856 19.64.453 2.738.8 5.492 1.253 8.164 1.364 8.049 2.492 16.184 4.12 24.19.718 3.51 1.672 7.348 4.451 9.818 2.133 1.899 5.189 2.14 7.274 4.145 2.299 2.206 2.815 5.374 4.436 7.998 2.066 3.333 5.59 5.488 9.462 5.988 1.186.158 2.42 1.178 1.94 2.55-1.514 4.34-2.374 8.793-2.287 13.41.07 4.098 1.25 7.801 1.932 11.788.5 2.947-.091 5.291-1.333 7.305 4.018 2.785 8.622 4.723 13.484 5.413 3.784.536 4.033-1.761 6.785-3.022 1.474-.674 3.035-.595 4.6-.425 2.074.216 4.219.472 6.364.788.102-8.313 6.556-15.523 15.573-14.905 1.486.103 3.134.895 4.597.698 1.202.524 1.951.114 2.247-1.222a31 31 0 0 1 .173-1.458c.667-1.292 1.42-2.009 2.764-2.549a18 18 0 0 1 1.175-.425c.156-.287.377-.533.647-.717.954-.662-5.413-1.805-6.166-2.021"/>
<path fill="#215f78" fill-rule="evenodd" d="M556.815 747.493c-.292-3.34 3.402-4.625 5.448-6.406 2.208-1.923 2.985-4.716 3.044-7.553.023-1.442-.071-7.761-1.356-8.762-1.175-.91-3.367.666-4.582.883-1.143.209-2.117.102-3.102-.35a4.25 4.25 0 0 1-1.838 1.642c-2.964 1.312-5.68-1.34-6.505-4.046-.607-1.97.363-4.677-1.076-6.225-1.415-1.529-3.919-.938-5.811-1.694-3.091-1.237-4.211-4.066-4.455-7.198-.166-2.238.555-5.051-.694-7.072-2.457-3.987-3.47 3.995-3.54 5.527-.091 2.104-2.599 2.6-3.754 1.017a393 393 0 0 0-22.764-28.335c-.761.926-1.605 1.73-2.657 2.253-1.585 7.364 1.387 13.183 6.568 18.517 4.068 4.196 5.65 9.515 5.504 15.287-.146 5.843-2.023 11.425-2.945 17.162-.545 3.392.078 8.096-3.367 9.506.011 4.508.295 9.18 2.397 13.191 1.123 2.131 2.925 3.731 4.151 5.776 1.076 1.785 1.34 3.715 1.845 5.7.907 3.586 3.135 3.61 6.371 4.248 1.656.327 2.98.993 4.014 2.364.63.843.993 1.733 1.084 2.6 4.152-.697 8.654-.823 12.423-1.024 4.132-.213 9.194-.65 13.01 1.434 1.55-.327 2.937-.906 4.14-2.069 1.841-1.773.335-4.018-1.502-4.834-2.003-.886-4.025-.567-5.606-2.387-2.102-2.423-1.64-6.477 1.71-7.328 2.551-.635 4.988 1.532 7.405 1.04 2.405-.485 2.491-3.92 4.116-5.607-2.543-1.698-7.393-4.05-7.676-7.257"/>
<path fill="#153d52" fill-rule="evenodd" d="M585.272 725.548c4.494.158 8.232-4.136 5.748-8.443-1.952-3.384-5.5-2.927-8.827-3.088-4.597-.221-7.688-1.663-8.39-6.509-.584-4.046-.789-8.144-1.408-12.194-.524-3.451-.634-8.262-2.156-11.421-1.656-3.46-7.148-3.499-10.464-3.991a81 81 0 0 0-8.101-.749c5.756 6.04 9.47 12.58 8.989 21.756-.276 5.177-1.408 10.298-2.334 15.385-.249 1.375-.36 3.321-.71 5.2.04.016.09.032.134.06 1.163.67 3.864-1.064 5.102-1.194 1.277-.13 2.562.078 3.56.965 2.495 2.242 2.716 7.722 2.878 10.795.205 3.845-.623 7.88-3.194 10.854-1.17 1.356-3.051 1.946-4.167 3.223-1.254.552-1.372 1.036-.343 1.458q.914.683 1.853 1.355c1.175.863 2.358 1.718 3.536 2.58.623.454.868 1.08.868 1.695 1.632-.118 3.252.488 4.73 1.39.277-1.083.77-2.088 1.625-2.82 2.409-2.065 4.668.015 7.333-.268 3.647-.394 6.399-3.389 9.687-3.857l-7.885-19.636c-.489-1.21.741-2.589 1.94-2.546m31.871 37.37c1.214-2.995 4.05-4.634 6.797-6.028 1.877-.954 4.293-1.852 5.33-3.83.868-1.666-.181-3.605-2.014-4.046-.836-.201-1.948.118-2.807.197-8.055.768-17.49 2.155-22.686 9.073-.5.67-1.387 1.28-2.278.93-3.482-1.39-5.205-4.176-6.577-7.296-2.815-1.163-6.804 2.533-9.45 3.32-1.34.395-2.693.537-4.065.277-.607-.119-2.077-.985-2.708-.426-.63.552-.394 2.671-.331 3.467.138 1.836-2.248 2.514-3.438 1.419-1.755-1.616-2.902-3.152-5.054-1.663-1.609 1.107-1.116 2.04-2.098 3.49-.867 1.277-2.342 2.08-3.824 2.412-2.176.492-3.813-.47-5.878-.623q-2.034-.986-.75.41.354 1.1 1.546.97c1.029.354 2.14.33 3.185.708 7.988 2.94 2.946 10.44-2.594 13.27.355.57.659 1.19.919 1.851 1.242 3.152 1.806 5.35 4.285 7.762 1.601 1.56 3.064 3.041 3.927 5.145 1.006 2.45.848 5.272 1.762 7.738 1.156-.973 2.11-1.871 3.158-2.632 3.54-2.588 6.801-5.98 10.768-7.462 5.101-1.91 9.343-3.719 9.872-9.85.078-.87.536-1.78 1.036-2.52 1.305-1.916 2.737-3.744 4.105-5.591 4.033 3.49 4.06 4.093-1.065 7.789 1.301 1.075 2.224 2.474 3.324 2.627 5.224.73 10.645 2.089 15.715 1.34 4.38-.654 8.433-3.514 12.604-5.555a67 67 0 0 1-1.47-.835c-5.26-3.085-12.006-8.987-9.246-15.838M562.445 217.706c.327-1.56 1.186-3.006 1.541-4.566.718-3.14 2.456-4.53 5.705-3.837 7.428 1.576 12.439-1.25 15.758-8.045.946-1.935 3.276-3.314 5.204-4.614 1.648-1.115 3.624-1.75 5.417-2.58 2.22 2.12 4.798 4.266 6.994 6.748 2.382 2.7 4.716 2.561 7.767 1.226 2.35-1.037 5.729-2.526 7.507-1.608 7.51 3.893 16.618 6.233 19.038 16.264.414 1.749 1.676 3.293 2.76 5.338 1.506-1.765 2.783-3.274 4.077-4.767 3.485-4.034 6.126-9.731 13.026-6.245.394-.82.67-1.162.725-1.536.6-4.176.938-8.222 3.655-11.993 2.594-3.593 1.608-9.92-1.065-10.91-4.888-1.812-9.962-3.175-15.001-4.565-.737-.197-1.754.37-2.563.748-2.704 1.277-10.77-1.78-11.46-4.63-.923-3.781-1.854-7.327-5.575-7.58l-2.374-8.844 1.861-1.403c-1.179-4.546-.004-10.196-7.191-10.413 3.525-5.484-1.932-6.772-3.37-9.463l6.544-9.338-1.349-1.268c-1.632 1.02-3.205 2.159-4.92 3.002-.946.46-2.83.93-3.13.528-3.52-4.665-9.324-5.398-13.945-8.085a6 6 0 0 0-.733-.354 8 8 0 0 0-.095-.753c-4.826 1.655-14.035-.993-14.39 6.091-.181 3.672-.248 6.65-3.493 8.951-3.54 2.514-8.406 3.05-12.254 5.028a40.6 40.6 0 0 0-11.216 8.596c.21.728-.01 1.513-.568 2.025 2.933 5.095.919 11.402-1.983 16.398-1.746 3.01-7.503 10.456-3.627 13.513 1.873 1.47 6.805.674 9.178.698q3.993.045 7.98.079c1.281.015 2.318 1.28 1.944 2.553-1.144 3.83-1.75 10.68-5.662 12.86-2.015 1.122-4.755.984-6.978 1.157l-10.38.816-20.77 1.627c-3.458.276-6.931.48-10.385.816-1.183.118-3.095.197-4.151.922-1.64 1.134-1.475 2.537-2.236 4.018-.788 1.549-1.999 2.478-3.619 3.081-.958.355-1.975.43-2.957.666-2.464.591-3.52 1.694-5.094 3.692-1.766 2.245-3.516 4.404-5.413 6.441 2.397 1.375 4.94 2.447 7.665 3.124 2.76.694 6.887.205 9.202 2.191.615.528 1.115 1.17 1.344 1.974.276.973-.47 2.521-.174 3.29.272.7.276.15 1.404.039 1.293-.118 2.61-.567 3.887-.847l6.218-1.355c3.07-.67 4.585-.89 6.584-3.523.757-.996 1.332-1.942 2.346-2.726 2.034-1.572 4.632-2.068 7.135-2.297 3.738-.343 7.405-.063 11.095-.937 3.848-.918 6.639-4.145 10.503-4.925M562.563 794.523c-1.12-2.077-3.324-3.428-4.802-5.217-2.965-3.585-2.255-9.278-7.526-10.546-5.181-1.241-11.454-.217-16.666.449-2.01.252-7.404.232-9 1.67-.702.638-.572 2.352-1.293 3.384-2.638 3.747-7.066 1.458-10.657 1.34-6.58-.22-11.374 5.319-10.976 11.575a58 58 0 0 1 4.597 1.076c3.351.945 6.627 2.624 8.334 5.791.895 1.663 1.112 3.46 1.46 5.291.67 3.523 1.738 5.071 5.881 3.617 3.896-1.37 7.432-1.237 11.252.37 4.928 2.069 9.088 5.662 14.233 7.25a26 26 0 0 0 2.689.67c.22-.422.386-.867.48-1.34a82 82 0 0 0 2.902-1.379c3.17-1.588 2.878-4.806 3.083-7.726.272-3.73 3.241-6.619 6.994-6.938.422-.035.852-.126 1.372-.244-.07-.166-.157-.315-.224-.485-1.077-2.746-.726-5.996-2.137-8.608M354.05 362.613c-4.782.386-5.574.33-10.574 4.794-2.503 2.234-4.963 4.515-7.478 6.73-4.318 3.79-10.22 3.242-13.839-1.21-.355-.441-.966-.681-2.101-1.45 0 2.396-.197 4.184.035 5.918 1.136 8.439 1.34 16.362-1.928 24.892-4.912 12.824-7.904 26.412-11.255 39.788-2.61 10.409-9.226 18.659-13.973 27.917-.276.544-.938 1.017-1.53 1.257-3.516 1.434-4.928 4.334-5.44 7.797-.394 2.648-1.948 4.019-4.266 5.256-6.221 3.349-12.663 6.426-17.253 12.178-4.758 5.972-12.016 7.477-18.478 10.432l-3.028-5.114c-2.224 1.825-4.337 3.172-5.953 4.96-2.874 3.176-5.646 6.49-8.098 10-2.149 3.077-4.857 4.96-8.512 5.35-2.874.304-4.668 1.848-5.756 4.334-3.008 6.871-8.043 10.543-15.73 10.559-2.004 0-3.833.835-5.284-1.482-.343-.54-2.503-.362-3.572.083-.981.414-1.612 1.647-2.338 2.45-2.01-.949-3.891-2.678-5.515-2.462-7.377.993-14.682 2.534-23.167 4.094l1.36 4.42c.53.125.968.496 1.18.997 1.608 3.31 2.298 6.587 2.211 10.074l.11.363a8.5 8.5 0 0 1 2.792.78l2.231.141c-.04.418-.102.82-.165 1.222.918 1.06.851 3.01-.828 3.349-2.709.54-4.802 1.717-6.407 3.624 4.08.493 7.98-.989 10.878-4.235.93-1.044 3.15-.603 3.367.89.54 3.684 5.018 4.31 8.034 4.968 3.525.777 7.061 1.478 10.606 2.152.753.145 1.518.275 2.275.417a1.9 1.9 0 0 1 1.443.264 438 438 0 0 0 17.627 2.837c6.406.898 13.002 1.217 19.346 2.53 4.131.858 7.912 2.481 10.554 5.633 2.212-1.556 4.415-3.124 6.635-4.672 1.873-1.308 3.576-2.628 5.953-2.628 2.567 0 4.854 1.666 7.22 2.474 2.885.98 5.83 1.276 8.826 1.127l.789-4.48c.197-1.119 1.49-1.62 2.484-1.406 9.493 2.052 19.16-5.784 19.275-15.437.02-1.82 2.148-2.549 3.438-1.418 5.046 4.4 12.892-3.506 17.985-4.779 2.508-.622 5.157-.552 7.452.749 1.206.685 2.235 1.946 3.607 2.344 2.326.677 4.767-.867 6.387-2.344 4.041-3.668 6.08-9.55 11.851-11.048 2.76-.717 5.784-.283 7.874 1.458 3.89-4.381 10.297-6.193 15.975-4.208 3.6 1.253 5.795 4.03 8.22 6.804 1.616 1.852 3.532 4.086 6.21 4.122 2.984.039 5.203-2.353 5.724-5.095.072-.497.36-.937.788-1.201.13-.95.82-1.797 1.704-1.864 2.523-10.275 3.824-20.79 3.666-31.392-.102-7.592-3.13-17.8 2.93-23.876.946-.95 1.943-1.315 2.128-2.726.186-1.418-.682-1.773-1.407-2.844-.828-1.23-1.329-2.376-1.372-3.881-.06-2.12 1.167-4.14 1.064-6.225-.098-1.891-1.6-3.546-1.868-5.437-1.29-9.034 10.605-8.841 15.738-12.556.2-.356.529-.621.919-.74a1.86 1.86 0 0 1 1.88-.292c1.4-.71 1.156-3.117.493-4.208-.45-.73-1.261-1.32-1.916-1.836-1.328-1.044-2.874-1.753-4.317-2.608-2.287-1.348-4.561-2.995-5.764-5.43-1.104-2.217-.875-4.471-.765-6.863.099-2.15.454-2.966-2.657-3.301-1.025-.114-1.948.228-2.992-.134-1.707-.595-2.425-1.974-3.012-3.562-1.041-2.828-2.31-5.5-3.49-8.273-1.928-4.531-3.13-9.468.095-13.715 1.47-1.93 4.424-3.23 5.413-5.445.284-.638 1.08-2.454-.142-2.836-.185-.063-.78.705-.942.796-.773.449-1.309 1.611-1.841 2.304-1.904 2.47-3.694 4.263-6.975 3.566-1.407-.3-1.9-.788-3.347-.225-.922.363-1.636 1.064-2.669 1.269-1.88.366-3.706-.177-5.271-1.233-4.36-2.943-4.155-8.266-3.911-12.946.185-3.566.607-8.739-.741-12.096-.939-2.336-2.13-3.597-4.83-3.545-1.261.02-2.507.275-3.769.26-3.497-.04-7.305-1.435-8.043-5.201"/>
<path d="M673.742 724.296c.308-3.192-3.73-6.454.087-9.574.173-.146-.229-1.32-.631-1.777-4.991-5.67-3.406-10.72 1.317-15.566.828-.851 1.431-1.919 2.559-3.455-4.77-1.47-4.996-5.103-5.224-8.786-.158-2.538-.324-5.094-.745-7.596-.477-2.817-.012-4.917 2.858-6.225.749-.339 1.42-1.615 1.486-2.51.205-2.502.071-5.035.071-7.77-3.312-.708-8.232 2.59-8.638-3.813-3.438.516-6.474 1.237-9.525 1.316-1.546.04-3.454-.713-4.613-1.757-2.164-1.958-3.982-4.326-5.78-6.65-.67-.875-1.427-2.234-1.214-3.164 1.128-4.893-1.368-7.4-5.39-9.29-2.294-1.08-4.462-2.474-6.564-3.909-.922-.63-1.545-1.702-2.302-2.572l-3.698-4.208c-.832-3.692-6.166-6.887-10.243-4.72-5.992 3.191-11.918 6.513-18.648 10.212.69-9.14-5.941-7.056-9.155-7.513l-16.389-27.528c-1.79 1.73-3.154 3.787-3.777 6.54-.906 4.007-.65 8.723.04 12.754.8 4.657 5.105 5.764 7.818 9.18 1.869 2.355 3.055 5.2 3.47 8.167.327 2.348.528 5.752-1.775 7.15-1.459.883-3.114 0-4.415.926-1.72 1.222-.655 3.672-.71 5.575-.134 4.834-3.296 8.628-7.538 10.216a1.83 1.83 0 0 1-1.766 1.154l-7.917.02a20.86 20.86 0 0 1-9.364 11.757c-5.5 3.199-11.528 2.994-17.58 1.73-6.437-1.34-15.284-4.256-20.465 1.563q-.596.677-1.128 1.407c7.278 8.234 14.194 16.775 20.778 25.57.575-2.306 1.565-4.532 3.24-5.595 2.307-1.474 5.26.39 6.576 2.265 2.22 3.172 1.282 6.43 1.767 9.964.725 5.263 5.874 2.809 9.016 5.606 1.195 1.072 1.656 2.474 1.893 4.019.165 1.127-.02 6.445 1.624 4.85 1.084-1.052 1.143-6.198 1.427-7.754.43-2.376.891-4.74 1.278-7.12.938-5.771 1.616-12.063-.947-17.535-2.152-4.574-6.055-8.053-9.722-11.402-1.317-1.202-.264-3.432 1.42-3.44 5.282-.015 10.542.375 15.754 1.257 3.47.591 8.476.879 10.684 4.058 2.255 3.259 2.39 8.628 3 12.419.395 2.427.734 4.865 1.025 7.308.335 2.722.119 5.815 1.506 8.195 1.826 3.152 7.53 1.276 10.815 2.482 2.957 1.08 5.322 3.747 6.138 6.776 1.49 5.524-2.302 10.504-7.412 11.76l4.861 12.096c.757 1.891 1.53 4.76 2.603 7.438.512.418.705.977.658 1.533.871 1.852 1.936 3.467 3.3 4.42 4.786-5.334 11.512-7.667 18.597-8.778 4.995-.788 16.527-3.222 15.96 5.288-.21 3.116-2.52 5.921-5.063 7.525-4.258 2.679-11.362 4.676-7.034 11.106 2.248 3.325 6.214 5.69 10.105 7.446.457-.04.946-.165 1.522-.386 8.965-3.479 18.049-6.67 26.987-10.212 1.774-.701 3.662-2.19 4.553-3.83 1.853-3.391 3.824-6.224 7.688-7.674 3.556-1.332 3.998-4.314 2.93-8.116-1.377-4.874-6.317-9.16-2.169-15.117l-4.731.402-.276-1.096 8.145-2.647c-1.265-1.745-3.118-3.148-3.004-4.365"/>
<path fill="#153d52" fill-rule="evenodd" d="M224.317.32c3.888-1.073 6.395.669 8.737 3.624 3.272-2.6 5.965-2.214 8.619.985.879 1.06 3.043 1.544 4.58 1.477 4.408-.189 8.793-.796 13.141-1.23.256.541.53 1.08.813 1.616l.246.46q.123.23.25.46l.251.458.127.23.38.686c3.044 5.498 5.915 10.975-.305 17.366l4.897-1.58.532 4.357 8.252 1.202c-.339 7.202 1.727 13.16 7.219 18.903-.15.438-.58 1.947-1.19 3.373-1.097 2.58-.115 3.719 2.444 3.242 4.612-.859 9.233-1.78 13.72-3.132 1.163-.347 2.14-2.257 2.641-3.648.923-2.608 2.476-3.073 4.928-2.392 3.23.89 6.486 1.742 9.786 2.293 1.719.288 3.56-.271 5.322-.138 1.313.103 2.59.702 4.467 1.245-2.29 2.94-4.05 5.433-6.052 7.699-2.618 2.959-4.262 6.201-5.468 10.046-.804 2.577-3.679 4.728-6.036 6.54-2.642 2.026-5.879 3.255-8.595 5.193-1.597 1.13-2.641 3.014-4.021 4.472-.722.764-1.542 1.607-2.484 1.95a38.6 38.6 0 0 1-6.592 1.797c-4.349.732-5.906 3.573-5.374 7.458.572 4.211-1.3 6.37-4.869 7.966-5.68 2.541-10.581 5.98-14 11.516-1.273 2.065-4.124 3.16-6.252 4.704-2.315-3.573-3.84-3.475-5.725-.366-1.104 1.82-2.76 3.31-4.692 5.555-1.715-1.068-4.025-2.864-6.627-4.023-2.326-1.036-4.968-1.363-7.925-2.12-1.427-3.959-.406-7.434 4.467-9.947 3.734-1.927 3.367-5.764 3.012-10.472-3.3 3.31-6.793 4.452-7.668 9.128-.48 2.53-4.238 4.452-6.986 7.1l-5.665-13.033-4.613 2.242c-.406-.674-.836-2.006-1.27-2.01-4.016-.02-4.308-2.519-4.33-5.092l-.002-.336-.001-.503q0-.251-.003-.498c-.04-3.676-.205-7.049-3.746-9.495-1.045-.721-1.001-3.022-1.486-4.72-4.763-.851-7.286-5.098-7.475-12.773l-7.826-5.307c.598-.743 1.08-1.578 1.546-2.408l.214-.383c1.318-2.35 2.626-4.53 6.22-4.261.425.035 1.34-1.072 1.3-1.592-.055-.67-.768-1.351-1.34-1.883-.441-.418-1.348-.47-1.608-.93-1.9-3.349-3.687-6.765-5.047-9.298 1.353-2.51 2.665-4.657 3.71-6.934 3.726-8.108 2.61-15.76-2.385-23-.292-.418-.398-.97-.895-2.239h10.645l5.507-5.33.308 4.594c5.63 1.323 5.63-4.78 8.445-6.438l6.407 5.658 1.43-.355c-1.147-4.172.052-6.639 3.99-7.73M169.37 44.176c2.713 2.526 5.319 5.177 8.173 7.51 1.313 1.075 3.127 1.536 5.756 2.757l.876 1.8c-1.246 2.254-2.918 3.91-2.72 5.288.2 1.39 2.491 2.356 3.485 3.774 2.539 3.637 7.214 6.123 6.32 12.423l-13.023-.65c2.694-3.87.93-5.87-.933-8.08l-.26-.309c-.823-.987-1.626-2.034-2.032-3.32l3.032-1.655c-5.44-4.456-11.075-3.905-16.992-2.42l-1.297-3.395 3.315-2.006-6.19-3.246c2.283-2.829 4.2-5.213 6.383-7.931l2.812 2.4Z"/>
<path fill="#1c4f64" fill-rule="evenodd" d="M494.12 42.964c-2.956 2.557-6.568 4.48-3.544 8.652.868 1.19 1.893 2.198 2.827 3.293a5.25 5.25 0 0 1 4.506-.079c4.274 1.888 3.052 7.782 6.766 9.89 1.025.575 1.439 2.344.41 3.155-2.05 1.604-5.402 4.105-4.08 7.08.598 1.351 2.175 2.088 3.374 2.837 2.054 1.292 4.285 2.6 5.303 4.917 1.695 3.892-2.035 7.58-.06 11.401 1.794 3.46 6.15 2.703 8.22 5.713 2.26 3.294-1.643 8.01 2.469 10.114 3.78 1.93 8.413-.075 12.434.417 5.966.721 9.758 6.485 8.07 12.107.336.32.572.76.612 1.34.386 5.405 1.53 14.104 8.981 13.218 1.045-.122 2.074 1.016 2.01 2.01-.055 1.087-.717 8.836.143 11.488 3.43-3.806 7.423-7.053 11.953-9.468a44 44 0 0 1 6.328-2.758c2.153-.748 5.228-1.126 6.844-2.872 1.987-2.147.781-5.626 1.46-8.202a7.3 7.3 0 0 1 3.023-4.216c4.069-2.766 9.127-1.221 13.578-2.58l-3.86-5.067c3.194-.69 5.204-.894 7.034-1.576 2.251-.84 4.27-2.332 6.544-3.073 3.572-1.17 4.112-4.157 4.1-7.001-.011-1.273-2.01-2.533-3.098-3.81-.694-.8-1.648-1.505-2.027-2.435-3.26-8.167-9.789-13.34-16.882-17.705-6.197-3.818-13.01-6.34-20.497-5.54l-.497 1.206 7.704 3.99-1.155 5.225c-9.474-.875-12.813-11.618-21.637-14.164-.102-.027-.15-.22-.244-.31-5.224-4.965-10.322-10.079-15.719-14.85-4.005-3.546-8.007-7.474-12.73-9.743-6.202-2.975-12.333-5.193-11.71-13.963-4.494.552-8.74 1.08-13.191 1.631 1.53 3.688-.856 7.218-3.761 9.728"/>
</g>
</svg>