<svg xmlns="http://www.w3.org/2000/svg" viewBox="0 0 761 879">

<g id="map-regions-labels">
<path fill="#fff" d="M146.96005 15.808v-.032q0-.112.288-.336t.288-.544V5.76q0-.32-.288-.552t-.288-.344v-.032q0-.192.32-.192h2q.32 0 .32.192v.032q0 .112-.152.224t-.304.272-.152.4v9.136q0 .32.304.544t.304.336v.032q0 .192-.32.192h-2q-.32 0-.32-.192m8.624.352q-2.112 0-3.312-.952t-1.2-1.864q0-.288.16-.464t.448-.176q.304.016.536.312t.448.712.52.824.936.696 1.528.288q1.136 0 1.848-.6t.712-1.544q0-.8-.376-1.312t-.976-.744-1.328-.376q-.72801-.144-1.464-.32-.736-.176-1.336-.472t-.976-.936-.376-1.616q0-1.376 1.064-2.248t2.92-.872q1.888 0 3.016.832t1.128 1.776q0 .64-.656.64-.32 0-.536-.272t-.392-.656q-.17601-.384-.432-.768-.256-.384-.808-.656t-1.368-.272q-1.168 0-1.824.608t-.656 1.552q0 .752.376 1.232.37599.48.984.704t1.336.376q.728.152 1.456.344t1.336.504.984.976.376 1.64q0 1.408-1.184 2.256t-2.912.848m5.936-.16q-.32 0-.32-.192v-.032q0-.128.288-.352t.288-.544V5.76q0-.336-.288-.552t-.288-.344v-.032q0-.192.32-.192h2.016q.32 0 .32.192v.032q0 .128-.312.344t-.312.552v8.96q0 .624.512.624h3.552q.32 0 .576-.272t.4-.608.336-.608.368-.272h.128q.256 0 .176.288l-.4 1.76q-.08.368-.4.368zm9.2 0q-.336 0-.336-.192v-.032q0-.112.296-.344t.296-.568V5.776q0-.256-.144-.424t-.296-.272-.152-.216v-.048q0-.176.288-.176h6.784q.32 0 .4.352l.384 1.584q.06399.32-.192.32h-.08q-.16 0-.36-.248t-.368-.552-.432-.552-.552-.248h-3.392q-.448 0-.448.544v4.016h2.912q.208 0 .352-.144t.216-.328.16-.328.2-.144h.064q.208 0 .208.272v1.968q0 .272-.208.272h-.064q-.112 0-.2-.144t-.16-.312-.216-.312-.352-.144h-2.912l-.016 4.144q0 .288.152.488t.44.2h3.76q.288 0 .544-.256.25599-.256.408-.568t.352-.568q.2-.256.376-.256h.096q.11199 0 .168.096.056.096.024.224l-.384 1.616q-.08.368-.416.368zm18.224.16q-2.464 0-4.08-1.744t-1.616-4.128q0-2.512 1.568-4.16t4.016-1.648q2.41599 0 3.984 1.728 1.568 1.728 1.568 4.176 0 2.384-1.576 4.08t-3.864 1.696m.352-.688q1.568 0 2.608-1.232t1.04-2.896q0-2.592-1.296-4.384t-3.312-1.792q-1.6 0-2.624 1.184t-1.024 2.96q0 2.544 1.304 4.352t3.304 1.808m6.944.528q-.336 0-.336-.192v-.032q0-.112.296-.344t.296-.552V5.76q0-.208-.096-.352t-.2-.208-.2-.152-.096-.184v-.032q0-.192.288-.192h6.736q.32 0 .4.368l.384 1.584q.08.32-.208.32h-.064q-.208 0-.464-.4t-.576-.808-.688-.408h-3.296q-.464 0-.464.512v4.544h2.96q.176 0 .32-.144t.216-.328.168-.328.208-.144h.096q.208 0 .208.272v1.968q0 .272-.208.272h-.096q-.112 0-.208-.136t-.168-.312-.216-.312-.32-.136h-2.96v3.856q0 .24.152.4t.312.272.16.224v.032q0 .192-.32.192zm14.288 0q-.32 0-.32-.192v-.032q0-.112.296-.344t.296-.552V5.328h-2.176q-.272 0-.488.272t-.328.592-.264.592-.296.272h-.144q-.256 0-.208-.32l.256-1.744q.048-.352.4-.352h7.952q.336 0 .416.352l.352 1.76q.06399.304-.192.304h-.16q-.144 0-.312-.272t-.296-.592q-.12801-.32-.36-.592-.232-.272-.504-.272h-2.208v9.552q0 .24.152.4t.312.272.16.224v.032q0 .192-.336.192zm7.2 0q-.32 0-.32-.192v-.032q0-.112.288-.344t.288-.552V5.76q0-.32-.288-.552t-.288-.344v-.032q0-.192.32-.192h2q.32 0 .32.192v.032q0 .112-.152.224t-.304.272-.152.4l-.016 4.096h6.288l-.016-4.096q0-.32-.288-.552t-.288-.344v-.032q0-.192.32-.192h2q.336 0 .336.192v.032q0 .112-.16.224t-.312.272-.152.4v9.12q0 .24.152.4t.312.272.16.224v.032q0 .192-.336.192h-2q-.32 0-.32-.192v-.032q0-.112.288-.344t.288-.552l.016-4.32h-6.272v4.32q0 .24.152.4t.304.272.152.224v.032q0 .192-.32.192zm12.272 0q-.336 0-.336-.192v-.032q0-.112.296-.344t.296-.568V5.776q0-.256-.144-.424t-.296-.272-.152-.216v-.048q0-.176.288-.176h6.784q.32 0 .4.352l.384 1.584q.06399.32-.192.32h-.08q-.16 0-.36-.248t-.368-.552-.432-.552-.552-.248h-3.392q-.448 0-.448.544v4.016h2.912q.208 0 .352-.144t.216-.328.16-.328.2-.144h.064q.208 0 .208.272v1.968q0 .272-.208.272h-.064q-.112 0-.2-.144t-.16-.312-.216-.312-.352-.144h-2.912l-.016 4.144q0 .288.152.488t.44.2h3.76q.288 0 .544-.256.25599-.256.408-.568t.352-.568q.2-.256.376-.256h.096q.11199 0 .168.096.056.096.024.224l-.384 1.616q-.08.368-.416.368zm13.2 0q-.336 0-.336-.192v-.032q0-.128.296-.36t.296-.536V5.76q0-.32-.296-.552t-.296-.344v-.032q0-.192.336-.192h3.504q2.70399 0 4.584 1.56t1.88 4.024q0 2.64-1.672 4.208t-4.216 1.568zm2.432-.656h1.552q1.92 0 3.208-1.24t1.288-3.368q0-2.416-1.56-3.928t-3.672-1.512h-1.12q-.448 0-.448.512v8.656q0 .416.2.648t.552.232m17.344-.464q.176.256.44.424t.416.256.152.216v.032q0 .192-.32.192h-2.224q-.32 0-.32-.192v-.032q0-.112.168-.24t.232-.232-.08-.424l-2.4-3.312q-.128.016-.4.016l-1.92.032v3.264q0 .24.152.4t.312.272.16.224v.032q0 .192-.32.192h-2.016q-.32 0-.32-.192v-.032q0-.112.288-.344t.288-.552V5.76q0-.32-.288-.552t-.288-.344v-.032q0-.192.32-.192h3.28q2.16 0 3.488.888t1.344 2.632q0 1.12-.704 1.968t-2 1.216zm-4.48-3.936q1.408 0 2.272-.688t.864-1.888q0-1.504-.984-2.288t-2.44-.784h-1.072q-.416 0-.416.544v4.352q0 .752.672.752zm11.36 5.216q-2.016 0-3.272-1.248t-1.256-3.328V5.76q0-.32-.288-.544t-.288-.336v-.048q0-.192.32-.192h2.016q.32 0 .32.192v.048q0 .112-.304.336t-.304.544v5.824q0 1.776.912 2.832t2.416 1.056q1.328 0 2.256-1.032t.928-2.856V5.76q0-.32-.304-.544t-.304-.336v-.048q0-.192.336-.192h1.408q.336 0 .336.192v.048q0 .112-.328.336t-.328.544v5.84q0 2.064-1.184 3.312t-3.088 1.248m6.592-.352v-.032q0-.112.288-.336t.288-.544V5.76q0-.32-.288-.552t-.288-.344v-.032q0-.192.32-.192h2q.32 0 .32.192v.032q0 .112-.152.224t-.304.272-.152.4v9.136q0 .32.304.544t.304.336v.032q0 .192-.32.192h-2q-.32 0-.32-.192m4.864.192q-.336 0-.336-.192v-.032q0-.128.296-.36t.296-.536V5.76q0-.32-.296-.552t-.296-.344v-.032q0-.192.336-.192h3.504q2.70399 0 4.584 1.56t1.88 4.024q0 2.64-1.672 4.208t-4.216 1.568zm2.432-.656h1.552q1.92 0 3.208-1.24t1.288-3.368q0-2.416-1.56-3.928t-3.672-1.512h-1.12q-.448 0-.448.512v8.656q0 .416.2.648t.552.232m13.184.816q-2.112 0-3.312-.952t-1.2-1.864q0-.288.16-.464t.448-.176q.304.016.536.312t.448.712.52.824.936.696 1.528.288q1.136 0 1.848-.6t.712-1.544q0-.8-.376-1.312t-.976-.744-1.328-.376-1.464-.32-1.336-.472-.976-.936-.376-1.616q0-1.376 1.064-2.248t2.92-.872q1.888 0 3.016.832t1.128 1.776q0 .64-.656.64-.32 0-.536-.272t-.392-.656q-.17601-.384-.432-.768-.256-.384-.808-.656t-1.368-.272q-1.168 0-1.824.608t-.656 1.552q0 .752.376 1.232.37599.48.984.704t1.336.376q.728.152 1.456.344t1.336.504.984.976.376 1.64q0 1.408-1.184 2.256t-2.912.848m18.432 119.672q.06399.352.36.584.296.232.296.36v.032q0 .192-.336.192h-1.968q-.32 0-.32-.192v-.032q0-.112.16-.224.15999-.112.288-.28t.08-.44l-1.408-7.984-3.216 8.8q-.144.336-.416.336-.288 0-.432-.32l-3.248-9.008-1.376 8.176q-.03201.208.048.36t.208.224.24.168.112.192v.032q0 .192-.32.192h-1.456q-.32 0-.32-.192v-.032q0-.128.288-.368t.352-.576l1.552-9.04q.048-.32-.24-.552t-.288-.36v-.032q0-.208.272-.208h1.056q.48 0 .624.416l3.12 9.04 3.216-9.056q.144-.4.576-.4h1.136q.24 0 .24.176v.048q0 .128-.168.248t-.296.312-.08.496zm2.24 1.168q-.336 0-.336-.192v-.032q0-.112.296-.344t.296-.568v-9.088q0-.256-.144-.424t-.296-.272-.152-.216v-.048q0-.176.288-.176h6.784q.32 0 .4.352l.384 1.584q.06399.32-.192.32h-.08q-.16 0-.36-.248t-.368-.552-.432-.552-.552-.248h-3.392q-.448 0-.448.544v4.016h2.912q.208 0 .352-.144t.216-.328.16-.328.2-.144h.064q.208 0 .208.272v1.968q0 .272-.208.272h-.064q-.112 0-.2-.144t-.16-.312-.216-.312-.352-.144h-2.912l-.016 4.144q0 .288.152.488t.44.2h3.76q.288 0 .544-.256.25599-.256.408-.568t.352-.568.376-.256h.096q.11199 0 .168.096.056.096.024.224l-.384 1.616q-.08.368-.416.368zm9.28-.192v-.032q0-.112.288-.336t.288-.544v-9.136q0-.32-.288-.552t-.288-.344v-.032q0-.192.32-.192h2q.32 0 .32.192v.032q0 .112-.152.224t-.304.272-.152.4v9.136q0 .32.304.544t.304.336v.032q0 .192-.32.192h-2q-.32 0-.32-.192m12.832-.928q.176.256.44.424t.416.256.152.216v.032q0 .192-.32.192h-2.224q-.32 0-.32-.192v-.032q0-.112.168-.24t.232-.232-.08-.424l-2.4-3.312q-.128.016-.4.016l-1.92.032v3.264q0 .24.152.4t.312.272.16.224v.032q0 .192-.32.192h-2.016q-.32 0-.32-.192v-.032q0-.112.288-.344t.288-.552v-9.12q0-.32-.288-.552t-.288-.344v-.032q0-.192.32-.192h3.28q2.16 0 3.488.888t1.344 2.632q0 1.12-.704 1.968t-2 1.216zm-4.48-3.936q1.408 0 2.272-.688t.864-1.888q0-1.504-.984-2.288t-2.44-.784h-1.072q-.416 0-.416.544v4.352q0 .752.672.752zm6.56 4.864v-.032q0-.112.288-.336t.288-.544v-9.136q0-.32-.288-.552t-.288-.344v-.032q0-.192.32-.192h2q.32 0 .32.192v.032q0 .112-.152.224t-.304.272-.152.4v9.136q0 .32.304.544t.304.336v.032q0 .192-.32.192h-2q-.32 0-.32-.192m9.84.352q-2.464 0-4.08-1.744t-1.616-4.128q0-2.512 1.568-4.16t4.016-1.648q2.41599 0 3.984 1.728 1.568 1.728 1.568 4.176 0 2.384-1.576 4.08t-3.864 1.696m.352-.688q1.568 0 2.608-1.232t1.04-2.896q0-2.592-1.296-4.384t-3.312-1.792q-1.6 0-2.624 1.184t-1.024 2.96q0 2.544 1.304 4.352t3.304 1.808m16.48-10.832q.32 0 .32.208v.032q0 .112-.32.336t-.32.544v9.808q0 .432-.4.432h-.4q-.24 0-.512-.416l-6.832-9.312v8.56q0 .256.168.424t.344.288.176.232v.032q0 .192-.336.192h-1.456q-.32 0-.32-.192v-.032q0-.112.304-.36t.304-.584v-9.056q0-.24-.152-.392t-.304-.256-.152-.216v-.064q0-.208.32-.208h1.216q.35199 0 .576.32l6.64 9.184v-8.384q0-.32-.328-.544t-.328-.336v-.032q0-.208.336-.208zm12 0q.32 0 .32.208v.032q0 .112-.32.336t-.32.544v9.808q0 .432-.4.432h-.4q-.24 0-.512-.416l-6.832-9.312v8.56q0 .256.168.424t.344.288.176.232v.032q0 .192-.336.192h-1.456q-.32 0-.32-.192v-.032q0-.112.304-.36t.304-.584v-9.056q0-.24-.152-.392t-.304-.256-.152-.216v-.064q0-.208.32-.208h1.216q.35199 0 .576.32l6.64 9.184v-8.384q0-.32-.328-.544t-.328-.336v-.032q0-.208.336-.208zm11.28 0q.32 0 .32.176v.048q0 .144-.328.352t-.52.544l-3.456 5.648v3.472q0 .24.152.4t.304.272.152.224v.032q0 .192-.304.192h-2.016q-.32 0-.32-.192v-.032q0-.112.288-.344t.288-.552v-3.376l-3.712-5.744q-.17601-.288-.528-.52t-.352-.376v-.032q0-.192.32-.192h2.336q.32 0 .32.192v.032q0 .112-.2.248t-.304.248.008.4l3.12 5.136 3.12-5.136q.128-.304.008-.416t-.336-.24-.216-.24v-.032q0-.192.288-.192zm1.744 11.36q-.336 0-.336-.192v-.032q0-.128.296-.36t.296-.536v-9.12q0-.32-.296-.552t-.296-.344v-.032q0-.192.336-.192h3.504q2.70399 0 4.584 1.56t1.88 4.024q0 2.64-1.672 4.208t-4.216 1.568zm2.432-.656h1.552q1.92 0 3.208-1.24t1.288-3.368q0-2.416-1.56-3.928t-3.672-1.512h-1.12q-.448 0-.448.512v8.656q0 .416.2.648t.552.232m9.376.656q-.336 0-.336-.192v-.032q0-.128.296-.36t.296-.536v-9.12q0-.32-.296-.552t-.296-.344v-.032q0-.192.336-.192h3.504q2.70399 0 4.584 1.56t1.88 4.024q0 2.64-1.672 4.208t-4.216 1.568zm2.432-.656h1.552q1.92 0 3.208-1.24t1.288-3.368q0-2.416-1.56-3.928t-3.672-1.512h-1.12q-.448 0-.448.512v8.656q0 .416.2.648t.552.232m-58.808 222.816q-2.128 0-3.76-1.792t-1.632-4.16q0-2.512 1.496-4.112t3.816-1.6q1.76 0 3.064 1t1.304 1.96q0 .32-.184.504t-.52.184q-.32 0-.584-.312t-.52-.744-.584-.872-.928-.752-1.416-.312q-1.44 0-2.472 1.2t-1.032 3.056q0 2.352 1.304 3.912t3.048 1.56q1.296 0 2.184-.784t1.336-1.872q.144-.256.4-.192.25599.064.192.4-.288 1.552-1.464 2.64t-3.048 1.088m6.208-.16q-.336 0-.336-.192v-.032q0-.112.296-.344t.296-.568v-9.088q0-.256-.144-.424t-.296-.272-.152-.216v-.048q0-.176.288-.176h6.784q.32 0 .4.352l.384 1.584q.06399.32-.192.32h-.08q-.16 0-.36-.248t-.368-.552-.432-.552-.552-.248h-3.392q-.448 0-.448.544v4.016h2.912q.208 0 .352-.144t.216-.328.16-.328.2-.144h.064q.208 0 .208.272v1.968q0 .272-.208.272h-.064q-.112 0-.2-.144t-.16-.312-.216-.312-.352-.144h-2.912l-.016 4.144q0 .288.152.488t.44.2h3.76q.288 0 .544-.256.25599-.256.408-.568t.352-.568.376-.256h.096q.11199 0 .168.096.056.096.024.224l-.384 1.616q-.08.368-.416.368zm17.568-1.12q.176.256.44.424t.416.256.152.216v.032q0 .192-.32.192h-2.224q-.32 0-.32-.192v-.032q0-.112.168-.24t.232-.232-.08-.424l-2.4-3.312q-.128.016-.4.016l-1.92.032v3.264q0 .24.152.4t.312.272.16.224v.032q0 .192-.32.192h-2.016q-.32 0-.32-.192v-.032q0-.112.288-.344t.288-.552v-9.12q0-.32-.288-.552t-.288-.344v-.032q0-.192.32-.192h3.28q2.16 0 3.488.888t1.344 2.632q0 1.12-.704 1.968t-2 1.216zm-4.48-3.936q1.408 0 2.272-.688t.864-1.888q0-1.504-.984-2.288t-2.44-.784h-1.072q-.416 0-.416.544v4.352q0 .752.672.752zm6.88 5.056q-.336 0-.336-.192v-.032q0-.112.296-.344t.296-.568v-9.088q0-.256-.144-.424t-.296-.272-.152-.216v-.048q0-.176.288-.176h6.784q.32 0 .4.352l.384 1.584q.06399.32-.192.32h-.08q-.16 0-.36-.248t-.368-.552-.432-.552-.552-.248h-3.392q-.448 0-.448.544v4.016h2.912q.208 0 .352-.144t.216-.328.16-.328.2-.144h.064q.208 0 .208.272v1.968q0 .272-.208.272h-.064q-.112 0-.2-.144t-.16-.312-.216-.312-.352-.144h-2.912l-.016 4.144q0 .288.152.488t.44.2h3.76q.288 0 .544-.256.25599-.256.408-.568t.352-.568q.2-.256.376-.256h.096q.11199 0 .168.096.056.096.024.224l-.384 1.616q-.08.368-.416.368zm9.6 0q-.336 0-.336-.192v-.032q0-.128.296-.36t.296-.536v-9.12q0-.32-.296-.552t-.296-.344v-.032q0-.192.336-.192h3.504q2.70399 0 4.584 1.56t1.88 4.024q0 2.64-1.672 4.208t-4.216 1.568zm2.432-.656h1.552q1.92 0 3.208-1.24t1.288-3.368q0-2.416-1.56-3.928t-3.672-1.512h-1.12q-.448 0-.448.512v8.656q0 .416.2.648t.552.232m9.056.464v-.032q0-.112.288-.336t.288-.544v-9.136q0-.32-.288-.552t-.288-.344v-.032q0-.192.32-.192h2q.32 0 .32.192v.032q0 .112-.152.224t-.304.272-.152.4v9.136q0 .32.304.544t.304.336v.032q0 .192-.32.192h-2q-.32 0-.32-.192m9.664.352q-2.224 0-3.88-1.728t-1.656-4.064q0-2.608 1.536-4.24t3.824-1.632q1.872 0 3.144.976t1.272 1.968q0 .304-.192.496t-.496.192q-.32001 0-.6-.304-.28-.304-.552-.744t-.616-.88-.952-.744-1.424-.304q-1.47201 0-2.496 1.256-1.024 1.256-1.024 3.096 0 2.384 1.352 4.032t3.144 1.648q1.536 0 2.496-.688v-2.768q0-.224-.168-.368t-.376-.208-.376-.144-.168-.16v-.064q0-.224.336-.224l2.736.016q.32 0 .32.208v.064q0 .08-.144.16t-.328.144-.328.208-.144.368v2.48q0 .432-.416.768-1.424 1.184-3.824 1.184m6.416-.352v-.032q0-.112.288-.336t.288-.544v-9.136q0-.32-.288-.552t-.288-.344v-.032q0-.192.32-.192h2q.32 0 .32.192v.032q0 .112-.152.224t-.304.272-.152.4v9.136q0 .32.304.544t.304.336v.032q0 .192-.32.192h-2q-.32 0-.32-.192m9.84.352q-2.464 0-4.08-1.744t-1.616-4.128q0-2.512 1.568-4.16t4.016-1.648q2.41599 0 3.984 1.728 1.568 1.728 1.568 4.176 0 2.384-1.576 4.08t-3.864 1.696m.352-.688q1.568 0 2.608-1.232t1.04-2.896q0-2.592-1.296-4.384t-3.312-1.792q-1.6 0-2.624 1.184t-1.024 2.96q0 2.544 1.304 4.352t3.304 1.808m16.48-10.832q.32 0 .32.208v.032q0 .112-.32.336t-.32.544v9.808q0 .432-.4.432h-.4q-.24 0-.512-.416l-6.832-9.312v8.56q0 .256.168.424t.344.288.176.232v.032q0 .192-.336.192h-1.456q-.32 0-.32-.192v-.032q0-.112.304-.36t.304-.584v-9.056q0-.24-.152-.392t-.304-.256-.152-.216v-.064q0-.208.32-.208h1.216q.35199 0 .576.32l6.64 9.184v-8.384q0-.32-.328-.544t-.328-.336v-.032q0-.208.336-.208zm-134.472 171q.304 0 .304.192v.032q0 .128-.176.232t-.304.256-.032.424l3.12 8.416 2.352-6.592-.624-1.84q-.112-.336-.456-.56t-.344-.352v-.032q0-.176.256-.176h2.288q.272 0 .272.176v.032q0 .112-.184.208t-.328.256-.064.448l2.784 8.416 2.608-8.416q.064-.192-.008-.336t-.192-.208-.232-.152-.112-.184v-.032q0-.208.288-.208h1.6q.288 0 .288.176v.048q0 .128-.32.344t-.448.552l-3.152 9.824q-.144.416-.624.416-.4 0-.544-.4l-2.352-6.848-2.464 6.832q-.128.416-.56.416-.384 0-.544-.4l-3.824-9.824q-.112-.288-.32-.448t-.352-.256-.144-.224v-.032q0-.176.288-.176zm17.488 0q.528 0 .752.528l4.128 9.712q.144.32.456.536t.312.36v.032q0 .192-.304.192h-2.256q-.304 0-.304-.192v-.032q0-.096.112-.192t.232-.16.2-.208 0-.336l-.768-1.888h-5.184l-.704 1.888q-.08.192-.008.336t.192.208.24.16.12.192v.032q0 .192-.336.192h-1.52q-.32 0-.32-.192v-.032q0-.128.312-.344t.44-.552l3.552-9.072q.11199-.272-.192-.568-.304-.296-.304-.376v-.048q0-.176.224-.176zm-.112 1.728-2.24 5.936h4.64zm10.576 9.792q-2.112 0-3.312-.952t-1.2-1.864q0-.288.16-.464t.448-.176q.304.016.536.312t.448.712.52.824.936.696 1.528.288q1.136 0 1.848-.6t.712-1.544q0-.8-.376-1.312t-.976-.744-1.328-.376-1.464-.32-1.336-.472-.976-.936-.376-1.616q0-1.376 1.064-2.248t2.92-.872q1.888 0 3.016.832t1.128 1.776q0 .64-.656.64-.32 0-.536-.272t-.392-.656q-.17601-.384-.432-.768-.256-.384-.808-.656t-1.368-.272q-1.168 0-1.824.608t-.656 1.552q0 .752.376 1.232.37599.48.984.704t1.336.376q.728.152 1.456.344t1.336.504.984.976.376 1.64q0 1.408-1.184 2.256t-2.912.848m8.288-.16q-.32 0-.32-.192v-.032q0-.112.296-.344t.296-.552v-9.552h-2.176q-.272 0-.488.272t-.328.592-.264.592-.296.272h-.144q-.256 0-.208-.32l.256-1.744q.048-.352.4-.352h7.952q.336 0 .416.352l.352 1.76q.06399.304-.192.304h-.16q-.144 0-.312-.272t-.296-.592-.36-.592-.504-.272h-2.208v9.552q0 .24.152.4t.312.272.16.224v.032q0 .192-.336.192zm7.2 0q-.336 0-.336-.192v-.032q0-.112.296-.344t.296-.568v-9.088q0-.256-.144-.424t-.296-.272-.152-.216v-.048q0-.176.288-.176h6.784q.32 0 .4.352l.384 1.584q.06399.32-.192.32h-.08q-.16 0-.36-.248t-.368-.552-.432-.552-.552-.248h-3.392q-.448 0-.448.544v4.016h2.912q.208 0 .352-.144t.216-.328.16-.328.2-.144h.064q.208 0 .208.272v1.968q0 .272-.208.272h-.064q-.112 0-.2-.144t-.16-.312-.216-.312-.352-.144h-2.912l-.016 4.144q0 .288.152.488t.44.2h3.76q.288 0 .544-.256.25599-.256.408-.568t.352-.568q.2-.256.376-.256h.096q.11199 0 .168.096.056.096.024.224l-.384 1.616q-.08.368-.416.368zm13.36.16q-2.112 0-3.312-.952t-1.2-1.864q0-.288.16-.464t.448-.176q.304.016.536.312t.448.712.52.824.936.696 1.528.288q1.136 0 1.848-.6t.712-1.544q0-.8-.376-1.312t-.976-.744-1.328-.376-1.464-.32-1.336-.472-.976-.936-.376-1.616q0-1.376 1.064-2.248t2.92-.872q1.888 0 3.016.832t1.128 1.776q0 .64-.656.64-.32 0-.536-.272t-.392-.656q-.17601-.384-.432-.768-.256-.384-.808-.656t-1.368-.272q-1.168 0-1.824.608t-.656 1.552q0 .752.376 1.232.37599.48.984.704t1.336.376 1.456.344 1.336.504.984.976.376 1.64q0 1.408-1.184 2.256t-2.912.848m14.56 0q-2.464 0-4.08-1.744t-1.616-4.128q0-2.512 1.568-4.16t4.016-1.648q2.41599 0 3.984 1.728 1.568 1.728 1.568 4.176 0 2.384-1.576 4.08t-3.864 1.696m.352-.688q1.568 0 2.608-1.232t1.04-2.896q0-2.592-1.296-4.384t-3.312-1.792q-1.6 0-2.624 1.184t-1.024 2.96q0 2.544 1.304 4.352t3.304 1.808m6.944.528q-.336 0-.336-.192v-.032q0-.112.296-.344t.296-.552v-9.12q0-.208-.096-.352t-.2-.208-.2-.152-.096-.184v-.032q0-.192.288-.192h6.736q.32 0 .4.368l.384 1.584q.08.32-.208.32h-.064q-.208 0-.464-.4t-.576-.808-.688-.408h-3.296q-.464 0-.464.512v4.544h2.96q.176 0 .32-.144t.216-.328.168-.328.208-.144h.096q.208 0 .208.272v1.968q0 .272-.208.272h-.096q-.112 0-.208-.136t-.168-.312-.216-.312-.32-.136h-2.96v3.856q0 .24.152.4t.312.272.16.224v.032q0 .192-.32.192zm14.288 0q-.32 0-.32-.192v-.032q0-.112.296-.344t.296-.552v-9.552h-2.176q-.272 0-.488.272t-.328.592-.264.592-.296.272h-.144q-.256 0-.208-.32l.256-1.744q.048-.352.4-.352h7.952q.336 0 .416.352l.352 1.76q.06399.304-.192.304h-.16q-.144 0-.312-.272t-.296-.592-.36-.592-.504-.272h-2.208v9.552q0 .24.152.4t.312.272.16.224v.032q0 .192-.336.192zm7.2 0q-.32 0-.32-.192v-.032q0-.112.288-.344t.288-.552v-9.12q0-.32-.288-.552t-.288-.344v-.032q0-.192.32-.192h2q.32 0 .32.192v.032q0 .112-.152.224t-.304.272-.152.4l-.016 4.096h6.288l-.016-4.096q0-.32-.288-.552t-.288-.344v-.032q0-.192.32-.192h2q.336 0 .336.192v.032q0 .112-.16.224t-.312.272-.152.4v9.12q0 .24.152.4t.312.272.16.224v.032q0 .192-.336.192h-2q-.32 0-.32-.192v-.032q0-.112.288-.344t.288-.552l.016-4.32h-6.272v4.32q0 .24.152.4t.304.272.152.224v.032q0 .192-.32.192zm12.272 0q-.336 0-.336-.192v-.032q0-.112.296-.344t.296-.568v-9.088q0-.256-.144-.424t-.296-.272-.152-.216v-.048q0-.176.288-.176h6.784q.32 0 .4.352l.384 1.584q.06399.32-.192.32h-.08q-.16 0-.36-.248t-.368-.552-.432-.552-.552-.248h-3.392q-.448 0-.448.544v4.016h2.912q.208 0 .352-.144t.216-.328.16-.328.2-.144h.064q.208 0 .208.272v1.968q0 .272-.208.272h-.064q-.112 0-.2-.144t-.16-.312-.216-.312-.352-.144h-2.912l-.016 4.144q0 .288.152.488t.44.2h3.76q.288 0 .544-.256.25599-.256.408-.568t.352-.568q.2-.256.376-.256h.096q.11199 0 .168.096.056.096.024.224l-.384 1.616q-.08.368-.416.368zm13.2 0q-.336 0-.336-.192v-.032q0-.112.296-.344t.296-.568v-9.088q0-.256-.144-.424t-.296-.272-.152-.216v-.048q0-.176.288-.176h6.784q.32 0 .4.352l.384 1.584q.06399.32-.192.32h-.08q-.16 0-.36-.248t-.368-.552-.432-.552-.552-.248h-3.392q-.448 0-.448.544v4.016h2.912q.208 0 .352-.144t.216-.328.16-.328.2-.144h.064q.208 0 .208.272v1.968q0 .272-.208.272h-.064q-.112 0-.2-.144t-.16-.312-.216-.312-.352-.144h-2.912l-.016 4.144q0 .288.152.488t.44.2h3.76q.288 0 .544-.256.25599-.256.408-.568t.352-.568.376-.256h.096q.11199 0 .168.096.056.096.024.224l-.384 1.616q-.08.368-.416.368zm9.6 0q-.32 0-.32-.192v-.032q0-.128.288-.352t.288-.544v-9.12q0-.336-.288-.552t-.288-.344v-.032q0-.192.32-.192h2.016q.32 0 .32.192v.032q0 .128-.312.344t-.312.552v8.96q0 .624.512.624h3.552q.32 0 .576-.272t.4-.608.336-.608.368-.272h.128q.256 0 .176.288l-.4 1.76q-.08.368-.4.368zm9.2 0q-.336 0-.336-.192v-.032q0-.112.296-.344t.296-.568v-9.088q0-.256-.144-.424t-.296-.272-.152-.216v-.048q0-.176.288-.176h6.784q.32 0 .4.352l.384 1.584q.06399.32-.192.32h-.08q-.16 0-.36-.248t-.368-.552-.432-.552-.552-.248h-3.392q-.448 0-.448.544v4.016h2.912q.208 0 .352-.144t.216-.328.16-.328.2-.144h.064q.208 0 .208.272v1.968q0 .272-.208.272h-.064q-.112 0-.2-.144t-.16-.312-.216-.312-.352-.144h-2.912l-.016 4.144q0 .288.152.488t.44.2h3.76q.288 0 .544-.256.25599-.256.408-.568t.352-.568q.2-.256.376-.256h.096q.11199 0 .168.096.056.096.024.224l-.384 1.616q-.08.368-.416.368zm19.136-11.36q.32 0 .32.208v.032q0 .112-.32.336t-.32.544v9.808q0 .432-.4.432h-.4q-.24 0-.512-.416l-6.832-9.312v8.56q0 .256.168.424t.344.288.176.232v.032q0 .192-.336.192h-1.456q-.32 0-.32-.192v-.032q0-.112.304-.36t.304-.584v-9.056q0-.24-.152-.392t-.304-.256-.152-.216v-.064q0-.208.32-.208h1.216q.35199 0 .576.32l6.64 9.184v-8.384q0-.32-.328-.544t-.328-.336v-.032q0-.208.336-.208zm11.28 0q.32 0 .32.176v.048q0 .144-.328.352t-.52.544l-3.456 5.648v3.472q0 .24.152.4t.304.272.152.224v.032q0 .192-.304.192h-2.016q-.32 0-.32-.192v-.032q0-.112.288-.344t.288-.552v-3.376l-3.712-5.744q-.17601-.288-.528-.52t-.352-.376v-.032q0-.192.32-.192h2.336q.32 0 .32.192v.032q0 .112-.2.248t-.304.248.008.4l3.12 5.136 3.12-5.136q.128-.304.008-.416t-.336-.24-.216-.24v-.032q0-.192.288-.192zm1.744 11.36q-.336 0-.336-.192v-.032q0-.128.296-.36t.296-.536v-9.12q0-.32-.296-.552t-.296-.344v-.032q0-.192.336-.192h3.504q2.70399 0 4.584 1.56t1.88 4.024q0 2.64-1.672 4.208t-4.216 1.568zm2.432-.656h1.552q1.92 0 3.208-1.24t1.288-3.368q0-2.416-1.56-3.928t-3.672-1.512h-1.12q-.448 0-.448.512v8.656q0 .416.2.648t.552.232m9.376.656q-.336 0-.336-.192v-.032q0-.128.296-.36t.296-.536v-9.12q0-.32-.296-.552t-.296-.344v-.032q0-.192.336-.192h3.504q2.70399 0 4.584 1.56t1.88 4.024q0 2.64-1.672 4.208t-4.216 1.568zm2.432-.656h1.552q1.92 0 3.208-1.24t1.288-3.368q0-2.416-1.56-3.928t-3.672-1.512h-1.12q-.448 0-.448.512v8.656q0 .416.2.648t.552.232"/>

<path fill="#fff" stroke="#000" stroke-opacity=".25" stroke-width="1.5" d="M369.61245 421.7648v12.192c0 .09066.04872.19908.18313.34357.15593.16762.28174.3195.3756.46662.09346-.1507.22032-.30541.37847-.47573.12766-.13747.174-.24203.174-.33446v-4.4928c0-.06807-.03784-.13881-.16927-.24738-.4656-.38463-.71393-.69775-.71393-1.13502v-.0768c0-.52352.32825-.89866.83603-1.14044l2.30284-1.07465c.67969-.3186 1.28837-.12276 1.54854.41923.54505-.37457 1.21577-.56694 1.99538-.56694.7445 0 1.37333.23756 1.83683.71998.2061.21451.3654.45708.47535.72496.0558-.03403.1149-.06714.17697-.09963l2.05548-1.01817c-.72061-.00727-1.34095-.22525-1.82753-.65874-.51442-.4583-.7791-1.06946-.7791-1.7792 0-.69845.26592-1.3028.7791-1.76.49665-.44247 1.13266-.6604 1.8717-.6604.74274 0 1.37667.2203 1.86275.6697.49505.4577.74965 1.05816.74965 1.7507 0 .70477-.25733 1.31476-.75969 1.7799-.16065.1483-.33806.27118-.53221.36675.09264.02598.18298.06465.27065.11646.38121.22526.57965.61312.57965 1.05849v7.0848c0 .09529.048.19814.18353.33367.11454.11453.21383.22186.29683.32573-.11604-.2647-.17556-.54895-.17556-.8514 0-.5536.19068-1.02742.58157-1.35908.26611-.2258.5854-.36386.94456-.419-.22814-.16708-.4372-.3636-.62737-.58714-.48727-.57276-.72596-1.30556-.72596-2.16598 0-1.0646.48016-1.96117 1.39082-2.63006.8615-.6328 1.95425-.94234 3.25678-.94234 1.29497 0 2.38033.25946 3.2452.79343l.1713.11095c.83162.56548 1.2887 1.29087 1.2887 2.14962 0 .49373-.19533.93176-.56229 1.26535-.23643.21494-.51237.359-.8172.4287a4.6 4.6 0 0 1 .1822.10835c.41957.26224.75754.63054 1.00972 1.09286.25586.46909.37957 1.01755.37957 1.63594 0 1.04886-.49822 1.92934-1.43421 2.58292-.88075.615-2.02734.91268-3.42459.91268-1.32424 0-2.43548-.24534-3.32655-.75028-.46317-.26246-.8301-.56804-1.08722-.91454.0377.10857.05657.22001.05657.33882v.0768c0 .68937-.52362 1.0764-1.1916 1.0764h-3.5328c-.6597 0-1.1724-.39617-1.1724-1.0764v-.0768c0-.37892.19383-.69516.55865-1.09839.12363-.13663.17095-.24872.17095-.36081v-4.3392c0-.09674-.02812-.19217-.09447-.29553-.29655.6989-.9005 1.10313-1.76673 1.10313-.51044 0-.95258-.14738-1.28866-.46028-.2974-.27688-.49245-.6057-.56209-.9771-.01045-.05573-.02606-.1083-.04732-.1585-.00895.02123-.02093.05065-.03748.09136-.12698.31257-.19445.71739-.19445 1.21532v3.84c0 .0403.00792.06025.04033.09524.13548.14632.2684.27127.3982.3751.3212.25697.52147.57741.52147.96966v.0768c0 .68023-.51268 1.0764-1.1724 1.0764h-3.552c-.41545 0-.77507-.14972-.98739-.42897-.2007.27324-.53715.42897-.9326.42897h-2.3808c-.35285 0-.65226-.1187-.86211-.31775-.59948.33993-1.30919.50975-2.1139.50975-1.43738 0-2.68812-.50858-3.71167-1.50987-1.0355-1.013-1.55033-2.38212-1.55033-4.05933 0-1.58685.51495-2.9227 1.54067-3.9633 1.02404-1.03888 2.28518-1.5675 3.74053-1.5675.53742 0 1.03765.07801 1.4964.23491v-1.80811c0-.06747-.00903-.09131-.03062-.11377-.12976-.13494-.2559-.24596-.3776-.33358-.3378-.2432-.55178-.56846-.55178-.97345v-.0576c0-.58455.37995-1.00068.93418-1.1589l2.49705-.76221c.93828-.31276 1.73597.09632 1.73597 1.09551Zm-10.5408.7104v.0768c0 .3968-.21148.71402-.61667 1.12885-.14057.14392-.18973.2481-.18973.33035v9.9456c0 .09528.048.19814.18352.33367.4083.4083.62287.72505.62287 1.12553v.0576c0 .68023-.51268 1.0764-1.1724 1.0764h-3.5904c-.6597 0-1.1724-.39617-1.1724-1.0764v-.0576c0-.37892.19383-.69516.55865-1.09839.12363-.13663.17095-.24872.17095-.36081v-9.9456c0-.09924-.04828-.21233-.1768-.35775-.36185-.40948-.5528-.72604-.5528-1.10145v-.0768c0-.67993.51875-1.0572 1.1724-1.0572h3.5904c.65366 0 1.1724.37727 1.1724 1.0572Zm28.52837 11.26609c.0593.19769.17264.38187.34956.55878.11632.11633.26665.17393.49686.17393.24265 0 .40874-.05378.52925-.15372.0807-.06692.12235-.16647.12235-.36348 0-.22366-.0701-.36388-.2421-.4906-.28336-.2088-.64027-.37057-1.07556-.48205-.21655-.05545-.43306-.11407-.64952-.17673.21135.28515.36825.59752.46916.93387Zm-24.32513-5.35386-.0882.14223c-.19397.3536-.3041.86019-.3139 1.53664-.02331.66419.044 1.34894.20296 2.05547.15256.67805.39706 1.25872.73173 1.74702.26484.3864.50235.5419.71576.54761.21427 0 .39488-.08651.58347-.2973.19323-.21595.29853-.54013.29853-1.0071v-3.3792c0-.45269-.1507-.8637-.46785-1.25774-.28743-.35711-.56613-.50746-.87495-.50746-.34267 0-.58142.12592-.78755.41983Zm24.93546-.32512c-.10056.10894-.1467.2307-.1467.40329 0 .1959.04357.33242.12666.43767.11139.1411.25707.24942.4486.32922.28086.11703.5943.22644.94009.32779a5.7 5.7 0 0 1 .10505.03163c-.20969-.29125-.3639-.60868-.46115-.94907-.05854-.2049-.16403-.39479-.32243-.57519-.08544-.0973-.17979-.13845-.33882-.13845-.16691 0-.26662.04137-.3513.13311Zm-27.8699-22.96173.232.16645c1.12507.8422 1.7248 1.8332 1.7248 2.95697 0 .57981-.19806 1.08538-.5916 1.46855-.3926.38228-.9142.56785-1.5216.56785-.56567 0-1.07944-.19388-1.50974-.56805-.35572-.30932-.66251-.6813-.91998-1.11294q-.32058-.53745-.66978-1.08485c-.18011-.28233-.41653-.52119-.71493-.72012-.25812-.17208-.55467-.25804-.90878-.25804-.56832 0-1.04799.25094-1.48693.80205-.46294.58125-.70067 1.36045-.70067 2.36475 0 1.67293.40885 3.0224 1.2174 4.07407.78093 1.01577 1.63485 1.49273 2.6022 1.49273 1.22108 0 2.19214-.64737 3.01608-2.10171.33494-.4745.86077-.66957 1.41647-.50871.55624.16101.8707.6126.87068 1.17145.20062-.32526.4632-.61425.7867-.8631.02576-.01982.05173-.03932.07957-.05571-.2404-.08177-.457-.21096-.6446-.38718-.36655-.34434-.5533-.80271-.5533-1.32424 0-.95578.51526-1.72635 1.44987-2.24838.83002-.46362 1.82869-.69042 2.98653-.69042 1.41776 0 2.61332.41356 3.55052 1.24494l.33339.3258c.73553.79252 1.17439 1.81017 1.31525 3.0267l.42135 3.54356c.02585.1982.06908.33728.11819.41817.03096.051.0313.05133-.03326.02623.17178.0668.32934.1505.4713.2519.2894.20671.44846.52486.44846.8791 0 1.0265-.92786 1.3068-2.5932 1.3068-.68013 0-1.20883-.09427-1.60533-.3167-.11418-.06405-.21693-.13958-.3079-.22603-.61658.41543-1.40854.61953-2.34917.61953-1.22792 0-2.25581-.29476-3.0612-.8988-.82263-.61698-1.25834-1.50365-1.29466-2.58675-.2994.70827-.74273 1.3458-1.32282 1.91-1.08388 1.05418-2.55254 1.57555-4.36292 1.57555-1.99948 0-3.73453-.82225-5.1599-2.432-1.40683-1.5888-2.1181-3.43243-2.1181-5.4988 0-2.16652.65835-3.9814 1.97543-5.40528 1.32914-1.43691 3.06267-2.16072 5.14898-2.16072 1.6197 0 3.0483.41787 4.2652 1.25538Zm22.6736-.73578v12.192c0 .09066.04872.19908.18313.34357.15001.16126.27215.30796.36485.44987.08925-.14302.20786-.29046.35386-.45182.12363-.13664.17095-.24873.17095-.36082v-4.3392c0-.13203-.05239-.26163-.18241-.41218-.37164-.43033-.54719-.7075-.54719-1.06622v-.0576c0-.49848.30938-.80786.81995-1.0751l2.05548-1.01816c-.72061-.00727-1.34095-.22525-1.82753-.65875-.51442-.4583-.7791-1.06945-.7791-1.77919 0-.69845.26592-1.3028.7791-1.76.49665-.44247 1.13266-.6604 1.8717-.6604.74274 0 1.37667.2203 1.86275.6697.49505.4577.74965 1.05816.74965 1.7507 0 .70478-.25733 1.31477-.75968 1.7799-.16066.1483-.33807.27118-.53222.36675.09265.02598.18298.06465.27065.11645.38121.22527.57965.61313.57965 1.0585v7.0848c0 .09528.048.19814.18354.33367.19315.19315.34295.36582.4466.53653.09537-.16365.23062-.33082.40307-.51654.12766-.13747.174-.24203.174-.33446v-4.4928c0-.06807-.03784-.13881-.16927-.24738-.4656-.38463-.71394-.69775-.71394-1.13502v-.0768c0-.52352.32826-.89866.83604-1.14044l2.30284-1.07465c.67969-.3186 1.28837-.12276 1.54854.41923.54505-.37457 1.21577-.56694 1.99538-.56694.7445 0 1.37333.23756 1.83683.71998.4527.47117.67957 1.07772.67957 1.77722 0 1.39473-.70648 2.2668-1.9788 2.2668-.51043 0-.95258-.14738-1.28866-.46028-.2974-.27688-.49245-.6057-.56209-.9771-.01045-.05573-.02606-.1083-.04732-.1585-.00895.02123-.02093.05064-.03748.09136-.12698.31257-.19445.71738-.19445 1.21532v3.84c0 .0403.00792.06025.04033.09524.13548.14632.2684.27127.3982.3751.3212.25697.52147.57741.52147.96966v.0768c0 .68023-.51268 1.0764-1.1724 1.0764h-3.552c-.43649 0-.81135-.16527-1.0176-.47314-.20624.30787-.5811.47314-1.0176.47314h-3.5328c-.402 0-.74941-.1471-.95869-.41668-.2014.26572-.53355.41668-.9229.41668h-2.3808c-.35285 0-.65226-.1187-.86211-.31775-.59948.33993-1.30919.50975-2.1139.50975-1.43738 0-2.68812-.50858-3.71167-1.50987-1.0355-1.013-1.55033-2.38212-1.55033-4.05933 0-1.58685.51494-2.9227 1.54067-3.9633 1.02404-1.03888 2.28518-1.5675 3.74053-1.5675.53742 0 1.03765.07801 1.4964.23491v-1.80811c0-.06747-.00903-.09131-.03062-.11377-.12976-.13494-.2559-.24596-.3776-.33358-.3378-.2432-.55178-.56846-.55178-.97345v-.0576c0-.58455.37995-1.00068.93418-1.1589l2.49705-.76221c.93828-.31276 1.73597.09632 1.73597 1.09551Zm-6.33756 6.62263-.0882.14223c-.19397.3536-.3041.86019-.3139 1.53664-.02331.66419.044 1.34894.20296 2.05547.15256.67805.39706 1.25872.73173 1.74702.26484.3864.50235.5419.71576.54761.21427 0 .39488-.08651.58347-.2973.19323-.21595.29853-.54013.29853-1.0071v-3.3792c0-.45269-.1507-.8637-.46785-1.25774-.28743-.35711-.56613-.50746-.87495-.50746-.34267 0-.58142.12592-.78755.41983Zm-10.22056 3.5916-.02407.02857c-.11677.14666-.17942.35134-.17942.6436 0 .55809.11556 1.01049.33908 1.37192.17112.2767.32615.37408.52372.37408.1803 0 .29496-.0595.41105-.21913.15329-.21077.21918-.43955.2049-.69482l-.05712-.66658c-.03687-.39633-.14-.66328-.29072-.8245-.13272-.14198-.27644-.20377-.4793-.20377-.198 0-.3296.05765-.44812.19063Zm-.22843-3.9109c-.15007.17656-.2526.36452-.31226.56907-.0848.29079-.2093.5645-.37286.81912.19145-.02245.39002-.03192.59366-.03192.42372 0 .82125.0427 1.18934.13173-.0972-.59363-.2109-1.02726-.3343-1.29464-.10777-.2335-.23227-.31309-.49024-.31309-.12733 0-.19941.03276-.27334.11974ZM558.07276 122.832l.06057.04682c.10461.08655.18857.18734.25278.29967.58959-.35602 1.2846-.53648 2.06993-.53648 1.30073 0 2.36886.40725 3.15932 1.20817.23249-.24776.50246-.46204.80713-.64259.63669-.3773 1.35453-.56558 2.13915-.56558 1.16736 0 2.17057.39891 2.96612 1.18666.80148.79363 1.23923 2.01414 1.35339 3.6409l.2295 3.40576c.0127.1524.07467.29916.20033.45438.03311.0409.06467.08111.09368.12035-.1574-.40629-.23617-.85755-.23614-1.34683-.016-1.15194.4134-2.09495 1.27184-2.75529.02577-.01982.05174-.03932.07958-.05571-.2404-.08177-.457-.21096-.6446-.38718-.36655-.34434-.5533-.80271-.5533-1.32424 0-.95578.51526-1.72635 1.44987-2.24838.83002-.46362 1.82869-.69042 2.98653-.69042 1.41776 0 2.61332.41356 3.55052 1.24494.93745.83162 1.48766 1.96218 1.64864 3.3525l.42135 3.54356c.02585.1982.06908.33728.11819.41817.03096.051.0313.05133-.03326.02623.17178.0668.32934.1505.4713.2519.2894.20671.44847.52486.44847.8791 0 1.0265-.92787 1.3068-2.5932 1.3068-.68014 0-1.20884-.09427-1.60534-.3167-.11418-.06404-.21693-.13958-.3079-.22603-.61658.41543-1.40854.61953-2.34916.61953-1.22793 0-2.25582-.29476-3.0612-.8988-.2785-.20888-.51266-.44866-.7013-.71695a1.09 1.09 0 0 1 .0389.28975v.0768c0 .68023-.5127 1.0764-1.1724 1.0764h-3.3216c-.66797 0-1.1916-.38703-1.1916-1.0764v-.0768c0-.37337.18846-.68918.54243-1.09097.10713-.12162.14004-.21136.13068-.3273l-.19225-3.51843c-.04583-.95103-.18343-1.60328-.37638-1.92945-.13407-.22663-.28569-.31345-.54489-.31345-.21062 0-.35548.0737-.49688.26009-.17234.22718-.27698.53604-.30374.9439.0488.2836.07222.6045.07222.96441v3.552c0 .12512.04678.24539.16217.38386.33226.39872.50983.71327.50983 1.07534v.0768c0 .68023-.51268 1.0764-1.1724 1.0764h-3.3216c-.66797 0-1.1916-.38703-1.1916-1.0764v-.0768c0-.36775.18305-.683.52616-1.0833.11808-.13775.16505-.25517.16505-.3759v-3.744c0-.73753-.12217-1.272-.34003-1.60786-.1737-.26778-.34525-.36854-.58038-.36854-.277 0-.45586.088-.60727.29209-.1917.25837-.29393.61393-.29393 1.08911v4.3392c0 .09118.04818.19201.18686.32747.41917.40942.63874.72602.63874 1.13173v.0768c0 .68937-.52362 1.0764-1.1916 1.0764h-3.5712c-.31938 0-.60577-.08848-.81684-.25712-.43526.26356-1.14098.35312-2.08236.35312-.68013 0-1.20883-.09427-1.60533-.3167-.11418-.06404-.21693-.13958-.3079-.22603-.61658.41543-1.40854.61953-2.34917.61953-1.22792 0-2.25581-.29476-3.0612-.8988-.86125-.64594-1.2984-1.58748-1.29832-2.73998-.016-1.15194.4134-2.09495 1.27184-2.75529.02577-.01982.05174-.03932.07958-.05571-.2404-.08177-.457-.21096-.6446-.38718-.36655-.34434-.5533-.80271-.5533-1.32424 0-.95578.51526-1.72635 1.44987-2.24838.83002-.46362 1.82869-.69042 2.98654-.69042 1.41775 0 2.6133.41356 3.5505 1.24494.93746.83162 1.48767 1.96218 1.64865 3.3525l.42135 3.54356c.02585.1982.06908.33728.11819.41817.03096.051.0313.05133-.03326.02623.17178.0668.32934.1505.4713.2519a.1.1 0 0 1 .00687.00522c.05882-.06458.12393-.1311.19474-.20025.13868-.13546.18685-.23629.18685-.32747v-4.4736c0-.05825-.0084-.08067-.0315-.10569-.12465-.13505-.24917-.2494-.3731-.34359-.32928-.25024-.5362-.57303-.5362-.97152v-.0768c0-.51341.3271-.84051.8396-1.08449l2.41346-1.11092c.43881-.2065.87871-.23188 1.25766.0418Zm28.24688.98241-.00004.0079-.05756 5.4641c0 1.37994.29372 1.8612.8436 1.8612.2313 0 .40626-.09246.58191-.32547.20837-.2764.3193-.659.3193-1.17093v-3.8976c0-.12137-.05098-.2399-.18314-.38197-.39778-.4276-.58487-.70356-.58487-1.07723v-.0576c0-.61856.41437-1.05365 1.02388-1.14507l2.48921-.3688c.86727-.0913 1.55811.23594 1.55811 1.09147v7.0272c0 .18118.01636.30767.03475.37335.14484.04354.2818.1083.40888.19301.3247.21647.47797.5639.47797.95044 0 1.01284-.90216 1.3068-2.4588 1.3068-.69918 0-1.25725-.12354-1.67695-.4066-.10323-.06961-.1959-.14853-.27759-.23657-.66054.48104-1.51675.71997-2.53826.71997-1.2368 0-2.28717-.4288-3.10334-1.27607-.81787-.84903-1.21785-2.0185-1.21785-3.46753v-3.2448c0-.1255-.05074-.24648-.17994-.38894-.38614-.42573-.56887-.70217-.56887-1.07026v-.0576c0-.6282.4292-1.05738 1.04137-1.14482l2.44025-.36766c.90839-.11078 1.62798.20514 1.62798 1.09008Zm-41.78623-4.19208-.00826-.04823.4626 2.25547c.15221.7915-.33188 1.39084-1.1397 1.39084h-.096c-.42373 0-.80276-.2041-1.15434-.55567-.25985-.25985-.49044-.54252-.69124-.84744-.13118-.1992-.30242-.3878-.51616-.56592-.14103-.11753-.25073-.16217-.34546-.16217h-2.5344a.07.07 0 0 1-.00548-.0002c.00392.0122.00667.03038.00667.0566v3.9348h1.80916c-.00745-.00064-.00526-.00443.01465-.02275.0943-.08675.1634-.17711.21137-.27306.11165-.2233.24074-.42902.3874-.61642.2438-.31152.55222-.50857.93623-.50857h.1536c.68023 0 1.0764.51269 1.0764 1.1724v3.0912c0 .65224-.40554 1.1532-1.0764 1.1532h-.1536c-.37485 0-.68158-.18745-.92607-.48627-.14589-.1783-.27495-.3719-.38709-.58015-.04602-.08547-.11443-.16967-.20952-.25335-.02513-.02211-.02617-.0241-.01778-.02423h-1.81835v3.2244c0 .0781.0494.18034.19313.32407.41604.41603.63247.73314.63247 1.13513v.0576c0 .69826-.53384 1.0764-1.2108 1.0764h-3.6096c-.66796 0-1.1916-.38703-1.1916-1.0764v-.0576c0-.38085.19618-.69775.56887-1.10866.13143-.14491.17994-.25561.17994-.35054v-9.9456c0-.10783-.0475-.21743-.174-.35366-.37569-.40459-.5748-.72114-.5748-1.10554v-.0768c0-.67993.51874-1.0572 1.1724-1.0572h8.6976c.73196 0 1.23725.47269 1.33816 1.20432Zm3.35932 9.3567-.02407.02858c-.11677.14666-.17941.35134-.17941.6436 0 .55809.11555 1.01049.33907 1.37192.17112.2767.32615.37408.52373.37408.18028 0 .29494-.0595.41104-.21913.15329-.21076.21918-.43955.2049-.69482l-.05712-.66658c-.03687-.39633-.14-.66328-.29072-.8245-.13272-.14198-.27644-.20377-.4793-.20377-.198 0-.3296.05765-.44812.19063Zm27.8208 0-.02407.02858c-.11677.14666-.17942.35134-.17942.6436 0 .55809.11556 1.01049.33908 1.37192.17112.2767.32615.37408.52373.37408.18029 0 .29494-.0595.41104-.21913.15329-.21076.21918-.43955.2049-.69482l-.05712-.66658c-.03687-.39633-.14-.66328-.29072-.8245-.13272-.14198-.27644-.20377-.4793-.20377-.198 0-.3296.05765-.44812.19063Zm16.46521 2.19508a.63.63 0 0 0-.0346-.0067c.01163.00194.02322.004.0346.0067Zm-44.51444-6.10596c-.15007.17655-.2526.3645-.31226.56906-.0848.29079-.2093.5645-.37286.81912.19145-.02245.39002-.03192.59366-.03192.42372 0 .82125.0427 1.18934.13173-.0972-.59363-.2109-1.02726-.3343-1.29464-.10777-.2335-.23227-.31309-.49023-.31309-.12734 0-.19943.03276-.27335.11974Zm27.8208 0c-.15007.17655-.2526.3645-.31226.56906-.0848.29079-.2093.5645-.37286.81912.19145-.02245.39002-.03192.59366-.03192.42372 0 .82125.0427 1.18934.13173-.0972-.59363-.2109-1.02726-.3343-1.29464-.10777-.2335-.23227-.31309-.49024-.31309-.12733 0-.19941.03276-.27334.11974Zm2.51524-18.81426c.783.68712 1.1961 1.52177 1.1961 2.46452 0 .8877-.45764 1.57415-1.28421 1.94987l-3.47849 1.58255c.36407.40632.8322.59438 1.4399.59438.36463 0 .68028-.07603.95834-.22646.27706-.14988.46791-.32396.63046-.58714.2992-.39892.7638-.56787 1.24297-.42043.51115.15727.79334.60407.7564 1.15341-.08394.87293-.56389 1.68483-1.39684 2.4345-.84883.76394-1.94366 1.14292-3.24733 1.14292-1.55496 0-2.8637-.5265-3.87875-1.57141-.61245-.63046-1.0392-1.37936-1.27763-2.23896-.25446.84935-.71487 1.60084-1.37675 2.24446-1.07105 1.0415-2.42112 1.56591-4.00766 1.56591-1.7098 0-3.15316-.53988-4.2889-1.61701-1.14101-1.08212-1.7219-2.42754-1.7219-3.99059 0-1.57716.57255-2.91062 1.70109-3.95006 1.11264-1.0248 2.46564-1.54234 4.0217-1.54234 1.65885 0 3.07243.53377 4.20054 1.59595.69245.652 1.17744 1.40656 1.4478 2.2543.24504-.8762.70385-1.64717 1.37263-2.30181 1.04922-1.02705 2.33205-1.54844 3.80783-1.54844 1.33355 0 2.40443.32891 3.1827 1.01188Zm5.35901-5.94346.06902.04254c.33457.2221.51048.58278.51048.99264v12.2112c0 .0755.04697.17164.18685.30827.41917.40942.63874.72602.63874 1.13173v.0768c0 .68937-.52362 1.0764-1.1916 1.0764h-3.5328c-.66796 0-1.1916-.38703-1.1916-1.0764v-.0768c0-.3844.19912-.70095.57481-1.10554.12766-.13748.174-.24203.174-.33446v-9.4464c0-.13814-.04991-.25843-.174-.39206-.38917-.4191-.5748-.69518-.5748-1.06714v-.0768c0-.53033.3464-.87674.80286-1.05694l2.4718-1.21382c.44724-.1789.86354-.2062 1.23624.00678Zm-35.69606 1.83487.00438.01237 2.39679 6.96845 2.37154-6.98082c.26024-.71566.83403-1.12729 1.58804-1.12729h2.208c.64541 0 1.1532.38689 1.1532 1.0572v.0768c0 .36403-.1707.67574-.45238.94518-.10076.09638-.1923.21025-.27478.34314-.01666.02684-.02385.06817-.01533.1284l1.8459 9.82638c.02766.166.11007.33266.2607.50772.3477.40408.5367.7361.5367 1.11318v.0576c0 .68937-.52363 1.0764-1.1916 1.0764h-3.456c-.66798 0-1.1916-.38703-1.1916-1.0764v-.0576c0-.37609.19259-.6746.57904-1.0997.10244-.1127.12255-.17568.10435-.26767l-.85619-4.8558-2.2825 6.30674c-.21087.63264-.68328 1.03123-1.3259 1.03123-.62607 0-1.1201-.34716-1.41134-.98238l-2.54238-6.6789-.7969 5.16737c-.01338.08362.01238.1593.12157.2794.38645.4251.57904.72362.57904 1.09971v.0576c0 .68023-.51268 1.0764-1.1724 1.0764h-2.1696c-.6597 0-1.1724-.39617-1.1724-1.0764v-.0576c0-.37163.1834-.70277.52054-1.10545.1475-.17618.22933-.34544.25702-.51148l1.59035-9.86567c.00764-.05863-.02082-.13398-.13766-.2625-.38058-.41864-.57905-.73618-.57905-1.1189v-.0576c0-.67086.50096-1.0764 1.1532-1.0764h2.112c.78365 0 1.38235.4032 1.64565 1.1273Zm14.92516 7.49471c0 .62144.09597 1.28457.28995 1.98993.18674.67907.47207 1.2721.85604 1.78407.30994.41325.59627.5832.888.5832.25355 0 .41791-.09836.57385-.36172.21014-.3549.32736-.91234.32736-1.67228 0-.66125-.09632-1.3471-.29038-2.05866-.1874-.68713-.46425-1.2744-.82925-1.7666-.29179-.39346-.55045-.55114-.79917-.55114-.672 0-1.0164.54656-1.0164 2.0532Zm11.33252-1.69108c-.21613.3524-.33093.82904-.33093 1.44148 0 .18225.00589.35624.01817.52106l1.56522-.78868c.06524-.03262.08461-.06765.08461-.23158 0-.28982-.09992-.61003-.31474-.96644-.1522-.25253-.28796-.33796-.47126-.33796-.22824 0-.38837.09685-.55107.36212Z"/>
</g>

</svg>